<?xml version="1.0" encoding="utf-8"?>
<!-- Generator: Adobe Illustrator 24.2.1, SVG Export Plug-In . SVG Version: 6.00 Build 0)  -->
<svg version="1.1" id="Layer_1" xmlns="http://www.w3.org/2000/svg" xmlns:xlink="http://www.w3.org/1999/xlink" x="0px" y="0px"
	 width="190px" height="62px" viewBox="0 0 190 62" enable-background="new 0 0 190 62" xml:space="preserve">
<g>
	<g>
		<path fill="#BB0E3D" d="M111.5815353,9.6297169h2.4186478v10.8374119h-2.4186478l-5.1628876-6.7908258v6.7908258H104V9.629714
			h2.2636108l5.3179245,6.9768763C111.5815353,16.6065903,111.5815353,9.629714,111.5815353,9.6297169z"/>
		<path fill="#BB0E3D" d="M124.3874664,20.4671288l-1.0072556-2.3411293h-4.542717l-1.0077667,2.3411293h-2.5736923
			l4.6827774-10.8374147h2.3411331l4.682251,10.8374147h-2.5747223H124.3874664z M121.1166077,12.8545828l-1.3648834,3.1473455
			h2.7132263L121.1166077,12.8545828z"/>
		<path fill="#BB0E3D" d="M132.0155182,11.7232952v8.7443504h-2.4186401v-8.7443504h-3.0698318V9.6302328h8.558815v2.0930624
			h-3.0703278H132.0155182z"/>
		<path fill="#BB0E3D" d="M136.8522949,9.6297169h2.4186554v10.8374119h-2.4186554
			C136.8522949,20.4671288,136.8522949,9.629714,136.8522949,9.6297169z"/>
		<path fill="#BB0E3D" d="M151.0541229,18.9709759c-1.0956268,1.069788-2.4439697,1.604681-4.0465851,1.604681
			c-1.6020966,0-2.9509735-0.534893-4.0465851-1.604681c-1.0956268-1.069788-1.6434479-2.4005623-1.6434479-3.992322
			s0.547821-2.9225349,1.6434479-3.9923229c1.0956116-1.069787,2.4444885-1.604681,4.0465851-1.604681
			c1.6026154,0,2.9509583,0.534894,4.0465851,1.604681s1.6439667,2.4010792,1.6439667,3.9923229
			C152.6980896,16.5704136,152.1497498,17.9017067,151.0541229,18.9709759z M150.2324066,14.9864054
			c0-0.9664259-0.3100891-1.7907314-0.9302521-2.4729147s-1.3824615-1.0232744-2.2868652-1.0232744
			c-0.9049377,0-1.6672211,0.3410912-2.2868652,1.0232744c-0.620163,0.6821833-0.9307709,1.5070057-0.9307709,2.4729147
			c0,0.9664259,0.3106079,1.7881479,0.9307709,2.4651632c0.6196442,0.6770153,1.3819275,1.015522,2.2868652,1.015522
			c0.9044037,0,1.6667023-0.3385067,2.2868652-1.015522C149.9223175,16.7750702,150.2324066,15.9533501,150.2324066,14.9864054z"/>
		<path fill="#BB0E3D" d="M162.3256531,9.6297169h2.4186554v10.8374119h-2.4186554l-5.1628876-6.7908258v6.7908258h-2.4186554
			V9.629714h2.2636108l5.3179321,6.9768763C162.3256531,16.6065903,162.3256531,9.629714,162.3256531,9.6297169z"/>
		<path fill="#BB0E3D" d="M175.1315765,20.4671288l-1.0072632-2.3411293h-4.5427094l-1.0077667,2.3411293h-2.5737
			l4.682785-10.8374147h2.3411407l4.682251,10.8374147h-2.5747223H175.1315765z M171.8607178,12.8545828l-1.3648834,3.1473455
			h2.7132263L171.8607178,12.8545828z"/>
		<path fill="#BB0E3D" d="M178.9611053,20.4671288V9.629714h2.4186554v8.6823339H186v2.1550808H178.9611053z"/>
	</g>
	<g>
		<path fill="#BB0E3D" d="M109.6275024,34.3411484c1.1886444,0,2.1602402-0.470295,2.9147873-1.410881l1.5504227,1.5969315
			c-1.2300034,1.3850365-2.6796417,2.0775566-4.3489304,2.0775566c-1.6687622,0-3.0439911-0.5271416-4.1235886-1.5814247
			C104.5405884,33.9690475,104,32.6382751,104,31.0310078c0-1.6072655,0.549881-2.9483757,1.6506805-4.0233307
			c1.1007919-1.074955,2.4470673-1.6124344,4.0388336-1.6124344c1.7772903,0,3.2656937,0.6775341,4.46521,2.0310478
			l-1.5039062,1.7054577c-0.7643585-0.950922-1.7152786-1.4263821-2.8527603-1.4263821
			c-0.909584,0-1.6878815,0.297163-2.3333893,0.8914871c-0.6465225,0.5943279-0.9690094,1.3953762-0.9690094,2.4031487
			c0,1.0077686,0.3043976,1.8165722,0.9147415,2.4264011C108.0197067,34.0367508,108.7592545,34.3411484,109.6275024,34.3411484z"/>
		<path fill="#BB0E3D" d="M123.6432648,36.4807205l-1.0072556-2.3411255h-4.5427246l-1.0077744,2.3411255h-2.5737
			l4.6827774-10.8374119h2.3411331l4.682251,10.8374119h-2.5747223H123.6432648z M120.3723984,28.8681755l-1.3648758,3.1473465
			h2.7132263L120.3723984,28.8681755z"/>
		<path fill="#BB0E3D" d="M135.0543518,25.6433105h2.4186401v10.83741h-2.4186401l-5.1628876-6.790823v6.790823h-2.4186478
			V25.6433086h2.2636032l5.3179474,6.9768734v-6.9768734L135.0543518,25.6433105z"/>
		<path fill="#BB0E3D" d="M145.1165466,34.3411484c1.1886597,0,2.1602478-0.470295,2.9147949-1.410881l1.550415,1.5969315
			c-1.2299957,1.3850365-2.6796265,2.0775566-4.3489227,2.0775566c-1.6687622,0-3.0439911-0.5271416-4.1235962-1.5814247
			c-1.0795898-1.0542831-1.6201935-2.3850555-1.6201935-3.9923229c0-1.6072655,0.549881-2.9483757,1.6506805-4.0233307
			s2.4470673-1.6124344,4.0388489-1.6124344c1.7772827,0,3.265686,0.6775341,4.4651947,2.0310478l-1.5039062,1.7054577
			c-0.7643433-0.950922-1.715271-1.4263821-2.8527527-1.4263821c-0.9095917,0-1.6878815,0.297163-2.3333893,0.8914871
			c-0.6465302,0.5943279-0.9690094,1.3953762-0.9690094,2.4031487c0,1.0077686,0.3043976,1.8165722,0.9147339,2.4264011
			C143.5087585,34.0367508,144.2483063,34.3411484,145.1165466,34.3411484z"/>
		<path fill="#BB0E3D" d="M159.3028564,25.6433105v2.1550808h-5.3954468v2.2325993h4.8533173v2.0620537h-4.8533173v2.2481041
			h5.5665131v2.139576h-7.9846649V25.6433125h7.8135834L159.3028564,25.6433105z"/>
		<path fill="#BB0E3D" d="M170.4193573,29.2407932c0,1.7364674-0.6873474,2.857935-2.0620575,3.3644047l2.7447662,3.8760414
			h-2.9768066l-2.4031525-3.457428h-1.6744385v3.457428h-2.4186554V25.6438255h4.1086121
			c1.6847992,0,2.8858643,0.2842426,3.6047363,0.8527298c0.7173157,0.5684853,1.0770264,1.4832306,1.0770264,2.7442379H170.4193573z
			 M167.5045624,30.5271206c0.2997437-0.2687378,0.4496155-0.6951027,0.4496155-1.2790928
			c0-0.5834732-0.1555481-0.9845142-0.4651184-1.2015724c-0.3100891-0.2170582-0.8527222-0.3255882-1.6279297-0.3255882h-1.8139954
			v3.209362h1.7674713C166.64151,30.9302292,167.2048187,30.7963772,167.5045624,30.5271206z"/>
	</g>
	<g>
		<path fill="#BB0E3D" d="M104,41.6569023h2.4186478v10.83741H104C104,52.4943123,104,41.6568985,104,41.6569023z"/>
		<path fill="#BB0E3D" d="M116.6669083,41.6569023h2.4186478v10.83741h-2.4186478l-5.1628799-6.7908249v6.7908249h-2.4186478
			V41.6568985h2.2636108l5.3179398,6.9768753v-6.9768753L116.6669083,41.6569023z"/>
		<path fill="#BB0E3D" d="M124.2872086,43.8197327c-0.2325668,0.1917343-0.3493576,0.4444542-0.3493576,0.7597046
			s0.1421204,0.5659027,0.4263687,0.7519531c0.2842407,0.1860504,0.9405899,0.4056931,1.9695511,0.6589279
			c1.0279312,0.2532349,1.8263855,0.6330872,2.395401,1.1395531c0.5684814,0.5064697,0.8527222,1.2455025,0.8527222,2.2170982
			s-0.3643341,1.7597237-1.0930328,2.3643875c-0.7286987,0.60466-1.6878891,0.9069939-2.87603,0.9069939
			c-1.7157974,0-3.2615585-0.6356735-4.6357498-1.9070129l1.4418945-1.7674751
			c1.167984,1.0232735,2.2481079,1.5349121,3.2403641,1.5349121c0.4444504,0,0.7933044-0.0956078,1.0465317-0.2868271
			s0.3798447-0.4496193,0.3798447-0.7752075s-0.1348801-0.583477-0.4031067-0.7752075
			c-0.2692566-0.1912193-0.8010406-0.3850212-1.5969315-0.5814095c-1.2610016-0.2997475-2.1840286-0.6899338-2.7674942-1.1705627
			c-0.5839996-0.480629-0.875473-1.2351646-0.875473-2.2636108c0-1.0284424,0.3695145-1.8217392,1.1085434-2.3798866
			c0.7390289-0.5581512,1.6615295-0.8372269,2.7675018-0.8372269c0.7229996,0,1.4470444,0.1240349,2.1700668,0.3721008
			c0.7235184,0.2480659,1.3540268,0.5994949,1.8915176,1.0542831l-1.2248383,1.7674789
			c-0.9405823-0.713192-1.9121857-1.0697899-2.9147873-1.0697899c-0.4031067,0.0005188-0.7209396,0.0961266-0.9535065,0.2868271
			V43.8197327z"/>
		<path fill="#BB0E3D" d="M136.140152,43.7504807v8.7443504h-2.4186554v-8.7443504h-3.0698242v-2.0930634h8.5588226v2.0930634
			H136.140152z"/>
		<path fill="#BB0E3D" d="M140.9769287,41.6569023h2.4186554v10.83741h-2.4186554
			C140.9769287,52.4943123,140.9769287,41.6568985,140.9769287,41.6569023z"/>
		<path fill="#BB0E3D" d="M150.6515198,43.7504807v8.7443504h-2.4186401v-8.7443504h-3.0698395v-2.0930634h8.5588074v2.0930634
			H150.6515198z"/>
		<path fill="#BB0E3D" d="M158.3565674,49.6958122c0.4031372,0.5013046,0.9457703,0.7519531,1.6279602,0.7519531
			c0.6816559,0,1.2217407-0.2506485,1.6201935-0.7519531c0.3979492-0.5013008,0.5969238-1.1860695,0.5969238-2.0543022v-5.9846077
			h2.4186401v6.06213c0,1.5716057-0.4341278,2.777832-1.3023529,3.620224
			c-0.8687744,0.8423958-1.9798889,1.2635918-3.3334045,1.2635918c-1.3540344,0-2.4677582-0.4237823-3.3411713-1.2713432
			c-0.8733978-0.8475609-1.3100891-2.0517197-1.3100891-3.6124687v-6.06213h2.4186554v5.9846077
			C157.7519226,48.5097466,157.953476,49.1950302,158.3565674,49.6958122z"/>
		<path fill="#BB0E3D" d="M171.7211914,43.7504807v8.7443504h-2.4186401v-8.7443504h-3.0698242v-2.0930634h8.5587921v2.0930634
			H171.7211914z"/>
		<path fill="#BB0E3D" d="M184.3720856,41.6569023v2.1550789h-5.395462v2.2326012h4.8533173v2.0620537h-4.8533173v2.2481041
			h5.5665131v2.139576h-7.9846497V41.6569023C176.5584869,41.6569023,184.3720856,41.6569023,184.3720856,41.6569023z"/>
	</g>
</g>
<g>
	<g>
		<path fill="#606060" d="M79,31L64,4H9.7689991C6.5830002,4,4,6.5900002,4,9.7859993v42.4280052
			C4,55.4100037,6.5830002,58,9.7689991,58H64L79,31z"/>
		<path fill="#BB0E3D" d="M77.5009995,6.8150005C76.4459991,5.0690002,74.5410004,4,72.4860001,4H68l15.2009964,27L68,58h4.4860001
			c2.0550003,0,3.9599991-1.0690002,5.0149994-2.8150024L91,31L77.5009995,6.8150005z"/>
	</g>
	<g>
		<rect x="36" y="19" fill="#FFFFFF" width="4" height="24"/>
		<polygon fill="#FFFFFF" points="13,19 13,43 17,43 17,25.4000015 28,43 32,43 32,19 28,19 28,36.5999985 17,19 		"/>
		<polygon fill="#FFFFFF" points="48,19 44,19 44,43 48,43 48,33 59,33 59,43 63,43 63,19 59,19 59,29 48,29 		"/>
	</g>
</g>
</svg>
