<?xml version="1.0" encoding="UTF-8"?>
<!DOCTYPE svg PUBLIC "-//W3C//DTD SVG 1.1//EN" "http://www.w3.org/Graphics/SVG/1.1/DTD/svg11.dtd">
<svg version="1.1" xmlns="http://www.w3.org/2000/svg" xmlns:xlink="http://www.w3.org/1999/xlink" x="0" y="0" width="34" height="34" viewBox="0, 0, 34, 34">
  <g id="Layer_1" transform="translate(-282, -245.898)">
    <g id="Align__Front">
      <path d="M286.978,278.898 L311.022,278.898 C313.219,278.898 315,276.82 315,274.257 L315,251.538 C315,248.975 313.219,246.898 311.022,246.898 L286.978,246.898 C284.781,246.898 283,248.975 283,251.538 L283,274.257 C283,276.82 284.781,278.898 286.978,278.898 z" fill-opacity="0" stroke="#000000" stroke-width="0.5" id="Container" display="none"/>
      <g id="Magnets">
        <g id="Magnet">
          <g id="Block_L">
            <path d="M295.66,254.16 L297.629,250.749 L297.629,272.796 L295.66,276.207 L295.66,254.16 z" fill="#6D88A3" id="Side"/>
            <path d="M285.777,254.125 L295.694,254.125 L295.694,276.172 L285.777,276.172 L285.777,254.125 z" fill="#97B6D5"/>
            <path d="M287.723,250.802 L297.64,250.802 L295.696,254.17 L285.779,254.17 L287.723,250.802 z" fill="#7292B1" id="Top"/>
          </g>
          <g id="Block_C">
            <path d="M295.66,255.196 L302.357,255.196 L302.357,270 L295.66,270 L295.66,255.196 z" fill="#84909B" id="Front"/>
            <path d="M296.236,254.234 L302.934,254.234 L302.36,255.25 L295.662,255.25 L296.236,254.234 z" fill="#526374" id="Top"/>
            <path d="M302.36,255.29 L302.936,254.27 L302.936,269.074 L302.36,270.094 L302.36,255.29 z" fill="#526374" id="Side"/>
          </g>
          <g id="Block_R">
            <path d="M302.397,259.422 L309.675,259.422 L309.675,269.339 L302.397,269.339 L302.397,259.422 z" fill="#97B6D5" id="Front"/>
            <path d="M305.013,254.925 L312.267,254.925 L309.674,259.459 L302.419,259.459 L305.013,254.925 z" fill="#7292B1" id="Top"/>
            <path d="M309.651,259.24 L312.233,254.992 L312.233,265.107 L309.651,269.355 L309.651,259.24 z" fill="#6D88A4" id="Side"/>
          </g>
        </g>
      </g>
      <path d="M285,263.512 L313,263.512" fill-opacity="0" stroke="#000000" stroke-width="0.75" stroke-dasharray="2.25,1.5" id="Axis"/>
    </g>
  </g>
</svg>
