<?xml version="1.0" encoding="UTF-8"?>
<!DOCTYPE svg PUBLIC "-//W3C//DTD SVG 1.1//EN" "http://www.w3.org/Graphics/SVG/1.1/DTD/svg11.dtd">
<svg version="1.1" xmlns="http://www.w3.org/2000/svg" xmlns:xlink="http://www.w3.org/1999/xlink" x="0" y="0" width="34" height="34" viewBox="0, 0, 34, 34">
  <g id="Layer_1" transform="translate(-243.061, -243.39)">
    <g id="Align__Back">
      <path d="M248.039,276.39 L272.084,276.39 C274.28,276.39 276.061,274.312 276.061,271.749 L276.061,249.031 C276.061,246.468 274.28,244.39 272.084,244.39 L248.039,244.39 C245.842,244.39 244.061,246.468 244.061,249.031 L244.061,271.749 C244.061,274.312 245.842,276.39 248.039,276.39 z" fill-opacity="0" stroke="#000000" stroke-width="0.5" id="Container" display="none"/>
      <path d="M246.061,261.004 L274.061,261.004" fill-opacity="0" stroke="#000000" stroke-width="0.75" stroke-dasharray="2.25,1.5" id="Axis"/>
      <g id="Magnets">
        <g id="Magnet">
          <g id="Block_L">
            <path d="M256.721,251.652 L258.69,248.241 L258.69,270.288 L256.721,273.699 L256.721,251.652 z" fill="#51677C" id="Side"/>
            <path d="M246.838,251.618 L256.756,251.618 L256.756,273.665 L246.838,273.665 L246.838,251.618 z" fill="#97B6D5"/>
            <path d="M248.784,248.294 L258.701,248.294 L256.757,251.662 L246.84,251.662 L248.784,248.294 z" fill="#7292B1" id="Top"/>
          </g>
          <g id="Block_C">
            <path d="M258.123,251.956 L264.821,251.956 L264.821,266.761 L258.123,266.761 L258.123,251.956 z" fill="#84909B" id="Front"/>
            <path d="M258.7,250.994 L265.398,250.994 L264.824,252.011 L258.126,252.011 L258.7,250.994 z" fill="#526374" id="Top"/>
            <path d="M264.823,252.05 L265.4,251.031 L265.4,265.835 L264.823,266.855 L264.823,252.05 z" fill="#526374" id="Side"/>
          </g>
          <g id="Block_R">
            <path d="M262.762,257.672 L270.041,257.672 L270.041,267.589 L262.762,267.589 L262.762,257.672 z" fill="#97B6D5" id="Front"/>
            <path d="M265.378,253.175 L272.633,253.175 L270.039,257.709 L262.785,257.709 L265.378,253.175 z" fill="#7292B1" id="Top"/>
            <path d="M270.017,257.49 L272.598,253.242 L272.598,263.357 L270.017,267.605 L270.017,257.49 z" fill="#6D88A4" id="Side"/>
          </g>
        </g>
      </g>
    </g>
  </g>
</svg>
