<?xml version="1.0" encoding="utf-8"?>
<!-- Generator: Adobe Illustrator 24.0.1, SVG Export Plug-In . SVG Version: 6.00 Build 0)  -->
<svg  class="srw-beamline-item-icon" version="1.1" id="Aperture" xmlns="http://www.w3.org/2000/svg" xmlns:xlink="http://www.w3.org/1999/xlink" x="0px" y="0px"
	 viewBox="0 0 612 792" style="enable-background:new 0 0 612 792;" xml:space="preserve">
<style type="text/css">
	.aperture-st0{enable-background:new    ;}
	.aperture-st1{fill:#83B73C;}
	.aperture-st2{fill:#486421;}
	.aperture-st3{fill:#507024;}
	.aperture-st4{fill:#3A53A4;}
</style>
<g>
	<g>
		<g>
			<g class="aperture-st0">
				<g>
					<polygon class="aperture-st1" points="47.3,37.4 47.8,60.8 39,59.8 38.5,36.5 					"/>
				</g>
				<g>
					<polygon class="aperture-st2" points="47.3,37.4 52.8,36.4 53.3,59.7 47.8,60.8 					"/>
				</g>
				<g>
					<polygon class="aperture-st3" points="38.5,36.5 44.1,35.5 52.8,36.4 47.3,37.4 					"/>
				</g>
			</g>
		</g>
	</g>
	<g>
		<g>
			<g class="aperture-st0">
				<g>
					<polygon class="aperture-st1" points="47.3,2.9 47.8,26.2 39,25.3 38.5,1.9 					"/>
				</g>
				<g>
					<polygon class="aperture-st2" points="47.3,2.9 52.8,1.8 53.3,25.2 47.8,26.2 					"/>
				</g>
				<g>
					<polygon class="aperture-st3" points="38.5,1.9 44.1,0.9 52.8,1.8 47.3,2.9 					"/>
				</g>
			</g>
		</g>
	</g>
	<g>
		<path class="aperture-st4" d="M81.5,32.8c-1.1,0-2.1-0.9-2.1-2c0-1.1,0.8-2,1.9-2h0.2c1.1,0,2,0.9,2,2C83.5,31.9,82.6,32.8,81.5,32.8z
			 M73,32.8c-1.1,0-2.1-0.9-2.1-2c0-1.1,0.8-2,1.9-2H73c1.1,0,2,0.9,2,2C74.9,31.9,74.1,32.8,73,32.8z M64.4,32.8
			c-1.1,0-2.1-0.9-2.1-2c0-1.1,0.8-2,1.9-2h0.2c1.1,0,2,0.9,2,2C66.4,31.9,65.5,32.8,64.4,32.8z M55.9,32.8c-1.1,0-2.1-0.9-2.1-2
			c0-1.1,0.8-2,1.9-2h0.2c1.1,0,2,0.9,2,2C57.8,31.9,56.9,32.8,55.9,32.8z M47.3,32.8c-1.1,0-2.1-0.9-2.1-2c0-1.1,0.8-2,1.9-2h0.2
			c1.1,0,2,0.9,2,2C49.3,31.9,48.4,32.8,47.3,32.8z M38.7,32.8c-1.1,0-2.1-0.9-2.1-2c0-1.1,0.8-2,1.9-2h0.2c1.1,0,2,0.9,2,2
			C40.7,31.9,39.8,32.8,38.7,32.8z M30.2,32.8c-1.1,0-2.1-0.9-2.1-2c0-1.1,0.8-2,1.9-2h0.2c1.1,0,2,0.9,2,2
			C32.1,31.9,31.3,32.8,30.2,32.8z M21.6,32.8c-1.1,0-2.1-0.9-2.1-2c0-1.1,0.8-2,1.9-2h0.2c1.1,0,2,0.9,2,2
			C23.6,31.9,22.7,32.8,21.6,32.8z M13.1,32.8c-1.1,0-2.1-0.9-2.1-2c0-1.1,0.8-2,1.9-2h0.2c1.1,0,2,0.9,2,2
			C15,31.9,14.2,32.8,13.1,32.8z M4.5,32.8c-1.1,0-2.1-0.9-2.1-2c0-1.1,0.8-2,1.9-2h0.2c1.1,0,2,0.9,2,2C6.5,31.9,5.6,32.8,4.5,32.8
			z"/>
	</g>
	<g>
		<path class="aperture-st4" d="M38.7,16.6c-1.1,0-2.1-0.9-2.1-2s0.8-2,1.9-2h0.2c1.1,0,2,0.9,2,2S39.8,16.6,38.7,16.6z M30.2,16.6
			c-1.1,0-2.1-0.9-2.1-2s0.8-2,1.9-2h0.2c1.1,0,2,0.9,2,2S31.3,16.6,30.2,16.6z M21.6,16.6c-1.1,0-2.1-0.9-2.1-2s0.8-2,1.9-2h0.2
			c1.1,0,2,0.9,2,2S22.7,16.6,21.6,16.6z M13.1,16.6c-1.1,0-2.1-0.9-2.1-2s0.8-2,1.9-2h0.2c1.1,0,2,0.9,2,2S14.2,16.6,13.1,16.6z
			 M4.5,16.6c-1.1,0-2.1-0.9-2.1-2s0.8-2,1.9-2h0.2c1.1,0,2,0.9,2,2S5.6,16.6,4.5,16.6z"/>
	</g>
</g>
</svg>
