<?xml version="1.0" encoding="UTF-8"?>
<!DOCTYPE svg PUBLIC "-//W3C//DTD SVG 1.1//EN" "http://www.w3.org/Graphics/SVG/1.1/DTD/svg11.dtd">
<svg version="1.1" xmlns="http://www.w3.org/2000/svg" xmlns:xlink="http://www.w3.org/1999/xlink" x="0" y="0" width="32" height="31.813" viewBox="0, 0, 32, 31.813">
  <g id="cee">
    <path d="M21.099,16.604 L32,16.057 L24,23.935 L10.065,23.935 L21.099,16.604 z" fill="#526374" id="Top" display="none"/>
    <path d="M18.065,16.057 L32,16.057 L24,23.935 L10.065,23.935 L18.065,16.057 z" fill="#526374" id="Top"/>
    <path d="M10.065,23.935 L9.971,16.604 L17.542,16.604 L10.065,23.935 z" fill="#7581A1" id="Side"/>
    <path d="M0,7.813 L24,7.813 L24,16.604 L9.971,16.604 L10.065,23.935 L24,23.935 L24,31.813 L0,31.813 L0,7.813 z" fill="#97B6D5" id="Front"/>
    <path d="M24,7.813 L32,-0.065 L32,8.726 L24,16.604 L24,7.813 z" fill="#7581A1" id="Side"/>
    <path d="M24,23.935 L32,16.057 L32,23.935 L24,31.813 L24,23.935 z" fill="#7581A1" id="Side"/>
    <path d="M8,-0.065 L32,-0.065 L24,7.813 L0,7.813 L8,-0.065 z" fill="#526374" id="Top"/>
  </g>
</svg>
