<?xml version="1.0" encoding="UTF-8"?>
<!DOCTYPE svg PUBLIC "-//W3C//DTD SVG 1.1//EN" "http://www.w3.org/Graphics/SVG/1.1/DTD/svg11.dtd">
<svg version="1.1" xmlns="http://www.w3.org/2000/svg" xmlns:xlink="http://www.w3.org/1999/xlink" x="0" y="0" width="34" height="34" viewBox="0, 0, 34, 34">
  <g id="Layer_1" transform="translate(-403.927, -143.027)">
    <g id="Align_Z_Ctr">
      <path d="M408.904,176.027 L432.949,176.027 C435.146,176.027 436.927,173.95 436.927,171.387 L436.927,148.668 C436.927,146.105 435.146,144.027 432.949,144.027 L408.904,144.027 C406.707,144.027 404.927,146.105 404.927,148.668 L404.927,171.387 C404.927,173.95 406.707,176.027 408.904,176.027 z" fill-opacity="0" stroke="#000000" stroke-width="0.5" id="Container" display="none"/>
      <g id="Magnets">
        <g id="Magnet">
          <path d="M424.232,151.193 L434.149,151.193 L434.149,171.302 L424.232,171.302 L424.232,151.193 z" fill="#97B6D5"/>
          <path d="M413.609,147.371 L426.701,147.371 L426.701,168.643 L413.609,168.643 L413.609,147.371 z" fill="#526374"/>
          <path d="M408.078,153.502 L420.861,153.502 L420.861,173.302 L408.078,173.302 L408.078,153.502 z" fill="#97B6D5"/>
        </g>
      </g>
      <path d="M406.927,160.642 L434.927,160.642" fill-opacity="0" stroke="#000000" stroke-width="0.75" stroke-dasharray="2.25,1.5" id="Axis" display="none"/>
      <path d="M431.738,149.617 L410.115,171.906" fill-opacity="0" stroke="#000000" stroke-width="0.75" stroke-dasharray="2.25,1.5" id="Z_Axis"/>
    </g>
  </g>
</svg>
