<?xml version="1.0" encoding="UTF-8"?>
<!DOCTYPE svg PUBLIC "-//W3C//DTD SVG 1.1//EN" "http://www.w3.org/Graphics/SVG/1.1/DTD/svg11.dtd">
<svg version="1.1" xmlns="http://www.w3.org/2000/svg" xmlns:xlink="http://www.w3.org/1999/xlink" x="0" y="0" width="32" height="32" viewBox="0, 0, 32, 32">
  <g id="Layer_1" transform="translate(-276, -195.549)">
    <g id="Duplicate">
      <g id="Cube_Source">
        <path d="M276,208.523 L283.586,208.523 L283.586,217.496 L276,217.496 L276,208.523 z" fill="#97B6D5" id="Front"/>
        <path d="M279.793,205.602 L286.115,205.602 L283.586,208.593 L276,208.593 L279.793,205.602 z" fill="#526374" id="Top"/>
        <path d="M283.586,217.496 L283.586,208.523 L286.115,205.602 L286.115,213.01 L283.586,217.496 z" fill="#526374" id="Side"/>
      </g>
      <g id="Cube_Dupe_1" opacity="0.5">
        <path d="M288.77,208.523 L296.356,208.523 L296.356,217.496 L288.77,217.496 L288.77,208.523 z" fill="#97B6D5" id="Front"/>
        <path d="M292.563,205.602 L298.885,205.602 L296.356,208.593 L288.77,208.593 L292.563,205.602 z" fill="#526374" id="Top"/>
        <path d="M296.356,217.496 L296.356,208.523 L298.885,205.602 L298.885,213.01 L296.356,217.496 z" fill="#526374" id="Side"/>
      </g>
      <g id="Cube_Dupe_2" opacity="0.503">
        <path d="M297.885,208.523 L305.471,208.523 L305.471,217.496 L297.885,217.496 L297.885,208.523 z" fill="#97B6D5" id="Front"/>
        <path d="M301.678,205.602 L308,205.602 L305.471,208.593 L297.885,208.593 L301.678,205.602 z" fill="#526374" id="Top"/>
        <path d="M305.471,217.496 L305.471,208.523 L308,205.602 L308,213.01 L305.471,217.496 z" fill="#526374" id="Side"/>
      </g>
    </g>
  </g>
</svg>
