<?xml version="1.0" encoding="utf-8"?>
<!-- Generator: Adobe Illustrator 24.0.1, SVG Export Plug-In . SVG Version: 6.00 Build 0)  -->
<svg  class="srw-beamline-item-icon" version="1.1" id="CRL" xmlns="http://www.w3.org/2000/svg" xmlns:xlink="http://www.w3.org/1999/xlink" x="0px" y="0px"
	 viewBox="0 0 612 792" style="enable-background:new 0 0 612 792;" xml:space="preserve">
<style type="text/css">
	.crl-st0{fill:#BBD8F1;}
	.crl-st1{fill:#6396B6;}
	.crl-st2{fill:#3A53A4;}
</style>
<g>
	<rect x="58.8" y="3.7" class="crl-st0" width="2.3" height="41.2"/>
	<g>
		<path class="crl-st1" d="M56.2,9c-0.7,1.9-1.3,4.1-1.7,6.4c0,0,0,0.1,0,0.1c-0.1,0.4-0.1,0.8-0.2,1.2c0,0.2-0.1,0.5-0.1,0.7
			c0,0.3-0.1,0.6-0.1,0.9C54,18.8,54,19.4,53.9,20c0,0.1,0,0.2,0,0.2c-0.1,1.3-0.2,2.7-0.2,4.1c0,8.3,2,15.8,5,20.6V3.7
			C57.8,5.3,56.9,7.1,56.2,9L56.2,9z"/>
		<path class="crl-st1" d="M65.3,33.3c0,0,0-0.1,0-0.1c0.1-0.4,0.1-0.8,0.2-1.2c0-0.2,0.1-0.5,0.1-0.7c0-0.3,0.1-0.6,0.1-0.9
			c0.1-0.6,0.1-1.2,0.2-1.8c0-0.1,0-0.2,0-0.2c0.1-1.3,0.2-2.7,0.2-4.1c0-8.3-2-15.8-5-20.6v41.2c1-1.5,1.8-3.4,2.6-5.4v0.1
			C64.4,37.7,64.9,35.6,65.3,33.3z"/>
	</g>
</g>
<g>
	<rect x="21.3" y="3.7" class="crl-st0" width="2.3" height="41.2"/>
	<g>
		<path class="crl-st1" d="M18.8,9c-0.7,1.9-1.3,4.1-1.7,6.4c0,0,0,0.1,0,0.1c-0.1,0.4-0.1,0.8-0.2,1.2c0,0.2-0.1,0.5-0.1,0.7
			c0,0.3-0.1,0.6-0.1,0.9c-0.1,0.6-0.1,1.2-0.2,1.8c0,0.1,0,0.2,0,0.2c-0.1,1.3-0.2,2.7-0.2,4.1c0,8.3,2,15.8,5,20.6V3.7
			C20.3,5.3,19.5,7.1,18.8,9L18.8,9z"/>
		<path class="crl-st1" d="M27.9,33.3c0,0,0-0.1,0-0.1c0.1-0.4,0.1-0.8,0.2-1.2c0-0.2,0.1-0.5,0.1-0.7c0-0.3,0.1-0.6,0.1-0.9
			c0.1-0.6,0.1-1.2,0.2-1.8c0-0.1,0-0.2,0-0.2c0.1-1.3,0.2-2.7,0.2-4.1c0-8.3-2-15.8-5-20.6v41.2c1-1.5,1.8-3.4,2.6-5.4v0.1
			C26.9,37.7,27.5,35.6,27.9,33.3z"/>
	</g>
</g>
<g>
	<rect x="39.9" y="3.7" class="crl-st0" width="2.3" height="41.2"/>
	<g>
		<path class="crl-st1" d="M37.4,9c-0.7,1.9-1.3,4.1-1.7,6.4c0,0,0,0.1,0,0.1c-0.1,0.4-0.1,0.8-0.2,1.2c0,0.2-0.1,0.5-0.1,0.7
			c0,0.3-0.1,0.6-0.1,0.9c-0.1,0.6-0.1,1.2-0.2,1.8c0,0.1,0,0.2,0,0.2c-0.1,1.3-0.2,2.7-0.2,4.1c0,8.3,2,15.8,5,20.6V3.7
			C38.9,5.3,38.1,7.1,37.4,9L37.4,9z"/>
		<path class="crl-st1" d="M46.5,33.3c0,0,0-0.1,0-0.1c0.1-0.4,0.1-0.8,0.2-1.2c0-0.2,0.1-0.5,0.1-0.7c0-0.3,0.1-0.6,0.1-0.9
			c0.1-0.6,0.1-1.2,0.2-1.8c0-0.1,0-0.2,0-0.2c0.1-1.3,0.2-2.7,0.2-4.1c0-8.3-2-15.8-5-20.6v41.2c1-1.5,1.8-3.4,2.6-5.4v0.1
			C45.5,37.7,46.1,35.6,46.5,33.3z"/>
	</g>
</g>
<g>
	<path class="crl-st2" d="M60.7,25.1c-0.9,0-1.8-0.8-1.8-1.7c0-0.9,0.7-1.7,1.6-1.7h0.2c0.9,0,1.7,0.8,1.7,1.7
		C62.4,24.4,61.6,25.1,60.7,25.1z M51.1,25.1c-0.9,0-1.8-0.8-1.8-1.7c0-0.9,0.7-1.7,1.6-1.7h0.2c0.9,0,1.7,0.8,1.7,1.7
		C52.8,24.4,52,25.1,51.1,25.1z M41.5,25.1c-0.9,0-1.8-0.8-1.8-1.7c0-0.9,0.7-1.7,1.6-1.7h0.2c0.9,0,1.7,0.8,1.7,1.7
		C43.2,24.4,42.4,25.1,41.5,25.1z M31.9,25.1c-0.9,0-1.8-0.8-1.8-1.7c0-0.9,0.7-1.7,1.6-1.7h0.2c0.9,0,1.7,0.8,1.7,1.7
		C33.6,24.4,32.8,25.1,31.9,25.1z M22.3,25.1c-0.9,0-1.8-0.8-1.8-1.7c0-0.9,0.7-1.7,1.6-1.7h0.2c0.9,0,1.7,0.8,1.7,1.7
		C24,24.4,23.2,25.1,22.3,25.1z M12.7,25.1c-0.9,0-1.8-0.8-1.8-1.7c0-0.9,0.7-1.7,1.6-1.7h0.2c0.9,0,1.7,0.8,1.7,1.7
		C14.4,24.4,13.6,25.1,12.7,25.1z"/>
</g>
<g>
	<path class="crl-st2" d="M76.5,25c-0.2,0-0.5,0-0.7-0.2c-0.9-0.4-1.3-1.4-0.9-2.3c0.4-0.9,1.3-1.3,2.2-0.9l0.2,0.1
		c0.9,0.4,1.2,1.4,0.8,2.2C77.8,24.7,77.2,25,76.5,25z M69.1,19.8c-0.2,0-0.5,0-0.7-0.1c-0.9-0.4-1.3-1.4-0.9-2.3
		c0.4-0.9,1.3-1.3,2.2-0.9l0.2,0.1c0.9,0.4,1.2,1.4,0.9,2.2C70.3,19.4,69.7,19.8,69.1,19.8z M60.3,15.9c-0.2,0-0.5,0-0.7-0.1
		c-0.9-0.4-1.3-1.4-0.9-2.3c0.4-0.9,1.3-1.3,2.2-0.9l0.2,0.1c0.9,0.4,1.2,1.4,0.9,2.2C61.6,15.5,60.9,15.9,60.3,15.9z M51.1,13.9
		C51.1,13.9,51.1,13.9,51.1,13.9c-1,0-1.8-0.8-1.8-1.7c0-0.9,0.7-1.7,1.7-1.7l0.2,0c0.9,0,1.7,0.8,1.6,1.7
		C52.8,13.2,52,13.9,51.1,13.9z M41.5,13.6C41.5,13.6,41.5,13.6,41.5,13.6c-1,0-1.8-0.8-1.8-1.7c0-0.9,0.7-1.6,1.7-1.7l0.2,0
		c0.9,0,1.7,0.8,1.6,1.7C43.2,12.9,42.4,13.6,41.5,13.6z M31.9,13.4C31.9,13.4,31.8,13.4,31.9,13.4c-1,0-1.8-0.8-1.8-1.7
		s0.7-1.7,1.7-1.7l0.2,0c0.9,0,1.7,0.8,1.6,1.7C33.5,12.6,32.8,13.4,31.9,13.4z M22.3,13.1C22.3,13.1,22.2,13.1,22.3,13.1
		c-1,0-1.8-0.8-1.8-1.7c0-0.9,0.8-1.6,1.7-1.7l0.2,0c0.9,0,1.7,0.8,1.6,1.7C23.9,12.3,23.2,13.1,22.3,13.1z M12.7,12.8
		C12.7,12.8,12.6,12.8,12.7,12.8c-1,0-1.8-0.8-1.8-1.7c0-0.9,0.7-1.7,1.7-1.7l0.2,0c0.9,0,1.7,0.8,1.6,1.7
		C14.3,12.1,13.6,12.8,12.7,12.8z"/>
</g>
<g>
	<path class="crl-st2" d="M12.7,37c-0.9,0-1.8-0.7-1.8-1.7c0-0.9,0.6-1.7,1.6-1.7l0.2,0c0.9,0,1.7,0.7,1.7,1.7
		C14.4,36.2,13.6,37,12.7,37C12.7,37,12.7,37,12.7,37z M3.5,25.1c-0.9,0-1.8-0.8-1.8-1.7c0-0.9,0.7-1.7,1.6-1.7h0.2
		c0.9,0,1.7,0.8,1.7,1.7C5.2,24.4,4.5,25.1,3.5,25.1z M3.5,12.8C3.5,12.8,3.5,12.8,3.5,12.8c-1,0-1.8-0.8-1.8-1.7
		c0-0.9,0.7-1.7,1.7-1.7l0.2,0c0.9,0,1.7,0.8,1.6,1.7C5.2,12.1,4.4,12.8,3.5,12.8z M3.5,37c-0.9,0-1.8-0.7-1.8-1.7
		c0-0.9,0.6-1.7,1.6-1.7l0.2,0c0.9,0,1.7,0.7,1.7,1.7C5.3,36.2,4.5,37,3.5,37C3.6,37,3.5,37,3.5,37z M22.3,36.8
		c-0.9,0-1.8-0.7-1.8-1.7c0-0.9,0.6-1.7,1.6-1.7l0.2,0c0,0,0,0,0,0c0.9,0,1.7,0.7,1.7,1.7C24,36,23.2,36.8,22.3,36.8
		C22.3,36.8,22.3,36.8,22.3,36.8z M31.9,36.6c-0.9,0-1.8-0.7-1.8-1.7c0-0.9,0.6-1.7,1.6-1.7l0.2,0c0.9,0,1.7,0.7,1.7,1.7
		C33.6,35.8,32.9,36.6,31.9,36.6C31.9,36.6,31.9,36.6,31.9,36.6z M41.5,36.4c-0.9,0-1.8-0.7-1.8-1.7c0-0.9,0.6-1.7,1.6-1.7l0.2,0
		c0,0,0,0,0,0c0.9,0,1.7,0.7,1.7,1.7C43.2,35.6,42.5,36.4,41.5,36.4C41.5,36.4,41.5,36.4,41.5,36.4z M51.1,36.2
		c-0.9,0-1.8-0.7-1.8-1.7c0-0.9,0.6-1.7,1.6-1.7l0.2,0c0,0,0,0,0,0c0.9,0,1.7,0.7,1.7,1.7C52.8,35.5,52.1,36.2,51.1,36.2
		C51.1,36.2,51.1,36.2,51.1,36.2z M60.3,34.3c-0.7,0-1.3-0.3-1.6-1c-0.4-0.9-0.1-1.8,0.8-2.2l0.2-0.1c0.8-0.4,1.9,0,2.2,0.8
		c0.4,0.9,0,1.9-0.8,2.2C60.8,34.3,60.5,34.3,60.3,34.3z M69,30.4c-0.7,0-1.3-0.3-1.6-1c-0.4-0.9-0.1-1.8,0.8-2.2l0.2-0.1
		c0.8-0.4,1.9,0,2.2,0.8c0.4,0.9,0,1.9-0.8,2.2C69.5,30.4,69.3,30.4,69,30.4z"/>
</g>
<g>
	<path class="crl-st2" d="M85.7,25.1c-0.2,0-0.5,0-0.7-0.2c-0.9-0.4-1.3-1.4-0.9-2.3c0.4-0.9,1.3-1.3,2.2-0.9l0.2,0.1
		c0.9,0.4,1.2,1.4,0.8,2.2C86.9,24.7,86.3,25.1,85.7,25.1z"/>
</g>
</svg>
