<?xml version="1.0" encoding="utf-8"?>
<!-- Generator: Adobe Illustrator 24.0.1, SVG Export Plug-In . SVG Version: 6.00 Build 0)  -->
<svg  class="srw-beamline-item-icon" version="1.1" id="Crystal" xmlns="http://www.w3.org/2000/svg" xmlns:xlink="http://www.w3.org/1999/xlink" x="0px" y="0px"
	 viewBox="0 0 612 792" style="enable-background:new 0 0 612 792;" xml:space="preserve">
<style type="text/css">
	.crystal-st0{fill:none;stroke:#333333;stroke-width:0.7135;stroke-miterlimit:10;}
	.crystal-st1{fill:#6396B6;}
</style>
<g>
	<line class="crystal-st0" x1="17.6" y1="27.8" x2="17.7" y2="47.6"/>
	<line class="crystal-st0" x1="9" y1="36.6" x2="9" y2="56.6"/>
	<line class="crystal-st0" x1="38.1" y1="29" x2="38.1" y2="47.9"/>
	<line class="crystal-st0" x1="29.8" y1="35.4" x2="29.8" y2="56.5"/>
	<line class="crystal-st0" x1="16.3" y1="28.7" x2="38.4" y2="28.7"/>
	<line class="crystal-st0" x1="9.1" y1="36.9" x2="29.5" y2="36.9"/>
	<line class="crystal-st0" x1="9.2" y1="56" x2="29.6" y2="56"/>
	<line class="crystal-st0" x1="17.6" y1="47.3" x2="38.5" y2="47.4"/>
	<line class="crystal-st0" x1="29.8" y1="55.9" x2="38.1" y2="47.6"/>
	<line class="crystal-st0" x1="9.2" y1="54.9" x2="17.6" y2="47.3"/>
	<line class="crystal-st0" x1="30.4" y1="36.1" x2="37.6" y2="29.1"/>
	<line class="crystal-st0" x1="9.1" y1="36.9" x2="17.3" y2="29.1"/>
	<ellipse class="crystal-st1" cx="37.3" cy="29.2" rx="2.9" ry="2.7"/>
	<ellipse class="crystal-st1" cx="29.2" cy="35.9" rx="2.9" ry="2.7"/>
	<ellipse class="crystal-st1" cx="29.2" cy="55.8" rx="2.9" ry="2.7"/>
	<ellipse class="crystal-st1" cx="9.7" cy="55.6" rx="2.9" ry="2.7"/>
	<ellipse class="crystal-st1" cx="9.4" cy="36" rx="2.9" ry="2.7"/>
	<ellipse class="crystal-st1" cx="18" cy="29" rx="2.9" ry="2.7"/>
	<ellipse class="crystal-st1" cx="18" cy="46.7" rx="2.9" ry="2.7"/>
	<ellipse class="crystal-st1" cx="37.3" cy="46.7" rx="2.9" ry="2.7"/>
</g>
</svg>
