<?xml version="1.0" encoding="UTF-8"?>
<!DOCTYPE svg PUBLIC "-//W3C//DTD SVG 1.1//EN" "http://www.w3.org/Graphics/SVG/1.1/DTD/svg11.dtd">
<svg version="1.1" xmlns="http://www.w3.org/2000/svg" xmlns:xlink="http://www.w3.org/1999/xlink" x="0" y="0" width="32" height="31.813" viewBox="0, 0, 32, 31.813">
  <g id="ell" display="none">
    <path d="M0,7.813 L10.065,8 L10.065,23.935 L20.913,23.935 L20.913,31.813 L0,31.813 L0,7.813 z" fill="#97B6D5" id="Front"/>
    <path d="M10.848,0 L20.913,0 L10.065,8 L0,8 L10.848,0 z" fill="#526374"/>
    <path d="M20.913,15.935 L32,16.041 L21.104,23.935 L10.065,23.935 L20.913,15.935 z" fill="#526374"/>
    <path d="M20.913,23.935 L32,15.935 L32,23.813 L20.913,31.813 L20.913,23.935 z" fill="#7581A1"/>
    <path d="M21.099,12.601 L32,12.601 L24,23.935 L10.065,23.935 L21.099,12.601 z" fill="#526374" id="Top" display="none"/>
    <path d="M10.065,8 L20.913,0 L20.913,15.935 L10.065,23.935 L10.065,8 z" fill="#7581A1" id="Side"/>
  </g>
  <g id="clyinder">
    <path d="M19.961,23.813 C13.312,23.813 7.921,18.482 7.921,11.907 C7.921,5.331 13.312,0 19.961,0 C26.61,0 32,5.331 32,11.907 C32,18.482 26.61,23.813 19.961,23.813 z" fill="#7581A2"/>
    <path d="M11.691,3.21 L18.863,-0 L10.903,8 L2.843,12.058 L11.691,3.21 z" fill="#7581A2"/>
    <path d="M21.965,22.965 L29.137,19.755 L21.178,27.755 L13.117,31.813 L21.965,22.965 z" fill="#7581A2"/>
    <path d="M12.039,31.813 C5.39,31.813 -0,26.482 -0,19.907 C-0,13.331 5.39,8 12.039,8 C18.688,8 24.079,13.331 24.079,19.907 C24.079,26.482 18.688,31.813 12.039,31.813 z" fill="#97B6D5"/>
  </g>
  <g id="jay" display="none">
    <path d="M-0,7.813 L7.387,8 L7.387,25.761 L18.235,25.761 L18.235,31.813 L-0,31.813 L-0,7.813 z" fill="#97B6D5" id="Front"/>
    <path d="M10.848,0 L20.913,0 L10.065,8 L0,8 L10.848,0 z" fill="#526374"/>
    <path d="M20.913,15.935 L32,16.041 L21.104,23.935 L10.065,23.935 L20.913,15.935 z" fill="#526374"/>
    <path d="M20.913,23.935 L32,15.935 L32,23.813 L20.913,31.813 L20.913,23.935 z" fill="#7581A1"/>
    <path d="M21.099,12.601 L32,12.601 L24,23.935 L10.065,23.935 L21.099,12.601 z" fill="#526374" id="Top" display="none"/>
    <path d="M10.065,8 L20.913,0 L20.913,15.935 L10.065,23.935 L10.065,8 z" fill="#7581A1" id="Side"/>
  </g>
  <g id="cee" display="none">
    <path d="M21.099,16.604 L32,16.057 L24,23.935 L10.065,23.935 L21.099,16.604 z" fill="#526374" id="Top" display="none"/>
    <path d="M18.065,16.057 L32,16.057 L24,23.935 L10.065,23.935 L18.065,16.057 z" fill="#526374" id="Top"/>
    <path d="M10.065,23.935 L9.971,16.604 L17.542,16.604 L10.065,23.935 z" fill="#7581A1" id="Side"/>
    <path d="M0,7.813 L24,7.813 L24,16.604 L9.971,16.604 L10.065,23.935 L24,23.935 L24,31.813 L0,31.813 L0,7.813 z" fill="#97B6D5" id="Front"/>
    <path d="M24,7.813 L32,-0.065 L32,8.726 L24,16.604 L24,7.813 z" fill="#7581A1" id="Side"/>
    <path d="M24,23.935 L32,16.057 L32,23.935 L24,31.813 L24,23.935 z" fill="#7581A1" id="Side"/>
    <path d="M8,-0.065 L32,-0.065 L24,7.813 L0,7.813 L8,-0.065 z" fill="#526374" id="Top"/>
  </g>
  <g id="j2" display="none">
    <path d="M21.099,16.604 L32,16.057 L24,23.935 L10.065,23.935 L21.099,16.604 z" fill="#526374" id="Top" display="none"/>
    <path d="M15.817,13.699 L26.551,13.699 L18.673,21.809 L7.939,21.809 L15.817,13.699 z" fill="#62739F"/>
    <path d="M15.817,13.809 L15.817,-0.126 L7.939,7.874 L7.939,21.809 L15.817,13.809 z" fill="#526374" id="Top"/>
    <path d="M24.061,31.874 L24.061,17.97 L15.27,17.97 L15.27,21.809 L7.939,21.809 L7.939,7.874 L0.061,7.874 L0.061,31.874 L24.061,31.874 z" fill="#97B6D5" id="Front"/>
    <path d="M24.061,17.971 L31.939,9.971 L23.148,9.971 L15.27,17.971 L24.061,17.971 z" fill="#7581A1" id="Side"/>
    <path d="M7.939,7.874 L15.817,-0.126 L7.939,-0.126 L0.061,7.874 L7.939,7.874 z" fill="#7581A1" id="Side"/>
    <path d="M31.939,23.874 L31.939,9.971 L24.061,17.971 L24.061,31.874 L31.939,23.874 z" fill="#526374" id="Top"/>
  </g>
  <g id="Extruded_Points" display="none">
    <path d="M17.817,5.162 L17.817,-0 L9.939,5.459 L9.939,11.284 L17.817,5.162 z" fill="#526374" id="Top"/>
    <path d="M26.061,25.345 L32,17.402 L24.431,8.453 L17.27,15.555 L26.061,25.345 z" fill="#7581A1" id="Side"/>
    <path d="M9.939,5.459 L17.817,-0 L9.939,-0 L2.061,5.459 L9.939,5.459 z" fill="#7581A1" id="Side"/>
    <path d="M32,21.459 L32,17.402 L26.061,25.345 L26.061,29.459 L32,21.459 z" fill="#526374" id="Top"/>
    <path d="M17.27,15.555 L24.431,8.453 L17.817,5.162 L9.939,11.284 L17.27,15.555 z" fill="#7581A1" id="Side"/>
    <g id="Front">
      <path d="M26.061,29.459 L26.061,25.345 L17.27,15.555 L9.939,11.284 L9.939,5.459 L2.061,5.459 L2.061,29.459 L26.061,29.459 z" fill="#97B6D5"/>
      <path d="M26.061,29.459 L26.061,25.345 L17.27,15.555 L9.939,11.284 L9.939,5.459 L2.061,5.459 L2.061,29.459 L26.061,29.459 z" fill-opacity="0" stroke="#D604C6" stroke-width="1.5"/>
    </g>
    <g id="Points">
      <g id="Point">
        <path d="M2.649,6.935 C1.544,6.935 0.649,6.04 0.649,4.935 C0.649,3.831 1.544,2.935 2.649,2.935 C3.754,2.935 4.649,3.831 4.649,4.935 C4.649,6.04 3.754,6.935 2.649,6.935 z" fill="#000000"/>
        <path d="M2.649,6.935 C1.544,6.935 0.649,6.04 0.649,4.935 C0.649,3.831 1.544,2.935 2.649,2.935 C3.754,2.935 4.649,3.831 4.649,4.935 C4.649,6.04 3.754,6.935 2.649,6.935 z" fill-opacity="0" stroke="#D604C6" stroke-width="1"/>
      </g>
      <g id="Point">
        <path d="M9.264,6.976 C8.16,6.976 7.264,6.081 7.264,4.976 C7.264,3.872 8.16,2.976 9.264,2.976 C10.369,2.976 11.264,3.872 11.264,4.976 C11.264,6.081 10.369,6.976 9.264,6.976 z" fill="#000000"/>
        <path d="M9.264,6.976 C8.16,6.976 7.264,6.081 7.264,4.976 C7.264,3.872 8.16,2.976 9.264,2.976 C10.369,2.976 11.264,3.872 11.264,4.976 C11.264,6.081 10.369,6.976 9.264,6.976 z" fill-opacity="0" stroke="#D604C6" stroke-width="1"/>
      </g>
      <g id="Point">
        <path d="M9.439,12.448 C8.334,12.448 7.439,11.552 7.439,10.448 C7.439,9.343 8.334,8.448 9.439,8.448 C10.544,8.448 11.439,9.343 11.439,10.448 C11.439,11.552 10.544,12.448 9.439,12.448 z" fill="#000000"/>
        <path d="M9.439,12.448 C8.334,12.448 7.439,11.552 7.439,10.448 C7.439,9.343 8.334,8.448 9.439,8.448 C10.544,8.448 11.439,9.343 11.439,10.448 C11.439,11.552 10.544,12.448 9.439,12.448 z" fill-opacity="0" stroke="#D604C6" stroke-width="1"/>
      </g>
      <g id="Point">
        <path d="M16.786,16.877 C15.681,16.877 14.786,15.981 14.786,14.877 C14.786,13.772 15.681,12.877 16.786,12.877 C17.89,12.877 18.786,13.772 18.786,14.877 C18.786,15.981 17.89,16.877 16.786,16.877 z" fill="#000000"/>
        <path d="M16.786,16.877 C15.681,16.877 14.786,15.981 14.786,14.877 C14.786,13.772 15.681,12.877 16.786,12.877 C17.89,12.877 18.786,13.772 18.786,14.877 C18.786,15.981 17.89,16.877 16.786,16.877 z" fill-opacity="0" stroke="#D604C6" stroke-width="1"/>
      </g>
      <g id="Point">
        <path d="M2.649,30.813 C1.544,30.813 0.649,29.918 0.649,28.813 C0.649,27.708 1.544,26.813 2.649,26.813 C3.754,26.813 4.649,27.708 4.649,28.813 C4.649,29.918 3.754,30.813 2.649,30.813 z" fill="#000000"/>
        <path d="M2.649,30.813 C1.544,30.813 0.649,29.918 0.649,28.813 C0.649,27.708 1.544,26.813 2.649,26.813 C3.754,26.813 4.649,27.708 4.649,28.813 C4.649,29.918 3.754,30.813 2.649,30.813 z" fill-opacity="0" stroke="#D604C6" stroke-width="1"/>
      </g>
      <g id="Point">
        <path d="M25.431,30.813 C24.326,30.813 23.431,29.918 23.431,28.813 C23.431,27.708 24.326,26.813 25.431,26.813 C26.535,26.813 27.431,27.708 27.431,28.813 C27.431,29.918 26.535,30.813 25.431,30.813 z" fill="#000000"/>
        <path d="M25.431,30.813 C24.326,30.813 23.431,29.918 23.431,28.813 C23.431,27.708 24.326,26.813 25.431,26.813 C26.535,26.813 27.431,27.708 27.431,28.813 C27.431,29.918 26.535,30.813 25.431,30.813 z" fill-opacity="0" stroke="#D604C6" stroke-width="1"/>
      </g>
      <g id="Point">
        <path d="M25.431,26.592 C24.326,26.592 23.431,25.696 23.431,24.592 C23.431,23.487 24.326,22.592 25.431,22.592 C26.535,22.592 27.431,23.487 27.431,24.592 C27.431,25.696 26.535,26.592 25.431,26.592 z" fill="#000000"/>
        <path d="M25.431,26.592 C24.326,26.592 23.431,25.696 23.431,24.592 C23.431,23.487 24.326,22.592 25.431,22.592 C26.535,22.592 27.431,23.487 27.431,24.592 C27.431,25.696 26.535,26.592 25.431,26.592 z" fill-opacity="0" stroke="#D604C6" stroke-width="1"/>
      </g>
    </g>
  </g>
</svg>
