<?xml version="1.0" encoding="UTF-8"?>
<!DOCTYPE svg PUBLIC "-//W3C//DTD SVG 1.1//EN" "http://www.w3.org/Graphics/SVG/1.1/DTD/svg11.dtd">
<svg version="1.1" xmlns="http://www.w3.org/2000/svg" xmlns:xlink="http://www.w3.org/1999/xlink" x="0" y="0" width="32" height="31.813" viewBox="0, 0, 32, 31.813">
  <g id="clyinder">
    <path d="M19.961,23.813 C13.312,23.813 7.921,18.482 7.921,11.907 C7.921,5.331 13.312,0 19.961,0 C26.61,0 32,5.331 32,11.907 C32,18.482 26.61,23.813 19.961,23.813 z" fill="#7581A2"/>
    <path d="M11.691,3.21 L18.863,-0 L10.903,8 L2.843,12.058 L11.691,3.21 z" fill="#7581A2"/>
    <path d="M21.965,22.965 L29.137,19.755 L21.178,27.755 L13.117,31.813 L21.965,22.965 z" fill="#7581A2"/>
    <path d="M12.039,31.813 C5.39,31.813 -0,26.482 -0,19.907 C-0,13.331 5.39,8 12.039,8 C18.688,8 24.079,13.331 24.079,19.907 C24.079,26.482 18.688,31.813 12.039,31.813 z" fill="#97B6D5"/>
  </g>
</svg>
