<?xml version="1.0" encoding="UTF-8"?>
<!DOCTYPE svg PUBLIC "-//W3C//DTD SVG 1.1//EN" "http://www.w3.org/Graphics/SVG/1.1/DTD/svg11.dtd">
<svg version="1.1" xmlns="http://www.w3.org/2000/svg" xmlns:xlink="http://www.w3.org/1999/xlink" x="0" y="0" width="32" height="31.813" viewBox="0, 0, 32, 31.813">
  <g id="ell">
    <path d="M0,7.813 L10.065,8 L10.065,23.935 L20.913,23.935 L20.913,31.813 L0,31.813 L0,7.813 z" fill="#97B6D5" id="Front"/>
    <path d="M10.848,0 L20.913,0 L10.065,8 L0,8 L10.848,0 z" fill="#526374"/>
    <path d="M20.913,15.935 L32,16.041 L21.104,23.935 L10.065,23.935 L20.913,15.935 z" fill="#526374"/>
    <path d="M20.913,23.935 L32,15.935 L32,23.813 L20.913,31.813 L20.913,23.935 z" fill="#7581A1"/>
    <path d="M21.099,12.601 L32,12.601 L24,23.935 L10.065,23.935 L21.099,12.601 z" fill="#526374" id="Top" display="none"/>
    <path d="M10.065,8 L20.913,0 L20.913,15.935 L10.065,23.935 L10.065,8 z" fill="#7581A1" id="Side"/>
  </g>
</svg>
