<?xml version="1.0" encoding="utf-8"?>
<!-- Generator: Adobe Illustrator 24.0.1, SVG Export Plug-In . SVG Version: 6.00 Build 0)  -->
<svg  class="srw-beamline-item-icon" version="1.1" id="Elliptical_Cylinder" xmlns="http://www.w3.org/2000/svg" xmlns:xlink="http://www.w3.org/1999/xlink"
	 x="0px" y="0px" viewBox="0 0 612 792" style="enable-background:new 0 0 612 792;" xml:space="preserve">
<style type="text/css">
	.ellipticalCylinder-st0{enable-background:new    ;}
	.ellipticalCylinder-st1{fill:#6B8198;}
	.ellipticalCylinder-st2{fill:#697F95;}
	.ellipticalCylinder-st3{clip-path:url(#ELLIPTICAL_CYLINDER_SVGID_2_);enable-background:new    ;}
	.ellipticalCylinder-st4{fill:#70879E;}
	.ellipticalCylinder-st5{fill:#738BA2;}
	.ellipticalCylinder-st6{fill:#768FA7;}
	.ellipticalCylinder-st7{fill:#7993AC;}
	.ellipticalCylinder-st8{fill:#6C8399;}
	.ellipticalCylinder-st9{fill:#697F94;}
	.ellipticalCylinder-st10{fill:#667B90;}
	.ellipticalCylinder-st11{fill:#62778B;}
	.ellipticalCylinder-st12{fill:#5F7387;}
	.ellipticalCylinder-st13{fill:#5C6F82;}
	.ellipticalCylinder-st14{fill:#596B7D;}
	.ellipticalCylinder-st15{fill:#556779;}
	.ellipticalCylinder-st16{fill:#839EB9;}
	.ellipticalCylinder-st17{fill:#A4C6E8;stroke:#A4C6E8;stroke-width:0.6811;stroke-miterlimit:10;}
	.ellipticalCylinder-st18{fill:#3A53A4;}
</style>
<g>
	<g>
		<g>
			<g class="ellipticalCylinder-st0">
				<g>
					<polygon class="ellipticalCylinder-st1" points="13.8,26.9 19.5,19.9 19.6,20.5 13.8,27.5 					"/>
				</g>
				<g>
					<polygon class="ellipticalCylinder-st2" points="8.2,26.8 13.9,19.8 19.5,19.9 13.8,26.9 					"/>
				</g>
				<g class="ellipticalCylinder-st0">
					<defs>
						<path id="ELLIPTICAL_CYLINDER_SVGID_1_" class="ellipticalCylinder-st0" d="M53.5,23.6l-5.7,7c-2.8,3.4-9.6,5-16.4,4.8c-8.3-0.1-16.5-2.8-17.5-7.9l5.7-7
							c1,5,9.3,7.7,17.5,7.9C43.9,28.5,50.7,26.9,53.5,23.6z"/>
					</defs>
					<clipPath id="ELLIPTICAL_CYLINDER_SVGID_2_">
						<use xlink:href="#ELLIPTICAL_CYLINDER_SVGID_1_"  style="overflow:visible;"/>
					</clipPath>
					<g class="ellipticalCylinder-st3">
						<path class="ellipticalCylinder-st4" d="M13.8,27.5l5.7-7c0,0.1,0,0.2,0.1,0.3l-5.7,7C13.9,27.7,13.8,27.6,13.8,27.5"/>
						<path class="ellipticalCylinder-st5" d="M13.9,27.8l5.7-7c0,0.2,0.1,0.3,0.2,0.5l-5.7,7C14,28.2,13.9,28,13.9,27.8"/>
						<path class="ellipticalCylinder-st6" d="M14,28.3l5.7-7c0.1,0.2,0.2,0.4,0.3,0.7l-5.7,7C14.2,28.8,14.1,28.5,14,28.3"/>
						<path class="ellipticalCylinder-st7" d="M14.3,29l5.7-7c0.6,1.2,1.7,2.3,3.2,3.2l-5.7,7C16.1,31.3,15,30.2,14.3,29"/>
						<path class="ellipticalCylinder-st6" d="M17.5,32.1l5.7-7c0.6,0.3,1.2,0.7,1.8,0.9l-5.7,7C18.7,32.8,18.1,32.5,17.5,32.1"/>
						<path class="ellipticalCylinder-st5" d="M19.3,33.1l5.7-7c0.6,0.3,1.3,0.5,2,0.8l-5.7,7C20.7,33.6,20,33.4,19.3,33.1"/>
						<path class="ellipticalCylinder-st4" d="M21.4,33.9l5.7-7c0.8,0.3,1.6,0.5,2.4,0.7l-5.7,7C23,34.3,22.2,34.1,21.4,33.9"/>
						<path class="ellipticalCylinder-st8" d="M23.8,34.5l5.7-7c0.9,0.2,1.9,0.4,2.9,0.5l-5.7,7C25.7,34.9,24.7,34.7,23.8,34.5"/>
						<path class="ellipticalCylinder-st9" d="M26.7,35l5.7-7c1.1,0.1,2.1,0.2,3.2,0.3l-5.7,7C28.8,35.3,27.7,35.2,26.7,35"/>
						<path class="ellipticalCylinder-st10" d="M29.9,35.3l5.7-7c0.5,0,1,0,1.4,0c0.7,0,1.3,0,2,0l-5.7,7c-0.7,0-1.3,0-2,0
							C30.9,35.4,30.4,35.4,29.9,35.3"/>
						<path class="ellipticalCylinder-st11" d="M33.3,35.4l5.7-7c1.1,0,2.2-0.1,3.3-0.2l-5.7,7C35.5,35.3,34.4,35.3,33.3,35.4"/>
						<path class="ellipticalCylinder-st12" d="M36.6,35.1l5.7-7c1-0.1,2-0.3,2.9-0.5l-5.7,7C38.6,34.9,37.6,35,36.6,35.1"/>
						<path class="ellipticalCylinder-st13" d="M39.5,34.6l5.7-7c0.9-0.2,1.7-0.4,2.5-0.7l-5.7,7C41.3,34.2,40.4,34.5,39.5,34.6"/>
						<path class="ellipticalCylinder-st14" d="M42.1,34l5.7-7c0.8-0.3,1.5-0.5,2.2-0.9l-5.7,7C43.6,33.4,42.8,33.7,42.1,34"/>
						<path class="ellipticalCylinder-st15" d="M44.3,33.1l5.7-7c1.4-0.7,2.6-1.5,3.5-2.6l-5.7,7C46.9,31.6,45.7,32.4,44.3,33.1"/>
					</g>
				</g>
				<g>
					<path class="ellipticalCylinder-st16" d="M13.8,26.9l0,0.6c1,5,9.3,7.7,17.5,7.9c8.4,0.1,16.7-2.3,17.6-7.4l0-0.4l5.7,0.1l0.1,10.1L8.2,37
						L8.2,26.8L13.8,26.9z"/>
				</g>
				<g>
					<polygon class="ellipticalCylinder-st2" points="48.9,27.6 54.7,20.6 60.3,20.7 54.6,27.7 					"/>
				</g>
				<g>
					<polygon class="ellipticalCylinder-st1" points="54.6,27.7 60.3,20.7 60.4,30.8 54.7,37.8 					"/>
				</g>
			</g>
		</g>
	</g>
	<path class="ellipticalCylinder-st17" d="M49.4,27.5C47.7,38.4,16,38.4,14.1,27.7V27H8.4l0,10.3l46,0.3l0.1-10.1L49.4,27.5z"/>
	<g>
		<path class="ellipticalCylinder-st18" d="M34.1,31.4c-0.4,0-0.8-0.2-1-0.5c-0.4-0.6-0.2-1.3,0.3-1.7l0.1-0.1c0.6-0.4,1.3-0.2,1.7,0.3
			c0.4,0.6,0.2,1.3-0.3,1.7l-0.1,0.1C34.6,31.3,34.3,31.4,34.1,31.4z M38.8,28.3c-0.4,0-0.8-0.2-1-0.5c-0.4-0.6-0.2-1.3,0.4-1.7
			l0.1-0.1c0.6-0.4,1.3-0.2,1.7,0.4c0.4,0.6,0.2,1.3-0.4,1.7l-0.1,0.1C39.2,28.2,39,28.3,38.8,28.3z M29.6,28.3
			c-0.2,0-0.5-0.1-0.7-0.2L28.8,28c-0.5-0.4-0.7-1.1-0.3-1.7c0.4-0.5,1.1-0.7,1.7-0.3l0.1,0.1c0.5,0.4,0.7,1.1,0.3,1.7
			C30.4,28.1,30,28.3,29.6,28.3z M43.5,25.2c-0.4,0-0.8-0.2-1-0.5c-0.4-0.6-0.2-1.3,0.4-1.7l0.1-0.1c0.6-0.4,1.3-0.2,1.7,0.4
			c0.4,0.6,0.2,1.3-0.4,1.7L44.1,25C43.9,25.2,43.7,25.2,43.5,25.2z M25.1,25.1c-0.2,0-0.5-0.1-0.7-0.2l-0.1-0.1
			c-0.5-0.4-0.7-1.1-0.3-1.7c0.4-0.5,1.1-0.7,1.7-0.3l0.1,0.1c0.5,0.4,0.7,1.1,0.3,1.7C25.8,24.9,25.4,25.1,25.1,25.1z M48.1,22.2
			c-0.4,0-0.8-0.2-1-0.5c-0.4-0.6-0.2-1.3,0.3-1.7l0.1-0.1c0.6-0.4,1.3-0.2,1.7,0.3c0.4,0.6,0.2,1.3-0.3,1.7L48.8,22
			C48.6,22.1,48.3,22.2,48.1,22.2z M20.5,21.9c-0.2,0-0.5-0.1-0.7-0.2l-0.1-0.1c-0.5-0.4-0.7-1.1-0.3-1.7c0.4-0.5,1.1-0.7,1.7-0.3
			l0.1,0.1c0.5,0.4,0.7,1.1,0.3,1.7C21.2,21.7,20.9,21.9,20.5,21.9z M52.8,19.1c-0.4,0-0.8-0.2-1-0.5c-0.4-0.6-0.2-1.3,0.3-1.7
			l0.1-0.1c0.6-0.4,1.3-0.2,1.7,0.3c0.4,0.6,0.2,1.3-0.3,1.7l-0.1,0.1C53.2,19,53,19.1,52.8,19.1z M15.9,18.7
			c-0.2,0-0.5-0.1-0.7-0.2l-0.1-0.1c-0.5-0.4-0.7-1.1-0.3-1.7c0.4-0.5,1.1-0.7,1.7-0.3l0.1,0.1c0.5,0.4,0.7,1.1,0.3,1.7
			C16.6,18.5,16.3,18.7,15.9,18.7z M57.5,16c-0.4,0-0.8-0.2-1-0.5c-0.4-0.6-0.2-1.3,0.3-1.7l0.1-0.1c0.6-0.4,1.3-0.2,1.7,0.3
			c0.4,0.6,0.2,1.3-0.3,1.7l-0.1,0.1C57.9,16,57.7,16,57.5,16z M11.3,15.5c-0.2,0-0.5-0.1-0.7-0.2l-0.1-0.1
			c-0.5-0.4-0.7-1.1-0.3-1.7c0.4-0.5,1.1-0.7,1.7-0.3l0.1,0.1c0.5,0.4,0.7,1.1,0.3,1.7C12.1,15.3,11.7,15.5,11.3,15.5z M62.1,13
			c-0.4,0-0.8-0.2-1-0.5c-0.4-0.6-0.2-1.3,0.4-1.7l0.1-0.1c0.6-0.4,1.3-0.2,1.7,0.4c0.4,0.6,0.2,1.3-0.4,1.7l-0.1,0.1
			C62.6,12.9,62.4,13,62.1,13z M6.7,12.3c-0.2,0-0.5-0.1-0.7-0.2L5.9,12c-0.5-0.4-0.7-1.1-0.3-1.7C6,9.8,6.8,9.7,7.3,10.1l0.1,0.1
			c0.5,0.4,0.7,1.1,0.3,1.7C7.5,12.2,7.1,12.3,6.7,12.3z"/>
	</g>
</g>
</svg>
