<?xml version="1.0" encoding="UTF-8"?>
<!DOCTYPE svg PUBLIC "-//W3C//DTD SVG 1.1//EN" "http://www.w3.org/Graphics/SVG/1.1/DTD/svg11.dtd">
<svg version="1.1" xmlns="http://www.w3.org/2000/svg" xmlns:xlink="http://www.w3.org/1999/xlink" x="0" y="0" width="32" height="31.813" viewBox="0, 0, 32, 31.813">
  <g id="j2">
    <path d="M17.817,5.162 L17.817,-0 L9.939,5.459 L9.939,11.284 L17.817,5.162 z" fill="#526374" id="Top"/>
    <path d="M26.061,25.345 L32,17.402 L24.431,8.453 L17.27,15.555 L26.061,25.345 z" fill="#7581A1" id="Side"/>
    <path d="M9.939,5.459 L17.817,-0 L9.939,-0 L2.061,5.459 L9.939,5.459 z" fill="#7581A1" id="Side"/>
    <path d="M32,21.459 L32,17.402 L26.061,25.345 L26.061,29.459 L32,21.459 z" fill="#526374" id="Top"/>
    <path d="M17.27,15.555 L24.431,8.453 L17.817,5.162 L9.939,11.284 L17.27,15.555 z" fill="#7581A1" id="Side"/>
    <g id="Front">
      <path d="M26.061,29.459 L26.061,25.345 L17.27,15.555 L9.939,11.284 L9.939,5.459 L2.061,5.459 L2.061,29.459 L26.061,29.459 z" fill="#97B6D5"/>
      <path d="M26.061,29.459 L26.061,25.345 L17.27,15.555 L9.939,11.284 L9.939,5.459 L2.061,5.459 L2.061,29.459 L26.061,29.459 z" fill-opacity="0" stroke="#D604C6" stroke-width="1.5"/>
    </g>
  </g>
  <g id="Points">
    <g id="Point">
      <path d="M2.149,6.935 C1.321,6.935 0.649,6.264 0.649,5.435 C0.649,4.607 1.321,3.935 2.149,3.935 C2.977,3.935 3.649,4.607 3.649,5.435 C3.649,6.264 2.977,6.935 2.149,6.935 z" fill="#000000"/>
      <path d="M2.149,6.935 C1.321,6.935 0.649,6.264 0.649,5.435 C0.649,4.607 1.321,3.935 2.149,3.935 C2.977,3.935 3.649,4.607 3.649,5.435 C3.649,6.264 2.977,6.935 2.149,6.935 z" fill-opacity="0" stroke="#D604C6" stroke-width="1"/>
    </g>
    <g id="Point">
      <path d="M9.764,6.976 C8.936,6.976 8.264,6.305 8.264,5.476 C8.264,4.648 8.936,3.976 9.764,3.976 C10.593,3.976 11.264,4.648 11.264,5.476 C11.264,6.305 10.593,6.976 9.764,6.976 z" fill="#000000"/>
      <path d="M9.764,6.976 C8.936,6.976 8.264,6.305 8.264,5.476 C8.264,4.648 8.936,3.976 9.764,3.976 C10.593,3.976 11.264,4.648 11.264,5.476 C11.264,6.305 10.593,6.976 9.764,6.976 z" fill-opacity="0" stroke="#D604C6" stroke-width="1"/>
    </g>
    <g id="Point">
      <path d="M9.939,12.448 C9.111,12.448 8.439,11.776 8.439,10.948 C8.439,10.119 9.111,9.448 9.939,9.448 C10.767,9.448 11.439,10.119 11.439,10.948 C11.439,11.776 10.767,12.448 9.939,12.448 z" fill="#000000"/>
      <path d="M9.939,12.448 C9.111,12.448 8.439,11.776 8.439,10.948 C8.439,10.119 9.111,9.448 9.939,9.448 C10.767,9.448 11.439,10.119 11.439,10.948 C11.439,11.776 10.767,12.448 9.939,12.448 z" fill-opacity="0" stroke="#D604C6" stroke-width="1"/>
    </g>
    <g id="Point">
      <path d="M17.286,16.877 C16.457,16.877 15.786,16.205 15.786,15.377 C15.786,14.548 16.457,13.877 17.286,13.877 C18.114,13.877 18.786,14.548 18.786,15.377 C18.786,16.205 18.114,16.877 17.286,16.877 z" fill="#000000"/>
      <path d="M17.286,16.877 C16.457,16.877 15.786,16.205 15.786,15.377 C15.786,14.548 16.457,13.877 17.286,13.877 C18.114,13.877 18.786,14.548 18.786,15.377 C18.786,16.205 18.114,16.877 17.286,16.877 z" fill-opacity="0" stroke="#D604C6" stroke-width="1"/>
    </g>
    <g id="Point">
      <path d="M2.149,30.813 C1.321,30.813 0.649,30.141 0.649,29.313 C0.649,28.485 1.321,27.813 2.149,27.813 C2.977,27.813 3.649,28.485 3.649,29.313 C3.649,30.141 2.977,30.813 2.149,30.813 z" fill="#000000"/>
      <path d="M2.149,30.813 C1.321,30.813 0.649,30.141 0.649,29.313 C0.649,28.485 1.321,27.813 2.149,27.813 C2.977,27.813 3.649,28.485 3.649,29.313 C3.649,30.141 2.977,30.813 2.149,30.813 z" fill-opacity="0" stroke="#D604C6" stroke-width="1"/>
    </g>
    <g id="Point">
      <path d="M25.931,30.813 C25.102,30.813 24.431,30.141 24.431,29.313 C24.431,28.485 25.102,27.813 25.931,27.813 C26.759,27.813 27.431,28.485 27.431,29.313 C27.431,30.141 26.759,30.813 25.931,30.813 z" fill="#000000"/>
      <path d="M25.931,30.813 C25.102,30.813 24.431,30.141 24.431,29.313 C24.431,28.485 25.102,27.813 25.931,27.813 C26.759,27.813 27.431,28.485 27.431,29.313 C27.431,30.141 26.759,30.813 25.931,30.813 z" fill-opacity="0" stroke="#D604C6" stroke-width="1"/>
    </g>
    <g id="Point">
      <path d="M25.931,26.592 C25.102,26.592 24.431,25.92 24.431,25.092 C24.431,24.263 25.102,23.592 25.931,23.592 C26.759,23.592 27.431,24.263 27.431,25.092 C27.431,25.92 26.759,26.592 25.931,26.592 z" fill="#000000"/>
      <path d="M25.931,26.592 C25.102,26.592 24.431,25.92 24.431,25.092 C24.431,24.263 25.102,23.592 25.931,23.592 C26.759,23.592 27.431,24.263 27.431,25.092 C27.431,25.92 26.759,26.592 25.931,26.592 z" fill-opacity="0" stroke="#D604C6" stroke-width="1"/>
    </g>
  </g>
</svg>
