<?xml version="1.0" encoding="utf-8"?>
<!-- Generator: Adobe Illustrator 24.0.1, SVG Export Plug-In . SVG Version: 6.00 Build 0)  -->
<svg  class="srw-beamline-item-icon" version="1.1" id="Fiber" xmlns="http://www.w3.org/2000/svg" xmlns:xlink="http://www.w3.org/1999/xlink" x="0px" y="0px"
	 viewBox="0 0 612 792" style="enable-background:new 0 0 612 792;" xml:space="preserve">
<style type="text/css">
	.fiber-st0{fill:#76A9A6;}
	.fiber-st1{fill:#58595B;}
	.fiber-st2{fill:#A4C6E8;}
	.fiber-st3{fill:#FFFFFF;}
</style>
<g>
	<g>
		<path class="fiber-st0" d="M5.4,17.4l14.3,6"/>
		<path class="fiber-st1" d="M19.7,24.1c-0.1,0-0.2,0-0.3-0.1L5.1,18c-0.4-0.1-0.5-0.6-0.4-0.9c0.1-0.4,0.6-0.5,0.9-0.4l14.3,6
			c0.4,0.1,0.5,0.6,0.4,0.9C20.2,23.9,20,24.1,19.7,24.1z"/>
	</g>
	<path class="fiber-st2" d="M22.9,14c-2.9-1.1-6.8,2.2-8.6,7.4s-0.8,10.4,2.1,11.5l52.6,22.5l7.8-22.6L22.9,14z"/>
	<g>
		<ellipse transform="matrix(0.3131 -0.9497 0.9497 0.3131 8.3213 99.5073)" class="fiber-st2" cx="72.9" cy="44" rx="12" ry="5.7"/>
		<path class="fiber-st3" d="M70.1,56.2c-0.4,0-0.9-0.1-1.3-0.2c-3.3-1.3-4.1-7.6-1.9-14.3c1.6-4.6,4.2-8.2,6.9-9.5
			c1.1-0.5,2.2-0.6,3.2-0.2c3.3,1.3,4.1,7.6,1.9,14.3c-1.6,4.6-4.2,8.2-6.9,9.5C71.4,56,70.7,56.2,70.1,56.2z M75.8,33.2
			c-0.4,0-0.9,0.1-1.3,0.3c-2.3,1.1-4.7,4.5-6.2,8.6c-2.2,6.4-1.2,11.6,1,12.5c0.6,0.2,1.3,0.2,2.1-0.2c2.3-1.1,4.7-4.5,6.2-8.6
			c2.2-6.4,1.2-11.6-1-12.5h0C76.3,33.2,76.1,33.2,75.8,33.2z"/>
	</g>
	<g>
		<path class="fiber-st0" d="M72.9,44l16.7,5.8"/>
		<path class="fiber-st1" d="M89.6,50.5c-0.1,0-0.2,0-0.2,0l-16.7-5.8c-0.4-0.1-0.6-0.5-0.4-0.9c0.1-0.4,0.5-0.6,0.9-0.4l16.7,5.8
			c0.4,0.1,0.6,0.5,0.4,0.9C90.2,50.3,89.9,50.5,89.6,50.5z"/>
	</g>
</g>
</svg>
