<?xml version="1.0" encoding="UTF-8"?>
<!DOCTYPE svg PUBLIC "-//W3C//DTD SVG 1.1//EN" "http://www.w3.org/Graphics/SVG/1.1/DTD/svg11.dtd">
<svg class="sr-beamline-item-icon" version="1.1" xmlns="http://www.w3.org/2000/svg" xmlns:xlink="http://www.w3.org/1999/xlink" x="0" y="0" width="34" height="34" viewBox="0, 0, 34, 34">
  <g id="Layer_1" transform="translate(-186.579, -61.112)">
    <g id="Add_Group">
      <path d="M191.557,62.112 L215.601,62.112 C217.798,62.112 219.579,64.19 219.579,66.753 L219.579,89.471 C219.579,92.034 217.798,94.112 215.601,94.112 L191.557,94.112 C189.36,94.112 187.579,92.034 187.579,89.471 L187.579,66.753 C187.579,64.19 189.36,62.112 191.557,62.112 z" fill-opacity="0" stroke="#8FC640" stroke-width="1" stroke-dasharray="3,2" id="Container"/>
      <g id="Cube_Source">
        <path d="M191.559,68.039 L200.378,68.039 L200.378,78.471 L191.559,78.471 L191.559,68.039 z" fill="#97B6D5" id="Front"/>
        <path d="M195.968,64.643 L203.317,64.643 L200.378,68.121 L191.559,68.121 L195.968,64.643 z" fill="#526374" id="Top"/>
        <path d="M200.378,78.471 L200.378,68.039 L203.317,64.643 L203.317,73.255 L200.378,78.471 z" fill="#526374" id="Side"/>
      </g>
      <g id="Triangle">
        <path d="M216.798,82.012 L216.798,84.632 L199.887,84.632 L199.887,82.012 L216.798,82.012 z" fill="#526374"/>
        <path d="M199.887,84.632 L208.343,91.934 L216.798,84.632 z" fill="#97B6D5"/>
      </g>
    </g>
  </g>
</svg>
