<?xml version="1.0" encoding="utf-8"?>
<!-- Generator: Adobe Illustrator 24.0.1, SVG Export Plug-In . SVG Version: 6.00 Build 0)  -->
<svg  class="srw-beamline-item-icon" version="1.1" id="Grating" xmlns="http://www.w3.org/2000/svg" xmlns:xlink="http://www.w3.org/1999/xlink" x="0px" y="0px"
	 viewBox="0 0 612 792" style="enable-background:new 0 0 612 792;" xml:space="preserve">
<style type="text/css">
	.grating-st0{enable-background:new    ;}
	.grating-st1{fill:#5D822B;}
	.grating-st2{fill:#4D6C23;}
	.grating-st3{fill:#678F2F;}
	.grating-st4{fill:#6F9B33;}
	.grating-st5{fill:#6D9832;}
	.grating-st6{fill:#4B6822;}
	.grating-st7{fill:#6E9A33;}
	.grating-st8{fill:#4B6922;}
	.grating-st9{fill:#4E6D24;}
	.grating-st10{fill:#6C9631;}
	.grating-st11{fill:#8EC641;stroke:#8EC641;stroke-width:0.7488;}
	.grating-st12{fill:#A059A2;}
	.grating-st13{fill:#EE3E23;}
	.grating-st14{fill:#3A53A4;}
</style>
<g>
	<g>
		<g>
			<g>
				<g class="grating-st0">
					<g>
						<polygon class="grating-st1" points="10.4,44.5 13.2,37.9 13.4,43.1 10.6,49.7 						"/>
					</g>
					<g>
						<polygon class="grating-st2" points="10.4,44.5 13.2,37.9 20.7,33.4 17.9,40 						"/>
					</g>
					<g>
						<polygon class="grating-st3" points="10.6,49.7 13.4,43.1 51.3,43.4 48.5,50.1 						"/>
					</g>
					<g>
						<polygon class="grating-st4" points="17.9,40 20.7,33.4 23.1,39 20.2,45.6 						"/>
					</g>
					<g>
						<polygon class="grating-st2" points="8.3,43.4 11.1,36.8 21.6,30.5 18.8,37.1 						"/>
					</g>
					<g>
						<polygon class="grating-st4" points="18.8,37.1 21.6,30.5 23.9,35.9 21.1,42.5 						"/>
					</g>
					<g>
						<polygon class="grating-st5" points="28,40 30.9,33.3 33,39.1 30.2,45.7 						"/>
					</g>
					<g>
						<polygon class="grating-st6" points="20.2,45.6 23.1,39 30.9,33.3 28,40 						"/>
					</g>
					<g>
						<polygon class="grating-st5" points="29,36.8 31.8,30.1 34,35.9 31.1,42.6 						"/>
					</g>
					<g>
						<polygon class="grating-st6" points="21.1,42.5 23.9,35.9 31.8,30.1 29,36.8 						"/>
					</g>
					<g>
						<polygon class="grating-st7" points="37.9,40.3 40.8,33.7 43,39 40.1,45.7 						"/>
					</g>
					<g>
						<polygon class="grating-st8" points="30.2,45.7 33,39.1 40.8,33.7 37.9,40.3 						"/>
					</g>
					<g>
						<polygon class="grating-st9" points="40.1,45.7 43,39 51,34.6 48.1,41.2 						"/>
					</g>
					<g>
						<polygon class="grating-st1" points="48.1,41.2 51,34.6 51.3,43.4 48.5,50.1 						"/>
					</g>
					<g>
						<path class="grating-st10" d="M50.1,37.9L50.6,52l-42-0.4l-0.3-8.2l10.5-6.3l2.3,5.4l7.9-5.7l2.2,5.8l7.7-5.4l2.3,5.6L50.1,37.9z
							 M10.6,49.7l37.9,0.4l-0.3-8.8l-8,4.4l-2.2-5.4l-7.8,5.4L28,40l-7.8,5.6L17.9,40l-7.5,4.5L10.6,49.7"/>
					</g>
					<g>
						<polygon class="grating-st10" points="28,40 30.2,45.7 37.9,40.3 40.1,45.7 48.1,41.2 48.5,50.1 10.6,49.7 10.4,44.5 17.9,40 
							20.2,45.6 						"/>
					</g>
					<g>
						<polygon class="grating-st8" points="31.1,42.6 34,35.9 41.6,30.6 38.8,37.2 						"/>
					</g>
					<g>
						<polygon class="grating-st7" points="38.8,37.2 41.6,30.6 43.9,36.2 41.1,42.8 						"/>
					</g>
					<g>
						<polygon class="grating-st9" points="41.1,42.8 43.9,36.2 52.9,31.2 50.1,37.9 						"/>
					</g>
					<g>
						<polygon class="grating-st1" points="50.1,37.9 52.9,31.2 53.4,45.4 50.6,52 						"/>
					</g>
				</g>
			</g>
		</g>
		<g>
			<polygon class="grating-st11" points="8.7,43.9 19.4,36.6 21.2,42.7 29.7,35.9 31.4,42.7 39.6,36.4 41.5,42.7 50,37.8 50.2,51.8 
				8.6,51.5 			"/>
		</g>
	</g>
	<path class="grating-st12" d="M51.8,21.8c-0.5,0-1.1-0.2-1.4-0.7c-0.6-0.8-0.5-1.8,0.3-2.4l0.1-0.1c0.8-0.6,1.9-0.4,2.5,0.3
		c0.6,0.8,0.4,1.9-0.3,2.5C52.6,21.7,52.1,21.8,51.8,21.8z M57.5,17.4c-0.5,0-1.1-0.2-1.4-0.6c-0.6-0.8-0.5-1.8,0.2-2.4l0.1-0.1
		c0.8-0.6,1.9-0.4,2.5,0.3c0.6,0.8,0.5,1.9-0.3,2.5C58.3,17.2,57.9,17.4,57.5,17.4z M63.3,12.9c-0.5,0-1.1-0.2-1.4-0.6
		c-0.6-0.8-0.5-1.8,0.2-2.4l0.1-0.1c0.8-0.6,1.9-0.5,2.5,0.3c0.6,0.8,0.5,1.9-0.3,2.5C64.1,12.8,63.7,12.9,63.3,12.9z"/>
	<path class="grating-st13" d="M37.6,33c-0.4,0-0.8,0-1.1-0.2c-0.8-0.5-1.1-1.5-0.6-2.3l0.1-0.1c0.5-0.8,1.6-1.1,2.4-0.5
		c0.8,0.5,1.1,1.6,0.5,2.4C38.7,32.6,38.1,32.9,37.6,33z M41.5,26.8c-0.4,0-0.8,0-1.1-0.2c-0.8-0.5-1.1-1.5-0.6-2.3l0.1-0.1
		c0.5-0.8,1.6-1.1,2.4-0.5c0.8,0.5,1.1,1.6,0.5,2.4C42.5,26.5,42,26.8,41.5,26.8z M45.4,20.7c-0.4,0-0.8,0-1.1-0.2
		c-0.8-0.5-1.1-1.5-0.6-2.3l0.1-0.1c0.5-0.8,1.6-1.1,2.4-0.5c0.8,0.5,1.1,1.6,0.5,2.4C46.4,20.3,45.9,20.6,45.4,20.7z M49.3,14.6
		c-0.4,0-0.8,0-1.1-0.2c-0.8-0.5-1.1-1.5-0.6-2.3l0.1-0.1c0.5-0.8,1.6-1.1,2.4-0.5c0.8,0.5,1.1,1.6,0.5,2.4
		C50.3,14.2,49.8,14.5,49.3,14.6z M53.2,8.4c-0.4,0-0.8,0-1.1-0.2c-0.8-0.5-1.1-1.5-0.6-2.3l0.1-0.1c0.5-0.8,1.6-1.1,2.4-0.5
		c0.8,0.5,1.1,1.6,0.5,2.4C54.2,8.1,53.7,8.4,53.2,8.4z"/>
	<g>
		<path class="grating-st14" d="M33,30.8c-0.3,0-0.6-0.1-0.8-0.2c-0.9-0.5-1.2-1.6-0.8-2.4c0.5-0.9,1.5-1.2,2.3-0.8l0.1,0.1
			c0.9,0.5,1.2,1.5,0.7,2.4C34.2,30.4,33.6,30.8,33,30.8z M27.4,27.8c-0.3,0-0.6-0.1-0.8-0.2c-0.9-0.5-1.2-1.6-0.8-2.4
			c0.5-0.9,1.5-1.2,2.3-0.8l0.1,0.1c0.9,0.5,1.2,1.5,0.7,2.4C28.6,27.4,28,27.8,27.4,27.8z M21.7,24.8c-0.3,0-0.6-0.1-0.8-0.2
			c-0.9-0.5-1.2-1.6-0.8-2.4c0.5-0.9,1.4-1.2,2.3-0.8l0.1,0.1c0.9,0.5,1.2,1.5,0.7,2.4C23,24.4,22.4,24.8,21.7,24.8z M16.1,21.8
			c-0.3,0-0.6-0.1-0.8-0.2c-0.9-0.5-1.2-1.6-0.8-2.4c0.5-0.9,1.4-1.2,2.3-0.8l0.1,0.1c0.9,0.5,1.2,1.5,0.7,2.4
			C17.3,21.4,16.7,21.8,16.1,21.8z M10.5,18.8c-0.3,0-0.6-0.1-0.8-0.2c-0.9-0.5-1.2-1.6-0.8-2.4c0.5-0.9,1.4-1.2,2.3-0.8l0.1,0.1
			c0.9,0.5,1.2,1.5,0.7,2.4C11.7,18.4,11.1,18.8,10.5,18.8z M4.8,15.8c-0.3,0-0.6-0.1-0.8-0.2c-0.9-0.5-1.2-1.6-0.8-2.4
			c0.5-0.9,1.4-1.2,2.3-0.8l0.1,0.1c0.9,0.5,1.2,1.5,0.7,2.4C6.1,15.4,5.5,15.8,4.8,15.8z"/>
	</g>
	<g>
		<path class="grating-st14" d="M44.3,31.9c-0.7,0-1.4-0.4-1.6-1.1c-0.4-0.9,0-1.9,0.9-2.3l0.1-0.1c0.9-0.4,1.9,0.1,2.3,0.9
			c0.4,0.9-0.1,1.9-0.9,2.3C44.8,31.9,44.5,31.9,44.3,31.9z M50.2,29.4c-0.7,0-1.4-0.4-1.6-1.1c-0.4-0.9,0-1.9,0.9-2.3l0.1-0.1
			c0.9-0.4,1.9,0.1,2.3,0.9c0.4,0.9-0.1,1.9-0.9,2.3C50.6,29.4,50.4,29.5,50.2,29.4z M56.1,27c-0.7,0-1.4-0.4-1.6-1.1
			c-0.4-0.9,0-1.9,0.9-2.3l0.1-0.1c0.9-0.4,1.9,0.1,2.3,0.9c0.4,0.9-0.1,1.9-0.9,2.3C56.5,27,56.3,27,56.1,27z M61.9,24.5
			c-0.7,0-1.4-0.4-1.6-1.1c-0.4-0.9,0-1.9,0.9-2.3l0.1-0.1c0.9-0.4,1.9,0.1,2.3,0.9c0.4,0.9-0.1,1.9-0.9,2.3
			C62.4,24.5,62.2,24.5,61.9,24.5z M67.8,22.1c-0.7,0-1.4-0.4-1.6-1c-0.4-0.9,0-1.9,0.9-2.3l0.1-0.1c0.9-0.4,1.9,0,2.3,0.9
			c0.4,0.9,0,1.9-0.9,2.3C68.3,22.1,68.1,22.1,67.8,22.1z"/>
	</g>
	<g>
		<path class="grating-st12" d="M46.6,25.8c-0.5,0-1.1-0.2-1.4-0.7c-0.6-0.8-0.5-1.8,0.3-2.4l0.1-0.1c0.8-0.6,1.9-0.4,2.5,0.3
			c0.6,0.8,0.4,1.9-0.3,2.5C47.4,25.6,47,25.8,46.6,25.8z"/>
	</g>
</g>
</svg>
