<?xml version="1.0" encoding="UTF-8"?>
<!DOCTYPE svg PUBLIC "-//W3C//DTD SVG 1.1//EN" "http://www.w3.org/Graphics/SVG/1.1/DTD/svg11.dtd">
<svg version="1.1" xmlns="http://www.w3.org/2000/svg" xmlns:xlink="http://www.w3.org/1999/xlink" x="0" y="0" width="32" height="31.813" viewBox="0, 0, 32, 31.813">
  <g id="ell" display="none">
    <path d="M0,7.813 L10.065,8 L10.065,23.935 L20.913,23.935 L20.913,31.813 L0,31.813 L0,7.813 z" fill="#97B6D5" id="Front"/>
    <path d="M10.848,0 L20.913,0 L10.065,8 L0,8 L10.848,0 z" fill="#526374"/>
    <path d="M20.913,15.935 L32,16.041 L21.104,23.935 L10.065,23.935 L20.913,15.935 z" fill="#526374"/>
    <path d="M20.913,23.935 L32,15.935 L32,23.813 L20.913,31.813 L20.913,23.935 z" fill="#7581A1"/>
    <path d="M21.099,12.601 L32,12.601 L24,23.935 L10.065,23.935 L21.099,12.601 z" fill="#526374" id="Top" display="none"/>
    <path d="M10.065,8 L20.913,0 L20.913,15.935 L10.065,23.935 L10.065,8 z" fill="#7581A1" id="Side"/>
  </g>
  <g id="jay" display="none">
    <path d="M-0,7.813 L7.387,8 L7.387,25.761 L18.235,25.761 L18.235,31.813 L-0,31.813 L-0,7.813 z" fill="#97B6D5" id="Front"/>
    <path d="M10.848,0 L20.913,0 L10.065,8 L0,8 L10.848,0 z" fill="#526374"/>
    <path d="M20.913,15.935 L32,16.041 L21.104,23.935 L10.065,23.935 L20.913,15.935 z" fill="#526374"/>
    <path d="M20.913,23.935 L32,15.935 L32,23.813 L20.913,31.813 L20.913,23.935 z" fill="#7581A1"/>
    <path d="M21.099,12.601 L32,12.601 L24,23.935 L10.065,23.935 L21.099,12.601 z" fill="#526374" id="Top" display="none"/>
    <path d="M10.065,8 L20.913,0 L20.913,15.935 L10.065,23.935 L10.065,8 z" fill="#7581A1" id="Side"/>
  </g>
  <g id="cee" display="none">
    <path d="M21.099,16.604 L32,16.057 L24,23.935 L10.065,23.935 L21.099,16.604 z" fill="#526374" id="Top" display="none"/>
    <path d="M18.065,16.057 L32,16.057 L24,23.935 L10.065,23.935 L18.065,16.057 z" fill="#526374" id="Top"/>
    <path d="M10.065,23.935 L9.971,16.604 L17.542,16.604 L10.065,23.935 z" fill="#7581A1" id="Side"/>
    <path d="M0,7.813 L24,7.813 L24,16.604 L9.971,16.604 L10.065,23.935 L24,23.935 L24,31.813 L0,31.813 L0,7.813 z" fill="#97B6D5" id="Front"/>
    <path d="M24,7.813 L32,-0.065 L32,8.726 L24,16.604 L24,7.813 z" fill="#7581A1" id="Side"/>
    <path d="M24,23.935 L32,16.057 L32,23.935 L24,31.813 L24,23.935 z" fill="#7581A1" id="Side"/>
    <path d="M8,-0.065 L32,-0.065 L24,7.813 L0,7.813 L8,-0.065 z" fill="#526374" id="Top"/>
  </g>
  <g id="j2">
    <path d="M21.099,16.604 L32,16.057 L24,23.935 L10.065,23.935 L21.099,16.604 z" fill="#526374" id="Top" display="none"/>
    <path d="M15.817,13.699 L26.551,13.699 L18.673,21.809 L7.939,21.809 L15.817,13.699 z" fill="#62739F"/>
    <path d="M15.817,13.809 L15.817,-0.126 L7.939,7.874 L7.939,21.809 L15.817,13.809 z" fill="#526374" id="Top"/>
    <path d="M24.061,31.874 L24.061,17.97 L15.27,17.97 L15.27,21.809 L7.939,21.809 L7.939,7.874 L0.061,7.874 L0.061,31.874 L24.061,31.874 z" fill="#97B6D5" id="Front"/>
    <path d="M24.061,17.971 L31.939,9.971 L23.148,9.971 L15.27,17.971 L24.061,17.971 z" fill="#7581A1" id="Side"/>
    <path d="M7.939,7.874 L15.817,-0.126 L7.939,-0.126 L0.061,7.874 L7.939,7.874 z" fill="#7581A1" id="Side"/>
    <path d="M31.939,23.874 L31.939,9.971 L24.061,17.971 L24.061,31.874 L31.939,23.874 z" fill="#526374" id="Top"/>
  </g>
</svg>
