<?xml version="1.0" encoding="utf-8"?>
<!-- Generator: Adobe Illustrator 24.0.1, SVG Export Plug-In . SVG Version: 6.00 Build 0)  -->
<svg class="srw-beamline-item-icon" version="1.1" id="Lens" xmlns="http://www.w3.org/2000/svg" xmlns:xlink="http://www.w3.org/1999/xlink" x="0px" y="0px"
	 viewBox="0 0 612 792" style="enable-background:new 0 0 612 792;" xml:space="preserve">
<style type="text/css">
	.lens-st0{fill:#BBD8F1;}
	.lens-st1{fill:#6396B6;}
	.lens-st2{fill:#3A53A4;}
</style>
<g>
	<rect x="65.1" y="5.4" class="lens-st0" width="2.6" height="46.6"/>
	<g>
		<path class="lens-st1" d="M62.2,11.4c-0.8,2.2-1.4,4.6-1.9,7.2c0,0,0,0.1,0,0.1c-0.1,0.4-0.2,0.9-0.2,1.3c0,0.3-0.1,0.5-0.1,0.8
			c0,0.3-0.1,0.7-0.1,1c-0.1,0.7-0.1,1.3-0.2,2c0,0.1,0,0.2,0,0.3c-0.1,1.5-0.2,3.1-0.2,4.7c0,9.4,2.2,17.8,5.7,23.3V5.4
			C64,7.1,63,9.2,62.2,11.4L62.2,11.4z"/>
		<path class="lens-st1" d="M72.5,38.8c0,0,0-0.1,0-0.1c0.1-0.4,0.2-0.9,0.2-1.3c0-0.3,0.1-0.5,0.1-0.8c0-0.3,0.1-0.7,0.1-1
			c0.1-0.7,0.1-1.3,0.2-2c0-0.1,0-0.2,0-0.3c0.1-1.5,0.2-3.1,0.2-4.7c0-9.4-2.2-17.8-5.7-23.3V52c1.1-1.7,2.1-3.8,2.9-6.1V46
			C71.4,43.8,72.1,41.4,72.5,38.8z"/>
	</g>
	<g>
		<path class="lens-st2" d="M71.4,29.6c-1.1,0-2-0.9-2-1.9c0-1.1,0.8-1.9,1.8-1.9h0.2c1.1,0,1.9,0.9,1.9,1.9
			C73.3,28.7,72.5,29.6,71.4,29.6z M60.6,29.6c-1.1,0-2-0.9-2-1.9c0-1.1,0.8-1.9,1.8-1.9h0.2c1.1,0,1.9,0.9,1.9,1.9
			C62.5,28.7,61.6,29.6,60.6,29.6z M49.7,29.6c-1.1,0-2-0.9-2-1.9c0-1.1,0.8-1.9,1.8-1.9h0.2c1.1,0,1.9,0.9,1.9,1.9
			C51.6,28.7,50.8,29.6,49.7,29.6z M38.8,29.6c-1.1,0-2-0.9-2-1.9c0-1.1,0.8-1.9,1.8-1.9h0.2c1.1,0,1.9,0.9,1.9,1.9
			C40.8,28.7,39.9,29.6,38.8,29.6z M28,29.6c-1.1,0-2-0.9-2-1.9c0-1.1,0.8-1.9,1.8-1.9H28c1.1,0,1.9,0.9,1.9,1.9
			C29.9,28.7,29,29.6,28,29.6z M17.1,29.6c-1.1,0-2-0.9-2-1.9c0-1.1,0.8-1.9,1.8-1.9h0.2c1.1,0,1.9,0.9,1.9,1.9
			C19,28.7,18.2,29.6,17.1,29.6z"/>
	</g>
	<g>
		<path class="lens-st2" d="M89.3,29.5c-0.3,0-0.5-0.1-0.8-0.2c-1-0.4-1.5-1.6-1-2.6c0.4-1,1.5-1.4,2.4-1l0.2,0.1c1,0.4,1.4,1.6,1,2.5
			C90.8,29.1,90.1,29.5,89.3,29.5z M80.9,23.6c-0.3,0-0.5-0.1-0.8-0.2c-1-0.4-1.5-1.6-1.1-2.6c0.4-1,1.5-1.4,2.4-1l0.2,0.1
			c1,0.4,1.4,1.6,1,2.5C82.3,23.2,81.6,23.6,80.9,23.6z M71,19.2c-0.3,0-0.5-0.1-0.8-0.2c-1-0.4-1.5-1.6-1.1-2.6
			c0.4-1,1.5-1.4,2.4-1l0.2,0.1c1,0.4,1.4,1.6,1,2.5C72.4,18.7,71.7,19.2,71,19.2z M60.6,16.9C60.5,16.9,60.5,16.9,60.6,16.9
			c-1.1,0-2.1-0.9-2-2c0-1.1,0.8-1.9,1.9-1.9l0.2,0c1.1,0,1.9,0.9,1.9,2C62.4,16.1,61.6,16.9,60.6,16.9z M49.7,16.6
			C49.7,16.6,49.7,16.6,49.7,16.6c-1.1,0-2.1-0.9-2-2c0-1.1,0.8-1.9,1.9-1.9l0.2,0c1.1,0,1.9,0.9,1.9,2
			C51.6,15.8,50.7,16.6,49.7,16.6z M38.8,16.3C38.8,16.3,38.8,16.3,38.8,16.3c-1.1,0-2.1-0.9-2-2c0-1.1,0.7-1.9,1.9-1.9l0.2,0
			c1.1,0,1.9,0.9,1.9,2C40.7,15.5,39.9,16.3,38.8,16.3z M28,16C28,16,28,16,28,16c-1.1,0-2.1-0.9-2-2c0-1.1,0.9-1.8,1.9-1.9l0.2,0
			c1.1,0,1.9,0.9,1.9,2C29.9,15.2,29,16,28,16z M17.1,15.7C17.1,15.7,17.1,15.7,17.1,15.7c-1.1,0-2.1-0.9-2-2c0-1.1,0.8-1.9,1.9-1.9
			l0.2,0c1.1,0,1.9,0.9,1.9,2C19,14.8,18.2,15.7,17.1,15.7z"/>
	</g>
	<g>
		<path class="lens-st2" d="M17.1,43c-1,0-2-0.8-2-1.9c0-1.1,0.7-1.9,1.8-2l0.2,0c1.1,0,1.9,0.8,2,1.9C19.1,42.1,18.2,43,17.1,43
			C17.2,43,17.1,43,17.1,43z M6.8,29.6c-1.1,0-2-0.9-2-1.9c0-1.1,0.8-1.9,1.8-1.9h0.2c1.1,0,1.9,0.9,1.9,1.9
			C8.7,28.7,7.9,29.6,6.8,29.6z M6.8,15.7C6.8,15.7,6.8,15.7,6.8,15.7c-1.1,0-2.1-0.9-2-2c0-1.1,0.8-1.9,1.9-1.9l0.2,0
			c1.1,0,1.9,0.9,1.9,2C8.7,14.8,7.8,15.7,6.8,15.7z M6.8,43c-1,0-2-0.8-2-1.9c0-1.1,0.7-1.9,1.8-2l0.2,0c1.1,0,1.9,0.8,2,1.9
			C8.7,42.1,7.9,43,6.8,43C6.8,43,6.8,43,6.8,43z M28,42.8c-1,0-2-0.8-2-1.9c0-1.1,0.7-1.9,1.8-1.9l0.2,0c0,0,0,0,0,0
			c1,0,1.9,0.8,1.9,1.9C29.9,41.9,29.1,42.8,28,42.8C28,42.8,28,42.8,28,42.8z M38.8,42.6c-1,0-2-0.8-2-1.9c0-1.1,0.7-1.9,1.8-2
			l0.2,0c1,0,1.9,0.8,2,1.9C40.8,41.7,39.9,42.6,38.8,42.6C38.9,42.6,38.9,42.6,38.8,42.6z M49.7,42.4c-1,0-2-0.8-2-1.9
			c0-1.1,0.7-1.9,1.8-2l0.2,0c0,0,0,0,0,0c1,0,1.9,0.8,1.9,1.9C51.6,41.5,50.8,42.4,49.7,42.4C49.7,42.4,49.7,42.4,49.7,42.4z
			 M60.6,42.2c-1,0-2-0.8-2-1.9c0-1.1,0.7-1.9,1.8-2l0.2,0c0,0,0,0,0,0c1,0,1.9,0.8,1.9,1.9C62.5,41.3,61.7,42.2,60.6,42.2
			C60.6,42.2,60.6,42.2,60.6,42.2z M70.9,40c-0.7,0-1.5-0.4-1.8-1.1c-0.4-1-0.1-2.1,0.9-2.5l0.2-0.1c1-0.4,2.1,0,2.5,1
			c0.4,1,0,2.1-1,2.5C71.5,40,71.2,40,70.9,40z M80.8,35.6c-0.7,0-1.5-0.4-1.8-1.1c-0.4-1-0.1-2.1,0.9-2.5l0.2-0.1
			c1-0.4,2.1,0,2.5,1c0.4,1,0,2.1-1,2.5C81.4,35.5,81.1,35.6,80.8,35.6z"/>
	</g>
	<g>
		<path class="lens-st2" d="M99.7,29.6c-0.3,0-0.5-0.1-0.8-0.2c-1-0.4-1.5-1.6-1-2.6c0.4-1,1.5-1.4,2.4-1l0.2,0.1c1,0.4,1.4,1.6,1,2.5
			C101.1,29.2,100.4,29.6,99.7,29.6z"/>
	</g>
</g>
</svg>
