<?xml version="1.0" encoding="utf-8"?>
<!-- Generator: Adobe Illustrator 24.0.1, SVG Export Plug-In . SVG Version: 6.00 Build 0)  -->
<svg  class="srw-beamline-item-icon" version="1.1" id="Planar" xmlns="http://www.w3.org/2000/svg" xmlns:xlink="http://www.w3.org/1999/xlink" x="0px" y="0px"
	 viewBox="0 0 612 792" style="enable-background:new 0 0 612 792;" xml:space="preserve">
<style type="text/css">
	.planar-st0{enable-background:new    ;}
	.planar-st1{fill:#86A1BD;}
	.planar-st2{fill:#6F869D;}
	.planar-st3{fill:#617589;}
	.planar-st4{fill:#A4C6E8;}
	.planar-st5{fill:#58595B;}
</style>
<g transform="translate(0,5)">
<g transform="translate(60, 60) rotate(-90, 0, 0) scale(1, -1)">
<g>
  <g>
    <g>
      <g class="planar-st0">
	<g>
	  <polygon class="planar-st1" points="79.2,35.8 79.4,46.1 7.6,46.6 7.4,36.0"/>
	</g>
	<g>
	  <polygon class="planar-st2" points="79.2,35.8 85.1,32.9 85.3,43.1 79.4,46.1"/>
	</g>
	<g>
	  <polygon class="planar-st3" points="7.4,36.3 13.2,33.4 85.1,32.9 79.2,35.8"/>
	</g>
      </g>
    </g>
  </g>
  <polygon class="planar-st4" points="79.3,46 7.5,46.6 7.4,36.4 79.1,35.9"/>
</g>
<g transform="translate(0, 50) scale(1, -2)">
<path class="planar-st5" d="M46.2,33.5c-0.3,0-0.6-0.1-0.9-0.2l-0.2-0.1c-0.9-0.5-1.2-1.6-0.7-2.4c0.5-0.9,1.6-1.2,2.4-0.7l0.2,0.1
	c0.9,0.5,1.2,1.6,0.7,2.4C47.5,33.2,46.9,33.5,46.2,33.5z M53.2,31.4c-0.6,0-1.2-0.3-1.5-0.8c-0.5-0.8-0.3-2,0.5-2.5l0.2-0.1
	c0.8-0.5,2-0.3,2.5,0.5c0.5,0.8,0.3,2-0.5,2.5l-0.2,0.1C53.9,31.3,53.5,31.4,53.2,31.4z M38.9,29.6c-0.3,0-0.6-0.1-0.9-0.2l-0.2-0.1
	c-0.9-0.5-1.2-1.6-0.7-2.4c0.5-0.9,1.6-1.2,2.4-0.7l0.2,0.1c0.9,0.5,1.2,1.6,0.7,2.4C40.2,29.2,39.6,29.6,38.9,29.6z M60.2,26.9
	c-0.6,0-1.2-0.3-1.5-0.8c-0.5-0.8-0.3-2,0.5-2.5l0.2-0.1c0.8-0.5,2-0.3,2.5,0.5c0.5,0.8,0.3,2-0.5,2.5l-0.2,0.1
	C60.8,26.8,60.5,26.9,60.2,26.9z M31.6,25.7c-0.3,0-0.6-0.1-0.9-0.2l-0.2-0.1c-0.9-0.5-1.2-1.6-0.7-2.4c0.5-0.9,1.6-1.2,2.4-0.7
	l0.2,0.1c0.9,0.5,1.2,1.6,0.7,2.4C32.9,25.3,32.2,25.7,31.6,25.7z M67.1,22.4c-0.6,0-1.2-0.3-1.5-0.8c-0.5-0.8-0.3-2,0.5-2.5
	l0.2-0.1c0.8-0.5,2-0.3,2.5,0.5c0.5,0.8,0.3,2-0.5,2.5l-0.2,0.1C67.8,22.3,67.5,22.4,67.1,22.4z M24.3,21.7c-0.3,0-0.6-0.1-0.9-0.2
	l-0.2-0.1c-0.9-0.5-1.2-1.6-0.7-2.4c0.5-0.9,1.6-1.2,2.4-0.7l0.2,0.1c0.9,0.5,1.2,1.6,0.7,2.4C25.6,21.4,24.9,21.7,24.3,21.7z
	 M74.1,17.9c-0.6,0-1.2-0.3-1.5-0.8c-0.5-0.8-0.3-2,0.5-2.5l0.2-0.1c0.8-0.5,2-0.3,2.5,0.5s0.3,2-0.5,2.5l-0.2,0.1
	C74.8,17.8,74.4,17.9,74.1,17.9z M17,17.8c-0.3,0-0.6-0.1-0.9-0.2L16,17.5c-0.9-0.5-1.2-1.6-0.7-2.4c0.5-0.9,1.6-1.2,2.4-0.7
	l0.2,0.1c0.9,0.5,1.2,1.6,0.7,2.4C18.2,17.4,17.6,17.8,17,17.8z M81.1,13.4c-0.6,0-1.2-0.3-1.5-0.8c-0.5-0.8-0.3-2,0.5-2.5l0.2-0.1
	c0.8-0.5,2-0.3,2.5,0.5c0.5,0.8,0.3,2-0.5,2.5l-0.2,0.1C81.7,13.3,81.4,13.4,81.1,13.4z M9.7,13.9c-0.3,0-0.6-0.1-0.9-0.2l-0.2-0.1
	c-0.9-0.5-1.2-1.6-0.7-2.4c0.5-0.9,1.6-1.2,2.4-0.7l0.2,0.1c0.9,0.5,1.2,1.6,0.7,2.4C10.9,13.5,10.3,13.9,9.7,13.9z"/>
</g>
</g>
</g>
</svg>
