<?xml version="1.0" encoding="utf-8"?>
<!-- Generator: Adobe Illustrator 24.0.1, SVG Export Plug-In . SVG Version: 6.00 Build 0)  -->
<svg  class="srw-beamline-item-icon" version="1.1" id="Mask" xmlns="http://www.w3.org/2000/svg" xmlns:xlink="http://www.w3.org/1999/xlink" x="0px" y="0px"
	 viewBox="0 0 792 612" style="enable-background:new 0 0 792 612;" xml:space="preserve">
<style type="text/css">
	.mask-st0{enable-background:new    ;}
	.mask-st1{clip-path:url(#MASK_SVGID_2_);enable-background:new    ;}
	.mask-st2{fill:#4A6722;}
	.mask-st3{fill:#4D6B23;}
	.mask-st4{fill:#506F24;}
	.mask-st5{fill:#537326;}
	.mask-st6{fill:#567727;}
	.mask-st7{fill:#597B28;}
	.mask-st8{fill:#5C7F2A;}
	.mask-st9{fill:#5E832B;}
	.mask-st10{fill:#61872C;}
	.mask-st11{fill:#648B2D;}
	.mask-st12{clip-path:url(#MASK_SVGID_4_);enable-background:new    ;}
	.mask-st13{clip-path:url(#MASK_SVGID_6_);enable-background:new    ;}
	.mask-st14{clip-path:url(#MASK_SVGID_8_);enable-background:new    ;}
	.mask-st15{clip-path:url(#MASK_SVGID_10_);enable-background:new    ;}
	.mask-st16{clip-path:url(#MASK_SVGID_12_);enable-background:new    ;}
	.mask-st17{clip-path:url(#MASK_SVGID_14_);enable-background:new    ;}
	.mask-st18{clip-path:url(#MASK_SVGID_16_);enable-background:new    ;}
	.mask-st19{clip-path:url(#MASK_SVGID_18_);enable-background:new    ;}
	.mask-st20{clip-path:url(#MASK_SVGID_20_);enable-background:new    ;}
	.mask-st21{clip-path:url(#MASK_SVGID_22_);enable-background:new    ;}
	.mask-st22{clip-path:url(#MASK_SVGID_24_);enable-background:new    ;}
	.mask-st23{clip-path:url(#MASK_SVGID_26_);enable-background:new    ;}
	.mask-st24{clip-path:url(#MASK_SVGID_28_);enable-background:new    ;}
	.mask-st25{clip-path:url(#MASK_SVGID_30_);enable-background:new    ;}
	.mask-st26{clip-path:url(#MASK_SVGID_32_);enable-background:new    ;}
	.mask-st27{clip-path:url(#MASK_SVGID_34_);enable-background:new    ;}
	.mask-st28{clip-path:url(#MASK_SVGID_36_);enable-background:new    ;}
	.mask-st29{fill:#76A436;}
	.mask-st30{fill:#517125;}
	.mask-st31{fill:#3A53A4;}
</style>
<g>
	<g>
		<g>
			<g class="mask-st0">
				<g class="mask-st0">
					<defs>
						<path id="MASK_SVGID_1_" class="mask-st0" d="M32.6,37.2l2.1-0.3c-1.3,0.2-2.3,1.3-2.3,2.7c0,1.5,1.2,2.8,2.7,2.8L33,42.6
							c-1.5,0-2.7-1.2-2.7-2.8C30.3,38.5,31.3,37.4,32.6,37.2z"/>
					</defs>
					<clipPath id="MASK_SVGID_2_">
						<use xlink:href="#MASK_SVGID_1_"  style="overflow:visible;"/>
					</clipPath>
					<g class="mask-st1">
						<path class="mask-st2" d="M32.6,37.2l2.1-0.3c-0.7,0.1-1.3,0.5-1.7,1.1l-2.1,0.3C31.2,37.7,31.9,37.3,32.6,37.2"/>
						<path class="mask-st3" d="M30.8,38.2l2.1-0.3c-0.1,0.1-0.1,0.2-0.2,0.3l-2.1,0.3C30.7,38.5,30.8,38.3,30.8,38.2"/>
						<path class="mask-st4" d="M30.6,38.6l2.1-0.3c-0.1,0.1-0.1,0.2-0.1,0.3l-2.1,0.3C30.5,38.8,30.6,38.7,30.6,38.6"/>
						<path class="mask-st5" d="M30.5,38.9l2.1-0.3c0,0.1-0.1,0.2-0.1,0.3l-2.1,0.3C30.4,39,30.4,39,30.5,38.9"/>
						<path class="mask-st6" d="M30.4,39.1l2.1-0.3c0,0.1,0,0.2-0.1,0.3l-2.1,0.3C30.3,39.3,30.4,39.2,30.4,39.1"/>
						<path class="mask-st7" d="M30.3,39.4l2.1-0.3c0,0.1,0,0.2,0,0.3l-2.1,0.3C30.3,39.6,30.3,39.5,30.3,39.4"/>
						<path class="mask-st8" d="M30.3,39.7l2.1-0.3c0,0.1,0,0.1,0,0.2c0,0,0,0.1,0,0.1L30.3,40c0,0,0-0.1,0-0.1
							C30.3,39.8,30.3,39.8,30.3,39.7"/>
						<path class="mask-st9" d="M30.3,40l2.1-0.3c0,0.1,0,0.2,0,0.3l-2.1,0.3C30.3,40.2,30.3,40.1,30.3,40"/>
						<path class="mask-st10" d="M30.3,40.3l2.1-0.3c0,0.1,0.1,0.3,0.1,0.4l-2.1,0.3C30.4,40.6,30.4,40.5,30.3,40.3"/>
						<path class="mask-st11" d="M30.4,40.8l2.1-0.3c0.2,0.5,0.5,0.9,0.8,1.3L31.3,42C30.9,41.7,30.6,41.2,30.4,40.8"/>
						<path class="mask-st10" d="M31.3,42l2.1-0.3c0.1,0.1,0.2,0.2,0.4,0.3l-2.1,0.3C31.5,42.2,31.4,42.1,31.3,42"/>
						<path class="mask-st9" d="M31.6,42.3l2.1-0.3c0.1,0.1,0.2,0.1,0.3,0.2l-2.1,0.3C31.8,42.4,31.7,42.3,31.6,42.3"/>
						<path class="mask-st8" d="M31.9,42.4l2.1-0.3c0.1,0,0.2,0.1,0.3,0.1l-2.1,0.3C32.1,42.5,32,42.4,31.9,42.4"/>
						<path class="mask-st7" d="M32.2,42.5l2.1-0.3c0.1,0,0.2,0.1,0.3,0.1l-2.1,0.3C32.4,42.6,32.3,42.5,32.2,42.5"/>
						<path class="mask-st6" d="M32.5,42.6l2.1-0.3c0.1,0,0.2,0,0.3,0l-2.1,0.3C32.7,42.6,32.6,42.6,32.5,42.6"/>
						<path class="mask-st5" d="M32.8,42.6l2.1-0.3c0.1,0,0.2,0,0.2,0L33,42.6C32.9,42.6,32.8,42.6,32.8,42.6"/>
					</g>
				</g>
				<g class="mask-st0">
					<defs>
						<path id="MASK_SVGID_3_" class="mask-st0" d="M35.6,42.3l-2.1,0.3c-0.1,0-0.3,0-0.5,0l2.1-0.3C35.3,42.3,35.4,42.3,35.6,42.3z"/>
					</defs>
					<clipPath id="MASK_SVGID_4_">
						<use xlink:href="#MASK_SVGID_3_"  style="overflow:visible;"/>
					</clipPath>
					<g class="mask-st12">
						<path class="mask-st5" d="M33,42.6l2.1-0.3c0,0,0,0,0,0L33,42.6C33,42.6,33,42.6,33,42.6"/>
						<path class="mask-st4" d="M33,42.6l2.1-0.3c0.1,0,0.2,0,0.3,0l-2.1,0.3C33.3,42.6,33.2,42.6,33,42.6"/>
						<path class="mask-st3" d="M33.4,42.6l2.1-0.3c0,0,0.1,0,0.1,0L33.4,42.6C33.4,42.6,33.4,42.6,33.4,42.6"/>
					</g>
				</g>
				<g class="mask-st0">
					<defs>
						<path id="MASK_SVGID_5_" class="mask-st0" d="M32.6,24.6l2.1-0.3c-1.3,0.2-2.3,1.3-2.3,2.7c0,1.5,1.2,2.8,2.7,2.8L33,30.1
							c-1.5,0-2.7-1.2-2.7-2.8C30.3,26,31.3,24.8,32.6,24.6z"/>
					</defs>
					<clipPath id="MASK_SVGID_6_">
						<use xlink:href="#MASK_SVGID_5_"  style="overflow:visible;"/>
					</clipPath>
					<g class="mask-st13">
						<path class="mask-st2" d="M32.6,24.6l2.1-0.3c-0.7,0.1-1.3,0.5-1.7,1.1l-2.1,0.3C31.3,25.1,31.9,24.7,32.6,24.6"/>
						<path class="mask-st3" d="M30.9,25.7l2.1-0.3c-0.1,0.1-0.1,0.2-0.2,0.3L30.6,26C30.7,25.9,30.8,25.8,30.9,25.7"/>
						<path class="mask-st4" d="M30.6,26l2.1-0.3c-0.1,0.1-0.1,0.2-0.1,0.3l-2.1,0.3C30.6,26.2,30.6,26.1,30.6,26"/>
						<path class="mask-st5" d="M30.5,26.3l2.1-0.3c0,0.1-0.1,0.2-0.1,0.3l-2.1,0.3C30.4,26.5,30.5,26.4,30.5,26.3"/>
						<path class="mask-st6" d="M30.4,26.6l2.1-0.3c0,0.1,0,0.2-0.1,0.3l-2.1,0.3C30.4,26.8,30.4,26.7,30.4,26.6"/>
						<path class="mask-st7" d="M30.4,26.9l2.1-0.3c0,0.1,0,0.2,0,0.3l-2.1,0.3C30.3,27,30.3,27,30.4,26.9"/>
						<path class="mask-st8" d="M30.3,27.1l2.1-0.3c0,0.1,0,0.1,0,0.2c0,0,0,0.1,0,0.1l-2.1,0.3c0,0,0-0.1,0-0.1
							C30.3,27.3,30.3,27.2,30.3,27.1"/>
						<path class="mask-st9" d="M30.3,27.4l2.1-0.3c0,0.1,0,0.2,0,0.3l-2.1,0.3C30.3,27.7,30.3,27.6,30.3,27.4"/>
						<path class="mask-st10" d="M30.4,27.8l2.1-0.3c0,0.1,0.1,0.3,0.1,0.4l-2.1,0.3C30.4,28.1,30.4,27.9,30.4,27.8"/>
						<path class="mask-st11" d="M30.5,28.2l2.1-0.3c0.2,0.5,0.5,0.9,0.8,1.3l-2.1,0.3C30.9,29.1,30.6,28.7,30.5,28.2"/>
						<path class="mask-st10" d="M31.3,29.5l2.1-0.3c0.1,0.1,0.2,0.2,0.4,0.3l-2.1,0.3C31.5,29.6,31.4,29.5,31.3,29.5"/>
						<path class="mask-st9" d="M31.7,29.7l2.1-0.3c0.1,0.1,0.2,0.1,0.3,0.2L32,29.9C31.9,29.8,31.8,29.8,31.7,29.7"/>
						<path class="mask-st8" d="M32,29.9l2.1-0.3c0.1,0,0.2,0.1,0.3,0.1L32.2,30C32.1,29.9,32,29.9,32,29.9"/>
						<path class="mask-st7" d="M32.2,30l2.1-0.3c0.1,0,0.2,0.1,0.3,0.1L32.5,30C32.4,30,32.3,30,32.2,30"/>
						<path class="mask-st6" d="M32.5,30l2.1-0.3c0.1,0,0.2,0,0.3,0l-2.1,0.3C32.7,30.1,32.6,30.1,32.5,30"/>
						<path class="mask-st5" d="M32.8,30.1l2.1-0.3c0.1,0,0.2,0,0.2,0L33,30.1C32.9,30.1,32.9,30.1,32.8,30.1"/>
					</g>
				</g>
				<g class="mask-st0">
					<defs>
						<path id="MASK_SVGID_7_" class="mask-st0" d="M35.6,29.7l-2.1,0.3c-0.1,0-0.3,0-0.5,0l2.1-0.3C35.3,29.7,35.5,29.7,35.6,29.7z"/>
					</defs>
					<clipPath id="MASK_SVGID_8_">
						<use xlink:href="#MASK_SVGID_7_"  style="overflow:visible;"/>
					</clipPath>
					<g class="mask-st14">
						<path class="mask-st5" d="M33,30.1l2.1-0.3c0,0,0,0,0,0L33,30.1C33.1,30.1,33,30.1,33,30.1"/>
						<path class="mask-st4" d="M33.1,30.1l2.1-0.3c0.1,0,0.2,0,0.3,0l-2.1,0.3C33.3,30.1,33.2,30.1,33.1,30.1"/>
						<path class="mask-st3" d="M33.4,30.1l2.1-0.3c0,0,0.1,0,0.1,0L33.4,30.1C33.5,30.1,33.4,30.1,33.4,30.1"/>
					</g>
				</g>
				<g class="mask-st0">
					<defs>
						<path id="MASK_SVGID_9_" class="mask-st0" d="M32.6,12.1l2.1-0.3c-1.3,0.2-2.3,1.3-2.3,2.7c0,1.5,1.2,2.8,2.7,2.8l-2.1,0.3
							c-1.5,0-2.7-1.2-2.7-2.8C30.3,13.4,31.3,12.3,32.6,12.1z"/>
					</defs>
					<clipPath id="MASK_SVGID_10_">
						<use xlink:href="#MASK_SVGID_9_"  style="overflow:visible;"/>
					</clipPath>
					<g class="mask-st15">
						<path class="mask-st2" d="M32.6,12.1l2.1-0.3c-0.7,0.1-1.3,0.5-1.7,1.1l-2.1,0.3C31.3,12.6,31.9,12.2,32.6,12.1"/>
						<path class="mask-st3" d="M30.9,13.1l2.1-0.3c-0.1,0.1-0.1,0.2-0.2,0.3l-2.1,0.3C30.7,13.3,30.8,13.2,30.9,13.1"/>
						<path class="mask-st4" d="M30.7,13.5l2.1-0.3c-0.1,0.1-0.1,0.2-0.1,0.3l-2.1,0.3C30.6,13.7,30.6,13.6,30.7,13.5"/>
						<path class="mask-st5" d="M30.5,13.8l2.1-0.3c0,0.1-0.1,0.2-0.1,0.3L30.4,14C30.5,13.9,30.5,13.8,30.5,13.8"/>
						<path class="mask-st6" d="M30.4,14l2.1-0.3c0,0.1,0,0.2-0.1,0.3l-2.1,0.3C30.4,14.2,30.4,14.1,30.4,14"/>
						<path class="mask-st7" d="M30.4,14.3l2.1-0.3c0,0.1,0,0.2,0,0.3l-2.1,0.3C30.4,14.5,30.4,14.4,30.4,14.3"/>
						<path class="mask-st8" d="M30.4,14.6l2.1-0.3c0,0.1,0,0.1,0,0.2c0,0,0,0.1,0,0.1l-2.1,0.3c0,0,0-0.1,0-0.1
							C30.3,14.7,30.3,14.6,30.4,14.6"/>
						<path class="mask-st9" d="M30.3,14.9l2.1-0.3c0,0.1,0,0.2,0,0.3l-2.1,0.3C30.4,15.1,30.4,15,30.3,14.9"/>
						<path class="mask-st10" d="M30.4,15.2l2.1-0.3c0,0.1,0.1,0.3,0.1,0.4l-2.1,0.3C30.4,15.5,30.4,15.4,30.4,15.2"/>
						<path class="mask-st11" d="M30.5,15.6l2.1-0.3c0.2,0.5,0.5,0.9,0.8,1.3l-2.1,0.3C30.9,16.6,30.6,16.1,30.5,15.6"/>
						<path class="mask-st10" d="M31.3,16.9l2.1-0.3c0.1,0.1,0.2,0.2,0.4,0.3l-2.1,0.3C31.6,17.1,31.4,17,31.3,16.9"/>
						<path class="mask-st9" d="M31.7,17.2l2.1-0.3c0.1,0.1,0.2,0.1,0.3,0.2L32,17.3C31.9,17.3,31.8,17.2,31.7,17.2"/>
						<path class="mask-st8" d="M32,17.3l2.1-0.3c0.1,0,0.2,0.1,0.3,0.1l-2.1,0.3C32.2,17.4,32.1,17.3,32,17.3"/>
						<path class="mask-st7" d="M32.3,17.4l2.1-0.3c0.1,0,0.2,0.1,0.3,0.1l-2.1,0.3C32.4,17.5,32.3,17.4,32.3,17.4"/>
						<path class="mask-st6" d="M32.5,17.5l2.1-0.3c0.1,0,0.2,0,0.3,0l-2.1,0.3C32.7,17.5,32.6,17.5,32.5,17.5"/>
						<path class="mask-st5" d="M32.8,17.5l2.1-0.3c0.1,0,0.2,0,0.2,0l-2.1,0.3C33,17.5,32.9,17.5,32.8,17.5"/>
					</g>
				</g>
				<g class="mask-st0">
					<defs>
						<path id="MASK_SVGID_11_" class="mask-st0" d="M35.6,17.2l-2.1,0.3c-0.1,0-0.3,0-0.5,0l2.1-0.3C35.4,17.2,35.5,17.2,35.6,17.2z"/>
					</defs>
					<clipPath id="MASK_SVGID_12_">
						<use xlink:href="#MASK_SVGID_11_"  style="overflow:visible;"/>
					</clipPath>
					<g class="mask-st16">
						<path class="mask-st5" d="M33.1,17.5l2.1-0.3c0,0,0,0,0,0L33.1,17.5C33.1,17.5,33.1,17.5,33.1,17.5"/>
						<path class="mask-st4" d="M33.1,17.5l2.1-0.3c0.1,0,0.2,0,0.3,0l-2.1,0.3C33.3,17.5,33.2,17.5,33.1,17.5"/>
						<path class="mask-st3" d="M33.4,17.5l2.1-0.3c0,0,0.1,0,0.1,0L33.4,17.5C33.5,17.5,33.5,17.5,33.4,17.5"/>
					</g>
				</g>
				<g class="mask-st0">
					<defs>
						<path id="MASK_SVGID_13_" class="mask-st0" d="M45.9,37.3l2.1-0.3c-1.3,0.2-2.3,1.3-2.3,2.7c0,1.5,1.2,2.8,2.7,2.8l-2.1,0.3
							c-1.5,0-2.7-1.2-2.7-2.8C43.7,38.6,44.6,37.5,45.9,37.3z"/>
					</defs>
					<clipPath id="MASK_SVGID_14_">
						<use xlink:href="#MASK_SVGID_13_"  style="overflow:visible;"/>
					</clipPath>
					<g class="mask-st17">
						<path class="mask-st2" d="M45.9,37.3l2.1-0.3c-0.7,0.1-1.3,0.5-1.7,1.1l-2.1,0.3C44.6,37.8,45.2,37.4,45.9,37.3"/>
						<path class="mask-st3" d="M44.2,38.3l2.1-0.3c-0.1,0.1-0.1,0.2-0.2,0.3L44,38.6C44.1,38.5,44.1,38.4,44.2,38.3"/>
						<path class="mask-st4" d="M44,38.6l2.1-0.3c-0.1,0.1-0.1,0.2-0.1,0.3l-2.1,0.3C43.9,38.8,43.9,38.7,44,38.6"/>
						<path class="mask-st5" d="M43.9,38.9l2.1-0.3c0,0.1-0.1,0.2-0.1,0.3l-2.1,0.3C43.8,39.1,43.8,39,43.9,38.9"/>
						<path class="mask-st6" d="M43.8,39.2l2.1-0.3c0,0.1,0,0.2-0.1,0.3l-2.1,0.3C43.7,39.4,43.7,39.3,43.8,39.2"/>
						<path class="mask-st7" d="M43.7,39.5l2.1-0.3c0,0.1,0,0.2,0,0.3l-2.1,0.3C43.7,39.7,43.7,39.6,43.7,39.5"/>
						<path class="mask-st8" d="M43.7,39.8l2.1-0.3c0,0.1,0,0.1,0,0.2c0,0,0,0.1,0,0.1l-2.1,0.3c0,0,0-0.1,0-0.1
							C43.7,39.9,43.7,39.8,43.7,39.8"/>
						<path class="mask-st9" d="M43.7,40.1l2.1-0.3c0,0.1,0,0.2,0,0.3l-2.1,0.3C43.7,40.3,43.7,40.2,43.7,40.1"/>
						<path class="mask-st10" d="M43.7,40.4l2.1-0.3c0,0.1,0.1,0.3,0.1,0.4l-2.1,0.3C43.8,40.7,43.7,40.6,43.7,40.4"/>
						<path class="mask-st11" d="M43.8,40.8l2.1-0.3c0.2,0.5,0.5,0.9,0.8,1.3l-2.1,0.3C44.3,41.8,44,41.3,43.8,40.8"/>
						<path class="mask-st10" d="M44.6,42.1l2.1-0.3c0.1,0.1,0.2,0.2,0.4,0.3L45,42.3C44.9,42.3,44.8,42.2,44.6,42.1"/>
						<path class="mask-st9" d="M45,42.3l2.1-0.3c0.1,0.1,0.2,0.1,0.3,0.2l-2.1,0.3C45.2,42.4,45.1,42.4,45,42.3"/>
						<path class="mask-st8" d="M45.3,42.5l2.1-0.3c0.1,0,0.2,0.1,0.3,0.1l-2.1,0.3C45.5,42.6,45.4,42.5,45.3,42.5"/>
						<path class="mask-st7" d="M45.6,42.6l2.1-0.3c0.1,0,0.2,0.1,0.3,0.1l-2.1,0.3C45.8,42.6,45.7,42.6,45.6,42.6"/>
						<path class="mask-st6" d="M45.8,42.7l2.1-0.3c0.1,0,0.2,0,0.3,0l-2.1,0.3C46,42.7,45.9,42.7,45.8,42.7"/>
						<path class="mask-st5" d="M46.1,42.7l2.1-0.3c0.1,0,0.2,0,0.3,0l-2.1,0.3C46.3,42.7,46.2,42.7,46.1,42.7"/>
					</g>
				</g>
				<g class="mask-st0">
					<defs>
						<path id="MASK_SVGID_15_" class="mask-st0" d="M49,42.3l-2.1,0.3c-0.1,0-0.3,0-0.4,0l2.1-0.3C48.7,42.4,48.8,42.4,49,42.3z"/>
					</defs>
					<clipPath id="MASK_SVGID_16_">
						<use xlink:href="#MASK_SVGID_15_"  style="overflow:visible;"/>
					</clipPath>
					<g class="mask-st18">
						<path class="mask-st5" d="M46.4,42.7l2.1-0.3c0,0,0,0,0,0L46.4,42.7C46.4,42.7,46.4,42.7,46.4,42.7"/>
						<path class="mask-st4" d="M46.4,42.7l2.1-0.3c0.1,0,0.2,0,0.3,0l-2.1,0.3C46.6,42.7,46.5,42.7,46.4,42.7"/>
						<path class="mask-st3" d="M46.7,42.7l2.1-0.3c0,0,0.1,0,0.1,0L46.7,42.7C46.8,42.7,46.8,42.7,46.7,42.7"/>
					</g>
				</g>
				<g class="mask-st0">
					<defs>
						<path id="MASK_SVGID_17_" class="mask-st0" d="M46,24.7l2.1-0.3c-1.3,0.2-2.3,1.3-2.3,2.7c0,1.5,1.2,2.8,2.7,2.8l-2.1,0.3
							c-1.5,0-2.7-1.2-2.7-2.8C43.7,26,44.7,24.9,46,24.7z"/>
					</defs>
					<clipPath id="MASK_SVGID_18_">
						<use xlink:href="#MASK_SVGID_17_"  style="overflow:visible;"/>
					</clipPath>
					<g class="mask-st19">
						<path class="mask-st2" d="M46,24.7l2.1-0.3c-0.7,0.1-1.3,0.5-1.7,1.1l-2.1,0.3C44.6,25.2,45.3,24.8,46,24.7"/>
						<path class="mask-st3" d="M44.2,25.8l2.1-0.3c-0.1,0.1-0.1,0.2-0.2,0.3L44,26.1C44.1,26,44.2,25.9,44.2,25.8"/>
						<path class="mask-st4" d="M44,26.1l2.1-0.3c-0.1,0.1-0.1,0.2-0.1,0.3l-2.1,0.3C43.9,26.3,44,26.2,44,26.1"/>
						<path class="mask-st5" d="M43.9,26.4L46,26c0,0.1-0.1,0.2-0.1,0.3l-2.1,0.3C43.8,26.6,43.8,26.5,43.9,26.4"/>
						<path class="mask-st6" d="M43.8,26.7l2.1-0.3c0,0.1,0,0.2-0.1,0.3l-2.1,0.3C43.7,26.8,43.8,26.8,43.8,26.7"/>
						<path class="mask-st7" d="M43.7,26.9l2.1-0.3c0,0.1,0,0.2,0,0.3l-2.1,0.3C43.7,27.1,43.7,27,43.7,26.9"/>
						<path class="mask-st8" d="M43.7,27.2l2.1-0.3c0,0.1,0,0.1,0,0.2c0,0,0,0.1,0,0.1l-2.1,0.3c0,0,0-0.1,0-0.1
							C43.7,27.3,43.7,27.3,43.7,27.2"/>
						<path class="mask-st9" d="M43.7,27.5l2.1-0.3c0,0.1,0,0.2,0,0.3l-2.1,0.3C43.7,27.8,43.7,27.6,43.7,27.5"/>
						<path class="mask-st10" d="M43.7,27.9l2.1-0.3c0,0.1,0.1,0.3,0.1,0.4l-2.1,0.3C43.8,28.1,43.7,28,43.7,27.9"/>
						<path class="mask-st11" d="M43.8,28.3l2.1-0.3c0.2,0.5,0.5,0.9,0.8,1.3l-2.1,0.3C44.3,29.2,44,28.8,43.8,28.3"/>
						<path class="mask-st10" d="M44.7,29.5l2.1-0.3c0.1,0.1,0.2,0.2,0.4,0.3L45,29.8C44.9,29.7,44.8,29.6,44.7,29.5"/>
						<path class="mask-st9" d="M45,29.8l2.1-0.3c0.1,0.1,0.2,0.1,0.3,0.2l-2.1,0.3C45.2,29.9,45.1,29.8,45,29.8"/>
						<path class="mask-st8" d="M45.3,29.9l2.1-0.3c0.1,0,0.2,0.1,0.3,0.1L45.6,30C45.5,30,45.4,30,45.3,29.9"/>
						<path class="mask-st7" d="M45.6,30l2.1-0.3c0.1,0,0.2,0.1,0.3,0.1l-2.1,0.3C45.8,30.1,45.7,30.1,45.6,30"/>
						<path class="mask-st6" d="M45.9,30.1l2.1-0.3c0.1,0,0.2,0,0.3,0l-2.1,0.3C46.1,30.1,46,30.1,45.9,30.1"/>
						<path class="mask-st5" d="M46.2,30.2l2.1-0.3c0.1,0,0.2,0,0.3,0l-2.1,0.3C46.3,30.2,46.2,30.2,46.2,30.2"/>
					</g>
				</g>
				<g class="mask-st0">
					<defs>
						<path id="MASK_SVGID_19_" class="mask-st0" d="M49,29.8l-2.1,0.3c-0.1,0-0.3,0-0.4,0l2.1-0.3C48.7,29.8,48.8,29.8,49,29.8z"/>
					</defs>
					<clipPath id="MASK_SVGID_20_">
						<use xlink:href="#MASK_SVGID_19_"  style="overflow:visible;"/>
					</clipPath>
					<g class="mask-st20">
						<path class="mask-st5" d="M46.4,30.2l2.1-0.3c0,0,0,0,0,0L46.4,30.2C46.4,30.2,46.4,30.2,46.4,30.2"/>
						<path class="mask-st4" d="M46.4,30.2l2.1-0.3c0.1,0,0.2,0,0.3,0l-2.1,0.3C46.7,30.2,46.6,30.2,46.4,30.2"/>
						<path class="mask-st3" d="M46.8,30.1l2.1-0.3c0,0,0.1,0,0.1,0L46.8,30.1C46.8,30.1,46.8,30.1,46.8,30.1"/>
					</g>
				</g>
				<g class="mask-st0">
					<defs>
						<path id="MASK_SVGID_21_" class="mask-st0" d="M46,12.2l2.1-0.3c-1.3,0.2-2.3,1.3-2.3,2.7c0,1.5,1.2,2.8,2.7,2.8l-2.1,0.3
							c-1.5,0-2.7-1.2-2.7-2.8C43.7,13.5,44.7,12.4,46,12.2z"/>
					</defs>
					<clipPath id="MASK_SVGID_22_">
						<use xlink:href="#MASK_SVGID_21_"  style="overflow:visible;"/>
					</clipPath>
					<g class="mask-st21">
						<path class="mask-st2" d="M46,12.2l2.1-0.3c-0.7,0.1-1.3,0.5-1.7,1.1l-2.1,0.3C44.7,12.7,45.3,12.3,46,12.2"/>
						<path class="mask-st3" d="M44.3,13.2l2.1-0.3c-0.1,0.1-0.1,0.2-0.2,0.3L44,13.5C44.1,13.4,44.2,13.3,44.3,13.2"/>
						<path class="mask-st4" d="M44,13.5l2.1-0.3c-0.1,0.1-0.1,0.2-0.1,0.3l-2.1,0.3C43.9,13.7,44,13.6,44,13.5"/>
						<path class="mask-st5" d="M43.9,13.8l2.1-0.3c0,0.1-0.1,0.2-0.1,0.3l-2.1,0.3C43.8,14,43.9,13.9,43.9,13.8"/>
						<path class="mask-st6" d="M43.8,14.1l2.1-0.3c0,0.1,0,0.2-0.1,0.3l-2.1,0.3C43.8,14.3,43.8,14.2,43.8,14.1"/>
						<path class="mask-st7" d="M43.8,14.4l2.1-0.3c0,0.1,0,0.2,0,0.3l-2.1,0.3C43.7,14.6,43.7,14.5,43.8,14.4"/>
						<path class="mask-st8" d="M43.7,14.7l2.1-0.3c0,0.1,0,0.1,0,0.2c0,0,0,0.1,0,0.1L43.7,15c0,0,0-0.1,0-0.1
							C43.7,14.8,43.7,14.7,43.7,14.7"/>
						<path class="mask-st9" d="M43.7,15l2.1-0.3c0,0.1,0,0.2,0,0.3l-2.1,0.3C43.7,15.2,43.7,15.1,43.7,15"/>
						<path class="mask-st10" d="M43.8,15.3l2.1-0.3c0,0.1,0.1,0.3,0.1,0.4l-2.1,0.3C43.8,15.6,43.8,15.5,43.8,15.3"/>
						<path class="mask-st11" d="M43.9,15.7l2.1-0.3c0.2,0.5,0.5,0.9,0.8,1.3L44.7,17C44.3,16.7,44,16.2,43.9,15.7"/>
						<path class="mask-st10" d="M44.7,17l2.1-0.3c0.1,0.1,0.2,0.2,0.4,0.3l-2.1,0.3C44.9,17.2,44.8,17.1,44.7,17"/>
						<path class="mask-st9" d="M45.1,17.2l2.1-0.3c0.1,0.1,0.2,0.1,0.3,0.2l-2.1,0.3C45.3,17.3,45.2,17.3,45.1,17.2"/>
						<path class="mask-st8" d="M45.4,17.4l2.1-0.3c0.1,0,0.2,0.1,0.3,0.1l-2.1,0.3C45.5,17.5,45.4,17.4,45.4,17.4"/>
						<path class="mask-st7" d="M45.6,17.5l2.1-0.3c0.1,0,0.2,0.1,0.3,0.1l-2.1,0.3C45.8,17.5,45.7,17.5,45.6,17.5"/>
						<path class="mask-st6" d="M45.9,17.6l2.1-0.3c0.1,0,0.2,0,0.3,0l-2.1,0.3C46.1,17.6,46,17.6,45.9,17.6"/>
						<path class="mask-st5" d="M46.2,17.6l2.1-0.3c0.1,0,0.2,0,0.3,0l-2.1,0.3C46.3,17.6,46.3,17.6,46.2,17.6"/>
					</g>
				</g>
				<g class="mask-st0">
					<defs>
						<path id="MASK_SVGID_23_" class="mask-st0" d="M49,17.2l-2.1,0.3c-0.1,0-0.3,0-0.4,0l2.1-0.3C48.7,17.3,48.9,17.3,49,17.2z"/>
					</defs>
					<clipPath id="MASK_SVGID_24_">
						<use xlink:href="#MASK_SVGID_23_"  style="overflow:visible;"/>
					</clipPath>
					<g class="mask-st22">
						<path class="mask-st5" d="M46.4,17.6l2.1-0.3c0,0,0,0,0,0L46.4,17.6C46.5,17.6,46.4,17.6,46.4,17.6"/>
						<path class="mask-st4" d="M46.5,17.6l2.1-0.3c0.1,0,0.2,0,0.3,0l-2.1,0.3C46.7,17.6,46.6,17.6,46.5,17.6"/>
						<path class="mask-st3" d="M46.8,17.6l2.1-0.3c0,0,0.1,0,0.1,0L46.8,17.6C46.9,17.6,46.8,17.6,46.8,17.6"/>
					</g>
				</g>
				<g class="mask-st0">
					<defs>
						<path id="MASK_SVGID_25_" class="mask-st0" d="M59.3,37.3l2.1-0.3c-1.3,0.2-2.3,1.3-2.3,2.7c0,1.5,1.2,2.8,2.7,2.8l-2.1,0.3
							c-1.5,0-2.7-1.2-2.7-2.8C57,38.7,58,37.5,59.3,37.3z"/>
					</defs>
					<clipPath id="MASK_SVGID_26_">
						<use xlink:href="#MASK_SVGID_25_"  style="overflow:visible;"/>
					</clipPath>
					<g class="mask-st23">
						<path class="mask-st2" d="M59.3,37.3l2.1-0.3c-0.7,0.1-1.3,0.5-1.7,1.1l-2.1,0.3C58,37.8,58.6,37.4,59.3,37.3"/>
						<path class="mask-st3" d="M57.6,38.4l2.1-0.3c-0.1,0.1-0.1,0.2-0.2,0.3l-2.1,0.3C57.4,38.6,57.5,38.5,57.6,38.4"/>
						<path class="mask-st4" d="M57.4,38.7l2.1-0.3c-0.1,0.1-0.1,0.2-0.1,0.3L57.2,39C57.3,38.9,57.3,38.8,57.4,38.7"/>
						<path class="mask-st5" d="M57.2,39l2.1-0.3c0,0.1-0.1,0.2-0.1,0.3l-2.1,0.3C57.2,39.2,57.2,39.1,57.2,39"/>
						<path class="mask-st6" d="M57.1,39.3l2.1-0.3c0,0.1,0,0.2-0.1,0.3l-2.1,0.3C57.1,39.5,57.1,39.4,57.1,39.3"/>
						<path class="mask-st7" d="M57.1,39.6l2.1-0.3c0,0.1,0,0.2,0,0.3L57,39.9C57,39.8,57.1,39.7,57.1,39.6"/>
						<path class="mask-st8" d="M57,39.9l2.1-0.3c0,0.1,0,0.1,0,0.2c0,0,0,0.1,0,0.1L57,40.2c0,0,0-0.1,0-0.1C57,40,57,39.9,57,39.9"/>
						<path class="mask-st9" d="M57,40.2l2.1-0.3c0,0.1,0,0.2,0,0.3l-2.1,0.3C57,40.4,57,40.3,57,40.2"/>
						<path class="mask-st10" d="M57.1,40.5l2.1-0.3c0,0.1,0.1,0.3,0.1,0.4l-2.1,0.3C57.1,40.8,57.1,40.6,57.1,40.5"/>
						<path class="mask-st11" d="M57.2,40.9l2.1-0.3c0.2,0.5,0.5,0.9,0.8,1.3L58,42.2C57.6,41.8,57.3,41.4,57.2,40.9"/>
						<path class="mask-st10" d="M58,42.2l2.1-0.3c0.1,0.1,0.2,0.2,0.4,0.3l-2.1,0.3C58.2,42.3,58.1,42.3,58,42.2"/>
						<path class="mask-st9" d="M58.4,42.4l2.1-0.3c0.1,0.1,0.2,0.1,0.3,0.2l-2.1,0.3C58.6,42.5,58.5,42.5,58.4,42.4"/>
						<path class="mask-st8" d="M58.7,42.6l2.1-0.3c0.1,0,0.2,0.1,0.3,0.1l-2.1,0.3C58.8,42.6,58.8,42.6,58.7,42.6"/>
						<path class="mask-st7" d="M58.9,42.7l2.1-0.3c0.1,0,0.2,0.1,0.3,0.1l-2.1,0.3C59.1,42.7,59,42.7,58.9,42.7"/>
						<path class="mask-st6" d="M59.2,42.7l2.1-0.3c0.1,0,0.2,0,0.3,0l-2.1,0.3C59.4,42.8,59.3,42.8,59.2,42.7"/>
						<path class="mask-st5" d="M59.5,42.8l2.1-0.3c0.1,0,0.2,0,0.3,0l-2.1,0.3C59.7,42.8,59.6,42.8,59.5,42.8"/>
					</g>
				</g>
				<g class="mask-st0">
					<defs>
						<path id="MASK_SVGID_27_" class="mask-st0" d="M62.3,42.4l-2.1,0.3c-0.1,0-0.3,0-0.5,0l2.1-0.3C62,42.5,62.2,42.4,62.3,42.4z"/>
					</defs>
					<clipPath id="MASK_SVGID_28_">
						<use xlink:href="#MASK_SVGID_27_"  style="overflow:visible;"/>
					</clipPath>
					<g class="mask-st24">
						<path class="mask-st5" d="M59.7,42.8l2.1-0.3c0,0,0,0,0,0L59.7,42.8C59.8,42.8,59.8,42.8,59.7,42.8"/>
						<path class="mask-st4" d="M59.8,42.8l2.1-0.3c0.1,0,0.2,0,0.3,0l-2.1,0.3C60,42.8,59.9,42.8,59.8,42.8"/>
						<path class="mask-st3" d="M60.1,42.8l2.1-0.3c0,0,0.1,0,0.1,0L60.1,42.8C60.2,42.8,60.1,42.8,60.1,42.8"/>
					</g>
				</g>
				<g class="mask-st0">
					<defs>
						<path id="MASK_SVGID_29_" class="mask-st0" d="M59.3,24.8l2.1-0.3c-1.3,0.2-2.3,1.3-2.3,2.7c0,1.5,1.2,2.8,2.7,2.8l-2.1,0.3
							c-1.5,0-2.7-1.2-2.7-2.8C57.1,26.1,58,25,59.3,24.8z"/>
					</defs>
					<clipPath id="MASK_SVGID_30_">
						<use xlink:href="#MASK_SVGID_29_"  style="overflow:visible;"/>
					</clipPath>
					<g class="mask-st25">
						<path class="mask-st2" d="M59.3,24.8l2.1-0.3c-0.7,0.1-1.3,0.5-1.7,1.1l-2.1,0.3C58,25.3,58.6,24.9,59.3,24.8"/>
						<path class="mask-st3" d="M57.6,25.8l2.1-0.3c-0.1,0.1-0.1,0.2-0.2,0.3l-2.1,0.3C57.4,26.1,57.5,25.9,57.6,25.8"/>
						<path class="mask-st4" d="M57.4,26.2l2.1-0.3c-0.1,0.1-0.1,0.2-0.1,0.3l-2.1,0.3C57.3,26.4,57.3,26.3,57.4,26.2"/>
						<path class="mask-st5" d="M57.2,26.5l2.1-0.3c0,0.1-0.1,0.2-0.1,0.3l-2.1,0.3C57.2,26.6,57.2,26.6,57.2,26.5"/>
						<path class="mask-st6" d="M57.2,26.7l2.1-0.3c0,0.1,0,0.2-0.1,0.3L57.1,27C57.1,26.9,57.1,26.8,57.2,26.7"/>
						<path class="mask-st7" d="M57.1,27l2.1-0.3c0,0.1,0,0.2,0,0.3l-2.1,0.3C57.1,27.2,57.1,27.1,57.1,27"/>
						<path class="mask-st8" d="M57.1,27.3l2.1-0.3c0,0.1,0,0.1,0,0.2c0,0,0,0.1,0,0.1l-2.1,0.3c0,0,0-0.1,0-0.1
							C57.1,27.4,57.1,27.4,57.1,27.3"/>
						<path class="mask-st9" d="M57.1,27.6l2.1-0.3c0,0.1,0,0.2,0,0.3l-2.1,0.3C57.1,27.8,57.1,27.7,57.1,27.6"/>
						<path class="mask-st10" d="M57.1,27.9l2.1-0.3c0,0.1,0.1,0.3,0.1,0.4l-2.1,0.3C57.2,28.2,57.1,28.1,57.1,27.9"/>
						<path class="mask-st11" d="M57.2,28.4l2.1-0.3c0.2,0.5,0.5,0.9,0.8,1.3L58,29.6C57.7,29.3,57.4,28.9,57.2,28.4"/>
						<path class="mask-st10" d="M58,29.6l2.1-0.3c0.1,0.1,0.2,0.2,0.4,0.3l-2.1,0.3C58.3,29.8,58.2,29.7,58,29.6"/>
						<path class="mask-st9" d="M58.4,29.9l2.1-0.3c0.1,0.1,0.2,0.1,0.3,0.2L58.7,30C58.6,30,58.5,29.9,58.4,29.9"/>
						<path class="mask-st8" d="M58.7,30l2.1-0.3c0.1,0,0.2,0.1,0.3,0.1L59,30.1C58.9,30.1,58.8,30.1,58.7,30"/>
						<path class="mask-st7" d="M59,30.1l2.1-0.3c0.1,0,0.2,0.1,0.3,0.1l-2.1,0.3C59.2,30.2,59.1,30.1,59,30.1"/>
						<path class="mask-st6" d="M59.2,30.2l2.1-0.3c0.1,0,0.2,0,0.3,0l-2.1,0.3C59.4,30.2,59.3,30.2,59.2,30.2"/>
						<path class="mask-st5" d="M59.5,30.2l2.1-0.3c0.1,0,0.2,0,0.3,0l-2.1,0.3C59.7,30.2,59.6,30.2,59.5,30.2"/>
					</g>
				</g>
				<g class="mask-st0">
					<defs>
						<path id="MASK_SVGID_31_" class="mask-st0" d="M62.4,29.9l-2.1,0.3c-0.1,0-0.3,0-0.5,0l2.1-0.3C62.1,29.9,62.2,29.9,62.4,29.9z"/>
					</defs>
					<clipPath id="MASK_SVGID_32_">
						<use xlink:href="#MASK_SVGID_31_"  style="overflow:visible;"/>
					</clipPath>
					<g class="mask-st26">
						<path class="mask-st5" d="M59.8,30.2l2.1-0.3c0,0,0,0,0,0L59.8,30.2C59.8,30.2,59.8,30.2,59.8,30.2"/>
						<path class="mask-st4" d="M59.8,30.2l2.1-0.3c0.1,0,0.2,0,0.3,0l-2.1,0.3C60,30.2,59.9,30.2,59.8,30.2"/>
						<path class="mask-st3" d="M60.1,30.2l2.1-0.3c0,0,0.1,0,0.1,0L60.1,30.2C60.2,30.2,60.2,30.2,60.1,30.2"/>
					</g>
				</g>
				<g class="mask-st0">
					<defs>
						<path id="MASK_SVGID_33_" class="mask-st0" d="M59.4,12.2l2.1-0.3c-1.3,0.2-2.3,1.3-2.3,2.7c0,1.5,1.2,2.8,2.7,2.8l-2.1,0.3
							c-1.5,0-2.7-1.2-2.7-2.8C57.1,13.6,58.1,12.4,59.4,12.2z"/>
					</defs>
					<clipPath id="MASK_SVGID_34_">
						<use xlink:href="#MASK_SVGID_33_"  style="overflow:visible;"/>
					</clipPath>
					<g class="mask-st27">
						<path class="mask-st2" d="M59.4,12.2l2.1-0.3c-0.7,0.1-1.3,0.5-1.7,1.1l-2.1,0.3C58,12.7,58.7,12.3,59.4,12.2"/>
						<path class="mask-st3" d="M57.6,13.3l2.1-0.3c-0.1,0.1-0.1,0.2-0.2,0.3l-2.1,0.3C57.5,13.5,57.5,13.4,57.6,13.3"/>
						<path class="mask-st4" d="M57.4,13.6l2.1-0.3c-0.1,0.1-0.1,0.2-0.1,0.3l-2.1,0.3C57.3,13.8,57.4,13.7,57.4,13.6"/>
						<path class="mask-st5" d="M57.3,13.9l2.1-0.3c0,0.1-0.1,0.2-0.1,0.3l-2.1,0.3C57.2,14.1,57.2,14,57.3,13.9"/>
						<path class="mask-st6" d="M57.2,14.2l2.1-0.3c0,0.1,0,0.2-0.1,0.3l-2.1,0.3C57.1,14.4,57.2,14.3,57.2,14.2"/>
						<path class="mask-st7" d="M57.1,14.5l2.1-0.3c0,0.1,0,0.2,0,0.3l-2.1,0.3C57.1,14.7,57.1,14.6,57.1,14.5"/>
						<path class="mask-st8" d="M57.1,14.7l2.1-0.3c0,0.1,0,0.1,0,0.2c0,0,0,0.1,0,0.1l-2.1,0.3c0,0,0-0.1,0-0.1
							C57.1,14.9,57.1,14.8,57.1,14.7"/>
						<path class="mask-st9" d="M57.1,15.1l2.1-0.3c0,0.1,0,0.2,0,0.3l-2.1,0.3C57.1,15.3,57.1,15.2,57.1,15.1"/>
						<path class="mask-st10" d="M57.1,15.4l2.1-0.3c0,0.1,0.1,0.3,0.1,0.4l-2.1,0.3C57.2,15.7,57.1,15.5,57.1,15.4"/>
						<path class="mask-st11" d="M57.2,15.8l2.1-0.3c0.2,0.5,0.5,0.9,0.8,1.3l-2.1,0.3C57.7,16.7,57.4,16.3,57.2,15.8"/>
						<path class="mask-st10" d="M58.1,17.1l2.1-0.3c0.1,0.1,0.2,0.2,0.4,0.3l-2.1,0.3C58.3,17.2,58.2,17.2,58.1,17.1"/>
						<path class="mask-st9" d="M58.4,17.3l2.1-0.3c0.1,0.1,0.2,0.1,0.3,0.2l-2.1,0.3C58.6,17.4,58.5,17.4,58.4,17.3"/>
						<path class="mask-st8" d="M58.7,17.5l2.1-0.3c0.1,0,0.2,0.1,0.3,0.1L59,17.6C58.9,17.5,58.8,17.5,58.7,17.5"/>
						<path class="mask-st7" d="M59,17.6l2.1-0.3c0.1,0,0.2,0.1,0.3,0.1l-2.1,0.3C59.2,17.6,59.1,17.6,59,17.6"/>
						<path class="mask-st6" d="M59.3,17.6l2.1-0.3c0.1,0,0.2,0,0.3,0l-2.1,0.3C59.5,17.7,59.4,17.7,59.3,17.6"/>
						<path class="mask-st5" d="M59.6,17.7l2.1-0.3c0.1,0,0.2,0,0.3,0l-2.1,0.3C59.7,17.7,59.6,17.7,59.6,17.7"/>
					</g>
				</g>
				<g class="mask-st0">
					<defs>
						<path id="MASK_SVGID_35_" class="mask-st0" d="M62.4,17.3l-2.1,0.3c-0.1,0-0.3,0-0.5,0l2.1-0.3C62.1,17.3,62.2,17.3,62.4,17.3z"/>
					</defs>
					<clipPath id="MASK_SVGID_36_">
						<use xlink:href="#MASK_SVGID_35_"  style="overflow:visible;"/>
					</clipPath>
					<g class="mask-st28">
						<path class="mask-st5" d="M59.8,17.7l2.1-0.3c0,0,0,0,0,0L59.8,17.7C59.8,17.7,59.8,17.7,59.8,17.7"/>
						<path class="mask-st4" d="M59.8,17.7l2.1-0.3c0.1,0,0.2,0,0.3,0l-2.1,0.3C60.1,17.7,60,17.7,59.8,17.7"/>
						<path class="mask-st3" d="M60.2,17.7l2.1-0.3c0,0,0.1,0,0.1,0L60.2,17.7C60.2,17.7,60.2,17.7,60.2,17.7"/>
					</g>
				</g>
				<g>
					<path class="mask-st29" d="M22.6,3.1l47.7,0.3l-0.1,48.3l-47.7-0.3L22.6,3.1z M59.8,30.2c1.5,0,2.7-1.2,2.7-2.7
						c0-1.5-1.2-2.8-2.7-2.8c-1.5,0-2.7,1.2-2.7,2.7C57.1,29,58.3,30.2,59.8,30.2 M59.7,42.8c1.5,0,2.7-1.2,2.7-2.7
						c0-1.5-1.2-2.8-2.7-2.8c-1.5,0-2.7,1.2-2.7,2.7C57,41.5,58.2,42.8,59.7,42.8 M59.8,17.7c1.5,0,2.7-1.2,2.7-2.7
						c0-1.5-1.2-2.8-2.7-2.8c-1.5,0-2.7,1.2-2.7,2.7C57.1,16.4,58.3,17.7,59.8,17.7 M46.4,30.2c1.5,0,2.7-1.2,2.7-2.7
						c0-1.5-1.2-2.8-2.7-2.8c-1.5,0-2.7,1.2-2.7,2.7C43.7,28.9,44.9,30.2,46.4,30.2 M46.4,42.7c1.5,0,2.7-1.2,2.7-2.7
						c0-1.5-1.2-2.8-2.7-2.8c-1.5,0-2.7,1.2-2.7,2.7C43.7,41.5,44.9,42.7,46.4,42.7 M46.4,17.6c1.5,0,2.7-1.2,2.7-2.7
						c0-1.5-1.2-2.8-2.7-2.8c-1.5,0-2.7,1.2-2.7,2.7C43.7,16.4,44.9,17.6,46.4,17.6 M33,30.1c1.5,0,2.7-1.2,2.7-2.7
						c0-1.5-1.2-2.8-2.7-2.8c-1.5,0-2.7,1.2-2.7,2.7C30.3,28.8,31.5,30.1,33,30.1 M33,42.6c1.5,0,2.7-1.2,2.7-2.7
						c0-1.5-1.2-2.8-2.7-2.8c-1.5,0-2.7,1.2-2.7,2.7C30.3,41.4,31.5,42.6,33,42.6 M33.1,17.5c1.5,0,2.7-1.2,2.7-2.7
						c0-1.5-1.2-2.8-2.7-2.8c-1.5,0-2.7,1.2-2.7,2.7C30.3,16.3,31.6,17.5,33.1,17.5"/>
				</g>
				<g>
					<polygon class="mask-st9" points="70.3,3.4 72.5,3.1 72.4,51.3 70.2,51.7 					"/>
				</g>
				<g>
					<polygon class="mask-st30" points="22.6,3.1 24.7,2.8 72.5,3.1 70.3,3.4 					"/>
				</g>
			</g>
		</g>
	</g>
	<g>
		<path class="mask-st31" d="M82.4,16.4c-0.9,0-1.8-0.8-1.8-1.7s0.7-1.7,1.6-1.7h0.2c0.9,0,1.7,0.8,1.7,1.7S83.3,16.4,82.4,16.4z
			 M75.6,16.4c-0.9,0-1.8-0.8-1.8-1.7s0.7-1.7,1.6-1.7h0.2c0.9,0,1.7,0.8,1.7,1.7S76.5,16.4,75.6,16.4z M26.7,16.4
			c-0.9,0-1.8-0.8-1.8-1.7s0.7-1.7,1.6-1.7h0.2c0.9,0,1.7,0.8,1.7,1.7S27.7,16.4,26.7,16.4z M19.9,16.4c-0.9,0-1.8-0.8-1.8-1.7
			s0.7-1.7,1.6-1.7h0.2c0.9,0,1.7,0.8,1.7,1.7S20.8,16.4,19.9,16.4z M13.1,16.4c-0.9,0-1.8-0.8-1.8-1.7S12,13,12.9,13h0.2
			c0.9,0,1.7,0.8,1.7,1.7S14,16.4,13.1,16.4z M6.2,16.4c-0.9,0-1.8-0.8-1.8-1.7S5.1,13,6,13h0.2c0.9,0,1.7,0.8,1.7,1.7
			S7.1,16.4,6.2,16.4z"/>
	</g>
	<g>
		<path class="mask-st31" d="M81.9,29.5c-0.9,0-1.8-0.8-1.8-1.7s0.7-1.7,1.6-1.7h0.2c0.9,0,1.7,0.8,1.7,1.7S82.8,29.5,81.9,29.5z
			 M75,29.5c-0.9,0-1.8-0.8-1.8-1.7s0.7-1.7,1.6-1.7H75c0.9,0,1.7,0.8,1.7,1.7S76,29.5,75,29.5z M26.2,29.5c-0.9,0-1.8-0.8-1.8-1.7
			s0.7-1.7,1.6-1.7h0.2c0.9,0,1.7,0.8,1.7,1.7S27.2,29.5,26.2,29.5z M19.4,29.5c-0.9,0-1.8-0.8-1.8-1.7s0.7-1.7,1.6-1.7h0.2
			c0.9,0,1.7,0.8,1.7,1.7S20.3,29.5,19.4,29.5z M12.5,29.5c-0.9,0-1.8-0.8-1.8-1.7s0.7-1.7,1.6-1.7h0.2c0.9,0,1.7,0.8,1.7,1.7
			S13.5,29.5,12.5,29.5z M5.7,29.5c-0.9,0-1.8-0.8-1.8-1.7s0.7-1.7,1.6-1.7h0.2c0.9,0,1.7,0.8,1.7,1.7S6.6,29.5,5.7,29.5z"/>
	</g>
	<g>
		<path class="mask-st31" d="M82.4,42.1c-0.9,0-1.8-0.8-1.8-1.7s0.7-1.7,1.6-1.7h0.2c0.9,0,1.7,0.8,1.7,1.7S83.4,42.1,82.4,42.1z
			 M75.6,42.1c-0.9,0-1.8-0.8-1.8-1.7s0.7-1.7,1.6-1.7h0.2c0.9,0,1.7,0.8,1.7,1.7S76.5,42.1,75.6,42.1z M26.8,42.1
			c-0.9,0-1.8-0.8-1.8-1.7s0.7-1.7,1.6-1.7h0.2c0.9,0,1.7,0.8,1.7,1.7S27.7,42.1,26.8,42.1z M19.9,42.1c-0.9,0-1.8-0.8-1.8-1.7
			s0.7-1.7,1.6-1.7h0.2c0.9,0,1.7,0.8,1.7,1.7S20.9,42.1,19.9,42.1z M13.1,42.1c-0.9,0-1.8-0.8-1.8-1.7s0.7-1.7,1.6-1.7h0.2
			c0.9,0,1.7,0.8,1.7,1.7S14,42.1,13.1,42.1z M6.2,42.1c-0.9,0-1.8-0.8-1.8-1.7s0.7-1.7,1.6-1.7h0.2c0.9,0,1.7,0.8,1.7,1.7
			S7.2,42.1,6.2,42.1z"/>
	</g>
</g>
</svg>
