<?xml version="1.0" encoding="utf-8"?>
<!-- Generator: Adobe Illustrator 24.0.1, SVG Export Plug-In . SVG Version: 6.00 Build 0)  -->
<svg  class="srw-beamline-item-icon" version="1.1" id="Obstacle" xmlns="http://www.w3.org/2000/svg" xmlns:xlink="http://www.w3.org/1999/xlink" x="0px" y="0px"
	 viewBox="0 0 612 792" style="enable-background:new 0 0 612 792;" xml:space="preserve">
<style type="text/css">
	.obstacle-st0{enable-background:new    ;}
	.obstacle-st1{fill:#97B6D5;}
	.obstacle-st2{fill:#526374;}
	.obstacle-st3{fill:#5C6F82;}
	.obstacle-st4{fill:#3A53A4;}
</style>
<g>
	<g>
		<g>
			<g class="obstacle-st0">
				<g>
					<polygon class="obstacle-st1" points="46.7,11.9 47.3,36.7 28.5,34.7 27.9,10 					"/>
				</g>
				<g>
					<polygon class="obstacle-st2" points="46.7,11.9 55.1,10.4 55.6,35.1 47.3,36.7 					"/>
				</g>
				<g>
					<polygon class="obstacle-st3" points="27.9,10 36.3,8.4 55.1,10.4 46.7,11.9 					"/>
				</g>
			</g>
		</g>
	</g>
	<g>
		<path class="obstacle-st4" d="M37.1,24.1h-0.1c-0.8,0-1.4-0.6-1.4-1.4s0.6-1.4,1.4-1.4h0.1c0.8,0,1.4,0.6,1.4,1.4S37.8,24.1,37.1,24.1z
			 M31.6,24.1h-0.1c-0.8,0-1.4-0.6-1.4-1.4s0.6-1.4,1.4-1.4h0.1c0.8,0,1.4,0.6,1.4,1.4S32.3,24.1,31.6,24.1z M26.1,24.1H26
			c-0.8,0-1.4-0.6-1.4-1.4s0.6-1.4,1.4-1.4h0.1c0.8,0,1.4,0.6,1.4,1.4S26.9,24.1,26.1,24.1z M20.6,24.1h-0.1c-0.8,0-1.4-0.6-1.4-1.4
			s0.6-1.4,1.4-1.4h0.1c0.8,0,1.4,0.6,1.4,1.4S21.4,24.1,20.6,24.1z M15.1,24.1H15c-0.8,0-1.4-0.6-1.4-1.4s0.6-1.4,1.4-1.4h0.1
			c0.8,0,1.4,0.6,1.4,1.4S15.9,24.1,15.1,24.1z M9.7,24.1H9.5c-0.8,0-1.4-0.6-1.4-1.4s0.6-1.4,1.4-1.4h0.1c0.8,0,1.4,0.6,1.4,1.4
			S10.4,24.1,9.7,24.1z M4.2,24.1H4c-0.8,0-1.4-0.6-1.4-1.4s0.6-1.4,1.4-1.4h0.1c0.8,0,1.4,0.6,1.4,1.4S4.9,24.1,4.2,24.1z"/>
	</g>
</g>
</svg>
