<?xml version="1.0" encoding="UTF-8"?>
<!DOCTYPE svg PUBLIC "-//W3C//DTD SVG 1.1//EN" "http://www.w3.org/Graphics/SVG/1.1/DTD/svg11.dtd">
<svg class="sr-beamline-item-icon" version="1.1" xmlns="http://www.w3.org/2000/svg" xmlns:xlink="http://www.w3.org/1999/xlink" x="0" y="0" width="32.271" height="32" viewBox="0, 0, 32.271, 32">
  <g id="Layer_1" transform="translate(-299.852, -265.062)">
    <g id="Racetrack">
      <g id="Obj">
        <g id="Bottom">
          <path d="M299.852,288.409 C299.852,291.561 303.464,294.115 307.92,294.115 L324.056,294.025 C328.511,294.025 332.123,291.47 332.123,288.319 L332.123,282.232 C332.123,279.08 328.511,276.526 324.056,276.526 L307.92,276.616 C303.464,276.616 299.852,279.171 299.852,282.322 L299.852,288.409" fill="#97B6D5"/>
        </g>
        <path d="M305.27,279.181 C305.27,281.14 307.669,282.728 310.629,282.728 L321.348,282.671 C324.308,282.671 326.707,281.084 326.707,279.125 L326.707,275.342 C326.707,273.383 324.308,271.795 321.348,271.795 L310.629,271.851 C307.669,271.851 305.27,273.439 305.27,275.398 L305.27,279.181" fill="#000000" id="Hole"/>
        <g id="Top">
          <path d="M299.852,280.351 C299.852,283.503 303.464,286.057 307.92,286.057 L324.056,285.967 C328.511,285.967 332.123,283.413 332.123,280.261 L332.123,274.174 C332.123,271.023 328.511,268.468 324.056,268.468 L307.92,268.558 C303.464,268.558 299.852,271.113 299.852,274.264 L299.852,280.351" fill="#65819D"/>
          <path d="M305.269,279.182 C305.269,281.141 307.669,282.729 310.628,282.729 L321.347,282.673 C324.307,282.673 326.707,281.085 326.707,279.126 L326.707,275.343 C326.707,273.384 324.307,271.796 321.347,271.796 L310.628,271.853 C307.669,271.853 305.269,273.44 305.269,275.399 L305.269,279.182" fill="#000000"/>
        </g>
      </g>
    </g>
  </g>
</svg>
