<?xml version="1.0" encoding="utf-8"?>
<!-- Generator: Adobe Illustrator 24.0.1, SVG Export Plug-In . SVG Version: 6.00 Build 0)  -->
<svg  class="srw-beamline-item-icon" version="1.1" id="Sample" xmlns="http://www.w3.org/2000/svg" xmlns:xlink="http://www.w3.org/1999/xlink" x="0px" y="0px"
	 viewBox="0 0 612 792" style="enable-background:new 0 0 612 792;" xml:space="preserve">
<style type="text/css">
	.sample-st0{enable-background:new    ;}
	.sample-st1{fill:#60862C;}
	.sample-st2{fill:#547526;}
	.sample-st3{fill:#74A135;}
	.sample-st4{fill:#8EC641;}
	.sample-st5{fill:#333333;}
	.sample-st6{fill:#3A53A4;}
	.sample-st7{clip-path:url(#SAMPLE_SVGID_2_);enable-background:new    ;}
	.sample-st8{fill:#7D97B1;}
	.sample-st9{fill:#7A93AC;}
	.sample-st10{fill:#778FA8;}
	.sample-st11{fill:#748BA3;}
	.sample-st12{fill:#70879E;}
	.sample-st13{fill:#6D839A;}
	.sample-st14{fill:#6A7F95;}
	.sample-st15{fill:#667B90;}
	.sample-st16{fill:#63778C;}
	.sample-st17{fill:#607387;}
	.sample-st18{fill:#5C6F82;}
	.sample-st19{fill:#596B7E;}
	.sample-st20{fill:#566779;}
	.sample-st21{fill:#819BB6;}
	.sample-st22{fill:#849FBA;}
	.sample-st23{fill:#87A3BF;}
	.sample-st24{fill:#8BA7C4;}
	.sample-st25{fill:#8EABC8;}
	.sample-st26{fill:#91AFCD;}
	.sample-st27{fill:#95B3D2;}
	.sample-st28{fill:#98B7D6;}
	.sample-st29{fill:#9BBBDB;}
	.sample-st30{fill:#9EBFE0;}
	.sample-st31{fill:#A2C3E4;}
	.sample-st32{fill:#A5C7E9;}
	.sample-st33{fill:#B0CEEC;}
	.sample-st34{fill:#B4D1ED;}
	.sample-st35{fill:#B8D3EE;}
	.sample-st36{fill:#BBD4EE;}
	.sample-st37{fill:#BDD6EF;}
	.sample-st38{fill:#BFD7EF;}
	.sample-st39{fill:#C2D9F0;}
	.sample-st40{fill:#C4DAF0;}
	.sample-st41{fill:#C5DBF1;}
	.sample-st42{fill:#C7DCF1;}
	.sample-st43{fill:#C9DDF2;}
	.sample-st44{fill:#CADEF2;}
	.sample-st45{fill:#CCDFF3;}
	.sample-st46{fill:#CDE0F3;}
	.sample-st47{fill:#CFE1F3;}
	.sample-st48{clip-path:url(#SAMPLE_SVGID_4_);enable-background:new    ;}
</style>
<g>
	<g>
		<g>
			<g>
				<g class="sample-st0">
					<g>
						<polygon class="sample-st1" points="17.5,42.7 24,39.5 24.2,50 17.7,53.2 						"/>
					</g>
					<g>
						<polygon class="sample-st2" points="17.7,53.2 24.2,50 102.5,49.4 96,52.6 						"/>
					</g>
					<g>
						<polygon class="sample-st2" points="17.5,42.7 24,39.5 102.3,38.9 95.8,42.1 						"/>
					</g>
					<g>
						<polygon class="sample-st3" points="95.8,42.1 96,52.6 17.7,53.2 17.5,42.7 						"/>
					</g>
					<g>
						<polygon class="sample-st1" points="95.8,42.1 102.3,38.9 102.5,49.4 96,52.6 						"/>
					</g>
					<g>
						<polygon class="sample-st1" points="96.6,41.3 103.1,38.1 103.3,50.2 96.8,53.4 						"/>
					</g>
					<g>
						<polygon class="sample-st2" points="16.7,41.9 23.1,38.7 103.1,38.1 96.6,41.3 						"/>
					</g>
					<g>
						<path class="sample-st3" d="M16.7,41.9l79.9-0.6l0.2,12.1L16.9,54L16.7,41.9z M96,52.6l-0.2-10.5l-78.3,0.6l0.2,10.5L96,52.6"/>
					</g>
				</g>
			</g>
		</g>
		<polygon class="sample-st4" points="96.9,53.4 16.9,54.1 16.7,41.9 96.6,41.3 		"/>
	</g>
	<ellipse class="sample-st5" cx="67.4" cy="39.4" rx="11.5" ry="1.5"/>
	<path class="sample-st6" d="M76.8,27.2c-0.8,0-1.5-0.4-1.8-1.2c-0.4-1,0-2.1,1-2.6l0.2-0.1c1-0.4,2.1,0,2.6,1c0.4,1,0,2.1-1,2.6L77.6,27
		C77.3,27.1,77,27.2,76.8,27.2z M42.9,26.5c-0.2,0-0.5,0-0.7-0.1l-0.2-0.1c-1-0.4-1.5-1.5-1.1-2.5c0.4-1,1.5-1.5,2.5-1.1l0.2,0.1
		c1,0.4,1.5,1.5,1.1,2.5C44.5,26,43.7,26.5,42.9,26.5z M85.2,23.5c-0.8,0-1.5-0.4-1.8-1.2c-0.4-1,0-2.1,1-2.6l0.2-0.1
		c1-0.4,2.1,0,2.6,1c0.4,1,0,2.1-1,2.6L86,23.4C85.7,23.5,85.5,23.5,85.2,23.5z M34.4,23.2c-0.2,0-0.5,0-0.7-0.1L33.5,23
		c-1-0.4-1.5-1.5-1.1-2.5c0.4-1,1.5-1.5,2.5-1.1l0.2,0.1c1,0.4,1.5,1.5,1.1,2.5C35.9,22.8,35.1,23.2,34.4,23.2z M25.8,20
		c-0.2,0-0.5,0-0.7-0.1l-0.2-0.1c-1-0.4-1.5-1.5-1.1-2.5c0.4-1,1.5-1.5,2.5-1.1l0.2,0.1c1,0.4,1.5,1.5,1.1,2.5
		C27.3,19.5,26.6,20,25.8,20z M93.6,19.9c-0.7,0-1.5-0.4-1.8-1.2c-0.4-1,0-2.1,1-2.6l0.2-0.1c1-0.4,2.1,0,2.6,1c0.4,1,0,2.1-1,2.6
		l-0.2,0.1C94.1,19.8,93.9,19.9,93.6,19.9z M17.2,16.8c-0.2,0-0.5,0-0.7-0.1l-0.2-0.1c-1-0.4-1.5-1.5-1.1-2.5c0.4-1,1.5-1.5,2.5-1.1
		l0.2,0.1c1,0.4,1.5,1.5,1.1,2.5C18.7,16.3,18,16.8,17.2,16.8z M102,16.3c-0.8,0-1.5-0.4-1.8-1.2c-0.4-1,0-2.1,1-2.6l0.2-0.1
		c1-0.4,2.1,0,2.6,1c0.4,1,0,2.1-1,2.6l-0.2,0.1C102.6,16.2,102.3,16.3,102,16.3z M8.6,13.6c-0.2,0-0.5,0-0.7-0.1l-0.2-0.1
		c-1-0.4-1.5-1.5-1.1-2.5s1.5-1.5,2.5-1.1l0.2,0.1c1,0.4,1.5,1.5,1.1,2.5C10.1,13.1,9.4,13.6,8.6,13.6z M110.5,12.6
		c-0.8,0-1.5-0.4-1.8-1.2c-0.4-1,0-2.1,1-2.6l0.2-0.1c1-0.4,2.1,0,2.6,1c0.4,1,0,2.1-1,2.6l-0.2,0.1C111,12.6,110.7,12.6,110.5,12.6
		z"/>
	<g>
		<g>
			<g>
				<g class="sample-st0">
					<g class="sample-st0">
						<defs>
							<path id="SAMPLE_SVGID_1_" class="sample-st0" d="M53.7,37.4c1.8,1,4.1,1.5,6.4,1.2C57.8,38.9,55.6,38.4,53.7,37.4
								c-0.4-0.2-0.8-0.5-1.2-0.7c-0.6-0.5-1.1-0.9-1.6-1.4c-0.7-0.8-0.9-0.9-1.4-1.6c-0.7-1-1.1-1.8-1.1-1.8
								c-0.4-0.9-0.5-1.1-0.8-2c-0.2-0.5-0.3-1.3-0.4-1.8c-0.3-2-0.1-3.2,0-4.3c0,0,0.1-0.9,0.5-2.1c0.2-0.7,0.3-0.9,0.9-2
								c0,0,0.7-1.3,2-2.7c1.2-1.3,3.3-3,6.4-3.7c3.4-0.8,6.3,0,7.3,0.3c0.9,0.3,2.1,0.8,3.3,1.6c0.8,0.6,2,1.5,3,2.8
								c1.1,1.5,1.5,2.5,1.9,3.6c0.1,0.4,0.6,1.9,0.7,3.2c0.1,1.8-0.1,3-0.2,3.5c-0.2,1-0.3,1.3-0.6,2.1c-0.4,1.1-0.9,1.9-0.9,2
								c-0.7,1.2-1.2,1.7-1.9,2.5c-0.5,0.5-1,1-1.7,1.5c-0.1,0.1-1.8,1.4-4.1,2c-0.6,0.2-2.6,0.7-5.1,0.4c-1.3-0.2-2.2-0.5-2.6-0.6
								C55.1,38.1,54.4,37.8,53.7,37.4z"/>
						</defs>
						<clipPath id="SAMPLE_SVGID_2_">
							<use xlink:href="#SAMPLE_SVGID_1_"  style="overflow:visible;"/>
						</clipPath>
						<g class="sample-st7">
							<path class="sample-st8" d="M53.7,37.4c11.6,6.1,22.4-5.1,18.9-15.6c-3.8-11.2-19.5-11.9-24.4-1.2C45.8,25.9,46.9,33.4,53.7,37.4
								c1.8,1,4.1,1.5,6.4,1.2C57.8,38.9,55.6,38.4,53.7,37.4"/>
							<g>
								<path class="sample-st8" d="M66.4,37.6c-4,2-6.2,1.1-6.2,1l0,0l0,0c-2.4,0.3-4.6-0.1-6.4-1.2c0.2,0.1,0.5,0.2,0.7,0.4
									c0.3,0.1,0.7,0.3,1,0.4l0.6,0.2c0.2,0.1,0.5,0.1,0.6,0.2l0.4,0.1c0.1,0,0.3,0.1,0.5,0.1l0.4,0.1c0.1,0,0.3,0,0.4,0.1l0.3,0
									c0.1,0,0.2,0,0.3,0l0.3,0c0.1,0,0.2,0,0.3,0l0.3,0c0.1,0,0.2,0,0.3,0l0.3,0c0.1,0,0.2,0,0.3,0l0.3,0c0.1,0,0.2,0,0.3,0
									l0.3,0c0.1,0,0.2,0,0.3,0l0.4-0.1c1-0.2,1.6-0.3,2.7-0.7l0.7-0.3c0.3-0.2,0.8-0.4,1.1-0.6L66.4,37.6"/>
								<path class="sample-st8" d="M60.1,38.6c-3.6-0.2-5.9-7.5,0-12.6c4.2-3.6,13-3.2,12.5,3c-0.1,0.7-0.2,2.9-2.6,5.6
									c0.3-0.4,0.7-0.9,1-1.2c0.2-0.3,0.4-0.7,0.6-1l0.5-0.9c0.1-0.3,0.3-0.7,0.4-1.1l0.3-1c0.1-0.3,0.2-0.8,0.3-1.1l0.1-1
									c0-0.4,0.1-0.9,0.1-1.3l0-1.1c0-0.3-0.1-0.8-0.1-1.1l-0.2-1c-0.1-0.3-0.2-0.8-0.3-1.1l-0.4-0.9c-0.1-0.3-0.3-0.7-0.5-1
									l-0.5-0.9c-0.2-0.3-0.5-0.7-0.7-0.9l-0.6-0.7c-0.2-0.3-0.6-0.6-0.8-0.8l-0.7-0.6c-0.9-0.7-1-0.8-1.7-1.2L66,14.2
									c-0.3-0.1-0.7-0.3-1-0.4l-0.6-0.2c-0.2-0.1-0.5-0.1-0.6-0.2l-0.4-0.1c-0.1,0-0.3-0.1-0.5-0.1l-0.4-0.1c-0.1,0-0.3,0-0.4-0.1
									l-0.3,0c-0.1,0-0.2,0-0.3,0l-0.3,0c-0.1,0-0.2,0-0.3,0l-0.3,0c-0.1,0-0.2,0-0.3,0l-0.3,0c-0.1,0-0.2,0-0.3,0l-0.3,0
									c-0.1,0-0.2,0-0.3,0l-0.3,0c-0.1,0-0.2,0-0.3,0L58,13.1c-1.2,0.2-1.8,0.4-2.8,0.8l-0.7,0.3c-0.9,0.5-0.9,0.5-1.4,0.8
									l-0.7,0.5c-0.3,0.3-0.7,0.6-1,0.9L50.6,17c-0.2,0.3-0.6,0.6-0.8,0.9l-0.6,0.8c-0.2,0.3-0.4,0.7-0.6,1l-0.4,0.9
									c-0.1,0.3-0.3,0.7-0.4,1.1l-0.3,1c-0.1,0.3-0.2,0.8-0.2,1.1l-0.1,1c0,0.3-0.1,0.8-0.1,1.2l0,1.1c0.1,0.6,0.2,1.3,0.3,1.9
									l0.3,1c0.1,0.3,0.3,0.7,0.4,1.1l0.4,0.9c0.2,0.3,0.4,0.7,0.6,1l0.6,0.8c0.2,0.3,0.5,0.6,0.7,0.9l0.7,0.7
									c0.3,0.2,0.6,0.6,0.9,0.8l0.7,0.5c0.3,0.2,0.8,0.5,1.2,0.7C55.6,38.4,57.8,38.9,60.1,38.6"/>
							</g>
							<g>
								<path class="sample-st9" d="M64.8,38.2c-2.7,0.9-3.9,0.7-5.3,0.4c-2.1,0.2-4.1-0.3-5.8-1.3c0.2,0.1,0.5,0.2,0.7,0.4
									c0.3,0.1,0.7,0.3,1,0.4l0.6,0.2c0.2,0.1,0.5,0.1,0.6,0.2l0.4,0.1c0.1,0,0.3,0.1,0.5,0.1l0.4,0.1c0.1,0,0.3,0,0.4,0.1l0.3,0
									c0.1,0,0.2,0,0.3,0l0.3,0c0.1,0,0.2,0,0.3,0l0.3,0c0.1,0,0.2,0,0.3,0l0.3,0c0.1,0,0.2,0,0.3,0l0.3,0c0.1,0,0.2,0,0.3,0
									l0.3,0c0.1,0,0.2,0,0.3,0l0.4-0.1C63,38.8,63.7,38.7,64.8,38.2L64.8,38.2"/>
								<path class="sample-st9" d="M59.5,38.7c-6.2-1.9-3.5-11.5,2.7-14.3c6.1-2.8,12.3-0.1,10.2,6.4c-0.4,1.1-0.9,1.9-1,2.2
									c0.2-0.4,0.5-1,0.8-1.4c0.1-0.3,0.3-0.7,0.4-1.1l0.3-1c0.1-0.3,0.2-0.8,0.3-1.1l0.1-1c0-0.4,0.1-0.9,0.1-1.3l0-1.1
									c0-0.3-0.1-0.8-0.1-1.1l-0.2-1c-0.1-0.3-0.2-0.8-0.3-1.1l-0.4-0.9c-0.1-0.3-0.3-0.7-0.5-1l-0.5-0.9
									c-0.2-0.3-0.5-0.7-0.7-0.9l-0.6-0.7c-0.2-0.3-0.6-0.6-0.8-0.8l-0.7-0.6c-0.9-0.7-1-0.8-1.7-1.2L66,14.2
									c-0.3-0.1-0.7-0.3-1-0.4l-0.6-0.2c-0.2-0.1-0.5-0.1-0.6-0.2l-0.4-0.1c-0.1,0-0.3-0.1-0.5-0.1l-0.4-0.1c-0.1,0-0.3,0-0.4-0.1
									l-0.3,0c-0.1,0-0.2,0-0.3,0l-0.3,0c-0.1,0-0.2,0-0.3,0l-0.3,0c-0.1,0-0.2,0-0.3,0l-0.3,0c-0.1,0-0.2,0-0.3,0l-0.3,0
									c-0.1,0-0.2,0-0.3,0l-0.3,0c-0.1,0-0.2,0-0.3,0L58,13.1c-1.2,0.2-1.8,0.4-2.8,0.8l-0.7,0.3c-0.9,0.5-0.9,0.5-1.4,0.8
									l-0.7,0.5c-0.3,0.3-0.7,0.6-1,0.9L50.6,17c-0.2,0.3-0.6,0.6-0.8,0.9l-0.6,0.8c-0.2,0.3-0.4,0.7-0.6,1l-0.4,0.9
									c-0.1,0.3-0.3,0.7-0.4,1.1l-0.3,1c-0.1,0.3-0.2,0.8-0.2,1.1l-0.1,1c0,0.3-0.1,0.8-0.1,1.2l0,1.1c0.1,0.6,0.2,1.3,0.3,1.9
									l0.3,1c0.1,0.3,0.3,0.7,0.4,1.1l0.4,0.9c0.2,0.3,0.4,0.7,0.6,1l0.6,0.8c0.2,0.3,0.5,0.6,0.7,0.9l0.7,0.7
									c0.3,0.2,0.6,0.6,0.9,0.8l0.7,0.5c0.3,0.2,0.8,0.5,1.2,0.7C55.4,38.4,57.4,38.8,59.5,38.7"/>
							</g>
							<g>
								<path class="sample-st10" d="M63.4,38.7c-1.9,0.4-2.9,0.4-4.5,0c-1.9,0-3.7-0.4-5.2-1.3c0.2,0.1,0.5,0.2,0.7,0.4
									c0.3,0.1,0.7,0.3,1,0.4l0.6,0.2c0.2,0.1,0.5,0.1,0.6,0.2l0.4,0.1c0.1,0,0.3,0.1,0.5,0.1l0.4,0.1c0.1,0,0.3,0,0.4,0.1l0.3,0
									c0.1,0,0.2,0,0.3,0l0.3,0c0.1,0,0.2,0,0.3,0l0.3,0c0.1,0,0.2,0,0.3,0l0.3,0c0.1,0,0.2,0,0.3,0l0.3,0c0.1,0,0.2,0,0.3,0
									l0.3,0c0.1,0,0.2,0,0.3,0l0.4-0.1c0.6-0.1,0.9-0.2,1.6-0.4L63.4,38.7"/>
								<path class="sample-st10" d="M58.9,38.7c-6.2-2.4-3.1-11.9,3.3-14.8c6.4-2.9,12.6,0.1,10,7c-0.1,0.2-0.2,0.5-0.3,0.7l0.4-0.9
									l0.1-0.3l0.3-1c0.1-0.3,0.2-0.8,0.3-1.1l0.1-1c0-0.4,0.1-0.9,0.1-1.3l0-1.1c0-0.3-0.1-0.8-0.1-1.1l-0.2-1
									c-0.1-0.3-0.2-0.8-0.3-1.1l-0.4-0.9c-0.1-0.3-0.3-0.7-0.5-1l-0.5-0.9c-0.2-0.3-0.5-0.7-0.7-0.9l-0.6-0.7
									c-0.2-0.3-0.6-0.6-0.8-0.8l-0.7-0.6c-0.9-0.7-1-0.8-1.7-1.2L66,14.2c-0.3-0.1-0.7-0.3-1-0.4l-0.6-0.2
									c-0.2-0.1-0.5-0.1-0.6-0.2l-0.4-0.1c-0.1,0-0.3-0.1-0.5-0.1l-0.4-0.1c-0.1,0-0.3,0-0.4-0.1l-0.3,0c-0.1,0-0.2,0-0.3,0
									l-0.3,0c-0.1,0-0.2,0-0.3,0l-0.3,0c-0.1,0-0.2,0-0.3,0l-0.3,0c-0.1,0-0.2,0-0.3,0l-0.3,0c-0.1,0-0.2,0-0.3,0l-0.3,0
									c-0.1,0-0.2,0-0.3,0L58,13.1c-1.2,0.2-1.8,0.4-2.8,0.8l-0.7,0.3c-0.9,0.5-0.9,0.5-1.4,0.8l-0.7,0.5c-0.3,0.3-0.7,0.6-1,0.9
									L50.6,17c-0.2,0.3-0.6,0.6-0.8,0.9l-0.6,0.8c-0.2,0.3-0.4,0.7-0.6,1l-0.4,0.9c-0.1,0.3-0.3,0.7-0.4,1.1l-0.3,1
									c-0.1,0.3-0.2,0.8-0.2,1.1l-0.1,1c0,0.3-0.1,0.8-0.1,1.2l0,1.1c0.1,0.6,0.2,1.3,0.3,1.9l0.3,1c0.1,0.3,0.3,0.7,0.4,1.1
									l0.4,0.9c0.2,0.3,0.4,0.7,0.6,1l0.6,0.8c0.2,0.3,0.5,0.6,0.7,0.9l0.7,0.7c0.3,0.2,0.6,0.6,0.9,0.8l0.7,0.5
									c0.3,0.2,0.8,0.5,1.2,0.7C55.2,38.3,57,38.7,58.9,38.7"/>
							</g>
							<g>
								<path class="sample-st11" d="M62.2,38.9c-0.7,0.1-2.2,0.3-3.8-0.3c-1.7,0-3.3-0.5-4.7-1.3c0.2,0.1,0.5,0.2,0.7,0.4
									c0.3,0.1,0.7,0.3,1,0.4l0.6,0.2c0.2,0.1,0.5,0.1,0.6,0.2l0.4,0.1c0.1,0,0.3,0.1,0.5,0.1l0.4,0.1c0.1,0,0.3,0,0.4,0.1l0.3,0
									c0.1,0,0.2,0,0.3,0l0.3,0c0.1,0,0.2,0,0.3,0l0.3,0c0.1,0,0.2,0,0.3,0l0.3,0c0.1,0,0.2,0,0.3,0l0.3,0c0.1,0,0.2,0,0.3,0
									l0.3,0c0.1,0,0.2,0,0.3,0l0.4-0.1l0.2,0L62.2,38.9"/>
								<path class="sample-st11" d="M58.4,38.7c-6-2.3-3.6-11.8,3.8-15.3c7-3.2,12.5,0.6,10.2,7.1l0.3-1c0.1-0.3,0.2-0.8,0.3-1.1l0.1-1
									c0-0.4,0.1-0.9,0.1-1.3l0-1.1c0-0.3-0.1-0.8-0.1-1.1l-0.2-1c-0.1-0.3-0.2-0.8-0.3-1.1l-0.4-0.9c-0.1-0.3-0.3-0.7-0.5-1
									l-0.5-0.9c-0.2-0.3-0.5-0.7-0.7-0.9l-0.6-0.7c-0.2-0.3-0.6-0.6-0.8-0.8l-0.7-0.6c-0.9-0.7-1-0.8-1.7-1.2L66,14.2
									c-0.3-0.1-0.7-0.3-1-0.4l-0.6-0.2c-0.2-0.1-0.5-0.1-0.6-0.2l-0.4-0.1c-0.1,0-0.3-0.1-0.5-0.1l-0.4-0.1c-0.1,0-0.3,0-0.4-0.1
									l-0.3,0c-0.1,0-0.2,0-0.3,0l-0.3,0c-0.1,0-0.2,0-0.3,0l-0.3,0c-0.1,0-0.2,0-0.3,0l-0.3,0c-0.1,0-0.2,0-0.3,0l-0.3,0
									c-0.1,0-0.2,0-0.3,0l-0.3,0c-0.1,0-0.2,0-0.3,0L58,13.1c-1.2,0.2-1.8,0.4-2.8,0.8l-0.7,0.3c-0.9,0.5-0.9,0.5-1.4,0.8
									l-0.7,0.5c-0.3,0.3-0.7,0.6-1,0.9L50.6,17c-0.2,0.3-0.6,0.6-0.8,0.9l-0.6,0.8c-0.2,0.3-0.4,0.7-0.6,1l-0.4,0.9
									c-0.1,0.3-0.3,0.7-0.4,1.1l-0.3,1c-0.1,0.3-0.2,0.8-0.2,1.1l-0.1,1c0,0.3-0.1,0.8-0.1,1.2l0,1.1c0.1,0.6,0.2,1.3,0.3,1.9
									l0.3,1c0.1,0.3,0.3,0.7,0.4,1.1l0.4,0.9c0.2,0.3,0.4,0.7,0.6,1l0.6,0.8c0.2,0.3,0.5,0.6,0.7,0.9l0.7,0.7
									c0.3,0.2,0.6,0.6,0.9,0.8l0.7,0.5c0.3,0.2,0.8,0.5,1.2,0.7C55.1,38.2,56.7,38.6,58.4,38.7"/>
							</g>
							<g>
								<path class="sample-st12" d="M61.1,39.1c-1.2,0.1-2.3-0.1-3.1-0.4c-1.5-0.1-3-0.5-4.2-1.3c0.2,0.1,0.5,0.2,0.7,0.4
									c0.3,0.1,0.7,0.3,1,0.4l0.6,0.2c0.2,0.1,0.5,0.1,0.6,0.2l0.4,0.1c0.1,0,0.3,0.1,0.5,0.1l0.4,0.1c0.1,0,0.3,0,0.4,0.1l0.3,0
									c0.1,0,0.2,0,0.3,0l0.3,0c0.1,0,0.2,0,0.3,0l0.3,0c0.1,0,0.2,0,0.3,0l0.3,0c0.1,0,0.2,0,0.3,0l0.3,0l0.2,0L61.1,39.1"/>
								<path class="sample-st12" d="M58,38.7c-6.3-2.4-3.5-12.2,4.3-15.8c6.7-3,12.1,0.4,10.5,6.6l0.2-1l0-0.1l0.1-1
									c0-0.4,0.1-0.9,0.1-1.3l0-1.1c0-0.3-0.1-0.8-0.1-1.1l-0.2-1c-0.1-0.3-0.2-0.8-0.3-1.1l-0.4-0.9c-0.1-0.3-0.3-0.7-0.5-1
									l-0.5-0.9c-0.2-0.3-0.5-0.7-0.7-0.9l-0.6-0.7c-0.2-0.3-0.6-0.6-0.8-0.8l-0.7-0.6c-0.9-0.7-1-0.8-1.7-1.2L66,14.2
									c-0.3-0.1-0.7-0.3-1-0.4l-0.6-0.2c-0.2-0.1-0.5-0.1-0.6-0.2l-0.4-0.1c-0.1,0-0.3-0.1-0.5-0.1l-0.4-0.1c-0.1,0-0.3,0-0.4-0.1
									l-0.3,0c-0.1,0-0.2,0-0.3,0l-0.3,0c-0.1,0-0.2,0-0.3,0l-0.3,0c-0.1,0-0.2,0-0.3,0l-0.3,0c-0.1,0-0.2,0-0.3,0l-0.3,0
									c-0.1,0-0.2,0-0.3,0l-0.3,0c-0.1,0-0.2,0-0.3,0L58,13.1c-1.2,0.2-1.8,0.4-2.8,0.8l-0.7,0.3c-0.9,0.5-0.9,0.5-1.4,0.8
									l-0.7,0.5c-0.3,0.3-0.7,0.6-1,0.9L50.6,17c-0.2,0.3-0.6,0.6-0.8,0.9l-0.6,0.8c-0.2,0.3-0.4,0.7-0.6,1l-0.4,0.9
									c-0.1,0.3-0.3,0.7-0.4,1.1l-0.3,1c-0.1,0.3-0.2,0.8-0.2,1.1l-0.1,1c0,0.3-0.1,0.8-0.1,1.2l0,1.1c0.1,0.6,0.2,1.3,0.3,1.9
									l0.3,1c0.1,0.3,0.3,0.7,0.4,1.1l0.4,0.9c0.2,0.3,0.4,0.7,0.6,1l0.6,0.8c0.2,0.3,0.5,0.6,0.7,0.9l0.7,0.7
									c0.3,0.2,0.6,0.6,0.9,0.8l0.7,0.5c0.3,0.2,0.8,0.5,1.2,0.7C55,38.1,56.4,38.6,58,38.7"/>
							</g>
							<g>
								<path class="sample-st13" d="M60.1,39.1c-0.4,0-1.6,0-2.6-0.5c-1.3-0.2-2.6-0.6-3.7-1.2c0.2,0.1,0.5,0.2,0.7,0.4
									c0.3,0.1,0.7,0.3,1,0.4l0.6,0.2c0.2,0.1,0.5,0.1,0.6,0.2l0.4,0.1c0.1,0,0.3,0.1,0.5,0.1l0.4,0.1c0.1,0,0.3,0,0.4,0.1l0.3,0
									c0.1,0,0.2,0,0.3,0l0.3,0c0.1,0,0.2,0,0.3,0l0.3,0C59.9,39.1,60,39.1,60.1,39.1C60.1,39.1,60.1,39.1,60.1,39.1
									C60.1,39.1,60.1,39.1,60.1,39.1"/>
								<path class="sample-st13" d="M57.4,38.6c-6.3-2.5-3.4-12.5,4.8-16.2c5.8-2.7,12-0.5,10.8,6.1c0.1-0.4,0.1-0.8,0.2-1.2
									c0-0.4,0.1-0.9,0.1-1.3l0-1.1c0-0.3-0.1-0.8-0.1-1.1l-0.2-1c-0.1-0.3-0.2-0.8-0.3-1.1l-0.4-0.9c-0.1-0.3-0.3-0.7-0.5-1
									l-0.5-0.9c-0.2-0.3-0.5-0.7-0.7-0.9l-0.6-0.7c-0.2-0.3-0.6-0.6-0.8-0.8l-0.7-0.6c-0.9-0.7-1-0.8-1.7-1.2L66,14.2
									c-0.3-0.1-0.7-0.3-1-0.4l-0.6-0.2c-0.2-0.1-0.5-0.1-0.6-0.2l-0.4-0.1c-0.1,0-0.3-0.1-0.5-0.1l-0.4-0.1c-0.1,0-0.3,0-0.4-0.1
									l-0.3,0c-0.1,0-0.2,0-0.3,0l-0.3,0c-0.1,0-0.2,0-0.3,0l-0.3,0c-0.1,0-0.2,0-0.3,0l-0.3,0c-0.1,0-0.2,0-0.3,0l-0.3,0
									c-0.1,0-0.2,0-0.3,0l-0.3,0c-0.1,0-0.2,0-0.3,0L58,13.1c-1.2,0.2-1.8,0.4-2.8,0.8l-0.7,0.3c-0.9,0.5-0.9,0.5-1.4,0.8
									l-0.7,0.5c-0.3,0.3-0.7,0.6-1,0.9L50.6,17c-0.2,0.3-0.6,0.6-0.8,0.9l-0.6,0.8c-0.2,0.3-0.4,0.7-0.6,1l-0.4,0.9
									c-0.1,0.3-0.3,0.7-0.4,1.1l-0.3,1c-0.1,0.3-0.2,0.8-0.2,1.1l-0.1,1c0,0.3-0.1,0.8-0.1,1.2l0,1.1c0.1,0.6,0.2,1.3,0.3,1.9
									l0.3,1c0.1,0.3,0.3,0.7,0.4,1.1l0.4,0.9c0.2,0.3,0.4,0.7,0.6,1l0.6,0.8c0.2,0.3,0.5,0.6,0.7,0.9l0.7,0.7
									c0.3,0.2,0.6,0.6,0.9,0.8l0.7,0.5c0.3,0.2,0.8,0.5,1.2,0.7C54.8,38,56.1,38.5,57.4,38.6"/>
							</g>
							<g>
								<path class="sample-st14" d="M59.1,39.1c-0.3,0-1.3-0.1-2.1-0.5c-1.2-0.2-2.2-0.6-3.2-1.1c0.2,0.1,0.5,0.2,0.7,0.4
									c0.3,0.1,0.7,0.3,1,0.4l0.6,0.2c0.2,0.1,0.5,0.1,0.6,0.2l0.4,0.1c0.1,0,0.3,0.1,0.5,0.1l0.4,0.1c0.1,0,0.3,0,0.4,0.1l0.3,0
									c0.1,0,0.2,0,0.3,0C59,39,59.1,39.1,59.1,39.1C59.1,39.1,59.1,39.1,59.1,39.1"/>
								<path class="sample-st14" d="M56.9,38.5c-6.4-2.7-3.1-13.2,5.4-16.8c5.7-2.4,11.5-0.4,10.9,5.8l0.1-1.1l0-0.5l0-1.1
									c0-0.3-0.1-0.8-0.1-1.1l-0.2-1c-0.1-0.3-0.2-0.8-0.3-1.1l-0.4-0.9c-0.1-0.3-0.3-0.7-0.5-1l-0.5-0.9
									c-0.2-0.3-0.5-0.7-0.7-0.9l-0.6-0.7c-0.2-0.3-0.6-0.6-0.8-0.8l-0.7-0.6c-0.9-0.7-1-0.8-1.7-1.2L66,14.2
									c-0.3-0.1-0.7-0.3-1-0.4l-0.6-0.2c-0.2-0.1-0.5-0.1-0.6-0.2l-0.4-0.1c-0.1,0-0.3-0.1-0.5-0.1l-0.4-0.1c-0.1,0-0.3,0-0.4-0.1
									l-0.3,0c-0.1,0-0.2,0-0.3,0l-0.3,0c-0.1,0-0.2,0-0.3,0l-0.3,0c-0.1,0-0.2,0-0.3,0l-0.3,0c-0.1,0-0.2,0-0.3,0l-0.3,0
									c-0.1,0-0.2,0-0.3,0l-0.3,0c-0.1,0-0.2,0-0.3,0L58,13.1c-1.2,0.2-1.8,0.4-2.8,0.8l-0.7,0.3c-0.9,0.5-0.9,0.5-1.4,0.8
									l-0.7,0.5c-0.3,0.3-0.7,0.6-1,0.9L50.6,17c-0.2,0.3-0.6,0.6-0.8,0.9l-0.6,0.8c-0.2,0.3-0.4,0.7-0.6,1l-0.4,0.9
									c-0.1,0.3-0.3,0.7-0.4,1.1l-0.3,1c-0.1,0.3-0.2,0.8-0.2,1.1l-0.1,1c0,0.3-0.1,0.8-0.1,1.2l0,1.1c0.1,0.6,0.2,1.3,0.3,1.9
									l0.3,1c0.1,0.3,0.3,0.7,0.4,1.1l0.4,0.9c0.2,0.3,0.4,0.7,0.6,1l0.6,0.8c0.2,0.3,0.5,0.6,0.7,0.9l0.7,0.7
									c0.3,0.2,0.6,0.6,0.9,0.8l0.7,0.5c0.3,0.2,0.8,0.5,1.2,0.7C54.7,38,55.8,38.3,56.9,38.5"/>
							</g>
							<g>
								<path class="sample-st15" d="M58,38.9c-0.6-0.1-1-0.2-1.6-0.5c-1-0.2-1.8-0.6-2.7-1c0.2,0.1,0.5,0.2,0.7,0.4c0.3,0.1,0.7,0.3,1,0.4
									l0.6,0.2c0.2,0.1,0.5,0.1,0.6,0.2l0.4,0.1c0.1,0,0.3,0.1,0.5,0.1L58,38.9l0.2,0L58,38.9"/>
								<path class="sample-st15" d="M56.4,38.4c-6.5-3-2.8-13.8,5.9-17.3c5.3-2.1,11-0.7,11,5.4c0-0.5,0-1.1,0-1.6c0-0.3-0.1-0.8-0.1-1.1
									l-0.2-1c-0.1-0.3-0.2-0.8-0.3-1.1l-0.4-0.9c-0.1-0.3-0.3-0.7-0.5-1l-0.5-0.9c-0.2-0.3-0.5-0.7-0.7-0.9l-0.6-0.7
									c-0.2-0.3-0.6-0.6-0.8-0.8l-0.7-0.6c-0.9-0.7-1-0.8-1.7-1.2L66,14.2c-0.3-0.1-0.7-0.3-1-0.4l-0.6-0.2
									c-0.2-0.1-0.5-0.1-0.6-0.2l-0.4-0.1c-0.1,0-0.3-0.1-0.5-0.1l-0.4-0.1c-0.1,0-0.3,0-0.4-0.1l-0.3,0c-0.1,0-0.2,0-0.3,0
									l-0.3,0c-0.1,0-0.2,0-0.3,0l-0.3,0c-0.1,0-0.2,0-0.3,0l-0.3,0c-0.1,0-0.2,0-0.3,0l-0.3,0c-0.1,0-0.2,0-0.3,0l-0.3,0
									c-0.1,0-0.2,0-0.3,0L58,13.1c-1.2,0.2-1.8,0.4-2.8,0.8l-0.7,0.3c-0.9,0.5-0.9,0.5-1.4,0.8l-0.7,0.5c-0.3,0.3-0.7,0.6-1,0.9
									L50.6,17c-0.2,0.3-0.6,0.6-0.8,0.9l-0.6,0.8c-0.2,0.3-0.4,0.7-0.6,1l-0.4,0.9c-0.1,0.3-0.3,0.7-0.4,1.1l-0.3,1
									c-0.1,0.3-0.2,0.8-0.2,1.1l-0.1,1c0,0.3-0.1,0.8-0.1,1.2l0,1.1c0.1,0.6,0.2,1.3,0.3,1.9l0.3,1c0.1,0.3,0.3,0.7,0.4,1.1
									l0.4,0.9c0.2,0.3,0.4,0.7,0.6,1l0.6,0.8c0.2,0.3,0.5,0.6,0.7,0.9l0.7,0.7c0.3,0.2,0.6,0.6,0.9,0.8l0.7,0.5
									c0.3,0.2,0.8,0.5,1.2,0.7C54.5,37.9,55.4,38.2,56.4,38.4"/>
							</g>
							<g>
								<path class="sample-st16" d="M57.2,38.8c-0.6-0.2-0.9-0.3-1.3-0.5c-0.8-0.2-1.5-0.5-2.1-0.9c0.2,0.1,0.5,0.2,0.7,0.4
									c0.3,0.1,0.7,0.3,1,0.4l0.6,0.2c0.2,0.1,0.5,0.1,0.6,0.2l0.4,0.1L57.2,38.8L57.2,38.8"/>
								<path class="sample-st16" d="M55.9,38.3c-7.1-3.5-1.9-14.7,6.4-17.8c5-1.9,10.7-0.5,11,5l-0.1-1.1l-0.1-0.6l-0.2-1
									c-0.1-0.3-0.2-0.8-0.3-1.1l-0.4-0.9c-0.1-0.3-0.3-0.7-0.5-1l-0.5-0.9c-0.2-0.3-0.5-0.7-0.7-0.9l-0.6-0.7
									c-0.2-0.3-0.6-0.6-0.8-0.8l-0.7-0.6c-0.9-0.7-1-0.8-1.7-1.2L66,14.2c-0.3-0.1-0.7-0.3-1-0.4l-0.6-0.2
									c-0.2-0.1-0.5-0.1-0.6-0.2l-0.4-0.1c-0.1,0-0.3-0.1-0.5-0.1l-0.4-0.1c-0.1,0-0.3,0-0.4-0.1l-0.3,0c-0.1,0-0.2,0-0.3,0
									l-0.3,0c-0.1,0-0.2,0-0.3,0l-0.3,0c-0.1,0-0.2,0-0.3,0l-0.3,0c-0.1,0-0.2,0-0.3,0l-0.3,0c-0.1,0-0.2,0-0.3,0l-0.3,0
									c-0.1,0-0.2,0-0.3,0L58,13.1c-1.2,0.2-1.8,0.4-2.8,0.8l-0.7,0.3c-0.9,0.5-0.9,0.5-1.4,0.8l-0.7,0.5c-0.3,0.3-0.7,0.6-1,0.9
									L50.6,17c-0.2,0.3-0.6,0.6-0.8,0.9l-0.6,0.8c-0.2,0.3-0.4,0.7-0.6,1l-0.4,0.9c-0.1,0.3-0.3,0.7-0.4,1.1l-0.3,1
									c-0.1,0.3-0.2,0.8-0.2,1.1l-0.1,1c0,0.3-0.1,0.8-0.1,1.2l0,1.1c0.1,0.6,0.2,1.3,0.3,1.9l0.3,1c0.1,0.3,0.3,0.7,0.4,1.1
									l0.4,0.9c0.2,0.3,0.4,0.7,0.6,1l0.6,0.8c0.2,0.3,0.5,0.6,0.7,0.9l0.7,0.7c0.3,0.2,0.6,0.6,0.9,0.8l0.7,0.5
									c0.3,0.2,0.8,0.5,1.2,0.7C54.4,37.8,55.1,38.1,55.9,38.3"/>
							</g>
							<g>
								<path class="sample-st17" d="M55.7,38.3c-0.1-0.1-0.3-0.1-0.5-0.2c-0.5-0.2-1-0.4-1.5-0.7c0.2,0.1,0.5,0.2,0.7,0.4
									c0.3,0.1,0.7,0.3,1,0.4l0.6,0.2l0.2,0.1l-0.3-0.1C55.8,38.4,55.8,38.3,55.7,38.3"/>
								<path class="sample-st17" d="M55.3,38.1c-7.3-3.8-1.6-15.2,7-18.3c5.7-2,10.4,0,10.9,4.6c-0.1-0.5-0.2-1.2-0.3-1.7
									c-0.1-0.3-0.2-0.8-0.3-1.1l-0.4-0.9c-0.1-0.3-0.3-0.7-0.5-1l-0.5-0.9c-0.2-0.3-0.5-0.7-0.7-0.9l-0.6-0.7
									c-0.2-0.3-0.6-0.6-0.8-0.8l-0.7-0.6c-0.9-0.7-1-0.8-1.7-1.2L66,14.2c-0.3-0.1-0.7-0.3-1-0.4l-0.6-0.2
									c-0.2-0.1-0.5-0.1-0.6-0.2l-0.4-0.1c-0.1,0-0.3-0.1-0.5-0.1l-0.4-0.1c-0.1,0-0.3,0-0.4-0.1l-0.3,0c-0.1,0-0.2,0-0.3,0
									l-0.3,0c-0.1,0-0.2,0-0.3,0l-0.3,0c-0.1,0-0.2,0-0.3,0l-0.3,0c-0.1,0-0.2,0-0.3,0l-0.3,0c-0.1,0-0.2,0-0.3,0l-0.3,0
									c-0.1,0-0.2,0-0.3,0L58,13.1c-1.2,0.2-1.8,0.4-2.8,0.8l-0.7,0.3c-0.9,0.5-0.9,0.5-1.4,0.8l-0.7,0.5c-0.3,0.3-0.7,0.6-1,0.9
									L50.6,17c-0.2,0.3-0.6,0.6-0.8,0.9l-0.6,0.8c-0.2,0.3-0.4,0.7-0.6,1l-0.4,0.9c-0.1,0.3-0.3,0.7-0.4,1.1l-0.3,1
									c-0.1,0.3-0.2,0.8-0.2,1.1l-0.1,1c0,0.3-0.1,0.8-0.1,1.2l0,1.1c0.1,0.6,0.2,1.3,0.3,1.9l0.3,1c0.1,0.3,0.3,0.7,0.4,1.1
									l0.4,0.9c0.2,0.3,0.4,0.7,0.6,1l0.6,0.8c0.2,0.3,0.5,0.6,0.7,0.9l0.7,0.7c0.3,0.2,0.6,0.6,0.9,0.8l0.7,0.5
									c0.3,0.2,0.8,0.5,1.2,0.7C54.2,37.7,54.7,37.9,55.3,38.1"/>
							</g>
							<g>
								<path class="sample-st18" d="M54.6,37.9c-0.3-0.1-0.6-0.3-0.9-0.5c0.2,0.1,0.5,0.2,0.7,0.4c0.2,0.1,0.5,0.2,0.7,0.3L54.8,38
									L54.6,37.9"/>
								<path class="sample-st18" d="M54.6,37.9c-7.4-4.1-1.4-15.8,7.6-18.8c4.5-1.5,9.6-0.7,10.8,4.3l-0.2-1l-0.2-0.6l-0.4-0.9
									c-0.1-0.3-0.3-0.7-0.5-1l-0.5-0.9c-0.2-0.3-0.5-0.7-0.7-0.9l-0.6-0.7c-0.2-0.3-0.6-0.6-0.8-0.8l-0.7-0.6
									c-0.9-0.7-1-0.8-1.7-1.2L66,14.2c-0.3-0.1-0.7-0.3-1-0.4l-0.6-0.2c-0.2-0.1-0.5-0.1-0.6-0.2l-0.4-0.1
									c-0.1,0-0.3-0.1-0.5-0.1l-0.4-0.1c-0.1,0-0.3,0-0.4-0.1l-0.3,0c-0.1,0-0.2,0-0.3,0l-0.3,0c-0.1,0-0.2,0-0.3,0l-0.3,0
									c-0.1,0-0.2,0-0.3,0l-0.3,0c-0.1,0-0.2,0-0.3,0l-0.3,0c-0.1,0-0.2,0-0.3,0l-0.3,0c-0.1,0-0.2,0-0.3,0L58,13.1
									c-1.2,0.2-1.8,0.4-2.8,0.8l-0.7,0.3c-0.9,0.5-0.9,0.5-1.4,0.8l-0.7,0.5c-0.3,0.3-0.7,0.6-1,0.9L50.6,17
									c-0.2,0.3-0.6,0.6-0.8,0.9l-0.6,0.8c-0.2,0.3-0.4,0.7-0.6,1l-0.4,0.9c-0.1,0.3-0.3,0.7-0.4,1.1l-0.3,1
									c-0.1,0.3-0.2,0.8-0.2,1.1l-0.1,1c0,0.3-0.1,0.8-0.1,1.2l0,1.1c0.1,0.6,0.2,1.3,0.3,1.9l0.3,1c0.1,0.3,0.3,0.7,0.4,1.1
									l0.4,0.9c0.2,0.3,0.4,0.7,0.6,1l0.6,0.8c0.2,0.3,0.5,0.6,0.7,0.9l0.7,0.7c0.3,0.2,0.6,0.6,0.9,0.8l0.7,0.5
									c0.3,0.2,0.8,0.5,1.2,0.7C54,37.6,54.3,37.7,54.6,37.9"/>
							</g>
							<g>
								<path class="sample-st19" d="M53.9,37.5c-0.1,0-0.1-0.1-0.2-0.1c0.1,0.1,0.2,0.1,0.3,0.2C54,37.6,54,37.5,53.9,37.5"/>
								<path class="sample-st19" d="M53.9,37.5c-7.5-4.5-1-16.5,8.2-19.3c4.2-1.3,9.1-0.6,10.5,3.8c-0.1-0.4-0.3-1-0.5-1.4
									c-0.1-0.3-0.3-0.7-0.5-1l-0.5-0.9c-0.2-0.3-0.5-0.7-0.7-0.9l-0.6-0.7c-0.2-0.3-0.6-0.6-0.8-0.8l-0.7-0.6
									c-0.9-0.7-1-0.8-1.7-1.2L66,14.2c-0.3-0.1-0.7-0.3-1-0.4l-0.6-0.2c-0.2-0.1-0.5-0.1-0.6-0.2l-0.4-0.1
									c-0.1,0-0.3-0.1-0.5-0.1l-0.4-0.1c-0.1,0-0.3,0-0.4-0.1l-0.3,0c-0.1,0-0.2,0-0.3,0l-0.3,0c-0.1,0-0.2,0-0.3,0l-0.3,0
									c-0.1,0-0.2,0-0.3,0l-0.3,0c-0.1,0-0.2,0-0.3,0l-0.3,0c-0.1,0-0.2,0-0.3,0l-0.3,0c-0.1,0-0.2,0-0.3,0L58,13.1
									c-1.2,0.2-1.8,0.4-2.8,0.8l-0.7,0.3c-0.9,0.5-0.9,0.5-1.4,0.8l-0.7,0.5c-0.3,0.3-0.7,0.6-1,0.9L50.6,17
									c-0.2,0.3-0.6,0.6-0.8,0.9l-0.6,0.8c-0.2,0.3-0.4,0.7-0.6,1l-0.4,0.9c-0.1,0.3-0.3,0.7-0.4,1.1l-0.3,1
									c-0.1,0.3-0.2,0.8-0.2,1.1l-0.1,1c0,0.3-0.1,0.8-0.1,1.2l0,1.1c0.1,0.6,0.2,1.3,0.3,1.9l0.3,1c0.1,0.3,0.3,0.7,0.4,1.1
									l0.4,0.9c0.2,0.3,0.4,0.7,0.6,1l0.6,0.8c0.2,0.3,0.5,0.6,0.7,0.9l0.7,0.7c0.3,0.2,0.6,0.6,0.9,0.8l0.7,0.5
									c0.3,0.2,0.8,0.5,1.2,0.7C53.8,37.4,53.9,37.5,53.9,37.5"/>
							</g>
							<path class="sample-st20" d="M52.3,36.4c-7.2-6.3,2.8-19.2,12.6-19.6c2.4-0.1,5.6,0.5,7.2,3.8c-0.3-0.5-0.6-1.2-0.9-1.7
								c-0.2-0.3-0.5-0.7-0.7-0.9l-0.6-0.7c-0.2-0.3-0.6-0.6-0.8-0.8l-0.7-0.6c-0.9-0.7-1-0.8-1.7-1.2L66,14.2
								c-0.3-0.1-0.7-0.3-1-0.4l-0.6-0.2c-0.2-0.1-0.5-0.1-0.6-0.2l-0.4-0.1c-0.1,0-0.3-0.1-0.5-0.1l-0.4-0.1c-0.1,0-0.3,0-0.4-0.1
								l-0.3,0c-0.1,0-0.2,0-0.3,0l-0.3,0c-0.1,0-0.2,0-0.3,0l-0.3,0c-0.1,0-0.2,0-0.3,0l-0.3,0c-0.1,0-0.2,0-0.3,0l-0.3,0
								c-0.1,0-0.2,0-0.3,0l-0.3,0c-0.1,0-0.2,0-0.3,0L58,13.1c-1.2,0.2-1.8,0.4-2.8,0.8l-0.7,0.3c-0.9,0.5-0.9,0.5-1.4,0.8
								l-0.7,0.5c-0.3,0.3-0.7,0.6-1,0.9L50.6,17c-0.2,0.3-0.6,0.6-0.8,0.9l-0.6,0.8c-0.2,0.3-0.4,0.7-0.6,1l-0.4,0.9
								c-0.1,0.3-0.3,0.7-0.4,1.1l-0.3,1c-0.1,0.3-0.2,0.8-0.2,1.1l-0.1,1c0,0.3-0.1,0.8-0.1,1.2l0,1.1c0.1,0.6,0.2,1.3,0.3,1.9
								l0.3,1c0.1,0.3,0.3,0.7,0.4,1.1l0.4,0.9c0.2,0.3,0.4,0.7,0.6,1l0.6,0.8c0.2,0.3,0.5,0.6,0.7,0.9l0.7,0.7
								c0.3,0.2,0.6,0.6,0.9,0.8l0.7,0.5l0.1,0.1L52.3,36.4"/>
							<path class="sample-st21" d="M59.3,38.1c5.1,2.9,14.5-4.5,13-10.3c-1.4-5.3-10.4-4.9-14,0.6C57.1,30.3,55.6,36,59.3,38.1"/>
							<path class="sample-st22" d="M58.7,37.1c4.2,4.5,13.6-2.1,13.6-7.9c-0.1-5.6-8.7-6.2-12.6-2C56.1,31.1,57.5,35.9,58.7,37.1"/>
							<path class="sample-st23" d="M58.7,36.4c3.1,4.9,12.2-0.1,13.2-5.7c0.9-5.3-5.8-7.8-11.2-4.1C57.2,29.1,57.2,34.1,58.7,36.4"/>
							<path class="sample-st24" d="M58.8,35.6c2.4,5.3,10.5,1.6,12.4-3.3c2.4-5.8-4.4-8.6-9-6.4C58.6,27.7,57.1,31.9,58.8,35.6"/>
							<path class="sample-st25" d="M58.6,33.9c1.9,7.4,9.7,3.5,11.9-0.5c3.3-5.9-3.2-8.6-6.7-7.8C61.6,26.1,57.3,28.8,58.6,33.9"/>
							<path class="sample-st26" d="M59,33.8c2.2,6.7,9.2,3.6,11.5-0.7c2.5-4.6-2.6-8.3-6.6-7.4C60.5,26.6,57.7,29.9,59,33.8"/>
							<path class="sample-st27" d="M59.1,32.8c1.2,6,7.6,5.8,10.6,1.2c3.2-4.8-1.7-9-5.8-8C60.6,26.8,58.4,29.8,59.1,32.8"/>
							<path class="sample-st28" d="M59.3,32.8c1.2,5.1,7.3,5.7,10.2,1c2.6-4.2-1.5-8.5-5.7-7.6C61.4,26.8,58.5,29.3,59.3,32.8"/>
							<path class="sample-st29" d="M59.6,32.8c1.4,4.7,7.3,5.1,9.7,0.8c2.2-3.9-1.7-8-5.5-7.2C61.8,26.9,58.6,29.4,59.6,32.8"/>
							<path class="sample-st30" d="M59.8,32.8c1.5,4.1,7.1,4.4,9.1,0.5c1.6-3.2-1.1-7.7-5.1-6.7C61.8,27.1,58.7,29.6,59.8,32.8"/>
							<path class="sample-st31" d="M60.1,32.8c1.3,3.6,6.8,3.8,8.4,0.3c1.7-3.8-1.4-7.1-4.7-6.3C62.2,27.2,58.8,29.4,60.1,32.8"/>
							<path class="sample-st32" d="M60.4,32.8c0.5,1.4,2.2,2.3,3.5,2.3c1.3,0,3.1-0.2,4.2-2.2c1.7-3.2-0.8-6.7-4.2-5.9
								C62.4,27.3,59,29.3,60.4,32.8"/>
							<path class="sample-st33" d="M60.4,32.3c0.3,1,1,1.5,1,1.5c1.1,0.7,1.2,0.8,2.6,0.9c0.6,0,2.6-0.4,3.5-2c1.8-3-0.5-6.4-3.8-5.6
								C61.8,27.6,59.6,29.8,60.4,32.3"/>
							<path class="sample-st34" d="M60.5,31.8c0.3,1.4,1.4,2.5,2.8,2.7c0,0,2.5,0.3,3.9-1.8c2-3-0.5-6-3.5-5.3c0,0-1.6,0.8-1.6,0.8
								c-0.4,0.3-0.4,0.3-1.2,1.5C60.8,29.6,60.3,30.8,60.5,31.8"/>
							<path class="sample-st35" d="M60.7,31.8c0.1,0.6,0.7,2.1,2.7,2.4c0.7,0.1,2.5-0.2,3.5-1.6c1.4-1.7,0.5-3.4,0.5-3.4
								c-0.7-1-0.7-1-1.8-1.5c-0.7-0.3-1.9-0.1-1.9-0.1c-0.5,0.1-1.2,0.5-1.6,0.8c-0.3,0.2-1,1.2-1,1.3C61,29.6,60.4,30.8,60.7,31.8
								"/>
							<path class="sample-st36" d="M60.9,31.8c0,0,0.5,1.1,0.7,1.3c0.9,0.7,1.1,0.7,1.9,0.8c1.1,0.1,2.5-0.6,3.1-1.4
								c1.4-1.6,0.5-3.4,0.5-3.4c-0.4-0.6-0.5-0.9-1.9-1.4c-0.4-0.2-1.1-0.1-1.5,0.1c-0.5,0.1-1.1,0.5-1.5,0.8c-0.2,0.2-1,1.1-1,1.1
								C61.2,29.6,60.6,30.7,60.9,31.8"/>
							<path class="sample-st37" d="M61.1,31.8c0.4,1.4,1.8,2,2.5,1.9c2.5-0.2,3.3-2.1,3.4-2.3c0.4-1,0.2-2.1-0.5-2.9
								c-0.3-0.3-0.9-0.6-1.3-0.7c-0.4-0.1-1.1-0.1-1.5,0c-0.2,0.1-1.4,0.4-2.3,1.7C61.4,29.6,60.8,30.7,61.1,31.8"/>
							<path class="sample-st38" d="M61.3,31.8c0.4,1.3,1.8,1.7,2.4,1.7c1.6-0.1,2.7-1.2,3.1-2.1c0.1-0.3,0.3-0.8,0.2-1.1
								c0,0-0.2-1.1-0.5-1.4c-0.3-0.3-0.8-0.7-1.3-0.8c-0.4-0.1-1.1-0.1-1.5,0C62.8,28.3,60.6,29.6,61.3,31.8"/>
							<path class="sample-st39" d="M61.5,31.8c0.2,0.6,1.1,1.2,1.2,1.3c0.3,0.2,0.7,0.2,1.1,0.2c0.8-0.1,2.2-0.6,2.8-2
								c0.1-0.3,0.3-0.8,0.2-1.1c0,0-0.2-1-0.5-1.3c-0.3-0.3-0.7-0.6-1.1-0.7c-0.4-0.1-1.1-0.1-1.5,0c-0.5,0.1-1.7,1-1.9,1.4
								C61.5,30.1,61.2,30.9,61.5,31.8"/>
							<path class="sample-st40" d="M61.7,31.8c0.1,0.2,1.1,1.1,1.1,1.1l1.1,0.2c0.4,0,0.9-0.3,1.3-0.5c0.2-0.1,0.3-0.2,0.4-0.3
								c0.3-0.2,0.6-0.7,0.7-1c0.2-0.4,0.6-1.3-0.5-2.4c-0.2-0.2-0.5-0.4-0.7-0.5c-0.4-0.1-1.1-0.1-1.5,0c-0.4,0.1-1.6,1.2-1.7,1.2
								C61.3,30.7,61.5,31.4,61.7,31.8"/>
							<path class="sample-st41" d="M61.8,31.4c0,0.1,0.1,0.4,0.1,0.5c0.2,0.3,0.6,0.6,0.9,0.8c0.3,0.2,0.8,0.2,1.1,0.2
								c0,0,1.3-0.5,1.4-0.6c0.3-0.2,0.6-0.6,0.8-1c0.5-1.2,0-1.7-0.7-2.5c-0.1-0.1-0.2-0.2-0.4-0.2c-0.4-0.1-1.1-0.1-1.5,0
								c-0.5,0.2-1.1,0.6-1.4,1.1C61.6,30.5,61.7,31,61.8,31.4"/>
							<path class="sample-st42" d="M62.2,31.9c0.1,0.2,0.4,0.5,0.6,0.6c0.3,0.1,0.8,0.2,1.1,0.2c0.7-0.1,1.7-0.8,1.9-1.4
								c0.1-0.3,0.3-0.8,0.2-1.1c0-0.1-1-1.3-1.1-1.3c-0.4-0.2-1.1-0.1-1.5,0.1c-0.4,0.1-0.8,0.5-1.1,0.9c-0.2,0.3-0.5,0.7-0.5,1.1
								C61.9,31.1,62.1,31.6,62.2,31.9"/>
							<path class="sample-st43" d="M62.5,31.9c0.1,0.1,0.2,0.3,0.4,0.4c0.3,0.1,0.8,0.2,1.2,0.1c0.2,0,0.5-0.2,0.6-0.3
								c0.3-0.2,0.8-0.6,1-1c0.2-0.3,0.2-0.8,0.1-1.1c-0.1-0.4-0.5-0.9-0.8-1c-0.4-0.2-1-0.1-1.5,0c-0.3,0.1-0.6,0.4-0.8,0.6
								c-0.2,0.3-0.5,0.7-0.5,1.1C62.1,31.1,62.3,31.6,62.5,31.9"/>
							<path class="sample-st44" d="M62.8,31.9c0,0,0.1,0.1,0.1,0.1c0.4,0.1,0.8,0.2,1.2,0.1c0.1,0,0.2-0.1,0.2-0.1c0.3-0.3,0.9-0.6,1-1
								c0.2-0.3,0.2-0.8,0.1-1.1c-0.1-0.3-0.3-0.6-0.6-0.7c-0.4-0.2-1.1-0.2-1.5,0c-0.2,0.1-0.4,0.2-0.6,0.4
								c-0.2,0.3-0.5,0.7-0.5,1.1C62.4,31.1,62.6,31.6,62.8,31.9"/>
							<path class="sample-st45" d="M63,31.7c0.3,0.2,0.9,0.3,1.2,0.1c0.3-0.1,0.8-0.4,0.9-0.8c0.1-0.3,0.1-0.8,0.1-1.1
								c0-0.2-0.2-0.4-0.4-0.4c-0.4-0.2-1.1-0.2-1.4,0c-0.1,0.1-0.2,0.1-0.3,0.2c-0.2,0.3-0.5,0.7-0.5,1.1
								C62.7,31.1,62.8,31.5,63,31.7"/>
							<path class="sample-st46" d="M63.1,31.3c0.3,0.2,0.9,0.3,1.3,0.2c0.2-0.1,0.4-0.3,0.5-0.4c0,0,0.2-1.1,0-1.3c-0.1,0-1.4,0-1.4,0
								c-0.3,0.2-0.5,0.7-0.5,1.1C62.9,31,63,31.2,63.1,31.3"/>
							<path class="sample-st47" d="M63.2,30.9c0.3,0.2,0.9,0.3,1.3,0.2c0.1,0,0.2-0.3,0.1-0.4c-0.3-0.3-1-0.2-1.4,0
								C63.2,30.7,63.2,30.8,63.2,30.9C63.2,30.9,63.2,30.9,63.2,30.9"/>
						</g>
					</g>
					<g class="sample-st0">
						<defs>
							<path id="SAMPLE_SVGID_3_" class="sample-st0" d="M61.9,39c-2.1,0.3-3.7,0-4.4-0.2c-1.8-0.4-3.3-1.2-3.8-1.4c-3.2-1.8-5.3-5.4-5.3-9.8
								c0-7,5.3-13.3,11.8-14.2c-6.5,0.9-11.8,7.2-11.8,14.2c0,4.4,2.1,8,5.3,9.8c-0.9-0.6-1.1-0.7-1.9-1.3c-0.4-0.4-1-0.9-1.4-1.3
								C50,34.3,49,33,48.5,32c-0.5-1-0.6-1.2-0.8-2c-0.3-1-0.4-1.6-0.5-2.1c-0.3-1.8-0.1-3.4,0-4c0.1-0.8,0.5-2.3,0.9-3.1
								c0.6-1.2,0.6-1.2,1-1.9c0.6-0.9,1.1-1.5,1.3-1.7c1.9-2,4.1-3.3,6.6-3.9c3.4-0.8,6.1-0.1,7.2,0.3c1.6,0.6,2.6,1.1,3.1,1.5
								c0.7,0.5,1.1,0.8,1.7,1.3c0.8,0.8,1.4,1.5,1.5,1.6c1.2,1.6,1.5,2.5,2,3.6c0.1,0.2,0.6,1.8,0.7,3.3c0.1,1.8,0,3-0.2,3.5
								c-0.2,0.9-0.5,2.4-1.5,4c-0.5,0.8-1.6,2.8-4.1,4.5C65.4,38.3,63.3,38.8,61.9,39z"/>
						</defs>
						<clipPath id="SAMPLE_SVGID_4_">
							<use xlink:href="#SAMPLE_SVGID_3_"  style="overflow:visible;"/>
						</clipPath>
						<g class="sample-st48">
							<path class="sample-st30" d="M61.9,39c-2.8,0.4-5.6-0.2-8.2-1.6c-3.2-1.8-5.3-5.4-5.3-9.8c0-7,5.3-13.3,11.8-14.2
								c-6.5,0.9-11.8,7.2-11.8,14.2c0,4.4,2.1,8,5.3,9.8c-11-6.7-7.2-21.6,3.4-24.2c11.5-2.8,20.5,10.1,14,20
								C69,36.4,65.7,38.5,61.9,39"/>
							<path class="sample-st30" d="M54,16.2c-2,1.4-2.2,1.6-2.8,3c-1.7,2.4-2.8,5.4-2.8,8.5c0,4.4,2.1,8,5.3,9.8c-0.2-0.1-0.5-0.3-0.7-0.5
								c-0.3-0.2-0.8-0.6-1.1-0.8l-0.7-0.6c-0.3-0.3-0.6-0.6-0.8-0.9l-0.6-0.8c-0.2-0.3-0.5-0.7-0.7-1L48.5,32
								c-0.1-0.3-0.3-0.7-0.5-1l-0.4-1c-0.1-0.3-0.2-0.8-0.3-1.1l-0.2-1c-0.1-0.6-0.1-1.3-0.1-1.9l0-1.1c0-0.3,0.1-0.8,0.1-1.1
								l0.2-1c0.1-0.3,0.2-0.8,0.3-1.1l0.4-0.9c0.1-0.3,0.3-0.7,0.5-1l0.5-0.9c0.2-0.3,0.5-0.7,0.7-0.9l0.6-0.7
								c0.3-0.3,0.6-0.6,0.8-0.8l0.7-0.6c0.3-0.2,0.7-0.6,1.1-0.8l0.7-0.4c0.9-0.5,0.9-0.5,1.5-0.7l0.5-0.2c0.9-0.3,1.5-0.5,2.7-0.7
								l0.3,0c0.1,0,0.2,0,0.3,0l0.3,0c0.1,0,0.2,0,0.3,0l0.3,0c0.1,0,0.2,0,0.3,0l0.3,0c0.1,0,0.2,0,0.3,0l0.3,0c0.1,0,0.2,0,0.3,0
								l0.3,0c0.1,0,0.2,0,0.3,0l0.4,0.1c0.1,0,0.3,0.1,0.4,0.1l0.4,0.1c0.1,0,0.3,0.1,0.5,0.1l0.5,0.2c0.2,0.1,0.5,0.2,0.7,0.2
								l0.7,0.3c0.3,0.2,0.7,0.4,1,0.5l0.8,0.5c0.9,0.7,1,0.7,1.7,1.3l0.7,0.7c0.2,0.3,0.6,0.6,0.8,0.9l0.6,0.8
								c0.2,0.3,0.4,0.7,0.6,1l0.4,0.9c0.1,0.3,0.3,0.7,0.4,1.1l0.3,1c0.1,0.3,0.2,0.8,0.2,1.1l0.1,1c0,0.3,0,0.8,0,1.2l0,1.1
								c0,0.4-0.1,0.9-0.2,1.3l-0.2,1c-0.1,0.3-0.2,0.8-0.3,1.1l-0.4,0.9c-0.2,0.3-0.3,0.7-0.5,1l-0.5,0.8c-0.2,0.3-0.5,0.7-0.7,0.9
								l-0.6,0.7c-0.3,0.3-0.6,0.6-0.9,0.8l-0.7,0.6c-0.3,0.2-0.8,0.5-1.1,0.8l-0.7,0.4c-0.9,0.4-0.9,0.5-1.5,0.7l-0.5,0.2
								c-0.7,0.2-1.3,0.4-2.6,0.6l-0.3,0c-0.1,0-0.2,0-0.3,0l-0.3,0c-0.1,0-0.2,0-0.3,0l-0.3,0c-0.1,0-0.2,0-0.3,0l-0.3,0
								c-0.1,0-0.2,0-0.3,0l-0.3,0c-0.1,0-0.2,0-0.3,0l-0.3,0c-0.1,0-0.2,0-0.3,0l-0.4-0.1c-0.1,0-0.3-0.1-0.4-0.1l-0.4-0.1
								c-0.1,0-0.3-0.1-0.5-0.1l-0.5-0.2c-0.2-0.1-0.5-0.2-0.7-0.2l-0.7-0.3c-0.3-0.2-0.7-0.4-1-0.5c-3.2-1.8-5.3-5.4-5.3-9.8
								c0-3.1,1-6,2.8-8.5c-0.1,0.2-0.1,0.4-0.2,0.6c-0.3,6.6,5.9,6.8,8.5,3.8c2.9-3.2,0.1-7.7-3.7-7.7C55.3,15.8,54.1,16,54,16.2
								c1.8-1.5,3.9-2.4,6.2-2.8C57.9,13.7,55.8,14.7,54,16.2"/>
							<path class="sample-st29" d="M55,15.4c-1.9,0.8-4.2,1.9-4.6,4.9c-1.3,2.2-2,4.7-2,7.3c0,4.4,2.1,8,5.3,9.8c-0.2-0.1-0.5-0.3-0.7-0.5
								c-0.3-0.2-0.8-0.6-1.1-0.8l-0.7-0.6c-0.3-0.3-0.6-0.6-0.8-0.9l-0.6-0.8c-0.2-0.3-0.5-0.7-0.7-1L48.5,32
								c-0.1-0.3-0.3-0.7-0.5-1l-0.4-1c-0.1-0.3-0.2-0.8-0.3-1.1l-0.2-1c-0.1-0.6-0.1-1.3-0.1-1.9l0-1.1c0-0.3,0.1-0.8,0.1-1.1
								l0.2-1c0.1-0.3,0.2-0.8,0.3-1.1l0.4-0.9c0.1-0.3,0.3-0.7,0.5-1l0.5-0.9c0.2-0.3,0.5-0.7,0.7-0.9l0.6-0.7
								c0.3-0.3,0.6-0.6,0.8-0.8l0.7-0.6c0.3-0.2,0.7-0.6,1.1-0.8l0.7-0.4c0.9-0.5,0.9-0.5,1.5-0.7l0.5-0.2c0.9-0.3,1.5-0.5,2.7-0.7
								l0.3,0c0.1,0,0.2,0,0.3,0l0.3,0c0.1,0,0.2,0,0.3,0l0.3,0c0.1,0,0.2,0,0.3,0l0.3,0c0.1,0,0.2,0,0.3,0l0.3,0c0.1,0,0.2,0,0.3,0
								l0.3,0c0.1,0,0.2,0,0.3,0l0.4,0.1c0.1,0,0.3,0.1,0.4,0.1l0.4,0.1c0.1,0,0.3,0.1,0.5,0.1l0.5,0.2c0.2,0.1,0.5,0.2,0.7,0.2
								l0.7,0.3c0.3,0.2,0.7,0.4,1,0.5l0.8,0.5c0.9,0.7,1,0.7,1.7,1.3l0.7,0.7c0.2,0.3,0.6,0.6,0.8,0.9l0.6,0.8
								c0.2,0.3,0.4,0.7,0.6,1l0.4,0.9c0.1,0.3,0.3,0.7,0.4,1.1l0.3,1c0.1,0.3,0.2,0.8,0.2,1.1l0.1,1c0,0.3,0,0.8,0,1.2l0,1.1
								c0,0.4-0.1,0.9-0.2,1.3l-0.2,1c-0.1,0.3-0.2,0.8-0.3,1.1l-0.4,0.9c-0.2,0.3-0.3,0.7-0.5,1l-0.5,0.8c-0.2,0.3-0.5,0.7-0.7,0.9
								l-0.6,0.7c-0.3,0.3-0.6,0.6-0.9,0.8l-0.7,0.6c-0.3,0.2-0.8,0.5-1.1,0.8l-0.7,0.4c-0.9,0.4-0.9,0.5-1.5,0.7l-0.5,0.2
								c-0.7,0.2-1.3,0.4-2.6,0.6l-0.3,0c-0.1,0-0.2,0-0.3,0l-0.3,0c-0.1,0-0.2,0-0.3,0l-0.3,0c-0.1,0-0.2,0-0.3,0l-0.3,0
								c-0.1,0-0.2,0-0.3,0l-0.3,0c-0.1,0-0.2,0-0.3,0l-0.3,0c-0.1,0-0.2,0-0.3,0l-0.4-0.1c-0.1,0-0.3-0.1-0.4-0.1l-0.4-0.1
								c-0.1,0-0.3-0.1-0.5-0.1l-0.5-0.2c-0.2-0.1-0.5-0.2-0.7-0.2l-0.7-0.3c-0.3-0.2-0.7-0.4-1-0.5c-3.2-1.8-5.3-5.4-5.3-9.8
								c0-2.6,0.7-5.1,2-7.3c0,0.1,0,0.3,0,0.5c1.2,6.1,7.1,6.3,10,1.9C62.9,18.9,57.4,14.3,55,15.4c1.6-1,3.3-1.7,5.2-2
								C58.3,13.7,56.6,14.4,55,15.4"/>
							<path class="sample-st28" d="M55.8,14.9c-5.5,1.3-5.8,5.4-5.9,6.2c-1,2-1.5,4.2-1.5,6.4c0,4.4,2.1,8,5.3,9.8
								c-0.2-0.1-0.5-0.3-0.7-0.5c-0.3-0.2-0.8-0.6-1.1-0.8l-0.7-0.6c-0.3-0.3-0.6-0.6-0.8-0.9l-0.6-0.8c-0.2-0.3-0.5-0.7-0.7-1
								L48.5,32c-0.1-0.3-0.3-0.7-0.5-1l-0.4-1c-0.1-0.3-0.2-0.8-0.3-1.1l-0.2-1c-0.1-0.6-0.1-1.3-0.1-1.9l0-1.1
								c0-0.3,0.1-0.8,0.1-1.1l0.2-1c0.1-0.3,0.2-0.8,0.3-1.1l0.4-0.9c0.1-0.3,0.3-0.7,0.5-1l0.5-0.9c0.2-0.3,0.5-0.7,0.7-0.9
								l0.6-0.7c0.3-0.3,0.6-0.6,0.8-0.8l0.7-0.6c0.3-0.2,0.7-0.6,1.1-0.8l0.7-0.4c0.9-0.5,0.9-0.5,1.5-0.7l0.5-0.2
								c0.9-0.3,1.5-0.5,2.7-0.7l0.3,0c0.1,0,0.2,0,0.3,0l0.3,0c0.1,0,0.2,0,0.3,0l0.3,0c0.1,0,0.2,0,0.3,0l0.3,0c0.1,0,0.2,0,0.3,0
								l0.3,0c0.1,0,0.2,0,0.3,0l0.3,0c0.1,0,0.2,0,0.3,0l0.4,0.1c0.1,0,0.3,0.1,0.4,0.1l0.4,0.1c0.1,0,0.3,0.1,0.5,0.1l0.5,0.2
								c0.2,0.1,0.5,0.2,0.7,0.2l0.7,0.3c0.3,0.2,0.7,0.4,1,0.5l0.8,0.5c0.9,0.7,1,0.7,1.7,1.3l0.7,0.7c0.2,0.3,0.6,0.6,0.8,0.9
								l0.6,0.8c0.2,0.3,0.4,0.7,0.6,1l0.4,0.9c0.1,0.3,0.3,0.7,0.4,1.1l0.3,1c0.1,0.3,0.2,0.8,0.2,1.1l0.1,1c0,0.3,0,0.8,0,1.2
								l0,1.1c0,0.4-0.1,0.9-0.2,1.3l-0.2,1c-0.1,0.3-0.2,0.8-0.3,1.1l-0.4,0.9c-0.2,0.3-0.3,0.7-0.5,1l-0.5,0.8
								c-0.2,0.3-0.5,0.7-0.7,0.9l-0.6,0.7c-0.3,0.3-0.6,0.6-0.9,0.8l-0.7,0.6c-0.3,0.2-0.8,0.5-1.1,0.8l-0.7,0.4
								c-0.9,0.4-0.9,0.5-1.5,0.7l-0.5,0.2c-0.7,0.2-1.3,0.4-2.6,0.6l-0.3,0c-0.1,0-0.2,0-0.3,0l-0.3,0c-0.1,0-0.2,0-0.3,0l-0.3,0
								c-0.1,0-0.2,0-0.3,0l-0.3,0c-0.1,0-0.2,0-0.3,0l-0.3,0c-0.1,0-0.2,0-0.3,0l-0.3,0c-0.1,0-0.2,0-0.3,0l-0.4-0.1
								c-0.1,0-0.3-0.1-0.4-0.1l-0.4-0.1c-0.1,0-0.3-0.1-0.5-0.1l-0.5-0.2c-0.2-0.1-0.5-0.2-0.7-0.2l-0.7-0.3
								c-0.3-0.2-0.7-0.4-1-0.5c-3.2-1.8-5.3-5.4-5.3-9.8c0-2.3,0.6-4.5,1.5-6.4c0,0.2,0.1,0.5,0.1,0.7c2.8,6.5,9.1,3.9,10.6,0.6
								C62,19.6,60,14.9,55.8,14.9c1.4-0.8,2.8-1.3,4.4-1.5C58.7,13.6,57.2,14.1,55.8,14.9"/>
							<path class="sample-st27" d="M56.5,14.5c-4.9,0.6-7.3,4.7-6.9,7.4c-0.8,1.8-1.2,3.7-1.2,5.7c0,4.4,2.1,8,5.3,9.8
								c-0.2-0.1-0.5-0.3-0.7-0.5c-0.3-0.2-0.8-0.6-1.1-0.8l-0.7-0.6c-0.3-0.3-0.6-0.6-0.8-0.9l-0.6-0.8c-0.2-0.3-0.5-0.7-0.7-1
								L48.5,32c-0.1-0.3-0.3-0.7-0.5-1l-0.4-1c-0.1-0.3-0.2-0.8-0.3-1.1l-0.2-1c-0.1-0.6-0.1-1.3-0.1-1.9l0-1.1
								c0-0.3,0.1-0.8,0.1-1.1l0.2-1c0.1-0.3,0.2-0.8,0.3-1.1l0.4-0.9c0.1-0.3,0.3-0.7,0.5-1l0.5-0.9c0.2-0.3,0.5-0.7,0.7-0.9
								l0.6-0.7c0.3-0.3,0.6-0.6,0.8-0.8l0.7-0.6c0.3-0.2,0.7-0.6,1.1-0.8l0.7-0.4c0.9-0.5,0.9-0.5,1.5-0.7l0.5-0.2
								c0.9-0.3,1.5-0.5,2.7-0.7l0.3,0c0.1,0,0.2,0,0.3,0l0.3,0c0.1,0,0.2,0,0.3,0l0.3,0c0.1,0,0.2,0,0.3,0l0.3,0c0.1,0,0.2,0,0.3,0
								l0.3,0c0.1,0,0.2,0,0.3,0l0.3,0c0.1,0,0.2,0,0.3,0l0.4,0.1c0.1,0,0.3,0.1,0.4,0.1l0.4,0.1c0.1,0,0.3,0.1,0.5,0.1l0.5,0.2
								c0.2,0.1,0.5,0.2,0.7,0.2l0.7,0.3c0.3,0.2,0.7,0.4,1,0.5l0.8,0.5c0.9,0.7,1,0.7,1.7,1.3l0.7,0.7c0.2,0.3,0.6,0.6,0.8,0.9
								l0.6,0.8c0.2,0.3,0.4,0.7,0.6,1l0.4,0.9c0.1,0.3,0.3,0.7,0.4,1.1l0.3,1c0.1,0.3,0.2,0.8,0.2,1.1l0.1,1c0,0.3,0,0.8,0,1.2
								l0,1.1c0,0.4-0.1,0.9-0.2,1.3l-0.2,1c-0.1,0.3-0.2,0.8-0.3,1.1l-0.4,0.9c-0.2,0.3-0.3,0.7-0.5,1l-0.5,0.8
								c-0.2,0.3-0.5,0.7-0.7,0.9l-0.6,0.7c-0.3,0.3-0.6,0.6-0.9,0.8l-0.7,0.6c-0.3,0.2-0.8,0.5-1.1,0.8l-0.7,0.4
								c-0.9,0.4-0.9,0.5-1.5,0.7l-0.5,0.2c-0.7,0.2-1.3,0.4-2.6,0.6l-0.3,0c-0.1,0-0.2,0-0.3,0l-0.3,0c-0.1,0-0.2,0-0.3,0l-0.3,0
								c-0.1,0-0.2,0-0.3,0l-0.3,0c-0.1,0-0.2,0-0.3,0l-0.3,0c-0.1,0-0.2,0-0.3,0l-0.3,0c-0.1,0-0.2,0-0.3,0l-0.4-0.1
								c-0.1,0-0.3-0.1-0.4-0.1l-0.4-0.1c-0.1,0-0.3-0.1-0.5-0.1l-0.5-0.2c-0.2-0.1-0.5-0.2-0.7-0.2l-0.7-0.3
								c-0.3-0.2-0.7-0.4-1-0.5c-3.2-1.8-5.3-5.4-5.3-9.8c0-2,0.4-3.9,1.2-5.7c0.1,0.2,0.2,0.4,0.2,0.6c2.9,5.9,9.5,3.6,11.1-0.1
								C61.8,20.3,61.4,15.1,56.5,14.5c1.2-0.6,2.4-1,3.7-1.1C58.9,13.6,57.7,14,56.5,14.5"/>
							<path class="sample-st26" d="M57.1,14.2c-7.8,1.7-8.2,5.9-7.8,8.3c-0.6,1.6-0.9,3.3-0.9,5c0,4.4,2.1,8,5.3,9.8
								c-0.2-0.1-0.5-0.3-0.7-0.5c-0.3-0.2-0.8-0.6-1.1-0.8l-0.7-0.6c-0.3-0.3-0.6-0.6-0.8-0.9l-0.6-0.8c-0.2-0.3-0.5-0.7-0.7-1
								L48.5,32c-0.1-0.3-0.3-0.7-0.5-1l-0.4-1c-0.1-0.3-0.2-0.8-0.3-1.1l-0.2-1c-0.1-0.6-0.1-1.3-0.1-1.9l0-1.1
								c0-0.3,0.1-0.8,0.1-1.1l0.2-1c0.1-0.3,0.2-0.8,0.3-1.1l0.4-0.9c0.1-0.3,0.3-0.7,0.5-1l0.5-0.9c0.2-0.3,0.5-0.7,0.7-0.9
								l0.6-0.7c0.3-0.3,0.6-0.6,0.8-0.8l0.7-0.6c0.3-0.2,0.7-0.6,1.1-0.8l0.7-0.4c0.9-0.5,0.9-0.5,1.5-0.7l0.5-0.2
								c0.9-0.3,1.5-0.5,2.7-0.7l0.3,0c0.1,0,0.2,0,0.3,0l0.3,0c0.1,0,0.2,0,0.3,0l0.3,0c0.1,0,0.2,0,0.3,0l0.3,0c0.1,0,0.2,0,0.3,0
								l0.3,0c0.1,0,0.2,0,0.3,0l0.3,0c0.1,0,0.2,0,0.3,0l0.4,0.1c0.1,0,0.3,0.1,0.4,0.1l0.4,0.1c0.1,0,0.3,0.1,0.5,0.1l0.5,0.2
								c0.2,0.1,0.5,0.2,0.7,0.2l0.7,0.3c0.3,0.2,0.7,0.4,1,0.5l0.8,0.5c0.9,0.7,1,0.7,1.7,1.3l0.7,0.7c0.2,0.3,0.6,0.6,0.8,0.9
								l0.6,0.8c0.2,0.3,0.4,0.7,0.6,1l0.4,0.9c0.1,0.3,0.3,0.7,0.4,1.1l0.3,1c0.1,0.3,0.2,0.8,0.2,1.1l0.1,1c0,0.3,0,0.8,0,1.2
								l0,1.1c0,0.4-0.1,0.9-0.2,1.3l-0.2,1c-0.1,0.3-0.2,0.8-0.3,1.1l-0.4,0.9c-0.2,0.3-0.3,0.7-0.5,1l-0.5,0.8
								c-0.2,0.3-0.5,0.7-0.7,0.9l-0.6,0.7c-0.3,0.3-0.6,0.6-0.9,0.8l-0.7,0.6c-0.3,0.2-0.8,0.5-1.1,0.8l-0.7,0.4
								c-0.9,0.4-0.9,0.5-1.5,0.7l-0.5,0.2c-0.7,0.2-1.3,0.4-2.6,0.6l-0.3,0c-0.1,0-0.2,0-0.3,0l-0.3,0c-0.1,0-0.2,0-0.3,0l-0.3,0
								c-0.1,0-0.2,0-0.3,0l-0.3,0c-0.1,0-0.2,0-0.3,0l-0.3,0c-0.1,0-0.2,0-0.3,0l-0.3,0c-0.1,0-0.2,0-0.3,0l-0.4-0.1
								c-0.1,0-0.3-0.1-0.4-0.1l-0.4-0.1c-0.1,0-0.3-0.1-0.5-0.1l-0.5-0.2c-0.2-0.1-0.5-0.2-0.7-0.2l-0.7-0.3
								c-0.3-0.2-0.7-0.4-1-0.5c-3.2-1.8-5.3-5.4-5.3-9.8c0-1.7,0.3-3.4,0.9-5c0,0.1,0.1,0.3,0.2,0.4c3.4,5.5,10.7,3.6,12-1.7
								C62.4,17.7,59.1,13.8,57.1,14.2c1-0.4,2-0.7,3.1-0.8C59.1,13.5,58.1,13.8,57.1,14.2"/>
							<path class="sample-st25" d="M57.7,14c-4,0.7-4.7,0.8-6.4,2.6c-2.2,2.3-2.8,4.3-2.2,6.5c-0.5,1.4-0.7,2.9-0.7,4.4
								c0,4.4,2.1,8,5.3,9.8c-0.2-0.1-0.5-0.3-0.7-0.5c-0.3-0.2-0.8-0.6-1.1-0.8l-0.7-0.6c-0.3-0.3-0.6-0.6-0.8-0.9l-0.6-0.8
								c-0.2-0.3-0.5-0.7-0.7-1L48.5,32c-0.1-0.3-0.3-0.7-0.5-1l-0.4-1c-0.1-0.3-0.2-0.8-0.3-1.1l-0.2-1c-0.1-0.6-0.1-1.3-0.1-1.9
								l0-1.1c0-0.3,0.1-0.8,0.1-1.1l0.2-1c0.1-0.3,0.2-0.8,0.3-1.1l0.4-0.9c0.1-0.3,0.3-0.7,0.5-1l0.5-0.9c0.2-0.3,0.5-0.7,0.7-0.9
								l0.6-0.7c0.3-0.3,0.6-0.6,0.8-0.8l0.7-0.6c0.3-0.2,0.7-0.6,1.1-0.8l0.7-0.4c0.9-0.5,0.9-0.5,1.5-0.7l0.5-0.2
								c0.9-0.3,1.5-0.5,2.7-0.7l0.3,0c0.1,0,0.2,0,0.3,0l0.3,0c0.1,0,0.2,0,0.3,0l0.3,0c0.1,0,0.2,0,0.3,0l0.3,0c0.1,0,0.2,0,0.3,0
								l0.3,0c0.1,0,0.2,0,0.3,0l0.3,0c0.1,0,0.2,0,0.3,0l0.4,0.1c0.1,0,0.3,0.1,0.4,0.1l0.4,0.1c0.1,0,0.3,0.1,0.5,0.1l0.5,0.2
								c0.2,0.1,0.5,0.2,0.7,0.2l0.7,0.3c0.3,0.2,0.7,0.4,1,0.5l0.8,0.5c0.9,0.7,1,0.7,1.7,1.3l0.7,0.7c0.2,0.3,0.6,0.6,0.8,0.9
								l0.6,0.8c0.2,0.3,0.4,0.7,0.6,1l0.4,0.9c0.1,0.3,0.3,0.7,0.4,1.1l0.3,1c0.1,0.3,0.2,0.8,0.2,1.1l0.1,1c0,0.3,0,0.8,0,1.2
								l0,1.1c0,0.4-0.1,0.9-0.2,1.3l-0.2,1c-0.1,0.3-0.2,0.8-0.3,1.1l-0.4,0.9c-0.2,0.3-0.3,0.7-0.5,1l-0.5,0.8
								c-0.2,0.3-0.5,0.7-0.7,0.9l-0.6,0.7c-0.3,0.3-0.6,0.6-0.9,0.8l-0.7,0.6c-0.3,0.2-0.8,0.5-1.1,0.8l-0.7,0.4
								c-0.9,0.4-0.9,0.5-1.5,0.7l-0.5,0.2c-0.7,0.2-1.3,0.4-2.6,0.6l-0.3,0c-0.1,0-0.2,0-0.3,0l-0.3,0c-0.1,0-0.2,0-0.3,0l-0.3,0
								c-0.1,0-0.2,0-0.3,0l-0.3,0c-0.1,0-0.2,0-0.3,0l-0.3,0c-0.1,0-0.2,0-0.3,0l-0.3,0c-0.1,0-0.2,0-0.3,0l-0.4-0.1
								c-0.1,0-0.3-0.1-0.4-0.1l-0.4-0.1c-0.1,0-0.3-0.1-0.5-0.1l-0.5-0.2c-0.2-0.1-0.5-0.2-0.7-0.2l-0.7-0.3
								c-0.3-0.2-0.7-0.4-1-0.5c-3.2-1.8-5.3-5.4-5.3-9.8c0-1.5,0.3-3,0.7-4.4c0.1,0.2,0.2,0.4,0.3,0.6c3.6,5.1,11.1,2.7,12.4-2.5
								C62.7,17.4,59.8,13.7,57.7,14c0.8-0.3,1.6-0.5,2.5-0.6C59.4,13.5,58.5,13.7,57.7,14"/>
							<path class="sample-st24" d="M58.3,13.8c-3.8,0.4-5,0.6-7.6,3.3c-1.9,2-2.5,4.3-1.8,6.7c-0.3,1.2-0.5,2.5-0.5,3.8
								c0,4.4,2.1,8,5.3,9.8c-0.2-0.1-0.5-0.3-0.7-0.5c-0.3-0.2-0.8-0.6-1.1-0.8l-0.7-0.6c-0.3-0.3-0.6-0.6-0.8-0.9l-0.6-0.8
								c-0.2-0.3-0.5-0.7-0.7-1L48.5,32c-0.1-0.3-0.3-0.7-0.5-1l-0.4-1c-0.1-0.3-0.2-0.8-0.3-1.1l-0.2-1c-0.1-0.6-0.1-1.3-0.1-1.9
								l0-1.1c0-0.3,0.1-0.8,0.1-1.1l0.2-1c0.1-0.3,0.2-0.8,0.3-1.1l0.4-0.9c0.1-0.3,0.3-0.7,0.5-1l0.5-0.9c0.2-0.3,0.5-0.7,0.7-0.9
								l0.6-0.7c0.3-0.3,0.6-0.6,0.8-0.8l0.7-0.6c0.3-0.2,0.7-0.6,1.1-0.8l0.7-0.4c0.9-0.5,0.9-0.5,1.5-0.7l0.5-0.2
								c0.9-0.3,1.5-0.5,2.7-0.7l0.3,0c0.1,0,0.2,0,0.3,0l0.3,0c0.1,0,0.2,0,0.3,0l0.3,0c0.1,0,0.2,0,0.3,0l0.3,0c0.1,0,0.2,0,0.3,0
								l0.3,0c0.1,0,0.2,0,0.3,0l0.3,0c0.1,0,0.2,0,0.3,0l0.4,0.1c0.1,0,0.3,0.1,0.4,0.1l0.4,0.1c0.1,0,0.3,0.1,0.5,0.1l0.5,0.2
								c0.2,0.1,0.5,0.2,0.7,0.2l0.7,0.3c0.3,0.2,0.7,0.4,1,0.5l0.8,0.5c0.9,0.7,1,0.7,1.7,1.3l0.7,0.7c0.2,0.3,0.6,0.6,0.8,0.9
								l0.6,0.8c0.2,0.3,0.4,0.7,0.6,1l0.4,0.9c0.1,0.3,0.3,0.7,0.4,1.1l0.3,1c0.1,0.3,0.2,0.8,0.2,1.1l0.1,1c0,0.3,0,0.8,0,1.2
								l0,1.1c0,0.4-0.1,0.9-0.2,1.3l-0.2,1c-0.1,0.3-0.2,0.8-0.3,1.1l-0.4,0.9c-0.2,0.3-0.3,0.7-0.5,1l-0.5,0.8
								c-0.2,0.3-0.5,0.7-0.7,0.9l-0.6,0.7c-0.3,0.3-0.6,0.6-0.9,0.8l-0.7,0.6c-0.3,0.2-0.8,0.5-1.1,0.8l-0.7,0.4
								c-0.9,0.4-0.9,0.5-1.5,0.7l-0.5,0.2c-0.7,0.2-1.3,0.4-2.6,0.6l-0.3,0c-0.1,0-0.2,0-0.3,0l-0.3,0c-0.1,0-0.2,0-0.3,0l-0.3,0
								c-0.1,0-0.2,0-0.3,0l-0.3,0c-0.1,0-0.2,0-0.3,0l-0.3,0c-0.1,0-0.2,0-0.3,0l-0.3,0c-0.1,0-0.2,0-0.3,0l-0.4-0.1
								c-0.1,0-0.3-0.1-0.4-0.1l-0.4-0.1c-0.1,0-0.3-0.1-0.5-0.1l-0.5-0.2c-0.2-0.1-0.5-0.2-0.7-0.2l-0.7-0.3
								c-0.3-0.2-0.7-0.4-1-0.5c-3.2-1.8-5.3-5.4-5.3-9.8c0-1.3,0.2-2.6,0.5-3.8c0.1,0.1,0.1,0.2,0.2,0.3c3.9,5.1,11.8,2.6,13-2.9
								C62.9,17.5,60.5,13.6,58.3,13.8c0.6-0.2,1.3-0.3,1.9-0.4C59.5,13.5,58.9,13.6,58.3,13.8"/>
							<path class="sample-st23" d="M58.8,13.7c-9.6,0.5-11.1,7.8-10,10.7c-0.2,1-0.4,2.1-0.4,3.2c0,4.4,2.1,8,5.3,9.8
								c-0.2-0.1-0.5-0.3-0.7-0.5c-0.3-0.2-0.8-0.6-1.1-0.8l-0.7-0.6c-0.3-0.3-0.6-0.6-0.8-0.9l-0.6-0.8c-0.2-0.3-0.5-0.7-0.7-1
								L48.5,32c-0.1-0.3-0.3-0.7-0.5-1l-0.4-1c-0.1-0.3-0.2-0.8-0.3-1.1l-0.2-1c-0.1-0.6-0.1-1.3-0.1-1.9l0-1.1
								c0-0.3,0.1-0.8,0.1-1.1l0.2-1c0.1-0.3,0.2-0.8,0.3-1.1l0.4-0.9c0.1-0.3,0.3-0.7,0.5-1l0.5-0.9c0.2-0.3,0.5-0.7,0.7-0.9
								l0.6-0.7c0.3-0.3,0.6-0.6,0.8-0.8l0.7-0.6c0.3-0.2,0.7-0.6,1.1-0.8l0.7-0.4c0.9-0.5,0.9-0.5,1.5-0.7l0.5-0.2
								c0.9-0.3,1.5-0.5,2.7-0.7l0.3,0c0.1,0,0.2,0,0.3,0l0.3,0c0.1,0,0.2,0,0.3,0l0.3,0c0.1,0,0.2,0,0.3,0l0.3,0c0.1,0,0.2,0,0.3,0
								l0.3,0c0.1,0,0.2,0,0.3,0l0.3,0c0.1,0,0.2,0,0.3,0l0.4,0.1c0.1,0,0.3,0.1,0.4,0.1l0.4,0.1c0.1,0,0.3,0.1,0.5,0.1l0.5,0.2
								c0.2,0.1,0.5,0.2,0.7,0.2l0.7,0.3c0.3,0.2,0.7,0.4,1,0.5l0.8,0.5c0.9,0.7,1,0.7,1.7,1.3l0.7,0.7c0.2,0.3,0.6,0.6,0.8,0.9
								l0.6,0.8c0.2,0.3,0.4,0.7,0.6,1l0.4,0.9c0.1,0.3,0.3,0.7,0.4,1.1l0.3,1c0.1,0.3,0.2,0.8,0.2,1.1l0.1,1c0,0.3,0,0.8,0,1.2
								l0,1.1c0,0.4-0.1,0.9-0.2,1.3l-0.2,1c-0.1,0.3-0.2,0.8-0.3,1.1l-0.4,0.9c-0.2,0.3-0.3,0.7-0.5,1l-0.5,0.8
								c-0.2,0.3-0.5,0.7-0.7,0.9l-0.6,0.7c-0.3,0.3-0.6,0.6-0.9,0.8l-0.7,0.6c-0.3,0.2-0.8,0.5-1.1,0.8l-0.7,0.4
								c-0.9,0.4-0.9,0.5-1.5,0.7l-0.5,0.2c-0.7,0.2-1.3,0.4-2.6,0.6l-0.3,0c-0.1,0-0.2,0-0.3,0l-0.3,0c-0.1,0-0.2,0-0.3,0l-0.3,0
								c-0.1,0-0.2,0-0.3,0l-0.3,0c-0.1,0-0.2,0-0.3,0l-0.3,0c-0.1,0-0.2,0-0.3,0l-0.3,0c-0.1,0-0.2,0-0.3,0l-0.4-0.1
								c-0.1,0-0.3-0.1-0.4-0.1l-0.4-0.1c-0.1,0-0.3-0.1-0.5-0.1l-0.5-0.2c-0.2-0.1-0.5-0.2-0.7-0.2l-0.7-0.3
								c-0.3-0.2-0.7-0.4-1-0.5c-3.2-1.8-5.3-5.4-5.3-9.8c0-1.1,0.1-2.2,0.4-3.2c0.1,0.2,0.3,0.4,0.4,0.6c3.8,4.3,12.8,2.1,13.3-4.8
								C63,14,58.9,13.7,58.8,13.7c0.4-0.1,0.9-0.2,1.4-0.3C59.7,13.5,59.3,13.6,58.8,13.7"/>
							<path class="sample-st22" d="M59.4,13.5L59.4,13.5c-5.9-0.9-13.1,5.6-10.8,11.4c-0.2,0.9-0.3,1.7-0.3,2.6c0,4.4,2.1,8,5.3,9.8
								c-0.2-0.1-0.5-0.3-0.7-0.5c-0.3-0.2-0.8-0.6-1.1-0.8l-0.7-0.6c-0.3-0.3-0.6-0.6-0.8-0.9l-0.6-0.8c-0.2-0.3-0.5-0.7-0.7-1
								L48.5,32c-0.1-0.3-0.3-0.7-0.5-1l-0.4-1c-0.1-0.3-0.2-0.8-0.3-1.1l-0.2-1c-0.1-0.6-0.1-1.3-0.1-1.9l0-1.1
								c0-0.3,0.1-0.8,0.1-1.1l0.2-1c0.1-0.3,0.2-0.8,0.3-1.1l0.4-0.9c0.1-0.3,0.3-0.7,0.5-1l0.5-0.9c0.2-0.3,0.5-0.7,0.7-0.9
								l0.6-0.7c0.3-0.3,0.6-0.6,0.8-0.8l0.7-0.6c0.3-0.2,0.7-0.6,1.1-0.8l0.7-0.4c0.9-0.5,0.9-0.5,1.5-0.7l0.5-0.2
								c0.9-0.3,1.5-0.5,2.7-0.7l0.3,0c0.1,0,0.2,0,0.3,0l0.3,0c0.1,0,0.2,0,0.3,0l0.3,0c0.1,0,0.2,0,0.3,0l0.3,0c0.1,0,0.2,0,0.3,0
								l0.3,0c0.1,0,0.2,0,0.3,0l0.3,0c0.1,0,0.2,0,0.3,0l0.4,0.1c0.1,0,0.3,0.1,0.4,0.1l0.4,0.1c0.1,0,0.3,0.1,0.5,0.1l0.5,0.2
								c0.2,0.1,0.5,0.2,0.7,0.2l0.7,0.3c0.3,0.2,0.7,0.4,1,0.5l0.8,0.5c0.9,0.7,1,0.7,1.7,1.3l0.7,0.7c0.2,0.3,0.6,0.6,0.8,0.9
								l0.6,0.8c0.2,0.3,0.4,0.7,0.6,1l0.4,0.9c0.1,0.3,0.3,0.7,0.4,1.1l0.3,1c0.1,0.3,0.2,0.8,0.2,1.1l0.1,1c0,0.3,0,0.8,0,1.2
								l0,1.1c0,0.4-0.1,0.9-0.2,1.3l-0.2,1c-0.1,0.3-0.2,0.8-0.3,1.1l-0.4,0.9c-0.2,0.3-0.3,0.7-0.5,1l-0.5,0.8
								c-0.2,0.3-0.5,0.7-0.7,0.9l-0.6,0.7c-0.3,0.3-0.6,0.6-0.9,0.8l-0.7,0.6c-0.3,0.2-0.8,0.5-1.1,0.8l-0.7,0.4
								c-0.9,0.4-0.9,0.5-1.5,0.7l-0.5,0.2c-0.7,0.2-1.3,0.4-2.6,0.6l-0.3,0c-0.1,0-0.2,0-0.3,0l-0.3,0c-0.1,0-0.2,0-0.3,0l-0.3,0
								c-0.1,0-0.2,0-0.3,0l-0.3,0c-0.1,0-0.2,0-0.3,0l-0.3,0c-0.1,0-0.2,0-0.3,0l-0.3,0c-0.1,0-0.2,0-0.3,0l-0.4-0.1
								c-0.1,0-0.3-0.1-0.4-0.1l-0.4-0.1c-0.1,0-0.3-0.1-0.5-0.1l-0.5-0.2c-0.2-0.1-0.5-0.2-0.7-0.2l-0.7-0.3
								c-0.3-0.2-0.7-0.4-1-0.5c-3.2-1.8-5.3-5.4-5.3-9.8c0-0.9,0.1-1.8,0.3-2.6c0.1,0.1,0.2,0.3,0.3,0.4c3.9,4.2,13.5,2.3,14-6.1
								C63.2,15.7,61.3,13.8,59.4,13.5c0.3-0.1,0.5-0.1,0.8-0.1C59.9,13.4,59.7,13.5,59.4,13.5"/>
							<path class="sample-st21" d="M60,13.4c-4.1,0.1-6.2,0.2-9.3,3.5c-1.6,1.6-3.9,4.9-2.2,8.6c-0.1,0.7-0.2,1.4-0.2,2.1
								c0,4.4,2.1,8,5.3,9.8c-0.2-0.1-0.5-0.3-0.7-0.5c-0.3-0.2-0.8-0.6-1.1-0.8l-0.7-0.6c-0.3-0.3-0.6-0.6-0.8-0.9l-0.6-0.8
								c-0.2-0.3-0.5-0.7-0.7-1L48.5,32c-0.1-0.3-0.3-0.7-0.5-1l-0.4-1c-0.1-0.3-0.2-0.8-0.3-1.1l-0.2-1c-0.1-0.6-0.1-1.3-0.1-1.9
								l0-1.1c0-0.3,0.1-0.8,0.1-1.1l0.2-1c0.1-0.3,0.2-0.8,0.3-1.1l0.4-0.9c0.1-0.3,0.3-0.7,0.5-1l0.5-0.9c0.2-0.3,0.5-0.7,0.7-0.9
								l0.6-0.7c0.3-0.3,0.6-0.6,0.8-0.8l0.7-0.6c0.3-0.2,0.7-0.6,1.1-0.8l0.7-0.4c0.9-0.5,0.9-0.5,1.5-0.7l0.5-0.2
								c0.9-0.3,1.5-0.5,2.7-0.7l0.3,0c0.1,0,0.2,0,0.3,0l0.3,0c0.1,0,0.2,0,0.3,0l0.3,0c0.1,0,0.2,0,0.3,0l0.3,0c0.1,0,0.2,0,0.3,0
								l0.3,0c0.1,0,0.2,0,0.3,0l0.3,0c0.1,0,0.2,0,0.3,0l0.4,0.1c0.1,0,0.3,0.1,0.4,0.1l0.4,0.1c0.1,0,0.3,0.1,0.5,0.1l0.5,0.2
								c0.2,0.1,0.5,0.2,0.7,0.2l0.7,0.3c0.3,0.2,0.7,0.4,1,0.5l0.8,0.5c0.9,0.7,1,0.7,1.7,1.3l0.7,0.7c0.2,0.3,0.6,0.6,0.8,0.9
								l0.6,0.8c0.2,0.3,0.4,0.7,0.6,1l0.4,0.9c0.1,0.3,0.3,0.7,0.4,1.1l0.3,1c0.1,0.3,0.2,0.8,0.2,1.1l0.1,1c0,0.3,0,0.8,0,1.2
								l0,1.1c0,0.4-0.1,0.9-0.2,1.3l-0.2,1c-0.1,0.3-0.2,0.8-0.3,1.1l-0.4,0.9c-0.2,0.3-0.3,0.7-0.5,1l-0.5,0.8
								c-0.2,0.3-0.5,0.7-0.7,0.9l-0.6,0.7c-0.3,0.3-0.6,0.6-0.9,0.8l-0.7,0.6c-0.3,0.2-0.8,0.5-1.1,0.8l-0.7,0.4
								c-0.9,0.4-0.9,0.5-1.5,0.7l-0.5,0.2c-0.7,0.2-1.3,0.4-2.6,0.6l-0.3,0c-0.1,0-0.2,0-0.3,0l-0.3,0c-0.1,0-0.2,0-0.3,0l-0.3,0
								c-0.1,0-0.2,0-0.3,0l-0.3,0c-0.1,0-0.2,0-0.3,0l-0.3,0c-0.1,0-0.2,0-0.3,0l-0.3,0c-0.1,0-0.2,0-0.3,0l-0.4-0.1
								c-0.1,0-0.3-0.1-0.4-0.1l-0.4-0.1c-0.1,0-0.3-0.1-0.5-0.1l-0.5-0.2c-0.2-0.1-0.5-0.2-0.7-0.2l-0.7-0.3
								c-0.3-0.2-0.7-0.4-1-0.5c-3.2-1.8-5.3-5.4-5.3-9.8c0-0.7,0.1-1.4,0.2-2.1c0.1,0.2,0.3,0.4,0.4,0.5c4.3,4.4,14.4,0.6,14.4-7
								C63.4,13.7,60.1,13.4,60,13.4c0.1,0,0.1,0,0.2,0C60.1,13.4,60.1,13.4,60,13.4"/>
							<g>
								<path class="sample-st8" d="M55.2,13.9c1.1-0.4,1.8-0.7,3.2-0.9l0.3,0c0.1,0,0.2,0,0.3,0l0.3,0c0.1,0,0.2,0,0.3,0l0.3,0
									c0.1,0,0.2,0,0.3,0l0.3,0c0.1,0,0.2,0,0.3,0l0.3,0c0.1,0,0.2,0,0.3,0l0.3,0c0.1,0,0.2,0,0.3,0l0.4,0.1
									c0.1,0,0.3,0.1,0.4,0.1l0.4,0.1c0.1,0,0.3,0.1,0.5,0.1l0.5,0.2c0.2,0.1,0.5,0.2,0.7,0.2l0.7,0.3c0.3,0.2,0.7,0.4,1,0.5
									l0.8,0.5c0.9,0.7,1,0.7,1.7,1.3l0.7,0.7c0.2,0.3,0.6,0.6,0.8,0.9l0.6,0.8c0.2,0.3,0.4,0.7,0.6,1l0.4,0.9
									c0.1,0.3,0.3,0.7,0.4,1.1l0.3,1c0.1,0.3,0.2,0.8,0.2,1.1l0.1,1c0,0.3,0,0.8,0,1.2l0,1.1c0,0.4-0.1,0.9-0.2,1.3l-0.2,1
									c-0.1,0.3-0.2,0.8-0.3,1.1l-0.4,0.9c-0.2,0.3-0.3,0.7-0.5,1l-0.5,0.8c-0.2,0.3-0.5,0.7-0.7,0.9l-0.6,0.7
									c-0.3,0.3-0.6,0.6-0.9,0.8l-0.7,0.6c-0.3,0.2-0.8,0.5-1.1,0.8l-0.7,0.4c-0.9,0.4-0.9,0.5-1.5,0.7l-0.5,0.2
									c-0.7,0.2-1.3,0.4-2.6,0.6l-0.3,0c-0.1,0-0.2,0-0.3,0l-0.3,0c-0.1,0-0.2,0-0.3,0l-0.3,0c-0.1,0-0.2,0-0.3,0l-0.3,0
									c-0.1,0-0.2,0-0.3,0l-0.3,0c-0.1,0-0.2,0-0.3,0l-0.3,0c-0.1,0-0.2,0-0.3,0l-0.4-0.1c-0.1,0-0.3-0.1-0.4-0.1l-0.4-0.1
									c-0.1,0-0.3-0.1-0.5-0.1l-0.5-0.2c-0.2-0.1-0.5-0.2-0.7-0.2l-0.7-0.3c-0.3-0.2-0.7-0.4-1-0.5c-3.2-1.8-5.3-5.4-5.3-9.8
									c0-0.5,0-1,0.1-1.5c0.1,0.2,0.3,0.4,0.5,0.5c4.2,4.1,14.9,0.4,14.9-8.4c0-3.7-3.1-4.8-3.7-4.8l0,0c0,0-2.5-1.1-6.7,1.3
									l0.7-0.4C54.5,14.2,54.9,14,55.2,13.9"/>
								<path class="sample-st8" d="M48.4,27.6c0,4.4,2.1,8,5.3,9.8c-0.2-0.1-0.5-0.3-0.7-0.5c-0.3-0.2-0.8-0.6-1.1-0.8l-0.7-0.6
									c-0.3-0.3-0.6-0.6-0.8-0.9l-0.6-0.8c-0.2-0.3-0.5-0.7-0.7-1L48.5,32c-0.1-0.3-0.3-0.7-0.5-1l-0.4-1
									c-0.1-0.3-0.2-0.8-0.3-1.1l-0.2-1c-0.1-0.6-0.1-1.3-0.1-1.9l0-1.1c0-0.3,0.1-0.8,0.1-1.1l0.2-1c0.1-0.3,0.2-0.8,0.3-1.1
									l0.4-0.9c0.1-0.3,0.3-0.7,0.5-1l0.5-0.9c0.2-0.3,0.5-0.7,0.7-0.9c0.1-0.2,0.3-0.4,0.5-0.5c0,0-0.1,0.1-0.1,0.2
									c-2.5,3-3,5.8-1.7,8.5C48.4,26.5,48.4,27.1,48.4,27.6"/>
							</g>
							<g>
								<path class="sample-st9" d="M58.4,13c0.2,0,0.4-0.1,0.7-0.1l0.3,0c0.1,0,0.2,0,0.3,0l0.3,0c0.1,0,0.2,0,0.3,0l0.3,0
									c0.1,0,0.2,0,0.3,0l0.3,0c0.1,0,0.2,0,0.3,0l0.3,0c0.1,0,0.2,0,0.3,0l0.4,0.1c0.1,0,0.3,0.1,0.4,0.1l0.4,0.1
									c0.1,0,0.3,0.1,0.5,0.1l0.5,0.2c0.2,0.1,0.5,0.2,0.7,0.2l0.7,0.3c0.3,0.2,0.7,0.4,1,0.5l0.8,0.5c0.9,0.7,1,0.7,1.7,1.3
									l0.7,0.7c0.2,0.3,0.6,0.6,0.8,0.9l0.6,0.8c0.2,0.3,0.4,0.7,0.6,1l0.4,0.9c0.1,0.3,0.3,0.7,0.4,1.1l0.3,1
									c0.1,0.3,0.2,0.8,0.2,1.1l0.1,1c0,0.3,0,0.8,0,1.2l0,1.1c0,0.4-0.1,0.9-0.2,1.3l-0.2,1c-0.1,0.3-0.2,0.8-0.3,1.1l-0.4,0.9
									c-0.2,0.3-0.3,0.7-0.5,1l-0.5,0.8c-0.2,0.3-0.5,0.7-0.7,0.9l-0.6,0.7c-0.3,0.3-0.6,0.6-0.9,0.8l-0.7,0.6
									c-0.3,0.2-0.8,0.5-1.1,0.8l-0.7,0.4c-0.9,0.4-0.9,0.5-1.5,0.7l-0.5,0.2c-0.7,0.2-1.3,0.4-2.6,0.6l-0.3,0c-0.1,0-0.2,0-0.3,0
									l-0.3,0c-0.1,0-0.2,0-0.3,0l-0.3,0c-0.1,0-0.2,0-0.3,0l-0.3,0c-0.1,0-0.2,0-0.3,0l-0.3,0c-0.1,0-0.2,0-0.3,0l-0.3,0
									c-0.1,0-0.2,0-0.3,0l-0.4-0.1c-0.1,0-0.3-0.1-0.4-0.1l-0.4-0.1c-0.1,0-0.3-0.1-0.5-0.1l-0.5-0.2c-0.2-0.1-0.5-0.2-0.7-0.2
									l-0.7-0.3c-0.3-0.2-0.7-0.4-1-0.5c-3.2-1.8-5.3-5.4-5.3-9.8c0-0.3,0-0.7,0-1c0.1,0.2,0.3,0.4,0.5,0.5
									c4.9,4.6,15.8-0.5,15.4-9.2c-0.2-4.1-4.2-5.9-8.9-4.1l0.5-0.2C56.4,13.4,57.3,13.1,58.4,13"/>
								<path class="sample-st9" d="M48.4,27.6c0,4.4,2.1,8,5.3,9.8c-0.2-0.1-0.5-0.3-0.7-0.5c-0.3-0.2-0.8-0.6-1.1-0.8l-0.7-0.6
									c-0.3-0.3-0.6-0.6-0.8-0.9l-0.6-0.8c-0.2-0.3-0.5-0.7-0.7-1L48.5,32c-0.1-0.3-0.3-0.7-0.5-1l-0.4-1
									c-0.1-0.3-0.2-0.8-0.3-1.1l-0.2-1c-0.1-0.6-0.1-1.3-0.1-1.9l0-1.1c0-0.3,0.1-0.8,0.1-1.1l0.2-1c0.1-0.3,0.2-0.8,0.3-1.1
									l0.4-0.9c0.1-0.3,0.3-0.7,0.5-1c0.1-0.2,0.3-0.4,0.4-0.6c-0.1,0.2-0.3,0.5-0.4,0.8c-1.9,3.8-0.7,5.8-0.1,6.7
									C48.4,26.9,48.4,27.2,48.4,27.6"/>
							</g>
							<g>
								<path class="sample-st10" d="M58.4,13c0.2,0,0.4-0.1,0.7-0.1l0.3,0c0.1,0,0.2,0,0.3,0l0.3,0c0.1,0,0.2,0,0.3,0l0.3,0
									c0.1,0,0.2,0,0.3,0l0.3,0c0.1,0,0.2,0,0.3,0l0.3,0c0.1,0,0.2,0,0.3,0l0.4,0.1c0.1,0,0.3,0.1,0.4,0.1l0.4,0.1
									c0.1,0,0.3,0.1,0.5,0.1l0.5,0.2c0.2,0.1,0.5,0.2,0.7,0.2l0.7,0.3c0.3,0.2,0.7,0.4,1,0.5l0.8,0.5c0.9,0.7,1,0.7,1.7,1.3
									l0.7,0.7c0.2,0.3,0.6,0.6,0.8,0.9l0.6,0.8c0.2,0.3,0.4,0.7,0.6,1l0.4,0.9c0.1,0.3,0.3,0.7,0.4,1.1l0.3,1
									c0.1,0.3,0.2,0.8,0.2,1.1l0.1,1c0,0.3,0,0.8,0,1.2l0,1.1c0,0.4-0.1,0.9-0.2,1.3l-0.2,1c-0.1,0.3-0.2,0.8-0.3,1.1l-0.4,0.9
									c-0.2,0.3-0.3,0.7-0.5,1l-0.5,0.8c-0.2,0.3-0.5,0.7-0.7,0.9l-0.6,0.7c-0.3,0.3-0.6,0.6-0.9,0.8l-0.7,0.6
									c-0.3,0.2-0.8,0.5-1.1,0.8l-0.7,0.4c-0.9,0.4-0.9,0.5-1.5,0.7l-0.5,0.2c-0.7,0.2-1.3,0.4-2.6,0.6l-0.3,0c-0.1,0-0.2,0-0.3,0
									l-0.3,0c-0.1,0-0.2,0-0.3,0l-0.3,0c-0.1,0-0.2,0-0.3,0l-0.3,0c-0.1,0-0.2,0-0.3,0l-0.3,0c-0.1,0-0.2,0-0.3,0l-0.3,0
									c-0.1,0-0.2,0-0.3,0l-0.4-0.1c-0.1,0-0.3-0.1-0.4-0.1l-0.4-0.1c-0.1,0-0.3-0.1-0.5-0.1l-0.5-0.2c-0.2-0.1-0.5-0.2-0.7-0.2
									l-0.7-0.3c-0.3-0.2-0.7-0.4-1-0.5c-3.2-1.8-5.3-5.4-5.3-9.8c0-0.2,0-0.3,0-0.4c0.1,0.2,0.3,0.4,0.5,0.5
									c4.9,4.4,16.1-1,15.9-9.5c0-2.8-2.3-6.4-8.5-4.6l0.5-0.1C57.3,13.2,57.8,13.1,58.4,13"/>
								<path class="sample-st10" d="M48.4,27.6c0,4.4,2.1,8,5.3,9.8c-0.2-0.1-0.5-0.3-0.7-0.5c-0.3-0.2-0.8-0.6-1.1-0.8l-0.7-0.6
									c-0.3-0.3-0.6-0.6-0.8-0.9l-0.6-0.8c-0.2-0.3-0.5-0.7-0.7-1L48.5,32c-0.1-0.3-0.3-0.7-0.5-1l-0.4-1
									c-0.1-0.3-0.2-0.8-0.3-1.1l-0.2-1c-0.1-0.6-0.1-1.3-0.1-1.9l0-1.1c0-0.3,0.1-0.8,0.1-1.1l0.2-1c0.1-0.3,0.2-0.8,0.3-1.1
									l0.4-0.9l0.2-0.4l-0.2,0.5c-1.4,3.4-0.3,5.3,0.3,6.2C48.4,27.3,48.4,27.4,48.4,27.6"/>
							</g>
							<g>
								<path class="sample-st11" d="M58.4,13c0.2,0,0.4-0.1,0.7-0.1l0.3,0c0.1,0,0.2,0,0.3,0l0.3,0c0.1,0,0.2,0,0.3,0l0.3,0
									c0.1,0,0.2,0,0.3,0l0.3,0c0.1,0,0.2,0,0.3,0l0.3,0c0.1,0,0.2,0,0.3,0l0.4,0.1c0.1,0,0.3,0.1,0.4,0.1l0.4,0.1
									c0.1,0,0.3,0.1,0.5,0.1l0.5,0.2c0.2,0.1,0.5,0.2,0.7,0.2l0.7,0.3c0.3,0.2,0.7,0.4,1,0.5l0.8,0.5c0.9,0.7,1,0.7,1.7,1.3
									l0.7,0.7c0.2,0.3,0.6,0.6,0.8,0.9l0.6,0.8c0.2,0.3,0.4,0.7,0.6,1l0.4,0.9c0.1,0.3,0.3,0.7,0.4,1.1l0.3,1
									c0.1,0.3,0.2,0.8,0.2,1.1l0.1,1c0,0.3,0,0.8,0,1.2l0,1.1c0,0.4-0.1,0.9-0.2,1.3l-0.2,1c-0.1,0.3-0.2,0.8-0.3,1.1l-0.4,0.9
									c-0.2,0.3-0.3,0.7-0.5,1l-0.5,0.8c-0.2,0.3-0.5,0.7-0.7,0.9l-0.6,0.7c-0.3,0.3-0.6,0.6-0.9,0.8l-0.7,0.6
									c-0.3,0.2-0.8,0.5-1.1,0.8l-0.7,0.4c-0.9,0.4-0.9,0.5-1.5,0.7l-0.5,0.2c-0.7,0.2-1.3,0.4-2.6,0.6l-0.3,0c-0.1,0-0.2,0-0.3,0
									l-0.3,0c-0.1,0-0.2,0-0.3,0l-0.3,0c-0.1,0-0.2,0-0.3,0l-0.3,0c-0.1,0-0.2,0-0.3,0l-0.3,0c-0.1,0-0.2,0-0.3,0l-0.3,0
									c-0.1,0-0.2,0-0.3,0l-0.4-0.1c-0.1,0-0.3-0.1-0.4-0.1l-0.4-0.1c-0.1,0-0.3-0.1-0.5-0.1l-0.5-0.2c-0.2-0.1-0.5-0.2-0.7-0.2
									l-0.7-0.3c-0.3-0.2-0.7-0.4-1-0.5c-3.2-1.8-5.3-5.4-5.3-9.7c0.1,0.2,0.3,0.4,0.5,0.5c5.7,4.9,17.2-2.4,16.4-10.5
									c-0.3-2.7-2.4-5.4-7.5-4.6l0.4-0.1L58.4,13"/>
								<path class="sample-st11" d="M53.7,37.4c-0.9-0.5-1.1-0.7-1.9-1.3l-0.7-0.6c-0.3-0.3-0.6-0.6-0.8-0.9l-0.6-0.8
									c-0.2-0.3-0.5-0.7-0.7-1L48.5,32c-0.1-0.3-0.3-0.7-0.5-1l-0.4-1c-0.1-0.3-0.2-0.8-0.3-1.1l-0.2-1c-0.1-0.6-0.1-1.3-0.1-1.9
									l0-1.1c0-0.3,0.1-0.8,0.1-1.1l0.2-1c0.1-0.3,0.2-0.8,0.3-1.1c0-0.1,0.1-0.1,0.1-0.2c0,0,0,0.1,0,0.1
									c-0.4,1.3-1.1,3.6,0.6,6.1C48.4,32,50.5,35.6,53.7,37.4"/>
							</g>
							<g>
								<path class="sample-st12" d="M59.7,12.9c0.2,0,0.4,0,0.6,0l0.3,0c0.1,0,0.2,0,0.3,0l0.3,0c0.1,0,0.2,0,0.3,0l0.3,0
									c0.1,0,0.2,0,0.3,0l0.4,0.1c0.1,0,0.3,0.1,0.4,0.1l0.4,0.1c0.1,0,0.3,0.1,0.5,0.1l0.5,0.2c0.2,0.1,0.5,0.2,0.7,0.2l0.7,0.3
									c0.3,0.2,0.7,0.4,1,0.5l0.8,0.5c0.9,0.7,1,0.7,1.7,1.3l0.7,0.7c0.2,0.3,0.6,0.6,0.8,0.9l0.6,0.8c0.2,0.3,0.4,0.7,0.6,1
									l0.4,0.9c0.1,0.3,0.3,0.7,0.4,1.1l0.3,1c0.1,0.3,0.2,0.8,0.2,1.1l0.1,1c0,0.3,0,0.8,0,1.2l0,1.1c0,0.4-0.1,0.9-0.2,1.3
									l-0.2,1c-0.1,0.3-0.2,0.8-0.3,1.1l-0.4,0.9c-0.2,0.3-0.3,0.7-0.5,1l-0.5,0.8c-0.2,0.3-0.5,0.7-0.7,0.9l-0.6,0.7
									c-0.3,0.3-0.6,0.6-0.9,0.8l-0.7,0.6c-0.3,0.2-0.8,0.5-1.1,0.8l-0.7,0.4c-0.9,0.4-0.9,0.5-1.5,0.7l-0.5,0.2
									c-0.7,0.2-1.3,0.4-2.6,0.6l-0.3,0c-0.1,0-0.2,0-0.3,0l-0.3,0c-0.1,0-0.2,0-0.3,0l-0.3,0c-0.1,0-0.2,0-0.3,0l-0.3,0
									c-0.1,0-0.2,0-0.3,0l-0.3,0c-0.1,0-0.2,0-0.3,0l-0.3,0c-0.1,0-0.2,0-0.3,0l-0.4-0.1c-0.1,0-0.3-0.1-0.4-0.1l-0.4-0.1
									c-0.1,0-0.3-0.1-0.5-0.1l-0.5-0.2c-0.2-0.1-0.5-0.2-0.7-0.2l-0.7-0.3c-0.3-0.2-0.7-0.4-1-0.5c-3-1.7-5.1-5.1-5.3-9.2
									c0.2,0.1,0.4,0.3,0.5,0.5c5.8,4.8,17.5-2.6,16.9-10.8c-0.2-2.5-2-5.3-6.6-5l0.3,0L59.7,12.9"/>
								<path class="sample-st12" d="M53.7,37.4c-0.9-0.5-1.1-0.7-1.9-1.3l-0.7-0.6c-0.3-0.3-0.6-0.6-0.8-0.9l-0.6-0.8
									c-0.2-0.3-0.5-0.7-0.7-1L48.5,32c-0.1-0.3-0.3-0.7-0.5-1l-0.4-1c-0.1-0.3-0.2-0.8-0.3-1.1l-0.2-1c-0.1-0.6-0.1-1.3-0.1-1.9
									l0-1.1c0-0.3,0.1-0.8,0.1-1.1l0.2-1l0.1-0.3l-0.2,0.8c-0.4,2.5,0.3,3.9,1.1,4.9C48.6,32.3,50.7,35.7,53.7,37.4"/>
							</g>
							<g>
								<path class="sample-st13" d="M60.3,12.9c0.2,0,0.4,0,0.6,0l0.3,0c0.1,0,0.2,0,0.3,0l0.3,0c0.1,0,0.2,0,0.3,0l0.4,0.1
									c0.1,0,0.3,0.1,0.4,0.1l0.4,0.1c0.1,0,0.3,0.1,0.5,0.1l0.5,0.2c0.2,0.1,0.5,0.2,0.7,0.2l0.7,0.3c0.3,0.2,0.7,0.4,1,0.5
									l0.8,0.5c0.9,0.7,1,0.7,1.7,1.3l0.7,0.7c0.2,0.3,0.6,0.6,0.8,0.9l0.6,0.8c0.2,0.3,0.4,0.7,0.6,1l0.4,0.9
									c0.1,0.3,0.3,0.7,0.4,1.1l0.3,1c0.1,0.3,0.2,0.8,0.2,1.1l0.1,1c0,0.3,0,0.8,0,1.2l0,1.1c0,0.4-0.1,0.9-0.2,1.3l-0.2,1
									c-0.1,0.3-0.2,0.8-0.3,1.1l-0.4,0.9c-0.2,0.3-0.3,0.7-0.5,1l-0.5,0.8c-0.2,0.3-0.5,0.7-0.7,0.9l-0.6,0.7
									c-0.3,0.3-0.6,0.6-0.9,0.8l-0.7,0.6c-0.3,0.2-0.8,0.5-1.1,0.8l-0.7,0.4c-0.9,0.4-0.9,0.5-1.5,0.7l-0.5,0.2
									c-0.7,0.2-1.3,0.4-2.6,0.6l-0.3,0c-0.1,0-0.2,0-0.3,0l-0.3,0c-0.1,0-0.2,0-0.3,0l-0.3,0c-0.1,0-0.2,0-0.3,0l-0.3,0
									c-0.1,0-0.2,0-0.3,0l-0.3,0c-0.1,0-0.2,0-0.3,0l-0.3,0c-0.1,0-0.2,0-0.3,0l-0.4-0.1c-0.1,0-0.3-0.1-0.4-0.1l-0.4-0.1
									c-0.1,0-0.3-0.1-0.5-0.1l-0.5-0.2c-0.2-0.1-0.5-0.2-0.7-0.2l-0.7-0.3c-0.3-0.2-0.7-0.4-1-0.5c-2.9-1.7-4.9-4.8-5.3-8.6
									c0,0,0,0,0,0c6.7,6.3,18.2-3.4,17.8-10.3C66.2,15,63.9,12.9,60.3,12.9C60.2,12.9,60.3,12.9,60.3,12.9"/>
								<path class="sample-st13" d="M53.7,37.4c-0.9-0.5-1.1-0.7-1.9-1.3l-0.7-0.6c-0.3-0.3-0.6-0.6-0.8-0.9l-0.6-0.8
									c-0.2-0.3-0.5-0.7-0.7-1L48.5,32c-0.1-0.3-0.3-0.7-0.5-1l-0.4-1c-0.1-0.3-0.2-0.8-0.3-1.1l-0.2-1c-0.1-0.6-0.1-1.3-0.1-1.9
									l0-1.1c0-0.3,0.1-0.8,0.1-1.1c0-0.1,0-0.2,0.1-0.3c0,0.2-0.1,0.6-0.1,0.8c-0.2,2.5,0.6,3.6,1.3,4.5
									C48.8,32.6,50.8,35.7,53.7,37.4"/>
							</g>
							<g>
								<path class="sample-st14" d="M61.4,12.9c0.2,0,0.4,0,0.6,0.1l0.4,0.1c0.1,0,0.3,0.1,0.4,0.1l0.4,0.1c0.1,0,0.3,0.1,0.5,0.1l0.5,0.2
									c0.2,0.1,0.5,0.2,0.7,0.2l0.7,0.3c0.3,0.2,0.7,0.4,1,0.5l0.8,0.5c0.9,0.7,1,0.7,1.7,1.3l0.7,0.7c0.2,0.3,0.6,0.6,0.8,0.9
									l0.6,0.8c0.2,0.3,0.4,0.7,0.6,1l0.4,0.9c0.1,0.3,0.3,0.7,0.4,1.1l0.3,1c0.1,0.3,0.2,0.8,0.2,1.1l0.1,1c0,0.3,0,0.8,0,1.2
									l0,1.1c0,0.4-0.1,0.9-0.2,1.3l-0.2,1c-0.1,0.3-0.2,0.8-0.3,1.1l-0.4,0.9c-0.2,0.3-0.3,0.7-0.5,1l-0.5,0.8
									c-0.2,0.3-0.5,0.7-0.7,0.9l-0.6,0.7c-0.3,0.3-0.6,0.6-0.9,0.8l-0.7,0.6c-0.3,0.2-0.8,0.5-1.1,0.8l-0.7,0.4
									c-0.9,0.4-0.9,0.5-1.5,0.7l-0.5,0.2c-0.7,0.2-1.3,0.4-2.6,0.6l-0.3,0c-0.1,0-0.2,0-0.3,0l-0.3,0c-0.1,0-0.2,0-0.3,0l-0.3,0
									c-0.1,0-0.2,0-0.3,0l-0.3,0c-0.1,0-0.2,0-0.3,0l-0.3,0c-0.1,0-0.2,0-0.3,0l-0.3,0c-0.1,0-0.2,0-0.3,0l-0.4-0.1
									c-0.1,0-0.3-0.1-0.4-0.1l-0.4-0.1c-0.1,0-0.3-0.1-0.5-0.1l-0.5-0.2c-0.2-0.1-0.5-0.2-0.7-0.2l-0.7-0.3
									c-0.3-0.2-0.7-0.4-1-0.5c-2.8-1.6-4.7-4.5-5.2-8c0.2,0.1,0.4,0.3,0.5,0.5c6.3,5,19.1-3.8,17.7-12.1
									c-0.5-2.8-2.5-4.5-5.5-4.8C61.3,12.9,61.4,12.9,61.4,12.9"/>
								<path class="sample-st14" d="M53.7,37.4c-0.9-0.5-1.1-0.7-1.9-1.3l-0.7-0.6c-0.3-0.3-0.6-0.6-0.8-0.9l-0.6-0.8
									c-0.2-0.3-0.5-0.7-0.7-1L48.5,32c-0.1-0.3-0.3-0.7-0.5-1l-0.4-1c-0.1-0.3-0.2-0.8-0.3-1.1l-0.2-1c-0.1-0.6-0.1-1.3-0.1-1.9
									l0-1.1l0-0.4l0,0.3c-0.1,2,0.3,3.2,1.4,4.6C49,32.9,51,35.8,53.7,37.4"/>
							</g>
							<g>
								<path class="sample-st15" d="M62.8,13.2c0.6,0.1,0.6,0.1,0.9,0.2l0.5,0.2c0.2,0.1,0.5,0.2,0.7,0.2l0.7,0.3c0.3,0.2,0.7,0.4,1,0.5
									l0.8,0.5c0.9,0.7,1,0.7,1.7,1.3l0.7,0.7c0.2,0.3,0.6,0.6,0.8,0.9l0.6,0.8c0.2,0.3,0.4,0.7,0.6,1l0.4,0.9
									c0.1,0.3,0.3,0.7,0.4,1.1l0.3,1c0.1,0.3,0.2,0.8,0.2,1.1l0.1,1c0,0.3,0,0.8,0,1.2l0,1.1c0,0.4-0.1,0.9-0.2,1.3l-0.2,1
									c-0.1,0.3-0.2,0.8-0.3,1.1l-0.4,0.9c-0.2,0.3-0.3,0.7-0.5,1l-0.5,0.8c-0.2,0.3-0.5,0.7-0.7,0.9l-0.6,0.7
									c-0.3,0.3-0.6,0.6-0.9,0.8l-0.7,0.6c-0.3,0.2-0.8,0.5-1.1,0.8l-0.7,0.4c-0.9,0.4-0.9,0.5-1.5,0.7l-0.5,0.2
									c-0.7,0.2-1.3,0.4-2.6,0.6l-0.3,0c-0.1,0-0.2,0-0.3,0l-0.3,0c-0.1,0-0.2,0-0.3,0l-0.3,0c-0.1,0-0.2,0-0.3,0l-0.3,0
									c-0.1,0-0.2,0-0.3,0l-0.3,0c-0.1,0-0.2,0-0.3,0l-0.3,0c-0.1,0-0.2,0-0.3,0l-0.4-0.1c-0.1,0-0.3-0.1-0.4-0.1l-0.4-0.1
									c-0.1,0-0.3-0.1-0.5-0.1l-0.5-0.2c-0.2-0.1-0.5-0.2-0.7-0.2l-0.7-0.3c-0.3-0.2-0.7-0.4-1-0.5c-2.6-1.5-4.5-4.2-5.1-7.5
									c0,0,0,0,0.1,0c6.7,5.9,19.1-3.1,18.7-11.3c-0.1-1.4-0.7-4.9-5.1-5.6l0.4,0.1L62.8,13.2"/>
								<path class="sample-st15" d="M53.7,37.4c-0.9-0.5-1.1-0.7-1.9-1.3l-0.7-0.6c-0.3-0.3-0.6-0.6-0.8-0.9l-0.6-0.8
									c-0.2-0.3-0.5-0.7-0.7-1L48.5,32c-0.1-0.3-0.3-0.7-0.5-1l-0.4-1c-0.1-0.3-0.2-0.8-0.3-1.1l-0.2-1c-0.1-0.6-0.1-1.3-0.1-1.9
									c0-0.2,0-0.4,0-0.5c0,0.2,0,0.5,0,0.6c0.1,2.1,1,3.2,1.5,3.8C49.2,33.2,51.1,35.9,53.7,37.4"/>
							</g>
							<g>
								<path class="sample-st16" d="M63.8,13.4c0.7,0.2,0.8,0.2,1.2,0.4l0.7,0.3c0.3,0.2,0.7,0.4,1,0.5l0.8,0.5c0.9,0.7,1,0.7,1.7,1.3
									l0.7,0.7c0.2,0.3,0.6,0.6,0.8,0.9l0.6,0.8c0.2,0.3,0.4,0.7,0.6,1l0.4,0.9c0.1,0.3,0.3,0.7,0.4,1.1l0.3,1
									c0.1,0.3,0.2,0.8,0.2,1.1l0.1,1c0,0.3,0,0.8,0,1.2l0,1.1c0,0.4-0.1,0.9-0.2,1.3l-0.2,1c-0.1,0.3-0.2,0.8-0.3,1.1l-0.4,0.9
									c-0.2,0.3-0.3,0.7-0.5,1l-0.5,0.8c-0.2,0.3-0.5,0.7-0.7,0.9l-0.6,0.7c-0.3,0.3-0.6,0.6-0.9,0.8l-0.7,0.6
									c-0.3,0.2-0.8,0.5-1.1,0.8l-0.7,0.4c-0.9,0.4-0.9,0.5-1.5,0.7l-0.5,0.2c-0.7,0.2-1.3,0.4-2.6,0.6l-0.3,0c-0.1,0-0.2,0-0.3,0
									l-0.3,0c-0.1,0-0.2,0-0.3,0l-0.3,0c-0.1,0-0.2,0-0.3,0l-0.3,0c-0.1,0-0.2,0-0.3,0l-0.3,0c-0.1,0-0.2,0-0.3,0l-0.3,0
									c-0.1,0-0.2,0-0.3,0l-0.4-0.1c-0.1,0-0.3-0.1-0.4-0.1l-0.4-0.1c-0.1,0-0.3-0.1-0.5-0.1l-0.5-0.2c-0.2-0.1-0.5-0.2-0.7-0.2
									l-0.7-0.3c-0.3-0.2-0.7-0.4-1-0.5c-2.5-1.4-4.3-3.8-5-6.9c0.2,0.1,0.4,0.3,0.5,0.4c6.6,4.8,19.5-4.1,18.5-12.7
									c-0.2-2-1.6-4.3-4.6-5l0.4,0.1L63.8,13.4"/>
								<path class="sample-st16" d="M53.7,37.4c-0.9-0.5-1.1-0.7-1.9-1.3l-0.7-0.6c-0.3-0.3-0.6-0.6-0.8-0.9l-0.6-0.8
									c-0.2-0.3-0.5-0.7-0.7-1L48.5,32c-0.1-0.3-0.3-0.7-0.5-1l-0.4-1c-0.1-0.3-0.2-0.8-0.3-1.1l-0.2-1c0-0.4-0.1-1-0.1-1.4l0,0.3
									c0.2,1.6,0.5,2.4,1.6,3.7C49.5,33.6,51.3,36,53.7,37.4"/>
							</g>
							<g>
								<path class="sample-st17" d="M65,13.8c0.8,0.3,1,0.4,1.7,0.8l0.8,0.5c0.9,0.7,1,0.7,1.7,1.3l0.7,0.7c0.2,0.3,0.6,0.6,0.8,0.9
									l0.6,0.8c0.2,0.3,0.4,0.7,0.6,1l0.4,0.9c0.1,0.3,0.3,0.7,0.4,1.1l0.3,1c0.1,0.3,0.2,0.8,0.2,1.1l0.1,1c0,0.3,0,0.8,0,1.2
									l0,1.1c0,0.4-0.1,0.9-0.2,1.3l-0.2,1c-0.1,0.3-0.2,0.8-0.3,1.1l-0.4,0.9c-0.2,0.3-0.3,0.7-0.5,1l-0.5,0.8
									c-0.2,0.3-0.5,0.7-0.7,0.9l-0.6,0.7c-0.3,0.3-0.6,0.6-0.9,0.8l-0.7,0.6c-0.3,0.2-0.8,0.5-1.1,0.8l-0.7,0.4
									c-0.9,0.4-0.9,0.5-1.5,0.7l-0.5,0.2c-0.7,0.2-1.3,0.4-2.6,0.6l-0.3,0c-0.1,0-0.2,0-0.3,0l-0.3,0c-0.1,0-0.2,0-0.3,0l-0.3,0
									c-0.1,0-0.2,0-0.3,0l-0.3,0c-0.1,0-0.2,0-0.3,0l-0.3,0c-0.1,0-0.2,0-0.3,0l-0.3,0c-0.1,0-0.2,0-0.3,0l-0.4-0.1
									c-0.1,0-0.3-0.1-0.4-0.1l-0.4-0.1c-0.1,0-0.3-0.1-0.5-0.1l-0.5-0.2c-0.2-0.1-0.5-0.2-0.7-0.2l-0.7-0.3
									c-0.3-0.2-0.7-0.4-1-0.5c-2.3-1.3-4-3.5-4.8-6.2c0,0,0,0,0,0c7.1,5.9,20-3.7,19.5-12.1c-0.1-1.3-0.6-4.4-4.2-5.6l0.5,0.2
									L65,13.8"/>
								<path class="sample-st17" d="M53.7,37.4c-0.9-0.5-1.1-0.7-1.9-1.3l-0.7-0.6c-0.3-0.3-0.6-0.6-0.8-0.9l-0.6-0.8
									c-0.2-0.3-0.5-0.7-0.7-1L48.5,32c-0.1-0.3-0.3-0.7-0.5-1l-0.4-1c-0.1-0.3-0.2-0.8-0.3-1.1l-0.2-1l0-0.3l0,0.1
									c0.3,1.7,0.7,2.5,1.7,3.5C49.7,33.9,51.4,36.1,53.7,37.4"/>
							</g>
							<g>
								<path class="sample-st18" d="M66.6,14.6c0.9,0.5,1.4,0.9,2.4,1.8l0.7,0.7c0.2,0.3,0.6,0.6,0.8,0.9l0.6,0.8c0.2,0.3,0.4,0.7,0.6,1
									l0.4,0.9c0.1,0.3,0.3,0.7,0.4,1.1l0.3,1c0.1,0.3,0.2,0.8,0.2,1.1l0.1,1c0,0.3,0,0.8,0,1.2l0,1.1c0,0.4-0.1,0.9-0.2,1.3
									l-0.2,1c-0.1,0.3-0.2,0.8-0.3,1.1l-0.4,0.9c-0.2,0.3-0.3,0.7-0.5,1l-0.5,0.8c-0.2,0.3-0.5,0.7-0.7,0.9l-0.6,0.7
									c-0.3,0.3-0.6,0.6-0.9,0.8l-0.7,0.6c-0.3,0.2-0.8,0.5-1.1,0.8l-0.7,0.4c-0.9,0.4-0.9,0.5-1.5,0.7l-0.5,0.2
									c-0.7,0.2-1.3,0.4-2.6,0.6l-0.3,0c-0.1,0-0.2,0-0.3,0l-0.3,0c-0.1,0-0.2,0-0.3,0l-0.3,0c-0.1,0-0.2,0-0.3,0l-0.3,0
									c-0.1,0-0.2,0-0.3,0l-0.3,0c-0.1,0-0.2,0-0.3,0l-0.3,0c-0.1,0-0.2,0-0.3,0l-0.4-0.1c-0.1,0-0.3-0.1-0.4-0.1l-0.4-0.1
									c-0.1,0-0.3-0.1-0.5-0.1l-0.5-0.2c-0.2-0.1-0.5-0.2-0.7-0.2l-0.7-0.3c-0.3-0.2-0.7-0.4-1-0.5c-2.1-1.2-3.7-3.1-4.6-5.6
									c0.2,0.1,0.4,0.3,0.5,0.4c7.1,5,20.6-4.6,19.3-13.6c-0.3-2.2-1.6-3.9-3.7-4.8l0.7,0.3C66.1,14.3,66.4,14.5,66.6,14.6"/>
								<path class="sample-st18" d="M53.7,37.4c-0.9-0.5-1.1-0.7-1.9-1.3l-0.7-0.6c-0.3-0.3-0.6-0.6-0.8-0.9l-0.6-0.8
									c-0.2-0.3-0.5-0.7-0.7-1L48.5,32c-0.1-0.3-0.3-0.7-0.5-1l-0.4-1c-0.1-0.3-0.2-0.8-0.3-1.1c0-0.1,0-0.2-0.1-0.3
									c0.1,0.2,0.1,0.5,0.2,0.7c0.5,1.4,0.9,1.8,1.6,2.5C50,34.3,51.6,36.2,53.7,37.4"/>
							</g>
							<g>
								<path class="sample-st19" d="M66.6,14.6c0.9,0.5,1.6,1.1,2.4,1.8l0.7,0.7c0.2,0.3,0.6,0.6,0.8,0.9l0.6,0.8c0.2,0.3,0.4,0.7,0.6,1
									l0.4,0.9c0.1,0.3,0.3,0.7,0.4,1.1l0.3,1c0.1,0.3,0.2,0.8,0.2,1.1l0.1,1c0,0.3,0,0.8,0,1.2l0,1.1c0,0.4-0.1,0.9-0.2,1.3
									l-0.2,1c-0.1,0.3-0.2,0.8-0.3,1.1l-0.4,0.9c-0.2,0.3-0.3,0.7-0.5,1l-0.5,0.8c-0.2,0.3-0.5,0.7-0.7,0.9l-0.6,0.7
									c-0.3,0.3-0.6,0.6-0.9,0.8l-0.7,0.6c-0.3,0.2-0.8,0.5-1.1,0.8l-0.7,0.4c-0.9,0.4-0.9,0.5-1.5,0.7l-0.5,0.2
									c-0.7,0.2-1.3,0.4-2.6,0.6l-0.3,0c-0.1,0-0.2,0-0.3,0l-0.3,0c-0.1,0-0.2,0-0.3,0l-0.3,0c-0.1,0-0.2,0-0.3,0l-0.3,0
									c-0.1,0-0.2,0-0.3,0l-0.3,0c-0.1,0-0.2,0-0.3,0l-0.3,0c-0.1,0-0.2,0-0.3,0l-0.4-0.1c-0.1,0-0.3-0.1-0.4-0.1l-0.4-0.1
									c-0.1,0-0.3-0.1-0.5-0.1l-0.5-0.2c-0.2-0.1-0.5-0.2-0.7-0.2l-0.7-0.3c-0.3-0.2-0.7-0.4-1-0.5c-1.9-1.1-3.4-2.7-4.3-4.8
									c0.2,0.1,0.4,0.3,0.5,0.4c7.9,5.3,21.2-6.1,19.6-14.2c-0.3-1.3-0.9-3.1-3.2-4.4C66.5,14.5,66.6,14.5,66.6,14.6"/>
								<path class="sample-st19" d="M53.7,37.4c-0.9-0.5-1.1-0.7-1.9-1.3l-0.7-0.6c-0.3-0.3-0.6-0.6-0.8-0.9l-0.6-0.8
									c-0.2-0.3-0.5-0.7-0.7-1L48.5,32c-0.1-0.3-0.3-0.7-0.5-1l-0.4-1l0-0.1l0.2,0.7c0.5,1.1,0.9,1.5,1.5,2.1
									C50.4,34.7,51.9,36.3,53.7,37.4"/>
							</g>
							<g>
								<path class="sample-st20" d="M69.1,16.4c0.9,0.9,0.9,0.9,1.5,1.6l0.6,0.8c0.2,0.3,0.4,0.7,0.6,1l0.4,0.9c0.1,0.3,0.3,0.7,0.4,1.1
									l0.3,1c0.1,0.3,0.2,0.8,0.2,1.1l0.1,1c0,0.3,0,0.8,0,1.2l0,1.1c0,0.4-0.1,0.9-0.2,1.3l-0.2,1c-0.1,0.3-0.2,0.8-0.3,1.1
									l-0.4,0.9c-0.2,0.3-0.3,0.7-0.5,1l-0.5,0.8c-0.2,0.3-0.5,0.7-0.7,0.9l-0.6,0.7c-0.3,0.3-0.6,0.6-0.9,0.8l-0.7,0.6
									c-0.3,0.2-0.8,0.5-1.1,0.8l-0.7,0.4c-0.9,0.4-0.9,0.5-1.5,0.7l-0.5,0.2c-0.7,0.2-1.3,0.4-2.6,0.6l-0.3,0c-0.1,0-0.2,0-0.3,0
									l-0.3,0c-0.1,0-0.2,0-0.3,0l-0.3,0c-0.1,0-0.2,0-0.3,0l-0.3,0c-0.1,0-0.2,0-0.3,0l-0.3,0c-0.1,0-0.2,0-0.3,0l-0.3,0
									c-0.1,0-0.2,0-0.3,0l-0.4-0.1c-0.1,0-0.3-0.1-0.4-0.1l-0.4-0.1c-0.1,0-0.3-0.1-0.5-0.1l-0.5-0.2c-0.2-0.1-0.5-0.2-0.7-0.2
									l-0.7-0.3c-0.3-0.2-0.7-0.4-1-0.5c-1.6-0.9-2.9-2.2-3.8-3.8c0.2,0.1,0.4,0.3,0.5,0.4c7.6,4.9,21.8-5.7,19.8-14.8
									c-0.5-2.4-1.9-3.4-2.5-3.9l0.7,0.5L69.1,16.4"/>
								<path class="sample-st20" d="M53.7,37.4c-0.9-0.5-1.1-0.7-1.9-1.3l-0.7-0.6c-0.3-0.3-0.6-0.6-0.8-0.9l-0.6-0.8
									c-0.2-0.3-0.5-0.7-0.7-1L48.5,32l-0.3-0.6l0.2,0.4c0.6,0.9,0.6,1,1.5,1.7C50.8,35.2,52.1,36.5,53.7,37.4"/>
							</g>
							<path class="sample-st31" d="M60.5,21.3c-0.7,3.7-6.1,5.4-8.1,2.5c-2.7-4,0.5-8,4.4-7.3C58.9,16.8,60.9,18.9,60.5,21.3"/>
							<path class="sample-st32" d="M60.3,21.3c-0.6,3.5-5.6,5.4-7.8,2.2c-2.2-3.2,1.1-7.6,4.9-6.5C60.8,18,60.3,21.2,60.3,21.3"/>
							<path class="sample-st33" d="M59.9,21.8c-1.3,3.9-6.4,3.9-7.5,0.9c-1.2-3.2,2.6-6.6,5.7-5.2C58.1,17.5,60.9,18.9,59.9,21.8"/>
							<path class="sample-st34" d="M59.5,22.4c0,0-0.5,0.9-1.2,1.5c0,0-1.6,0.8-1.6,0.8c-1.7,0.1-1.7,0.1-2.6-0.4
								c-0.7-0.3-1.3-1.5-1.3-1.5c-0.3-0.8-0.7-2.4,1.3-4.3c0.4-0.4,2.3-1.4,4-0.6C59.5,18.5,60.6,20.4,59.5,22.4"/>
							<path class="sample-st35" d="M59.3,22.4c0,0-0.7,1-1,1.3c-0.4,0.3-1.1,0.8-1.6,0.8c-1.5,0.1-1.5,0.1-1.9-0.1
								c-0.8-0.3-1.4-0.6-1.8-1.5c-0.6-1.4,0.1-3.1,0.5-3.4c1.1-1,1.1-1.1,2.5-1.5c0.1,0,1.2-0.2,2,0.2C59.9,18.9,60.1,21,59.3,22.4
								"/>
							<path class="sample-st36" d="M59.2,22.4c0,0-0.7,0.9-1,1.1c-0.4,0.3-1,0.7-1.5,0.8c-0.5,0-1.1,0.2-1.5,0.1c-0.8-0.3-1.5-0.6-1.9-1.4
								c-1.4-3.1,2.4-5.6,4.6-4.7c0.3,0.1,0.7,0.4,1,0.6c0.3,0.4,0.7,1.3,0.7,1.3C59.8,21.2,59.2,22.4,59.2,22.4"/>
							<path class="sample-st37" d="M59,22.4c-0.7,1.2-2.3,1.7-2.3,1.7c-0.5,0-1.1,0.2-1.5,0c0,0-1.3-0.5-1.7-1.2c-0.6-1.2-0.2-2.7,0.5-3.4
								c1.8-1.9,3.7-1.1,3.8-1.1l1,0.7c0.2,0.3,0.4,0.7,0.5,1C59.6,21.2,59.1,22.1,59,22.4"/>
							<path class="sample-st38" d="M58.8,22.4c-0.5,0.9-1.7,1.4-2.1,1.6c-0.4,0.2-1.1,0-1.5,0c-0.5,0-1-0.5-1.3-0.8
								c-0.2-0.2-0.3-0.7-0.4-1c-0.7-2.2,2.3-4.3,4.2-3.5C58.5,19,59.9,20.4,58.8,22.4"/>
							<path class="sample-st39" d="M58.6,22.4c0,0.1-0.8,0.9-1.9,1.4c-0.4,0.2-1.1,0.1-1.5,0c-0.4,0-0.9-0.4-1.1-0.7
								c-0.3-0.4-0.5-1.3-0.5-1.3c-0.1-1.6,1.3-2.4,1.7-2.7c0.9-0.5,2.1-0.5,2.6,0C58.5,19.5,59.7,20.5,58.6,22.4"/>
							<path class="sample-st40" d="M58.4,22.4c0,0.1-1.1,1-1.7,1.2c-0.4,0.2-1.1,0.1-1.5,0c-0.4,0-1.4-0.9-1.4-1.8
								c-0.1-1.3,0.9-2.1,0.9-2.1c0.8-0.6,1.5-0.7,1.8-0.8c0,0,1.1,0.2,1.1,0.2c0,0,1.1,1,1.1,1.1C58.9,20.8,59,21.4,58.4,22.4"/>
							<path class="sample-st41" d="M58.4,21.8c-0.1,0.2-0.1,0.4-0.3,0.5c0,0-1.4,1.1-1.4,1.1c-0.4,0-1.1,0.2-1.5,0
								c-0.6-0.3-1.1-1.2-1.1-1.2c0,0-0.6-1.2,0.8-2.5c0.1-0.1,1.4-0.6,1.4-0.6c0.3-0.1,0.8,0,1.1,0.2c0.3,0.2,0.8,0.5,0.9,0.8
								C58.8,21.1,58.7,21.2,58.4,21.8"/>
							<path class="sample-st42" d="M57.9,22.3c-0.3,0.3-0.7,0.7-1.1,0.9c-0.4,0.1-1.1,0.2-1.5,0.1c-0.1,0-1-1.2-1.1-1.3
								c-0.1-0.3,0.1-0.8,0.2-1.1c0.1-0.4,0.6-0.7,0.9-1c0.3-0.2,0.7-0.4,1-0.4c0.3,0,0.8,0,1.1,0.2c0.2,0.1,0.5,0.4,0.6,0.6
								c0.2,0.3,0.4,0.8,0.3,1.1C58.4,21.6,58.2,22,57.9,22.3"/>
							<path class="sample-st43" d="M57.7,22.3c-0.2,0.2-0.5,0.6-0.8,0.6c-0.4,0.1-1.1,0.2-1.5,0c-0.4-0.2-0.7-0.7-0.8-1
								c-0.1-0.3,0-0.8,0.1-1.1c0.1-0.4,0.7-0.7,1-1c0.2-0.1,0.4-0.2,0.6-0.3c0.3,0,0.9-0.1,1.2,0.1c0.1,0.1,0.3,0.2,0.4,0.4
								c0.2,0.3,0.4,0.8,0.4,1.1C58.2,21.6,57.9,22,57.7,22.3"/>
							<path class="sample-st44" d="M57.4,22.3c-0.1,0.2-0.4,0.4-0.6,0.4c-0.4,0.1-1.1,0.2-1.5,0c-0.4-0.2-0.8-0.7-0.5-1.9c0,0,1-1,1.3-1.1
								c0.4-0.1,0.9-0.1,1.2,0.1c0,0,0.1,0.1,0.1,0.1c0.1,0.3,0.4,0.8,0.4,1.1C57.9,21.6,57.7,22,57.4,22.3"/>
							<path class="sample-st45" d="M57.2,22.3c-0.1,0.1-0.2,0.2-0.3,0.2c-0.4,0-1,0.2-1.4,0c-0.1-0.1-0.3-0.3-0.4-0.4
								c-0.1-0.3,0-0.8,0.1-1.1c0.1-0.3,0.6-0.7,0.9-0.8c0.4-0.1,0.9-0.1,1.2,0.1c0.2,0.2,0.4,0.6,0.4,0.9
								C57.7,21.5,57.4,22,57.2,22.3"/>
							<path class="sample-st46" d="M57,22.2c-0.1,0.1-1.4,0-1.4,0c-0.3-0.1,0-1.3,0-1.3c0.1-0.2,0.3-0.4,0.5-0.4c0.4-0.1,1-0.1,1.3,0.2
								c0.1,0.1,0.2,0.3,0.2,0.5C57.4,21.5,57.2,22,57,22.2"/>
							<path class="sample-st47" d="M57.1,21.3c-0.3,0.2-1.1,0.3-1.4,0.1c-0.1-0.1,0-0.4,0.1-0.4c0.4-0.1,1-0.1,1.3,0.2c0,0,0,0,0,0.1
								C57.2,21.2,57.2,21.2,57.1,21.3"/>
						</g>
					</g>
				</g>
			</g>
		</g>
	</g>
</g>
</svg>
