<?xml version="1.0" encoding="utf-8"?>
<!-- Generator: Adobe Illustrator 24.0.1, SVG Export Plug-In . SVG Version: 6.00 Build 0)  -->
<svg class="srw-beamline-item-icon" version="1.1" id="Telescope" xmlns="http://www.w3.org/2000/svg" xmlns:xlink="http://www.w3.org/1999/xlink" x="0px" y="0px"
	 viewBox="0 0 612 792" style="enable-background:new 0 0 612 792;" xml:space="preserve">
<style type="text/css">
	.telescope-st0{fill:#BBD8F1;}
	.telescope-st1{fill:#6396B6;}
	.telescope-st2{fill:#3A53A4;}
</style>
<g>
    <g transform="translate(-37 0)">
	<rect x="65.1" y="5.4" class="telescope-st0" width="2.6" height="46.6"/>
	<g>
		<path class="telescope-st1" d="M62.2,11.4c-0.8,2.2-1.4,4.6-1.9,7.2c0,0,0,0.1,0,0.1c-0.1,0.4-0.2,0.9-0.2,1.3c0,0.3-0.1,0.5-0.1,0.8
			c0,0.3-0.1,0.7-0.1,1c-0.1,0.7-0.1,1.3-0.2,2c0,0.1,0,0.2,0,0.3c-0.1,1.5-0.2,3.1-0.2,4.7c0,9.4,2.2,17.8,5.7,23.3V5.4
			C64,7.1,63,9.2,62.2,11.4L62.2,11.4z"/>
		<path class="telescope-st1" d="M72.5,38.8c0,0,0-0.1,0-0.1c0.1-0.4,0.2-0.9,0.2-1.3c0-0.3,0.1-0.5,0.1-0.8c0-0.3,0.1-0.7,0.1-1
			c0.1-0.7,0.1-1.3,0.2-2c0-0.1,0-0.2,0-0.3c0.1-1.5,0.2-3.1,0.2-4.7c0-9.4-2.2-17.8-5.7-23.3V52c1.1-1.7,2.1-3.8,2.9-6.1V46
			C71.4,43.8,72.1,41.4,72.5,38.8z"/>
	</g>
    </g>
    <g transform="translate(5 0)">
	<rect x="65.1" y="5.4" class="telescope-st0" width="2.6" height="46.6"/>
	<g>
		<path class="telescope-st1" d="M62.2,11.4c-0.8,2.2-1.4,4.6-1.9,7.2c0,0,0,0.1,0,0.1c-0.1,0.4-0.2,0.9-0.2,1.3c0,0.3-0.1,0.5-0.1,0.8
			c0,0.3-0.1,0.7-0.1,1c-0.1,0.7-0.1,1.3-0.2,2c0,0.1,0,0.2,0,0.3c-0.1,1.5-0.2,3.1-0.2,4.7c0,9.4,2.2,17.8,5.7,23.3V5.4
			C64,7.1,63,9.2,62.2,11.4L62.2,11.4z"/>
		<path class="telescope-st1" d="M72.5,38.8c0,0,0-0.1,0-0.1c0.1-0.4,0.2-0.9,0.2-1.3c0-0.3,0.1-0.5,0.1-0.8c0-0.3,0.1-0.7,0.1-1
			c0.1-0.7,0.1-1.3,0.2-2c0-0.1,0-0.2,0-0.3c0.1-1.5,0.2-3.1,0.2-4.7c0-9.4-2.2-17.8-5.7-23.3V52c1.1-1.7,2.1-3.8,2.9-6.1V46
			C71.4,43.8,72.1,41.4,72.5,38.8z"/>
	</g>
    </g>
	<g transform="translate(-5 -10)">
		<path class="telescope-st2" d="M93.0,29.6c-1.1,0-2-0.9-2-1.9c0-1.1,0.8-1.9,1.8-1.9h0.2c1.1,0,1.9,0.9,1.9,1.9
                        C94.9,28.7,94.3,29.6,93.0,29.6z M82.2,29.6c-1.1,0-2-0.9-2-1.9c0-1.1,0.8-1.9,1.8-1.9h0.2c1.1,0,1.9,0.9,1.9,1.9
                        C84.1,28.7,83.4,29.6,82.2,29.6z M71.4,29.6c-1.1,0-2-0.9-2-1.9c0-1.1,0.8-1.9,1.8-1.9h0.2c1.1,0,1.9,0.9,1.9,1.9
			C73.3,28.7,72.5,29.6,71.4,29.6z M60.6,29.6c-1.1,0-2-0.9-2-1.9c0-1.1,0.8-1.9,1.8-1.9h0.2c1.1,0,1.9,0.9,1.9,1.9
			C62.5,28.7,61.6,29.6,60.6,29.6z M49.7,29.6c-1.1,0-2-0.9-2-1.9c0-1.1,0.8-1.9,1.8-1.9h0.2c1.1,0,1.9,0.9,1.9,1.9
			C51.6,28.7,50.8,29.6,49.7,29.6z M38.8,29.6c-1.1,0-2-0.9-2-1.9c0-1.1,0.8-1.9,1.8-1.9h0.2c1.1,0,1.9,0.9,1.9,1.9
			C40.8,28.7,39.9,29.6,38.8,29.6z M28.0,29.6c-1.1,0-2-0.9-2-1.9c0-1.1,0.8-1.9,1.8-1.9h0.2c1.1,0,1.9,0.9,1.9,1.9
			C29.9,28.7,29,29.6,28,29.6z     M17.1,29.6c-1.1,0-2-0.9-2-1.9c0-1.1,0.8-1.9,1.8-1.9h0.2c1.1,0,1.9,0.9,1.9,1.9
			C19.0,28.7,18.2,29.6,17.1,29.6z
                        "/>
	</g>
	<g transform="translate(-5 0)">
		<path class="telescope-st2" d="M93.0,29.6c-1.1,0-2-0.9-2-1.9c0-1.1,0.8-1.9,1.8-1.9h0.2c1.1,0,1.9,0.9,1.9,1.9
                        C94.9,28.7,94.3,29.6,93.0,29.6z M82.2,29.6c-1.1,0-2-0.9-2-1.9c0-1.1,0.8-1.9,1.8-1.9h0.2c1.1,0,1.9,0.9,1.9,1.9
                        C84.1,28.7,83.4,29.6,82.2,29.6z M71.4,29.6c-1.1,0-2-0.9-2-1.9c0-1.1,0.8-1.9,1.8-1.9h0.2c1.1,0,1.9,0.9,1.9,1.9
			C73.3,28.7,72.5,29.6,71.4,29.6z M60.6,29.6c-1.1,0-2-0.9-2-1.9c0-1.1,0.8-1.9,1.8-1.9h0.2c1.1,0,1.9,0.9,1.9,1.9
			C62.5,28.7,61.6,29.6,60.6,29.6z M49.7,29.6c-1.1,0-2-0.9-2-1.9c0-1.1,0.8-1.9,1.8-1.9h0.2c1.1,0,1.9,0.9,1.9,1.9
			C51.6,28.7,50.8,29.6,49.7,29.6z M38.8,29.6c-1.1,0-2-0.9-2-1.9c0-1.1,0.8-1.9,1.8-1.9h0.2c1.1,0,1.9,0.9,1.9,1.9
			C40.8,28.7,39.9,29.6,38.8,29.6z M28.0,29.6c-1.1,0-2-0.9-2-1.9c0-1.1,0.8-1.9,1.8-1.9h0.2c1.1,0,1.9,0.9,1.9,1.9
			C29.9,28.7,29,29.6,28,29.6z     M17.1,29.6c-1.1,0-2-0.9-2-1.9c0-1.1,0.8-1.9,1.8-1.9h0.2c1.1,0,1.9,0.9,1.9,1.9
			C19.0,28.7,18.2,29.6,17.1,29.6z
                        "/>
	</g>
	<g transform="translate(-5 10)">
		<path class="telescope-st2" d="M93.0,29.6c-1.1,0-2-0.9-2-1.9c0-1.1,0.8-1.9,1.8-1.9h0.2c1.1,0,1.9,0.9,1.9,1.9
                        C94.9,28.7,94.3,29.6,93.0,29.6z M82.2,29.6c-1.1,0-2-0.9-2-1.9c0-1.1,0.8-1.9,1.8-1.9h0.2c1.1,0,1.9,0.9,1.9,1.9
                        C84.1,28.7,83.4,29.6,82.2,29.6z M71.4,29.6c-1.1,0-2-0.9-2-1.9c0-1.1,0.8-1.9,1.8-1.9h0.2c1.1,0,1.9,0.9,1.9,1.9
			C73.3,28.7,72.5,29.6,71.4,29.6z M60.6,29.6c-1.1,0-2-0.9-2-1.9c0-1.1,0.8-1.9,1.8-1.9h0.2c1.1,0,1.9,0.9,1.9,1.9
			C62.5,28.7,61.6,29.6,60.6,29.6z M49.7,29.6c-1.1,0-2-0.9-2-1.9c0-1.1,0.8-1.9,1.8-1.9h0.2c1.1,0,1.9,0.9,1.9,1.9
			C51.6,28.7,50.8,29.6,49.7,29.6z M38.8,29.6c-1.1,0-2-0.9-2-1.9c0-1.1,0.8-1.9,1.8-1.9h0.2c1.1,0,1.9,0.9,1.9,1.9
			C40.8,28.7,39.9,29.6,38.8,29.6z M28.0,29.6c-1.1,0-2-0.9-2-1.9c0-1.1,0.8-1.9,1.8-1.9h0.2c1.1,0,1.9,0.9,1.9,1.9
			C29.9,28.7,29,29.6,28,29.6z     M17.1,29.6c-1.1,0-2-0.9-2-1.9c0-1.1,0.8-1.9,1.8-1.9h0.2c1.1,0,1.9,0.9,1.9,1.9
			C19.0,28.7,18.2,29.6,17.1,29.6z
                        "/>
	</g>

</g>
</svg>
