<?xml version="1.0" encoding="utf-8"?>
<!-- Generator: Adobe Illustrator 24.0.1, SVG Export Plug-In . SVG Version: 6.00 Build 0)  -->
<svg  class="srw-beamline-item-icon" version="1.1" id="Toroid" xmlns="http://www.w3.org/2000/svg" xmlns:xlink="http://www.w3.org/1999/xlink" x="0px" y="0px"
	 viewBox="0 0 612 792" style="enable-background:new 0 0 612 792;" xml:space="preserve">
<style type="text/css">
	.toroid-st0{enable-background:new    ;}
	.toroid-st1{fill:#679C2B;}
	.toroid-st2{fill:#7DB437;}
	.toroid-st3{fill:#70A430;}
	.toroid-st4{clip-path:url(#TOROID_SVG_2_);enable-background:new    ;}
	.toroid-st5{fill:#78AE34;}
	.toroid-st6{fill:#76AB33;}
	.toroid-st7{fill:#73A932;}
	.toroid-st8{fill:#71A631;}
	.toroid-st9{fill:#6FA42F;}
	.toroid-st10{fill:#6DA12E;}
	.toroid-st11{fill:#6A9F2D;}
	.toroid-st12{fill:#689D2C;}
	.toroid-st13{fill:#669A2A;}
	.toroid-st14{fill:#649829;}
	.toroid-st15{fill:#629528;}
	.toroid-st16{fill:#5F9327;}
	.toroid-st17{fill:#5D9025;}
	.toroid-st18{fill:#5B8E24;}
	.toroid-st19{fill:#598B23;}
	.toroid-st20{fill:#73A832;}
	.toroid-st21{clip-path:url(#TOROID_SVG_4_);enable-background:new    ;}
	.toroid-st22{fill:#578922;}
	.toroid-st23{fill:#8EC641;}
	.toroid-st24{fill:#3A53A4;}
</style>
<g>
	<g>
		<g>
			<g class="toroid-st0">
				<g>
					<polygon class="toroid-st1" points="15.6,38.1 24.1,18.2 24.5,31.3 16,51.2 					"/>
				</g>
				<g>
					<polygon class="toroid-st2" points="14.3,34.9 22.8,15.1 23.9,16.4 15.4,36.3 					"/>
				</g>
				<g>
					<polygon class="toroid-st3" points="16,51.2 24.5,31.3 85.3,32.4 76.9,52.2 					"/>
				</g>
				<g>
					<polygon class="toroid-st1" points="76.5,39.2 84.9,19.3 85.3,32.4 76.9,52.2 					"/>
				</g>
				<g class="toroid-st0">
					<defs>
						<path id="TOROID_SVG_1_" class="toroid-st0" d="M15.6,38.1l8.4-19.9c4.5,4,14.5,8.1,30.7,8.3c16.2,0.3,26-3.4,30.2-7.3l-8.4,19.9
							c-4.2,3.9-14,7.6-30.2,7.3S20.1,42.2,15.6,38.1z"/>
					</defs>
					<clipPath id="TOROID_SVG_2_">
						<use xlink:href="#TOROID_SVG_1_"  style="overflow:visible;"/>
					</clipPath>
					<g class="toroid-st4">
						<path class="toroid-st5" d="M15.6,38.1l8.4-19.9c1.1,1,2.6,2,4.5,3l-8.4,19.9C18.2,40.2,16.8,39.1,15.6,38.1"/>
						<path class="toroid-st6" d="M20.1,41.1l8.4-19.9c1.1,0.6,2.3,1.1,3.7,1.6l-8.4,19.9C22.4,42.2,21.2,41.7,20.1,41.1"/>
						<path class="toroid-st7" d="M23.8,42.8l8.4-19.9c1.2,0.5,2.5,0.9,3.9,1.3L27.7,44C26.3,43.6,25,43.2,23.8,42.8"/>
						<path class="toroid-st8" d="M27.7,44l8.4-19.9c1.3,0.4,2.8,0.7,4.3,1L32,45C30.4,44.7,29,44.4,27.7,44"/>
						<path class="toroid-st9" d="M32,45l8.4-19.9c1.5,0.3,3.2,0.6,4.9,0.8l-8.4,19.9C35.1,45.6,33.5,45.3,32,45"/>
						<path class="toroid-st10" d="M36.9,45.8L45.3,26c1.8,0.2,3.7,0.4,5.6,0.5l-8.4,19.9C40.5,46.2,38.6,46,36.9,45.8"/>
						<path class="toroid-st11" d="M42.5,46.3l8.4-19.9c1.2,0.1,2.5,0.1,3.8,0.1c0.9,0,1.8,0,2.6,0l-8.4,19.9c-0.8,0-1.7,0-2.6,0
							C45,46.4,43.7,46.4,42.5,46.3"/>
						<path class="toroid-st12" d="M48.9,46.5l8.4-19.9c2,0,3.8-0.1,5.6-0.2l-8.4,19.9C52.7,46.4,50.9,46.5,48.9,46.5"/>
						<path class="toroid-st13" d="M54.5,46.2l8.4-19.9c1.6-0.1,3.2-0.3,4.7-0.5l-8.4,19.9C57.7,46,56.1,46.1,54.5,46.2"/>
						<path class="toroid-st14" d="M59.2,45.7l8.4-19.9c1.4-0.2,2.7-0.4,3.9-0.7l-8.4,19.9C61.9,45.3,60.5,45.5,59.2,45.7"/>
						<path class="toroid-st15" d="M63.1,45.1l8.4-19.9c1.2-0.3,2.3-0.5,3.4-0.8l-8.4,19.9C65.4,44.5,64.3,44.8,63.1,45.1"/>
						<path class="toroid-st16" d="M66.5,44.2l8.4-19.9c1-0.3,2-0.6,2.9-1l-8.4,19.9C68.5,43.6,67.5,43.9,66.5,44.2"/>
						<path class="toroid-st17" d="M69.4,43.3l8.4-19.9c0.9-0.3,1.8-0.7,2.6-1.1l-8.4,19.9C71.1,42.5,70.3,42.9,69.4,43.3"/>
						<path class="toroid-st18" d="M71.9,42.2l8.4-19.9c0.9-0.4,1.6-0.9,2.3-1.3l-8.4,19.9C73.6,41.3,72.8,41.7,71.9,42.2"/>
						<path class="toroid-st19" d="M74.3,40.9L82.7,21c0.9-0.5,1.6-1.1,2.2-1.7l-8.4,19.9C75.9,39.7,75.1,40.3,74.3,40.9"/>
					</g>
				</g>
				<g>
					<path class="toroid-st20" d="M76.6,37.3l1-1.3l0.5,17.4l-63.3-1.1l-0.5-17.4l1.1,1.3c4.5,5.2,16.6,8.8,30.8,9S72.4,42.4,76.6,37.3z
						 M76.9,52.2l-0.4-13.1c-4.2,3.9-14,7.6-30.2,7.3c-16.2-0.3-26.2-4.3-30.7-8.3L16,51.2L76.9,52.2"/>
				</g>
				<g>
					<path class="toroid-st20" d="M76.5,39.2l0.4,13.1L16,51.2l-0.4-13.1c4.5,4,14.5,8.1,30.7,8.3S72.3,43.1,76.5,39.2z"/>
				</g>
				<g class="toroid-st0">
					<defs>
						<path id="TOROID_SVG_3_" class="toroid-st0" d="M15.4,36.3l8.4-19.9c4.5,5.2,16.6,8.8,30.8,9s26.1-2.9,30.3-8l-8.4,19.9
							c-4.2,5.1-16.1,8.2-30.3,8S19.9,41.5,15.4,36.3z"/>
					</defs>
					<clipPath id="TOROID_SVG_4_">
						<use xlink:href="#TOROID_SVG_3_"  style="overflow:visible;"/>
					</clipPath>
					<g class="toroid-st21">
						<path class="toroid-st5" d="M15.4,36.3l8.4-19.9c1.2,1.4,2.9,2.7,5.1,3.8L20.5,40C18.4,38.9,16.6,37.7,15.4,36.3"/>
						<path class="toroid-st6" d="M20.5,40l8.4-19.9c1.1,0.6,2.2,1.1,3.5,1.5L24,41.6C22.7,41.1,21.6,40.6,20.5,40"/>
						<path class="toroid-st7" d="M24,41.6l8.4-19.9c1.2,0.5,2.5,0.9,3.8,1.2l-8.4,19.9C26.5,42.5,25.2,42,24,41.6"/>
						<path class="toroid-st8" d="M27.8,42.8L36.3,23c1.4,0.4,2.9,0.7,4.4,1l-8.4,19.9C30.7,43.6,29.2,43.2,27.8,42.8"/>
						<path class="toroid-st9" d="M32.2,43.9L40.7,24c1.6,0.3,3.3,0.6,5,0.8l-8.4,19.9C35.5,44.5,33.8,44.2,32.2,43.9"/>
						<path class="toroid-st10" d="M37.2,44.7l8.4-19.9c1.8,0.2,3.6,0.4,5.5,0.5l-8.4,19.9C40.9,45.1,39,44.9,37.2,44.7"/>
						<path class="toroid-st11" d="M42.8,45.2l8.4-19.9c1.1,0.1,2.3,0.1,3.5,0.1c0.8,0,1.6,0,2.4,0l-8.4,19.9c-0.8,0-1.6,0-2.4,0
							C45.1,45.3,43.9,45.2,42.8,45.2"/>
						<path class="toroid-st12" d="M48.6,45.3l8.4-19.9c1.9,0,3.7-0.1,5.4-0.2l-8.4,19.9C52.3,45.2,50.5,45.3,48.6,45.3"/>
						<path class="toroid-st13" d="M54.1,45.1l8.4-19.9c1.6-0.1,3.2-0.3,4.7-0.5l-8.4,19.9C57.3,44.8,55.7,45,54.1,45.1"/>
						<path class="toroid-st14" d="M58.8,44.6l8.4-19.9c1.4-0.2,2.8-0.4,4-0.7l-8.4,19.9C61.5,44.1,60.2,44.4,58.8,44.6"/>
						<path class="toroid-st15" d="M62.8,43.9L71.3,24c1.2-0.3,2.3-0.5,3.4-0.8L66.2,43C65.1,43.3,64,43.6,62.8,43.9"/>
						<path class="toroid-st16" d="M66.2,43l8.4-19.9c1-0.3,1.9-0.6,2.8-0.9l-8.4,19.9C68.2,42.4,67.2,42.7,66.2,43"/>
						<path class="toroid-st17" d="M69.1,42.1l8.4-19.9c0.9-0.3,1.7-0.7,2.4-1l-8.4,19.9C70.7,41.4,69.9,41.8,69.1,42.1"/>
						<path class="toroid-st18" d="M71.4,41.1l8.4-19.9c0.8-0.4,1.5-0.8,2.1-1.2l-8.4,19.9C72.9,40.3,72.2,40.7,71.4,41.1"/>
						<path class="toroid-st19" d="M73.6,39.9L82,20c1.2-0.8,2.2-1.6,3-2.6l-8.4,19.9C75.8,38.2,74.8,39.1,73.6,39.9"/>
					</g>
				</g>
				<g>
					<polygon class="toroid-st1" points="77.6,36.1 86,16.2 86.6,33.6 78.1,53.4 					"/>
				</g>
				<g>
					<polygon class="toroid-st22" points="76.6,37.3 85,17.5 86,16.2 77.6,36.1 					"/>
				</g>
			</g>
		</g>
	</g>
	<path class="toroid-st23" d="M77.6,36l0.6,17.4l-64.3-1.1c0,0,0.4-18,0.8-18C24.7,46.1,66.2,49,77.6,36"/>
	<path class="toroid-st24" d="M49.4,36.3c-0.7,0-1.4-0.4-1.8-1c-0.7-1-0.4-2.4,0.6-3l0.2-0.1c1-0.7,2.4-0.4,3,0.6c0.7,1,0.4,2.4-0.6,3
		L50.6,36C50.3,36.2,49.8,36.3,49.4,36.3z"/>
	<path class="toroid-st24" d="M43.3,33.1c-0.4,0-0.7-0.1-1-0.4l-0.2-0.1c-1-0.7-1.3-2-0.6-3c0.7-1,2-1.3,3-0.6l0.2,0.1c1,0.7,1.3,2,0.6,3
		C44.8,32.8,44.1,33.2,43.3,33.1z M37.1,29c-0.4,0-0.7-0.1-1-0.4l-0.2-0.1c-1-0.7-1.3-2-0.6-3c0.7-1,2-1.3,3-0.6l0.2,0.1
		c1,0.7,1.3,2,0.6,3C38.6,28.7,37.8,29.1,37.1,29z M30.8,24.9c-0.4,0-0.7-0.1-1-0.4l-0.2-0.1c-1-0.7-1.3-2-0.6-3c0.7-1,2-1.3,3-0.6
		l0.2,0.1c1,0.7,1.3,2,0.6,3C32.4,24.6,31.6,25,30.8,24.9z M18.4,16.8c-0.4,0-0.7-0.1-1-0.4l-0.2-0.1c-1-0.7-1.3-2-0.6-3
		c0.7-1,2-1.3,3-0.6l0.2,0.1c1,0.7,1.3,2,0.6,3C19.9,16.5,19.1,16.8,18.4,16.8z M12.1,12.7c-0.4,0-0.7-0.1-1-0.4l-0.2-0.1
		c-1-0.7-1.3-2-0.6-3c0.7-1,2-1.3,3-0.6l0.2,0.1c1,0.7,1.3,2,0.6,3C13.6,12.4,12.9,12.7,12.1,12.7z"/>
	<path class="toroid-st24" d="M56.9,33.8c-0.7,0-1.4-0.3-1.9-0.9c-0.7-1-0.5-2.3,0.5-3l0.2-0.1c1-0.7,2.3-0.4,3,0.5c0.7,1,0.5,2.3-0.5,3
		l-0.2,0.1C57.7,33.7,57.3,33.8,56.9,33.8z"/>
	<path class="toroid-st24" d="M63,29.6c-0.7,0-1.4-0.3-1.9-0.9c-0.7-1-0.5-2.3,0.5-3l0.2-0.1c1-0.7,2.3-0.5,3,0.5c0.7,1,0.5,2.3-0.5,3
		l-0.2,0.1C63.8,29.4,63.4,29.5,63,29.6z"/>
	<path class="toroid-st24" d="M69.1,25.3c-0.7,0-1.4-0.3-1.9-0.9c-0.7-1-0.5-2.3,0.5-3l0.2-0.1c1-0.7,2.3-0.4,3,0.5c0.7,1,0.5,2.3-0.5,3
		l-0.2,0.1C69.9,25.1,69.5,25.3,69.1,25.3z"/>
	<path class="toroid-st24" d="M75.2,21c-0.7,0-1.4-0.3-1.9-0.9c-0.7-1-0.4-2.3,0.5-3l0.2-0.1c1-0.7,2.3-0.4,3,0.5c0.7,1,0.4,2.3-0.5,3
		l-0.2,0.1C76,20.9,75.6,21,75.2,21z"/>
	<path class="toroid-st24" d="M81.3,16.7c-0.7,0-1.4-0.3-1.9-0.9c-0.7-1-0.5-2.3,0.5-3l0.2-0.1c1-0.7,2.3-0.5,3,0.5c0.7,1,0.5,2.3-0.5,3
		l-0.2,0.1C82.1,16.6,81.7,16.7,81.3,16.7z"/>
	<path class="toroid-st24" d="M87.4,12.5c-0.7,0-1.4-0.3-1.9-0.9c-0.7-1-0.5-2.3,0.5-3l0.2-0.1c1-0.7,2.3-0.5,3,0.5c0.7,1,0.5,2.3-0.5,3
		l-0.2,0.1C88.2,12.3,87.8,12.4,87.4,12.5z"/>
	<path class="toroid-st24" d="M24.3,21.1c-0.4,0-0.7-0.1-1-0.4l-0.2-0.1c-1-0.7-1.3-2-0.6-3c0.7-1,2-1.3,3-0.6l0.2,0.1c1,0.7,1.3,2,0.6,3
		C25.9,20.8,25.1,21.1,24.3,21.1z"/>
</g>
</svg>
