<?xml version="1.0" encoding="UTF-8"?>
<!DOCTYPE svg PUBLIC "-//W3C//DTD SVG 1.1//EN" "http://www.w3.org/Graphics/SVG/1.1/DTD/svg11.dtd">
<svg version="1.1" xmlns="http://www.w3.org/2000/svg" xmlns:xlink="http://www.w3.org/1999/xlink" x="0" y="0" width="42" height="42" viewBox="0, 0, 42, 42">
  <g id="Layer_1" transform="translate(-357.207, -93.843)">
    <g>
      <path d="M366.207,114.843 L390.207,114.843" fill-opacity="0" stroke="#000000" stroke-width="1" stroke-dasharray="3,2" id="Axis"/>
      <path d="M366.185,98.843 L390.229,98.843 C392.426,98.843 394.207,100.92 394.207,103.483 L394.207,126.202 C394.207,128.765 392.426,130.843 390.229,130.843 L366.185,130.843 C363.988,130.843 362.207,128.765 362.207,126.202 L362.207,103.483 C362.207,100.92 363.988,98.843 366.185,98.843 z" fill-opacity="0" stroke="#8FC640" stroke-width="2" stroke-dasharray="6,4" id="Container"/>
      <g id="Magnets">
        <g id="Magnet">
          <path d="M370.207,118.117 L376.207,118.117 L376.207,128.117 L370.207,128.117 L370.207,118.117 z" fill="#97B6D5"/>
          <path d="M376.207,120.117 L380.207,120.117 L380.207,128.117 L376.207,128.117 L376.207,120.117 z" fill="#526374"/>
          <path d="M380.207,118.117 L386.207,118.117 L386.207,128.117 L380.207,128.117 L380.207,118.117 z" fill="#97B6D5"/>
        </g>
        <g id="Magnet">
          <path d="M370.207,111.568 L376.207,111.568 L376.207,101.568 L370.207,101.568 L370.207,111.568 z" fill="#97B6D5"/>
          <path d="M376.207,109.568 L380.207,109.568 L380.207,101.568 L376.207,101.568 L376.207,109.568 z" fill="#526374"/>
          <path d="M380.207,111.568 L386.207,111.568 L386.207,101.568 L380.207,101.568 L380.207,111.568 z" fill="#97B6D5"/>
        </g>
      </g>
    </g>
  </g>
</svg>
