<?xml version="1.0" encoding="UTF-8"?>
<!DOCTYPE svg PUBLIC "-//W3C//DTD SVG 1.1//EN" "http://www.w3.org/Graphics/SVG/1.1/DTD/svg11.dtd">
<svg version="1.1" xmlns="http://www.w3.org/2000/svg" xmlns:xlink="http://www.w3.org/1999/xlink" x="0" y="0" width="17" height="21.242" viewBox="0, 0, 17, 21.242">
  <g id="Layer_1" transform="translate(-85.644, -356.808)">
    <g id="Lock_Unlock">
      <text transform="matrix(1, 0, 0, 1, 94.144, 367.429)" display="none">
        <tspan x="-8.5" y="5.379" font-family="AppleColorEmoji" font-size="13" fill="#077D16">🔒</tspan>
      </text>
      <g id="Body">
        <path d="M89.214,366.931 L98.963,366.929 C99.219,366.929 99.427,367.153 99.427,367.429 L99.429,374.523 C99.429,374.799 99.221,375.023 98.965,375.023 L89.216,375.026 C88.96,375.026 88.752,374.802 88.752,374.526 L88.751,367.432 C88.75,367.155 88.958,366.932 89.214,366.931 z" fill="#555555"/>
        <path d="M89.214,366.931 L98.963,366.929 C99.219,366.929 99.427,367.153 99.427,367.429 L99.429,374.523 C99.429,374.799 99.221,375.023 98.965,375.023 L89.216,375.026 C88.96,375.026 88.752,374.802 88.752,374.526 L88.751,367.432 C88.75,367.155 88.958,366.932 89.214,366.931 z" fill-opacity="0" stroke="#555555" stroke-width="1"/>
      </g>
      <path d="M93.456,361.046 L94.829,361.046 C97.039,361.046 98.829,362.837 98.829,365.046 L98.829,369.372 C98.829,371.581 97.039,373.372 94.829,373.372 L93.456,373.372 C91.247,373.372 89.456,371.581 89.456,369.372 L89.456,365.046 C89.456,362.837 91.247,361.046 93.456,361.046 z" fill-opacity="0" stroke="#000000" stroke-width="1.5" id="Hasp" display="none"/>
      <path d="M98.831,363.266 C98.831,361.934 98.18,360.754 97.179,360.027 C96.519,359.548 95.708,359.266 94.831,359.266 C94.831,359.266 94.831,359.266 94.831,359.266 L93.458,359.266 C91.249,359.266 89.458,361.057 89.458,363.266 L89.458,367.592 C89.458,369.801 91.249,371.592 93.458,371.592 L94.831,371.592 C97.04,371.592 98.831,369.801 98.831,367.592" fill-opacity="0" stroke="#555555" stroke-width="1.5" id="Hasp_Open"/>
    </g>
  </g>
</svg>
