<?xml version="1.0" encoding="utf-8"?>
<!-- Generator: Adobe Illustrator 24.0.1, SVG Export Plug-In . SVG Version: 6.00 Build 0)  -->
<svg  class="srw-beamline-item-icon" version="1.1" id="Watchpoint" xmlns="http://www.w3.org/2000/svg" xmlns:xlink="http://www.w3.org/1999/xlink" x="0px" y="0px"
	 viewBox="0 0 612 792" style="enable-background:new 0 0 612 792;" xml:space="preserve">
<style type="text/css">
	.watchpoint-st0{enable-background:new    ;}
	.watchpoint-st1{clip-path:url(#WATCHPOINT_SVGID_2_);enable-background:new    ;}
	.watchpoint-st2{fill:#40667B;}
	.watchpoint-st3{fill:#436A80;}
	.watchpoint-st4{fill:#456E85;}
	.watchpoint-st5{fill:#487289;}
	.watchpoint-st6{fill:#4A768E;}
	.watchpoint-st7{fill:#4D7A93;}
	.watchpoint-st8{fill:#588BA8;}
	.watchpoint-st9{clip-path:url(#WATCHPOINT_SVGID_4_);enable-background:new    ;}
	.watchpoint-st10{fill:#4F7D98;}
	.watchpoint-st11{fill:#52819C;}
	.watchpoint-st12{fill:#5485A1;}
	.watchpoint-st13{fill:#5789A6;}
	.watchpoint-st14{fill:#598DAB;}
	.watchpoint-st15{fill:#5C91AF;}
	.watchpoint-st16{fill:#5E95B4;}
	.watchpoint-st17{fill:#6199B9;}
	.watchpoint-st18{fill:#639DBE;}
	.watchpoint-st19{fill:#66A1C2;}
	.watchpoint-st20{fill:#68A5C7;}
	.watchpoint-st21{fill:#6BA9CC;}
	.watchpoint-st22{stroke:#000000;stroke-width:1.3033;}
	.watchpoint-st23{fill:none;stroke:#808184;stroke-width:4.2336;}
	.watchpoint-st24{fill:none;stroke:#808184;stroke-width:1.7;}
</style>
<g>
	<g>
		<g>
			<g class="watchpoint-st0">
				<g class="watchpoint-st0">
					<defs>
						<path id="WATCHPOINT_SVGID_1_" class="watchpoint-st0" d="M22.7,10.6l1-1.2c1.7-2.2,4.3-3.7,7.5-4.2l-1,1.2C27,6.9,24.4,8.5,22.7,10.6z"/>
					</defs>
					<clipPath id="WATCHPOINT_SVGID_2_">
						<use xlink:href="#WATCHPOINT_SVGID_1_"  style="overflow:visible;"/>
					</clipPath>
					<g class="watchpoint-st1">
						<path class="watchpoint-st2" d="M22.7,10.6l1-1.2c0.9-1.1,2-2.1,3.3-2.8l-1,1.2C24.7,8.6,23.6,9.5,22.7,10.6"/>
						<path class="watchpoint-st3" d="M26,7.8l1-1.2c0.4-0.2,0.8-0.4,1.2-0.6l-1,1.2C26.8,7.4,26.4,7.6,26,7.8"/>
						<path class="watchpoint-st4" d="M27.2,7.3l1-1.2c0.3-0.1,0.6-0.2,1-0.3l-1,1.2C27.8,7,27.5,7.1,27.2,7.3"/>
						<path class="watchpoint-st5" d="M28.1,6.9l1-1.2c0.3-0.1,0.6-0.2,0.9-0.2l-1,1.2C28.7,6.8,28.4,6.8,28.1,6.9"/>
						<path class="watchpoint-st6" d="M29,6.7l1-1.2c0.3-0.1,0.5-0.1,0.8-0.2l-1,1.2C29.5,6.6,29.3,6.6,29,6.7"/>
						<path class="watchpoint-st7" d="M29.8,6.5l1-1.2c0.1,0,0.2,0,0.3,0l-1,1.2C30,6.5,29.9,6.5,29.8,6.5"/>
					</g>
				</g>
				<g>
					<path class="watchpoint-st8" d="M30.1,6.5c7-1,14.2,3.9,16,10.9c1.8,7-2.5,13.5-9.5,14.5c-7,1-14.2-3.9-16-10.9
						C18.9,13.9,23.1,7.5,30.1,6.5z"/>
				</g>
				<g class="watchpoint-st0">
					<defs>
						<path id="WATCHPOINT_SVGID_3_" class="watchpoint-st0" d="M45.1,26.4l-1,1.2c2.2-2.7,3-6.4,2-10.3c-1.8-7-8.9-11.9-16-10.9l1-1.2
							c7-1,14.2,3.9,16,10.9C48.1,20,47.2,23.7,45.1,26.4z"/>
					</defs>
					<clipPath id="WATCHPOINT_SVGID_4_">
						<use xlink:href="#WATCHPOINT_SVGID_3_"  style="overflow:visible;"/>
					</clipPath>
					<g class="watchpoint-st9">
						<path class="watchpoint-st7" d="M30.1,6.5l1-1.2c0.2,0,0.3,0,0.5-0.1l-1,1.2C30.5,6.4,30.3,6.5,30.1,6.5"/>
						<path class="watchpoint-st10" d="M30.6,6.4l1-1.2c0.3,0,0.5,0,0.8-0.1l-1,1.2C31.1,6.4,30.9,6.4,30.6,6.4"/>
						<path class="watchpoint-st11" d="M31.4,6.4l1-1.2c0.2,0,0.5,0,0.7,0l-1,1.2C31.9,6.3,31.6,6.3,31.4,6.4"/>
						<path class="watchpoint-st12" d="M32.1,6.3l1-1.2c0.2,0,0.5,0,0.7,0l-1,1.2C32.6,6.4,32.4,6.4,32.1,6.3"/>
						<path class="watchpoint-st13" d="M32.9,6.4l1-1.2c0.2,0,0.5,0,0.7,0.1l-1,1.2C33.4,6.4,33.1,6.4,32.9,6.4"/>
						<path class="watchpoint-st14" d="M33.6,6.4l1-1.2c0.2,0,0.5,0.1,0.7,0.1l-1,1.2C34.1,6.5,33.9,6.5,33.6,6.4"/>
						<path class="watchpoint-st15" d="M34.4,6.6l1-1.2c0.3,0,0.5,0.1,0.8,0.2l-1,1.2C34.9,6.7,34.6,6.6,34.4,6.6"/>
						<path class="watchpoint-st16" d="M35.1,6.7l1-1.2c0.3,0.1,0.5,0.1,0.8,0.2l-1,1.2C35.7,6.9,35.4,6.8,35.1,6.7"/>
						<path class="watchpoint-st17" d="M35.9,6.9l1-1.2c0.3,0.1,0.6,0.2,0.8,0.3l-1,1.2C36.5,7.1,36.2,7,35.9,6.9"/>
						<path class="watchpoint-st18" d="M36.8,7.2l1-1.2c0.3,0.1,0.6,0.2,0.9,0.4l-1,1.2C37.4,7.5,37.1,7.3,36.8,7.2"/>
						<path class="watchpoint-st19" d="M37.7,7.6l1-1.2c0.4,0.2,0.7,0.3,1.1,0.5l-1,1.2C38.4,7.9,38.1,7.8,37.7,7.6"/>
						<path class="watchpoint-st20" d="M38.8,8.1l1-1.2c0.4,0.2,0.9,0.5,1.3,0.8l-1,1.2C39.7,8.6,39.2,8.4,38.8,8.1"/>
						<path class="watchpoint-st21" d="M40.1,8.9l1-1.2c1.5,1,2.9,2.3,3.9,3.9l-1,1.2C42.9,11.3,41.6,9.9,40.1,8.9"/>
						<path class="watchpoint-st20" d="M44,12.8l1-1.2c0.3,0.4,0.6,0.8,0.8,1.3l-1,1.2C44.6,13.6,44.3,13.2,44,12.8"/>
						<path class="watchpoint-st19" d="M44.8,14.1l1-1.2c0.2,0.3,0.4,0.7,0.5,1l-1,1.2C45.2,14.7,45,14.4,44.8,14.1"/>
						<path class="watchpoint-st18" d="M45.3,15.1l1-1.2c0.1,0.3,0.3,0.6,0.4,0.9l-1,1.2C45.6,15.7,45.5,15.4,45.3,15.1"/>
						<path class="watchpoint-st17" d="M45.7,16l1-1.2c0.1,0.3,0.2,0.6,0.3,0.8l-1,1.2C45.9,16.6,45.8,16.3,45.7,16"/>
						<path class="watchpoint-st16" d="M46,16.8l1-1.2c0.1,0.2,0.1,0.4,0.2,0.5c0,0.1,0,0.2,0.1,0.3l-1,1.2c0-0.1,0-0.2-0.1-0.3
							C46.1,17.2,46,17,46,16.8"/>
						<path class="watchpoint-st15" d="M46.2,17.6l1-1.2c0.1,0.3,0.1,0.5,0.2,0.8l-1,1.2C46.3,18.2,46.2,17.9,46.2,17.6"/>
						<path class="watchpoint-st14" d="M46.3,18.4l1-1.2c0,0.2,0.1,0.5,0.1,0.7l-1,1.2C46.4,18.9,46.4,18.7,46.3,18.4"/>
						<path class="watchpoint-st13" d="M46.5,19.1l1-1.2c0,0.2,0,0.5,0.1,0.7l-1,1.2C46.5,19.6,46.5,19.4,46.5,19.1"/>
						<path class="watchpoint-st12" d="M46.5,19.9l1-1.2c0,0.2,0,0.5,0,0.7l-1,1.2C46.5,20.3,46.5,20.1,46.5,19.9"/>
						<path class="watchpoint-st11" d="M46.5,20.6l1-1.2c0,0.2,0,0.5,0,0.7l-1,1.2C46.5,21.1,46.5,20.8,46.5,20.6"/>
						<path class="watchpoint-st10" d="M46.5,21.3l1-1.2c0,0.2,0,0.5-0.1,0.7l-1,1.2C46.5,21.8,46.5,21.5,46.5,21.3"/>
						<path class="watchpoint-st7" d="M46.4,22l1-1.2c0,0.3-0.1,0.5-0.1,0.8l-1,1.2C46.4,22.5,46.4,22.3,46.4,22"/>
						<path class="watchpoint-st6" d="M46.3,22.8l1-1.2c-0.1,0.3-0.1,0.5-0.2,0.8l-1,1.2C46.2,23.3,46.3,23.1,46.3,22.8"/>
						<path class="watchpoint-st5" d="M46.1,23.6l1-1.2c-0.1,0.3-0.2,0.6-0.3,0.8l-1,1.2C46,24.1,46.1,23.9,46.1,23.6"/>
						<path class="watchpoint-st4" d="M45.9,24.4l1-1.2c-0.1,0.3-0.2,0.6-0.4,0.9l-1,1.2C45.7,25,45.8,24.7,45.9,24.4"/>
						<path class="watchpoint-st3" d="M45.5,25.4l1-1.2c-0.2,0.4-0.4,0.8-0.6,1.1l-1,1.2C45.1,26.1,45.3,25.7,45.5,25.4"/>
						<path class="watchpoint-st2" d="M44.9,26.5l1-1.2c-0.2,0.4-0.5,0.8-0.8,1.2l-1,1.2C44.4,27.3,44.7,26.9,44.9,26.5"/>
					</g>
				</g>
			</g>
		</g>
	</g>
	<circle class="watchpoint-st22" cx="33.9" cy="18.5" r="5.2"/>
	<path class="watchpoint-st23" d="M59.7,19.8C43.4,1.9,25,1.9,7.9,19"/>
	<path class="watchpoint-st24" d="M7.8,17.8C21.4,37,46.2,36.3,60.7,18"/>
</g>
</svg>
