<?xml version="1.0" encoding="utf-8"?>
<!-- Generator: Adobe Illustrator 24.0.1, SVG Export Plug-In . SVG Version: 6.00 Build 0)  -->
<svg class="srw-beamline-item-icon" version="1.1" id="Zone_Plate" xmlns="http://www.w3.org/2000/svg" xmlns:xlink="http://www.w3.org/1999/xlink" x="0px" y="0px"
	 viewBox="0 0 612 792" style="enable-background:new 0 0 612 792;" xml:space="preserve">
<style type="text/css">
	.zonePlate-st0{fill:#FFFFFF;}
	.zonePlate-st1{enable-background:new    ;}
	.zonePlate-st2{clip-path:url(#ZONE_PLATE_SVGID_2_);enable-background:new    ;}
	.zonePlate-st3{fill:#C2C2C2;}
	.zonePlate-st4{fill:#C7C7C7;}
	.zonePlate-st5{fill:#CCCCCC;}
	.zonePlate-st6{fill:#D1D1D1;}
	.zonePlate-st7{clip-path:url(#ZONE_PLATE_SVGID_4_);enable-background:new    ;}
	.zonePlate-st8{fill:#B3B3B3;}
	.zonePlate-st9{fill:#B8B8B8;}
	.zonePlate-st10{fill:#BDBDBD;}
	.zonePlate-st11{clip-path:url(#ZONE_PLATE_SVGID_6_);enable-background:new    ;}
	.zonePlate-st12{fill:#999999;}
	.zonePlate-st13{fill:#9E9E9E;}
	.zonePlate-st14{fill:#A3A3A3;}
	.zonePlate-st15{fill:#A8A8A8;}
	.zonePlate-st16{fill:#ADADAD;}
	.zonePlate-st17{clip-path:url(#ZONE_PLATE_SVGID_8_);enable-background:new    ;}
	.zonePlate-st18{fill:#949494;}
	.zonePlate-st19{clip-path:url(#ZONE_PLATE_SVGID_10_);enable-background:new    ;}
	.zonePlate-st20{fill:#858585;}
	.zonePlate-st21{fill:#8A8A8A;}
	.zonePlate-st22{fill:#8F8F8F;}
	.zonePlate-st23{clip-path:url(#ZONE_PLATE_SVGID_12_);enable-background:new    ;}
	.zonePlate-st24{clip-path:url(#ZONE_PLATE_SVGID_14_);enable-background:new    ;}
	.zonePlate-st25{clip-path:url(#ZONE_PLATE_SVGID_16_);enable-background:new    ;}
	.zonePlate-st26{fill:#4A6722;}
	.zonePlate-st27{fill:#4D6B23;}
	.zonePlate-st28{fill:#506F24;}
	.zonePlate-st29{fill:#537326;}
	.zonePlate-st30{fill:#567727;}
	.zonePlate-st31{fill:#597B28;}
	.zonePlate-st32{fill:#5C7F2A;}
	.zonePlate-st33{fill:#5E832B;}
	.zonePlate-st34{fill:#61872C;}
	.zonePlate-st35{fill:#648B2D;}
	.zonePlate-st36{fill:#678F2F;}
	.zonePlate-st37{fill:#6A9330;}
	.zonePlate-st38{fill:#6D9731;}
	.zonePlate-st39{fill:#709B33;}
	.zonePlate-st40{fill:#729F34;}
	.zonePlate-st41{fill:#75A335;}
	.zonePlate-st42{clip-path:url(#ZONE_PLATE_SVGID_18_);enable-background:new    ;}
	.zonePlate-st43{clip-path:url(#ZONE_PLATE_SVGID_20_);enable-background:new    ;}
	.zonePlate-st44{clip-path:url(#ZONE_PLATE_SVGID_22_);enable-background:new    ;}
	.zonePlate-st45{clip-path:url(#ZONE_PLATE_SVGID_24_);enable-background:new    ;}
	.zonePlate-st46{clip-path:url(#ZONE_PLATE_SVGID_26_);enable-background:new    ;}
	.zonePlate-st47{fill:#D6D6D6;}
	.zonePlate-st48{fill:#DBDBDB;}
	.zonePlate-st49{clip-path:url(#ZONE_PLATE_SVGID_28_);enable-background:new    ;}
	.zonePlate-st50{fill:#78A737;}
	.zonePlate-st51{fill:#7BAB38;}
	.zonePlate-st52{clip-path:url(#ZONE_PLATE_SVGID_30_);enable-background:new    ;}
	.zonePlate-st53{clip-path:url(#ZONE_PLATE_SVGID_32_);enable-background:new    ;}
	.zonePlate-st54{clip-path:url(#ZONE_PLATE_SVGID_34_);enable-background:new    ;}
	.zonePlate-st55{clip-path:url(#ZONE_PLATE_SVGID_36_);enable-background:new    ;}
	.zonePlate-st56{clip-path:url(#ZONE_PLATE_SVGID_38_);enable-background:new    ;}
	.zonePlate-st57{clip-path:url(#ZONE_PLATE_SVGID_40_);enable-background:new    ;}
	.zonePlate-st58{clip-path:url(#ZONE_PLATE_SVGID_42_);enable-background:new    ;}
	.zonePlate-st59{clip-path:url(#ZONE_PLATE_SVGID_44_);enable-background:new    ;}
	.zonePlate-st60{clip-path:url(#ZONE_PLATE_SVGID_46_);enable-background:new    ;}
	.zonePlate-st61{clip-path:url(#ZONE_PLATE_SVGID_48_);enable-background:new    ;}
	.zonePlate-st62{clip-path:url(#ZONE_PLATE_SVGID_50_);enable-background:new    ;}
	.zonePlate-st63{clip-path:url(#ZONE_PLATE_SVGID_52_);enable-background:new    ;}
	.zonePlate-st64{clip-path:url(#ZONE_PLATE_SVGID_54_);enable-background:new    ;}
	.zonePlate-st65{clip-path:url(#ZONE_PLATE_SVGID_56_);enable-background:new    ;}
	.zonePlate-st66{clip-path:url(#ZONE_PLATE_SVGID_58_);enable-background:new    ;}
	.zonePlate-st67{fill:#668E2E;}
	.zonePlate-st68{clip-path:url(#ZONE_PLATE_SVGID_60_);enable-background:new    ;}
	.zonePlate-st69{clip-path:url(#ZONE_PLATE_SVGID_62_);enable-background:new    ;}
	.zonePlate-st70{clip-path:url(#ZONE_PLATE_SVGID_64_);enable-background:new    ;}
	.zonePlate-st71{fill:#B6B6B6;}
	.zonePlate-st72{clip-path:url(#ZONE_PLATE_SVGID_66_);enable-background:new    ;}
	.zonePlate-st73{clip-path:url(#ZONE_PLATE_SVGID_68_);enable-background:new    ;}
	.zonePlate-st74{clip-path:url(#ZONE_PLATE_SVGID_70_);enable-background:new    ;}
	.zonePlate-st75{fill:#3A53A4;}
</style>
<g>
	<rect x="20" y="6.3" class="zonePlate-st0" width="74.2" height="66.2"/>
	<g>
		<g>
			<g class="zonePlate-st1">
				<g class="zonePlate-st1">
					<defs>
						<path id="ZONE_PLATE_SVGID_1_" class="zonePlate-st1" d="M44.9,40.1c-0.1,0.6-0.2,1.2-0.3,1.8c-1.2-0.2-2.4-0.4-3.6-0.6c0-0.6,0.1-1.2,0.3-1.8
							C42.5,39.7,43.7,39.9,44.9,40.1z"/>
					</defs>
					<clipPath id="ZONE_PLATE_SVGID_2_">
						<use xlink:href="#ZONE_PLATE_SVGID_1_"  style="overflow:visible;"/>
					</clipPath>
					<g class="zonePlate-st2">
						<path class="zonePlate-st3" d="M41.3,39.4l3.6,0.6c0,0.2-0.1,0.3-0.1,0.5l-3.6-0.6C41.2,39.7,41.2,39.5,41.3,39.4"/>
						<path class="zonePlate-st4" d="M41.2,39.8l3.6,0.6c0,0.2-0.1,0.3-0.1,0.5l-3.6-0.6C41.1,40.2,41.1,40,41.2,39.8"/>
						<path class="zonePlate-st5" d="M41.1,40.4l3.6,0.6c0,0.2-0.1,0.4-0.1,0.6L41,40.9C41,40.7,41,40.5,41.1,40.4"/>
						<path class="zonePlate-st6" d="M41,40.9l3.6,0.6c0,0.1,0,0.2,0,0.3c0,0.1,0,0.3,0,0.4L41,41.6c0-0.1,0-0.3,0-0.4C41,41.2,41,41,41,40.9"
							/>
					</g>
				</g>
				<g class="zonePlate-st1">
					<defs>
						<path id="ZONE_PLATE_SVGID_3_" class="zonePlate-st1" d="M44.9,40.1c-1.2-0.2-2.4-0.4-3.6-0.6c0.1-0.4,0.2-0.8,0.4-1.2c1.2,0.2,2.4,0.4,3.6,0.6
							C45.1,39.2,45,39.7,44.9,40.1z"/>
					</defs>
					<clipPath id="ZONE_PLATE_SVGID_4_">
						<use xlink:href="#ZONE_PLATE_SVGID_3_"  style="overflow:visible;"/>
					</clipPath>
					<g class="zonePlate-st7">
						<path class="zonePlate-st8" d="M41.7,38.1l3.6,0.6c-0.1,0.1-0.1,0.3-0.2,0.4l-3.6-0.6C41.6,38.4,41.6,38.2,41.7,38.1"/>
						<path class="zonePlate-st9" d="M41.5,38.5l3.6,0.6c-0.1,0.1-0.1,0.3-0.1,0.4l-3.6-0.6C41.4,38.8,41.5,38.6,41.5,38.5"/>
						<path class="zonePlate-st10" d="M41.4,38.9l3.6,0.6c0,0.1-0.1,0.3-0.1,0.4l-3.6-0.6C41.3,39.2,41.4,39.1,41.4,38.9"/>
						<path class="zonePlate-st3" d="M41.3,39.4l3.6,0.6c0,0.2-0.1,0.3-0.1,0.5l-3.6-0.6C41.2,39.7,41.2,39.5,41.3,39.4"/>
					</g>
				</g>
				<g class="zonePlate-st1">
					<defs>
						<path id="ZONE_PLATE_SVGID_5_" class="zonePlate-st1" d="M46.5,36.8c-0.5,0.6-0.9,1.3-1.2,2.1c-1.2-0.2-2.4-0.4-3.6-0.6c0.3-0.8,0.7-1.5,1.2-2.1
							C44.1,36.4,45.3,36.6,46.5,36.8z"/>
					</defs>
					<clipPath id="ZONE_PLATE_SVGID_6_">
						<use xlink:href="#ZONE_PLATE_SVGID_5_"  style="overflow:visible;"/>
					</clipPath>
					<g class="zonePlate-st11">
						<path class="zonePlate-st12" d="M42.9,36.1l3.6,0.6c-0.1,0.1-0.2,0.3-0.3,0.4l-3.6-0.6C42.7,36.4,42.8,36.3,42.9,36.1"/>
						<path class="zonePlate-st13" d="M42.6,36.5l3.6,0.6c-0.1,0.1-0.2,0.3-0.3,0.4l-3.6-0.6C42.4,36.8,42.5,36.7,42.6,36.5"/>
						<path class="zonePlate-st14" d="M42.3,36.9l3.6,0.6c-0.1,0.1-0.2,0.3-0.2,0.4l-3.6-0.6C42.2,37.2,42.2,37,42.3,36.9"/>
						<path class="zonePlate-st15" d="M42.1,37.3l3.6,0.6c-0.1,0.1-0.1,0.3-0.2,0.4l-3.6-0.6C42,37.6,42,37.4,42.1,37.3"/>
						<path class="zonePlate-st16" d="M41.9,37.7l3.6,0.6c-0.1,0.1-0.1,0.3-0.2,0.4l-3.6-0.6C41.8,38,41.8,37.8,41.9,37.7"/>
						<path class="zonePlate-st8" d="M41.7,38.1l3.6,0.6c-0.1,0.1-0.1,0.3-0.2,0.4l-3.6-0.6C41.6,38.4,41.6,38.2,41.7,38.1"/>
					</g>
				</g>
				<g class="zonePlate-st1">
					<defs>
						<path id="ZONE_PLATE_SVGID_7_" class="zonePlate-st1" d="M46.5,36.8c-1.2-0.2-2.4-0.4-3.6-0.6c0.1-0.1,0.2-0.2,0.3-0.4c1.2,0.2,2.4,0.4,3.6,0.6
							C46.7,36.5,46.6,36.6,46.5,36.8z"/>
					</defs>
					<clipPath id="ZONE_PLATE_SVGID_8_">
						<use xlink:href="#ZONE_PLATE_SVGID_7_"  style="overflow:visible;"/>
					</clipPath>
					<g class="zonePlate-st17">
						<path class="zonePlate-st18" d="M43.2,35.7l3.6,0.6c-0.1,0.1-0.2,0.3-0.3,0.4l-3.6-0.6C43,36,43.1,35.9,43.2,35.7"/>
						<path class="zonePlate-st12" d="M42.9,36.1l3.6,0.6c-0.1,0.1-0.2,0.3-0.3,0.4l-3.6-0.6C42.7,36.4,42.8,36.3,42.9,36.1"/>
					</g>
				</g>
				<g class="zonePlate-st1">
					<defs>
						<path id="ZONE_PLATE_SVGID_9_" class="zonePlate-st1" d="M48.2,35.2c-0.5,0.3-1,0.7-1.4,1.2c-1.2-0.2-2.4-0.4-3.6-0.6c0.4-0.5,0.9-0.9,1.4-1.2
							C45.8,34.8,47,35,48.2,35.2z"/>
					</defs>
					<clipPath id="ZONE_PLATE_SVGID_10_">
						<use xlink:href="#ZONE_PLATE_SVGID_9_"  style="overflow:visible;"/>
					</clipPath>
					<g class="zonePlate-st19">
						<path class="zonePlate-st20" d="M48.8,33.6l3.6,0.6c-0.3,0-0.6-0.1-0.9-0.1c-1.3,0-2.6,0.5-3.7,1.3l-3.6-0.6c1.1-0.8,2.4-1.3,3.7-1.3
							C48.2,33.5,48.5,33.6,48.8,33.6"/>
						<path class="zonePlate-st21" d="M44.2,34.8l3.6,0.6c-0.2,0.2-0.4,0.3-0.6,0.5l-3.6-0.6C43.8,35.1,44,35,44.2,34.8"/>
						<path class="zonePlate-st22" d="M43.6,35.3l3.6,0.6c-0.1,0.1-0.3,0.3-0.4,0.4l-3.6-0.6C43.4,35.6,43.5,35.4,43.6,35.3"/>
						<path class="zonePlate-st18" d="M43.2,35.7l3.6,0.6c-0.1,0.1-0.2,0.3-0.3,0.4l-3.6-0.6C43,36,43.1,35.9,43.2,35.7"/>
					</g>
				</g>
				<g class="zonePlate-st1">
					<defs>
						<path id="ZONE_PLATE_SVGID_11_" class="zonePlate-st1" d="M48.2,35.2c0,0-0.1,0-0.1,0c0,0-0.1,0-0.1,0c0,0-0.1,0-0.1,0c0,0-0.1,0-0.2,0
							c0,0-0.1,0-0.1,0c-0.2,0-0.4-0.1-0.6-0.1c-0.8-0.1-1.6-0.3-2.4-0.4c0.2-0.2,0.5-0.3,0.8-0.4c1.2,0.2,2.4,0.4,3.6,0.6
							C48.7,34.9,48.4,35,48.2,35.2z"/>
					</defs>
					<clipPath id="ZONE_PLATE_SVGID_12_">
						<use xlink:href="#ZONE_PLATE_SVGID_11_"  style="overflow:visible;"/>
					</clipPath>
					<g class="zonePlate-st23">
						<path class="zonePlate-st20" d="M48.8,33.6l3.6,0.6c-0.3,0-0.6-0.1-0.9-0.1c-1.3,0-2.6,0.5-3.7,1.3l-3.6-0.6c1.1-0.8,2.4-1.3,3.7-1.3
							C48.2,33.5,48.5,33.6,48.8,33.6"/>
					</g>
				</g>
				<g class="zonePlate-st1">
					<defs>
						<path id="ZONE_PLATE_SVGID_13_" class="zonePlate-st1" d="M52.5,13.5c-13.3,0-24.7,12.7-25.4,28.3c-1.2-0.2-2.4-0.4-3.6-0.6
							c0.7-15.6,12.1-28.3,25.4-28.3C50.1,13.1,51.3,13.3,52.5,13.5z"/>
					</defs>
					<clipPath id="ZONE_PLATE_SVGID_14_">
						<use xlink:href="#ZONE_PLATE_SVGID_13_"  style="overflow:visible;"/>
					</clipPath>
					<g class="zonePlate-st24">
						<path class="zonePlate-st20" d="M52.2,13.2l3.6,0.6c-1.1-0.2-2.2-0.3-3.3-0.3c-4.9,0-9.6,1.7-13.5,4.7l-3.6-0.6c4-3,8.6-4.7,13.5-4.7
							C50,12.9,51.1,13,52.2,13.2"/>
						<path class="zonePlate-st21" d="M35.3,17.7l3.6,0.6c-0.7,0.6-1.4,1.1-2.1,1.8l-3.6-0.6C33.9,18.8,34.6,18.2,35.3,17.7"/>
						<path class="zonePlate-st22" d="M33.2,19.4l3.6,0.6c-0.5,0.5-1.1,1-1.6,1.6L31.6,21C32.2,20.5,32.7,19.9,33.2,19.4"/>
						<path class="zonePlate-st18" d="M31.6,21l3.6,0.6c-0.4,0.5-0.9,1-1.3,1.5l-3.6-0.6C30.8,22,31.2,21.5,31.6,21"/>
						<path class="zonePlate-st12" d="M30.4,22.5l3.6,0.6c-0.4,0.5-0.7,0.9-1.1,1.4l-3.6-0.6C29.6,23.4,30,23,30.4,22.5"/>
						<path class="zonePlate-st13" d="M29.3,23.9l3.6,0.6c-0.3,0.5-0.6,0.9-0.9,1.4l-3.6-0.6C28.7,24.9,29,24.4,29.3,23.9"/>
						<path class="zonePlate-st14" d="M28.4,25.3l3.6,0.6c-0.3,0.5-0.6,0.9-0.8,1.4l-3.6-0.6C27.8,26.3,28.1,25.8,28.4,25.3"/>
						<path class="zonePlate-st15" d="M27.5,26.8l3.6,0.6c-0.3,0.5-0.5,0.9-0.7,1.4l-3.6-0.6C27,27.7,27.3,27.2,27.5,26.8"/>
						<path class="zonePlate-st16" d="M26.8,28.2l3.6,0.6c-0.2,0.5-0.5,1-0.7,1.4l-3.6-0.6C26.3,29.2,26.5,28.7,26.8,28.2"/>
						<path class="zonePlate-st8" d="M26.1,29.6l3.6,0.6c-0.2,0.5-0.4,1-0.6,1.5l-3.6-0.6C25.7,30.6,25.9,30.1,26.1,29.6"/>
						<path class="zonePlate-st9" d="M25.5,31.1l3.6,0.6c-0.2,0.5-0.4,1-0.5,1.5L25,32.7C25.1,32.2,25.3,31.6,25.5,31.1"/>
						<path class="zonePlate-st10" d="M25,32.7l3.6,0.6c-0.2,0.5-0.3,1.1-0.5,1.6l-3.6-0.6C24.6,33.7,24.8,33.2,25,32.7"/>
						<path class="zonePlate-st3" d="M24.5,34.3l3.6,0.6c-0.2,0.6-0.3,1.2-0.4,1.7L24.1,36C24.2,35.4,24.4,34.9,24.5,34.3"/>
						<path class="zonePlate-st4" d="M24.1,36l3.6,0.6c-0.1,0.6-0.2,1.3-0.3,1.9l-3.6-0.6C23.9,37.3,24,36.7,24.1,36"/>
						<path class="zonePlate-st5" d="M23.8,37.9l3.6,0.6c-0.1,0.7-0.2,1.4-0.2,2.1l-3.6-0.6C23.6,39.3,23.7,38.6,23.8,37.9"/>
						<path class="zonePlate-st6" d="M23.5,40.1l3.6,0.6c0,0.4-0.1,0.8-0.1,1.2c0,0.5,0,0.9,0,1.4l-3.6-0.6c0-0.5,0-0.9,0-1.4
							C23.5,40.9,23.5,40.5,23.5,40.1"/>
					</g>
				</g>
				<g class="zonePlate-st1">
					<defs>
						<path id="ZONE_PLATE_SVGID_15_" class="zonePlate-st1" d="M52.4,17C40.7,17,30.6,28.1,30,41.9c-1.2-0.2-2.4-0.4-3.6-0.6C27,27.5,37,16.4,48.7,16.4
							C49.9,16.6,51.1,16.8,52.4,17z"/>
					</defs>
					<clipPath id="ZONE_PLATE_SVGID_16_">
						<use xlink:href="#ZONE_PLATE_SVGID_15_"  style="overflow:visible;"/>
					</clipPath>
					<g class="zonePlate-st25">
						<path class="zonePlate-st26" d="M51.6,16.6l3.6,0.6c-1-0.2-1.9-0.2-2.9-0.2c-4.3,0-8.4,1.5-11.9,4.2l-3.6-0.6c3.5-2.6,7.6-4.2,11.9-4.2
							C49.7,16.4,50.7,16.4,51.6,16.6"/>
						<path class="zonePlate-st27" d="M36.8,20.5l3.6,0.6c-0.6,0.5-1.3,1-1.9,1.6L35,22.1C35.6,21.5,36.2,21,36.8,20.5"/>
						<path class="zonePlate-st28" d="M35,22.1l3.6,0.6c-0.5,0.4-0.9,0.9-1.4,1.4l-3.6-0.6C34,23,34.5,22.5,35,22.1"/>
						<path class="zonePlate-st29" d="M33.6,23.5l3.6,0.6c-0.4,0.4-0.8,0.9-1.1,1.3l-3.6-0.6C32.8,24.3,33.2,23.9,33.6,23.5"/>
						<path class="zonePlate-st30" d="M32.5,24.8l3.6,0.6c-0.3,0.4-0.6,0.8-0.9,1.3L31.5,26C31.8,25.6,32.1,25.2,32.5,24.8"/>
						<path class="zonePlate-st31" d="M31.5,26l3.6,0.6c-0.3,0.4-0.6,0.8-0.8,1.2l-3.6-0.6C31,26.8,31.2,26.4,31.5,26"/>
						<path class="zonePlate-st32" d="M30.7,27.3l3.6,0.6c-0.3,0.4-0.5,0.8-0.7,1.2l-3.6-0.6C30.2,28.1,30.4,27.7,30.7,27.3"/>
						<path class="zonePlate-st33" d="M29.9,28.5l3.6,0.6c-0.2,0.4-0.4,0.8-0.7,1.3l-3.6-0.6C29.5,29.4,29.7,28.9,29.9,28.5"/>
						<path class="zonePlate-st34" d="M29.3,29.8l3.6,0.6c-0.2,0.4-0.4,0.8-0.6,1.3L28.7,31C28.9,30.6,29.1,30.2,29.3,29.8"/>
						<path class="zonePlate-st35" d="M28.7,31l3.6,0.6c-0.2,0.4-0.4,0.9-0.5,1.3l-3.6-0.6C28.3,31.9,28.5,31.5,28.7,31"/>
						<path class="zonePlate-st36" d="M28.2,32.4l3.6,0.6c-0.2,0.4-0.3,0.9-0.5,1.4l-3.6-0.6C27.9,33.3,28,32.8,28.2,32.4"/>
						<path class="zonePlate-st37" d="M27.7,33.7l3.6,0.6c-0.1,0.5-0.3,0.9-0.4,1.4l-3.6-0.6C27.4,34.7,27.6,34.2,27.7,33.7"/>
						<path class="zonePlate-st38" d="M27.3,35.1l3.6,0.6c-0.1,0.5-0.3,1-0.4,1.5l-3.6-0.6C27,36.1,27.2,35.6,27.3,35.1"/>
						<path class="zonePlate-st39" d="M26.9,36.7l3.6,0.6c-0.1,0.6-0.2,1.1-0.3,1.7l-3.6-0.6C26.7,37.8,26.8,37.2,26.9,36.7"/>
						<path class="zonePlate-st40" d="M26.6,38.3l3.6,0.6c-0.1,0.6-0.2,1.3-0.2,1.9l-3.6-0.6C26.5,39.6,26.6,39,26.6,38.3"/>
						<path class="zonePlate-st41" d="M26.4,40.2l3.6,0.6c0,0.3-0.1,0.7-0.1,1c0,0.4,0,0.8,0,1.2l-3.6-0.6c0-0.4,0-0.8,0-1.2
							C26.4,40.9,26.4,40.6,26.4,40.2"/>
					</g>
				</g>
				<g class="zonePlate-st1">
					<defs>
						<path id="ZONE_PLATE_SVGID_17_" class="zonePlate-st1" d="M52.2,20.4c-10.1,0-18.7,9.6-19.3,21.5c-1.2-0.2-2.4-0.4-3.6-0.6
							c0.5-11.8,9.2-21.5,19.3-21.5C49.8,20,51,20.2,52.2,20.4z"/>
					</defs>
					<clipPath id="ZONE_PLATE_SVGID_18_">
						<use xlink:href="#ZONE_PLATE_SVGID_17_"  style="overflow:visible;"/>
					</clipPath>
					<g class="zonePlate-st42">
						<path class="zonePlate-st20" d="M51.1,20l3.6,0.6c-0.8-0.1-1.7-0.2-2.5-0.2c-3.7,0-7.3,1.3-10.3,3.6l-3.6-0.6c3-2.3,6.5-3.6,10.3-3.6
							C49.4,19.8,50.3,19.9,51.1,20"/>
						<path class="zonePlate-st21" d="M38.3,23.4l3.6,0.6c-0.6,0.4-1.1,0.9-1.6,1.3l-3.6-0.6C37.2,24.2,37.7,23.8,38.3,23.4"/>
						<path class="zonePlate-st22" d="M36.7,24.7l3.6,0.6c-0.4,0.4-0.8,0.8-1.2,1.2l-3.6-0.6C35.9,25.5,36.3,25.1,36.7,24.7"/>
						<path class="zonePlate-st18" d="M35.5,25.9l3.6,0.6c-0.3,0.4-0.7,0.7-1,1.1L34.5,27C34.9,26.7,35.2,26.3,35.5,25.9"/>
						<path class="zonePlate-st12" d="M34.5,27l3.6,0.6c-0.3,0.4-0.6,0.7-0.8,1.1l-3.6-0.6C34,27.8,34.3,27.4,34.5,27"/>
						<path class="zonePlate-st13" d="M33.7,28.1l3.6,0.6c-0.2,0.3-0.5,0.7-0.7,1.1L33,29.2C33.2,28.8,33.5,28.5,33.7,28.1"/>
						<path class="zonePlate-st14" d="M33,29.2l3.6,0.6c-0.2,0.4-0.4,0.7-0.6,1.1l-3.6-0.6C32.6,29.9,32.8,29.6,33,29.2"/>
						<path class="zonePlate-st15" d="M32.4,30.3l3.6,0.6c-0.2,0.4-0.4,0.7-0.6,1.1l-3.6-0.6C32,31,32.2,30.6,32.4,30.3"/>
						<path class="zonePlate-st16" d="M31.8,31.4l3.6,0.6c-0.2,0.4-0.3,0.7-0.5,1.1l-3.6-0.6C31.5,32.1,31.6,31.7,31.8,31.4"/>
						<path class="zonePlate-st8" d="M31.3,32.5l3.6,0.6c-0.2,0.4-0.3,0.7-0.5,1.1l-3.6-0.6C31,33.2,31.1,32.8,31.3,32.5"/>
						<path class="zonePlate-st9" d="M30.9,33.6l3.6,0.6c-0.1,0.4-0.3,0.8-0.4,1.2l-3.6-0.6C30.6,34.4,30.7,34,30.9,33.6"/>
						<path class="zonePlate-st10" d="M30.4,34.8l3.6,0.6c-0.1,0.4-0.2,0.8-0.4,1.2L30.1,36C30.2,35.6,30.3,35.2,30.4,34.8"/>
						<path class="zonePlate-st3" d="M30.1,36l3.6,0.6c-0.1,0.4-0.2,0.9-0.3,1.3l-3.6-0.6C29.9,36.9,30,36.4,30.1,36"/>
						<path class="zonePlate-st4" d="M29.8,37.3l3.6,0.6c-0.1,0.5-0.2,1-0.3,1.4l-3.6-0.6C29.6,38.2,29.7,37.8,29.8,37.3"/>
						<path class="zonePlate-st5" d="M29.5,38.7l3.6,0.6C33.1,39.9,33,40.4,33,41l-3.6-0.6C29.4,39.8,29.5,39.3,29.5,38.7"/>
						<path class="zonePlate-st6" d="M29.3,40.4L33,41c0,0.3,0,0.6-0.1,0.9c0,0.4,0,0.7,0,1l-3.6-0.6c0-0.3,0-0.7,0-1
							C29.3,41,29.3,40.7,29.3,40.4"/>
					</g>
				</g>
				<g class="zonePlate-st1">
					<defs>
						<path id="ZONE_PLATE_SVGID_19_" class="zonePlate-st1" d="M52,23.8c-8.5,0-15.7,8.1-16.2,18c-1.2-0.2-2.4-0.4-3.6-0.6c0.5-9.9,7.7-18,16.2-18
							C49.6,23.4,50.8,23.6,52,23.8z"/>
					</defs>
					<clipPath id="ZONE_PLATE_SVGID_20_">
						<use xlink:href="#ZONE_PLATE_SVGID_19_"  style="overflow:visible;"/>
					</clipPath>
					<g class="zonePlate-st43">
						<path class="zonePlate-st26" d="M50.5,23.4l3.6,0.6c-0.7-0.1-1.4-0.2-2.1-0.2c-3.1,0-6.1,1.1-8.6,3l-3.6-0.6c2.5-1.9,5.5-3,8.6-3
							C49.1,23.2,49.8,23.3,50.5,23.4"/>
						<path class="zonePlate-st27" d="M39.8,26.2l3.6,0.6c-0.5,0.4-0.9,0.7-1.3,1.1l-3.6-0.6C38.9,27,39.3,26.6,39.8,26.2"/>
						<path class="zonePlate-st28" d="M38.4,27.4l3.6,0.6c-0.3,0.3-0.7,0.7-1,1l-3.6-0.6C37.8,28,38.1,27.7,38.4,27.4"/>
						<path class="zonePlate-st29" d="M37.4,28.4l3.6,0.6c-0.3,0.3-0.5,0.6-0.8,0.9l-3.6-0.6C36.9,29,37.2,28.7,37.4,28.4"/>
						<path class="zonePlate-st30" d="M36.6,29.3l3.6,0.6c-0.2,0.3-0.5,0.6-0.7,0.9l-3.6-0.6C36.2,29.9,36.4,29.6,36.6,29.3"/>
						<path class="zonePlate-st31" d="M35.9,30.2l3.6,0.6c-0.2,0.3-0.4,0.6-0.6,0.9l-3.6-0.6C35.5,30.8,35.7,30.5,35.9,30.2"/>
						<path class="zonePlate-st32" d="M35.3,31.1l3.6,0.6c-0.2,0.3-0.4,0.6-0.5,0.9L34.8,32C35,31.7,35.2,31.4,35.3,31.1"/>
						<path class="zonePlate-st33" d="M34.8,32l3.6,0.6c-0.2,0.3-0.3,0.6-0.5,0.9l-3.6-0.6C34.5,32.6,34.6,32.3,34.8,32"/>
						<path class="zonePlate-st34" d="M34.3,32.9l3.6,0.6c-0.1,0.3-0.3,0.6-0.4,0.9l-3.6-0.6C34,33.6,34.2,33.2,34.3,32.9"/>
						<path class="zonePlate-st35" d="M33.9,33.9l3.6,0.6c-0.1,0.3-0.3,0.6-0.4,0.9l-3.6-0.6C33.6,34.5,33.8,34.2,33.9,33.9"/>
						<path class="zonePlate-st36" d="M33.5,34.8l3.6,0.6c-0.1,0.3-0.2,0.7-0.3,1l-3.6-0.6C33.3,35.5,33.4,35.1,33.5,34.8"/>
						<path class="zonePlate-st37" d="M33.2,35.8l3.6,0.6c-0.1,0.3-0.2,0.7-0.3,1l-3.6-0.6C33,36.5,33.1,36.1,33.2,35.8"/>
						<path class="zonePlate-st38" d="M32.9,36.8l3.6,0.6c-0.1,0.4-0.2,0.7-0.3,1.1l-3.6-0.6C32.7,37.6,32.8,37.2,32.9,36.8"/>
						<path class="zonePlate-st39" d="M32.6,37.9l3.6,0.6c-0.1,0.4-0.2,0.8-0.2,1.2l-3.6-0.6C32.5,38.7,32.5,38.3,32.6,37.9"/>
						<path class="zonePlate-st40" d="M32.4,39.1l3.6,0.6c-0.1,0.5-0.1,0.9-0.2,1.4l-3.6-0.6C32.3,40,32.3,39.6,32.4,39.1"/>
						<path class="zonePlate-st41" d="M32.3,40.5l3.6,0.6c0,0.3,0,0.5,0,0.8c0,0.3,0,0.6,0,0.9l-3.6-0.6c0-0.3,0-0.6,0-0.9
							C32.2,41,32.2,40.8,32.3,40.5"/>
					</g>
				</g>
				<g class="zonePlate-st1">
					<defs>
						<path id="ZONE_PLATE_SVGID_21_" class="zonePlate-st1" d="M51.9,27.3c-6.8,0-12.7,6.6-13.1,14.6c-1.2-0.2-2.4-0.4-3.6-0.6c0.4-8,6.3-14.6,13.1-14.6
							C49.4,26.9,50.7,27.1,51.9,27.3z"/>
					</defs>
					<clipPath id="ZONE_PLATE_SVGID_22_">
						<use xlink:href="#ZONE_PLATE_SVGID_21_"  style="overflow:visible;"/>
					</clipPath>
					<g class="zonePlate-st44">
						<path class="zonePlate-st20" d="M50,26.8l3.6,0.6c-0.6-0.1-1.1-0.1-1.7-0.1c-2.5,0-4.9,0.9-7,2.4l-3.6-0.6c2-1.5,4.4-2.4,7-2.4
							C48.8,26.7,49.4,26.7,50,26.8"/>
						<path class="zonePlate-st21" d="M41.3,29.1l3.6,0.6c-0.4,0.3-0.7,0.6-1.1,0.9L40.2,30C40.5,29.7,40.9,29.4,41.3,29.1"/>
						<path class="zonePlate-st22" d="M40.2,30l3.6,0.6c-0.3,0.3-0.5,0.5-0.8,0.8l-3.6-0.6C39.6,30.5,39.9,30.3,40.2,30"/>
						<path class="zonePlate-st18" d="M39.4,30.8l3.6,0.6c-0.2,0.2-0.4,0.5-0.7,0.8l-3.6-0.6C38.9,31.3,39.1,31.1,39.4,30.8"/>
						<path class="zonePlate-st12" d="M38.7,31.6l3.6,0.6c-0.2,0.2-0.4,0.5-0.6,0.7l-3.6-0.6C38.3,32.1,38.5,31.8,38.7,31.6"/>
						<path class="zonePlate-st13" d="M38.2,32.3l3.6,0.6c-0.2,0.2-0.3,0.5-0.5,0.7l-3.6-0.6C37.8,32.8,38,32.6,38.2,32.3"/>
						<path class="zonePlate-st14" d="M37.7,33.1l3.6,0.6c-0.1,0.2-0.3,0.5-0.4,0.7l-3.6-0.6C37.4,33.5,37.5,33.3,37.7,33.1"/>
						<path class="zonePlate-st15" d="M37.2,33.8l3.6,0.6c-0.1,0.2-0.3,0.5-0.4,0.7l-3.6-0.6C37,34.3,37.1,34,37.2,33.8"/>
						<path class="zonePlate-st16" d="M36.8,34.5l3.6,0.6c-0.1,0.2-0.2,0.5-0.3,0.7l-3.6-0.6C36.6,35,36.7,34.8,36.8,34.5"/>
						<path class="zonePlate-st8" d="M36.5,35.3l3.6,0.6c-0.1,0.3-0.2,0.5-0.3,0.8L36.2,36C36.3,35.8,36.4,35.5,36.5,35.3"/>
						<path class="zonePlate-st9" d="M36.2,36l3.6,0.6c-0.1,0.3-0.2,0.5-0.3,0.8l-3.6-0.6C36,36.6,36.1,36.3,36.2,36"/>
						<path class="zonePlate-st10" d="M35.9,36.8l3.6,0.6c-0.1,0.3-0.2,0.6-0.2,0.8l-3.6-0.6C35.8,37.4,35.8,37.1,35.9,36.8"/>
						<path class="zonePlate-st3" d="M35.7,37.7l3.6,0.6c-0.1,0.3-0.1,0.6-0.2,0.9l-3.6-0.6C35.5,38.3,35.6,38,35.7,37.7"/>
						<path class="zonePlate-st4" d="M35.5,38.6l3.6,0.6c-0.1,0.3-0.1,0.6-0.2,1l-3.6-0.6C35.3,39.2,35.4,38.9,35.5,38.6"/>
						<path class="zonePlate-st5" d="M35.3,39.5l3.6,0.6c-0.1,0.4-0.1,0.7-0.1,1.1l-3.6-0.6C35.2,40.3,35.2,39.9,35.3,39.5"/>
						<path class="zonePlate-st6" d="M35.2,40.7l3.6,0.6c0,0.2,0,0.4,0,0.6c0,0.2,0,0.5,0,0.7L35.1,42c0-0.2,0-0.5,0-0.7
							C35.1,41.1,35.2,40.9,35.2,40.7"/>
					</g>
				</g>
				<g class="zonePlate-st1">
					<defs>
						<path id="ZONE_PLATE_SVGID_23_" class="zonePlate-st1" d="M51.7,30.7c-5.2,0-9.7,5-10,11.2c-1.2-0.2-2.4-0.4-3.6-0.6c0.3-6.2,4.8-11.2,10-11.2
							C49.3,30.3,50.5,30.5,51.7,30.7z"/>
					</defs>
					<clipPath id="ZONE_PLATE_SVGID_24_">
						<use xlink:href="#ZONE_PLATE_SVGID_23_"  style="overflow:visible;"/>
					</clipPath>
					<g class="zonePlate-st45">
						<path class="zonePlate-st26" d="M49.4,30.2l3.6,0.6c-0.4-0.1-0.9-0.1-1.3-0.1c-1.9,0-3.8,0.7-5.3,1.9L42.7,32c1.6-1.2,3.4-1.9,5.3-1.9
							C48.5,30.1,49,30.1,49.4,30.2"/>
						<path class="zonePlate-st27" d="M42.7,32l3.6,0.6c-0.3,0.2-0.6,0.5-0.8,0.7l-3.6-0.6C42.2,32.4,42.5,32.2,42.7,32"/>
						<path class="zonePlate-st28" d="M41.9,32.7l3.6,0.6c-0.2,0.2-0.4,0.4-0.6,0.6l-3.6-0.6C41.5,33.1,41.7,32.9,41.9,32.7"/>
						<path class="zonePlate-st29" d="M41.3,33.3l3.6,0.6c-0.2,0.2-0.3,0.4-0.5,0.6l-3.6-0.6C41,33.7,41.1,33.5,41.3,33.3"/>
						<path class="zonePlate-st30" d="M40.8,33.9l3.6,0.6c-0.1,0.2-0.3,0.4-0.4,0.6l-3.6-0.6C40.5,34.2,40.6,34.1,40.8,33.9"/>
						<path class="zonePlate-st31" d="M40.4,34.4L44,35c-0.1,0.2-0.3,0.4-0.4,0.6L40,35C40.1,34.8,40.2,34.6,40.4,34.4"/>
						<path class="zonePlate-st32" d="M40,35l3.6,0.6c-0.1,0.2-0.2,0.4-0.3,0.6l-3.6-0.6C39.8,35.4,39.9,35.2,40,35"/>
						<path class="zonePlate-st33" d="M39.7,35.6l3.6,0.6c-0.1,0.2-0.2,0.4-0.3,0.6l-3.6-0.6C39.5,35.9,39.6,35.7,39.7,35.6"/>
						<path class="zonePlate-st34" d="M39.4,36.1l3.6,0.6c-0.1,0.2-0.2,0.4-0.3,0.6l-3.6-0.6C39.2,36.5,39.3,36.3,39.4,36.1"/>
						<path class="zonePlate-st35" d="M39.1,36.7l3.6,0.6c-0.1,0.2-0.2,0.4-0.2,0.6l-3.6-0.6C38.9,37.1,39,36.9,39.1,36.7"/>
						<path class="zonePlate-st36" d="M38.9,37.3l3.6,0.6c-0.1,0.2-0.1,0.4-0.2,0.6l-3.6-0.6C38.7,37.7,38.8,37.5,38.9,37.3"/>
						<path class="zonePlate-st37" d="M38.7,37.9l3.6,0.6c-0.1,0.2-0.1,0.4-0.2,0.6l-3.6-0.6C38.5,38.3,38.6,38.1,38.7,37.9"/>
						<path class="zonePlate-st38" d="M38.5,38.5l3.6,0.6c-0.1,0.2-0.1,0.5-0.2,0.7l-3.6-0.6C38.4,39,38.4,38.7,38.5,38.5"/>
						<path class="zonePlate-st39" d="M38.3,39.2l3.6,0.6c-0.1,0.2-0.1,0.5-0.1,0.7L38.2,40C38.2,39.7,38.3,39.4,38.3,39.2"/>
						<path class="zonePlate-st40" d="M38.2,40l3.6,0.6c0,0.3-0.1,0.6-0.1,0.8l-3.6-0.6C38.1,40.5,38.1,40.2,38.2,40"/>
						<path class="zonePlate-st41" d="M38.1,40.8l3.6,0.6c0,0.2,0,0.3,0,0.5c0,0.2,0,0.4,0,0.5L38,41.8c0-0.2,0-0.4,0-0.5
							C38.1,41.1,38.1,41,38.1,40.8"/>
					</g>
				</g>
				<g class="zonePlate-st1">
					<defs>
						<path id="ZONE_PLATE_SVGID_25_" class="zonePlate-st1" d="M27.1,41.9C26.4,56.2,34.9,68,46.6,69.9l-3.6-0.6c-11.6-1.9-20.1-13.8-19.5-28.1
							C24.7,41.5,25.9,41.7,27.1,41.9z"/>
					</defs>
					<clipPath id="ZONE_PLATE_SVGID_26_">
						<use xlink:href="#ZONE_PLATE_SVGID_25_"  style="overflow:visible;"/>
					</clipPath>
					<g class="zonePlate-st46">
						<path class="zonePlate-st6" d="M23.5,40.1l3.6,0.6c0,0.4-0.1,0.8-0.1,1.2c0,0.5,0,0.9,0,1.4l-3.6-0.6c0-0.5,0-0.9,0-1.4
							C23.5,40.9,23.5,40.5,23.5,40.1"/>
						<path class="zonePlate-st47" d="M23.4,42.6l3.6,0.6c0,1.2,0,2.3,0.2,3.4l-3.6-0.6C23.5,45,23.4,43.8,23.4,42.6"/>
						<path class="zonePlate-st48" d="M23.6,46.1l3.6,0.6c0.3,3.3,1.2,6.5,2.4,9.3L26,55.4C24.7,52.6,23.9,49.4,23.6,46.1"/>
						<path class="zonePlate-st47" d="M26,55.4l3.6,0.6c0.5,1,1,2,1.5,3l-3.6-0.6C27,57.4,26.5,56.4,26,55.4"/>
						<path class="zonePlate-st6" d="M27.6,58.4l3.6,0.6c0.4,0.7,0.8,1.3,1.3,2l-3.6-0.6C28.4,59.7,28,59.1,27.6,58.4"/>
						<path class="zonePlate-st5" d="M28.9,60.3l3.6,0.6c0.4,0.5,0.8,1,1.2,1.5l-3.6-0.6C29.6,61.4,29.2,60.9,28.9,60.3"/>
						<path class="zonePlate-st4" d="M30.1,61.9l3.6,0.6c0.4,0.4,0.8,0.9,1.2,1.3l-3.6-0.6C30.8,62.8,30.5,62.3,30.1,61.9"/>
						<path class="zonePlate-st3" d="M31.3,63.2l3.6,0.6c0.4,0.4,0.8,0.8,1.2,1.1l-3.6-0.6C32,63.9,31.6,63.5,31.3,63.2"/>
						<path class="zonePlate-st10" d="M32.4,64.3l3.6,0.6c0.4,0.3,0.8,0.7,1.2,1l-3.6-0.6C33.2,64.9,32.8,64.6,32.4,64.3"/>
						<path class="zonePlate-st9" d="M33.6,65.2l3.6,0.6c0.4,0.3,0.8,0.6,1.2,0.8l-3.6-0.6C34.3,65.8,34,65.5,33.6,65.2"/>
						<path class="zonePlate-st8" d="M34.7,66.1l3.6,0.6c0.4,0.3,0.8,0.5,1.2,0.7l-3.6-0.6C35.5,66.6,35.1,66.3,34.7,66.1"/>
						<path class="zonePlate-st16" d="M35.9,66.8l3.6,0.6c0.4,0.2,0.8,0.5,1.2,0.7l-3.6-0.6C36.7,67.3,36.3,67,35.9,66.8"/>
						<path class="zonePlate-st15" d="M37.2,67.5l3.6,0.6c0.4,0.2,0.8,0.4,1.3,0.6L38.4,68C38,67.9,37.6,67.7,37.2,67.5"/>
						<path class="zonePlate-st14" d="M38.4,68l3.6,0.6c0.4,0.2,0.9,0.3,1.3,0.5l-3.6-0.6C39.3,68.4,38.9,68.2,38.4,68"/>
						<path class="zonePlate-st13" d="M39.8,68.5l3.6,0.6c0.5,0.2,0.9,0.3,1.4,0.4L41.2,69C40.7,68.8,40.2,68.7,39.8,68.5"/>
						<path class="zonePlate-st12" d="M41.2,69l3.6,0.6c0.5,0.1,1,0.2,1.5,0.3l-3.6-0.6C42.2,69.2,41.7,69.1,41.2,69"/>
						<path class="zonePlate-st18" d="M42.7,69.3l3.6,0.6c0.1,0,0.2,0,0.2,0l-3.6-0.6C42.8,69.3,42.8,69.3,42.7,69.3"/>
					</g>
				</g>
				<g class="zonePlate-st1">
					<defs>
						<path id="ZONE_PLATE_SVGID_27_" class="zonePlate-st1" d="M30,41.9c-0.6,12.6,6.9,23,17.1,24.7l-3.6-0.6c-10.2-1.7-17.7-12.1-17.1-24.7
							C27.6,41.5,28.8,41.7,30,41.9z"/>
					</defs>
					<clipPath id="ZONE_PLATE_SVGID_28_">
						<use xlink:href="#ZONE_PLATE_SVGID_27_"  style="overflow:visible;"/>
					</clipPath>
					<g class="zonePlate-st49">
						<path class="zonePlate-st41" d="M26.4,40.2l3.6,0.6c0,0.3-0.1,0.7-0.1,1c0,0.4,0,0.8,0,1.2l-3.6-0.6c0-0.4,0-0.8,0-1.2
							C26.4,40.9,26.4,40.6,26.4,40.2"/>
						<path class="zonePlate-st50" d="M26.3,42.5l3.6,0.6c0,1,0,2,0.1,3l-3.6-0.6C26.4,44.5,26.3,43.5,26.3,42.5"/>
						<path class="zonePlate-st51" d="M26.5,45.5l3.6,0.6c0.3,2.9,1,5.7,2.1,8.2l-3.6-0.6C27.5,51.2,26.8,48.4,26.5,45.5"/>
						<path class="zonePlate-st50" d="M28.6,53.7l3.6,0.6c0.4,0.9,0.9,1.8,1.4,2.6L30,56.3C29.5,55.5,29,54.6,28.6,53.7"/>
						<path class="zonePlate-st41" d="M30,56.3l3.6,0.6c0.4,0.6,0.7,1.2,1.1,1.7L31.1,58C30.7,57.5,30.3,56.9,30,56.3"/>
						<path class="zonePlate-st40" d="M31.1,58l3.6,0.6c0.3,0.5,0.7,0.9,1.1,1.4l-3.6-0.6C31.8,58.9,31.5,58.5,31.1,58"/>
						<path class="zonePlate-st39" d="M32.2,59.4l3.6,0.6c0.3,0.4,0.7,0.8,1,1.1l-3.6-0.6C32.9,60.1,32.5,59.8,32.2,59.4"/>
						<path class="zonePlate-st38" d="M33.2,60.5l3.6,0.6c0.3,0.3,0.7,0.7,1,1l-3.6-0.6C33.9,61.2,33.6,60.8,33.2,60.5"/>
						<path class="zonePlate-st37" d="M34.3,61.5l3.6,0.6c0.3,0.3,0.7,0.6,1,0.8l-3.6-0.6C34.9,62.1,34.6,61.8,34.3,61.5"/>
						<path class="zonePlate-st36" d="M35.3,62.3l3.6,0.6c0.3,0.3,0.7,0.5,1,0.7l-3.6-0.6C35.9,62.8,35.6,62.6,35.3,62.3"/>
						<path class="zonePlate-st35" d="M36.3,63.1l3.6,0.6c0.3,0.2,0.7,0.4,1,0.7l-3.6-0.6C37,63.5,36.6,63.3,36.3,63.1"/>
						<path class="zonePlate-st34" d="M37.3,63.7l3.6,0.6c0.4,0.2,0.7,0.4,1.1,0.6l-3.6-0.6C38.1,64.1,37.7,63.9,37.3,63.7"/>
						<path class="zonePlate-st33" d="M38.4,64.3l3.6,0.6c0.4,0.2,0.7,0.3,1.1,0.5l-3.6-0.6C39.2,64.6,38.8,64.5,38.4,64.3"/>
						<path class="zonePlate-st32" d="M39.5,64.8l3.6,0.6c0.4,0.2,0.8,0.3,1.2,0.4l-3.6-0.6C40.3,65.1,39.9,65,39.5,64.8"/>
						<path class="zonePlate-st31" d="M40.7,65.2l3.6,0.6c0.4,0.1,0.8,0.3,1.2,0.4l-3.6-0.6C41.5,65.5,41.1,65.4,40.7,65.2"/>
						<path class="zonePlate-st30" d="M41.9,65.6l3.6,0.6c0.4,0.1,0.9,0.2,1.3,0.3l-3.6-0.6C42.8,65.8,42.4,65.7,41.9,65.6"/>
						<path class="zonePlate-st29" d="M43.3,65.9l3.6,0.6c0.1,0,0.1,0,0.2,0l-3.6-0.6C43.4,65.9,43.3,65.9,43.3,65.9"/>
					</g>
				</g>
				<g class="zonePlate-st1">
					<defs>
						<path id="ZONE_PLATE_SVGID_29_" class="zonePlate-st1" d="M32.9,41.9c-0.5,10.8,5.9,19.8,14.7,21.3L44,62.5c-8.8-1.5-15.2-10.4-14.7-21.3
							C30.5,41.5,31.7,41.7,32.9,41.9z"/>
					</defs>
					<clipPath id="ZONE_PLATE_SVGID_30_">
						<use xlink:href="#ZONE_PLATE_SVGID_29_"  style="overflow:visible;"/>
					</clipPath>
					<g class="zonePlate-st52">
						<path class="zonePlate-st6" d="M29.3,40.4L33,41c0,0.3,0,0.6-0.1,0.9c0,0.4,0,0.7,0,1l-3.6-0.6c0-0.3,0-0.7,0-1
							C29.3,41,29.3,40.7,29.3,40.4"/>
						<path class="zonePlate-st47" d="M29.3,42.3l3.6,0.6c0,0.9,0,1.8,0.1,2.6l-3.6-0.6C29.3,44.1,29.3,43.2,29.3,42.3"/>
						<path class="zonePlate-st48" d="M29.4,44.9l3.6,0.6c0.3,2.5,0.9,4.9,1.9,7.1L31.2,52C30.3,49.8,29.6,47.5,29.4,44.9"/>
						<path class="zonePlate-st47" d="M31.2,52l3.6,0.6c0.3,0.8,0.7,1.5,1.2,2.2l-3.6-0.6C32,53.5,31.6,52.8,31.2,52"/>
						<path class="zonePlate-st6" d="M32.4,54.2l3.6,0.6c0.3,0.5,0.6,1,1,1.5l-3.6-0.6C33,55.2,32.7,54.7,32.4,54.2"/>
						<path class="zonePlate-st5" d="M33.4,55.7l3.6,0.6c0.3,0.4,0.6,0.8,0.9,1.2l-3.6-0.6C34,56.5,33.7,56.1,33.4,55.7"/>
						<path class="zonePlate-st4" d="M34.3,56.9l3.6,0.6c0.3,0.3,0.6,0.7,0.9,1l-3.6-0.6C34.9,57.5,34.6,57.2,34.3,56.9"/>
						<path class="zonePlate-st3" d="M35.2,57.8l3.6,0.6c0.3,0.3,0.6,0.6,0.9,0.8l-3.6-0.6C35.8,58.4,35.5,58.1,35.2,57.8"/>
						<path class="zonePlate-st10" d="M36.1,58.7l3.6,0.6c0.3,0.3,0.6,0.5,0.9,0.7L37,59.4C36.7,59.2,36.4,58.9,36.1,58.7"/>
						<path class="zonePlate-st9" d="M37,59.4l3.6,0.6c0.3,0.2,0.6,0.4,0.9,0.6L37.8,60C37.5,59.8,37.3,59.6,37,59.4"/>
						<path class="zonePlate-st8" d="M37.8,60l3.6,0.6c0.3,0.2,0.6,0.4,0.9,0.6l-3.6-0.6C38.4,60.4,38.1,60.2,37.8,60"/>
						<path class="zonePlate-st16" d="M38.7,60.6l3.6,0.6c0.3,0.2,0.6,0.3,0.9,0.5l-3.6-0.6C39.4,61,39.1,60.8,38.7,60.6"/>
						<path class="zonePlate-st15" d="M39.7,61.1l3.6,0.6c0.3,0.2,0.6,0.3,1,0.4l-3.6-0.6C40.3,61.4,40,61.3,39.7,61.1"/>
						<path class="zonePlate-st14" d="M40.6,61.5l3.6,0.6c0.3,0.1,0.7,0.3,1,0.4l-3.6-0.6C41.3,61.8,41,61.7,40.6,61.5"/>
						<path class="zonePlate-st13" d="M41.6,61.9l3.6,0.6c0.4,0.1,0.7,0.2,1.1,0.3l-3.6-0.6C42.3,62.1,42,62,41.6,61.9"/>
						<path class="zonePlate-st12" d="M42.7,62.2l3.6,0.6c0.4,0.1,0.8,0.2,1.2,0.3l-3.6-0.6C43.5,62.4,43.1,62.3,42.7,62.2"/>
						<path class="zonePlate-st18" d="M43.9,62.5l3.6,0.6c0.1,0,0.1,0,0.2,0L44,62.5C44,62.5,43.9,62.5,43.9,62.5"/>
					</g>
				</g>
				<g class="zonePlate-st1">
					<defs>
						<path id="ZONE_PLATE_SVGID_31_" class="zonePlate-st1" d="M35.9,41.9c-0.4,9.1,5,16.6,12.4,17.9l-3.6-0.6c-7.4-1.2-12.8-8.8-12.4-17.9
							C33.4,41.5,34.6,41.7,35.9,41.9z"/>
					</defs>
					<clipPath id="ZONE_PLATE_SVGID_32_">
						<use xlink:href="#ZONE_PLATE_SVGID_31_"  style="overflow:visible;"/>
					</clipPath>
					<g class="zonePlate-st53">
						<path class="zonePlate-st41" d="M32.3,40.5l3.6,0.6c0,0.3,0,0.5,0,0.8c0,0.3,0,0.6,0,0.9l-3.6-0.6c0-0.3,0-0.6,0-0.9
							C32.2,41,32.2,40.8,32.3,40.5"/>
						<path class="zonePlate-st50" d="M32.2,42.1l3.6,0.6c0,0.7,0,1.5,0.1,2.2l-3.6-0.6C32.2,43.6,32.2,42.9,32.2,42.1"/>
						<path class="zonePlate-st51" d="M32.3,44.3l3.6,0.6c0.2,2.1,0.8,4.1,1.6,5.9l-3.6-0.6C33,48.5,32.5,46.5,32.3,44.3"/>
						<path class="zonePlate-st50" d="M33.8,50.3l3.6,0.6c0.3,0.7,0.6,1.3,1,1.9l-3.6-0.6C34.5,51.6,34.1,50.9,33.8,50.3"/>
						<path class="zonePlate-st41" d="M34.8,52.2l3.6,0.6c0.3,0.4,0.5,0.8,0.8,1.2l-3.6-0.6C35.4,53,35.1,52.6,34.8,52.2"/>
						<path class="zonePlate-st40" d="M35.7,53.4l3.6,0.6c0.2,0.3,0.5,0.7,0.8,1l-3.6-0.6C36.2,54.1,35.9,53.7,35.7,53.4"/>
						<path class="zonePlate-st39" d="M36.4,54.4l3.6,0.6c0.2,0.3,0.5,0.6,0.8,0.8l-3.6-0.6C36.9,54.9,36.7,54.7,36.4,54.4"/>
						<path class="zonePlate-st38" d="M37.2,55.2l3.6,0.6c0.2,0.2,0.5,0.5,0.7,0.7l-3.6-0.6C37.7,55.7,37.4,55.4,37.2,55.2"/>
						<path class="zonePlate-st37" d="M37.9,55.9l3.6,0.6c0.2,0.2,0.5,0.4,0.7,0.6l-3.6-0.6C38.4,56.3,38.2,56.1,37.9,55.9"/>
						<path class="zonePlate-st36" d="M38.7,56.5l3.6,0.6c0.2,0.2,0.5,0.4,0.7,0.5L39.4,57C39.1,56.9,38.9,56.7,38.7,56.5"/>
						<path class="zonePlate-st35" d="M39.4,57l3.6,0.6c0.2,0.2,0.5,0.3,0.8,0.5l-3.6-0.6C39.9,57.4,39.6,57.2,39.4,57"/>
						<path class="zonePlate-st34" d="M40.2,57.5l3.6,0.6c0.3,0.1,0.5,0.3,0.8,0.4l-3.6-0.6C40.7,57.8,40.4,57.7,40.2,57.5"/>
						<path class="zonePlate-st33" d="M40.9,57.9l3.6,0.6c0.3,0.1,0.5,0.3,0.8,0.4l-3.6-0.6C41.5,58.2,41.2,58.1,40.9,57.9"/>
						<path class="zonePlate-st32" d="M41.7,58.3l3.6,0.6c0.3,0.1,0.6,0.2,0.8,0.3l-3.6-0.6C42.3,58.5,42,58.4,41.7,58.3"/>
						<path class="zonePlate-st31" d="M42.6,58.6l3.6,0.6c0.3,0.1,0.6,0.2,0.9,0.3l-3.6-0.6C43.2,58.8,42.9,58.7,42.6,58.6"/>
						<path class="zonePlate-st30" d="M43.5,58.9l3.6,0.6c0.3,0.1,0.6,0.2,1,0.2l-3.6-0.6C44.1,59,43.8,59,43.5,58.9"/>
						<path class="zonePlate-st29" d="M44.5,59.1l3.6,0.6c0,0,0.1,0,0.1,0l-3.6-0.6C44.6,59.1,44.5,59.1,44.5,59.1"/>
					</g>
				</g>
				<g class="zonePlate-st1">
					<defs>
						<path id="ZONE_PLATE_SVGID_33_" class="zonePlate-st1" d="M38.8,41.9c-0.3,7.4,4,13.5,10,14.5l-3.6-0.6c-6-1-10.4-7.1-10-14.5
							C36.3,41.5,37.6,41.7,38.8,41.9z"/>
					</defs>
					<clipPath id="ZONE_PLATE_SVGID_34_">
						<use xlink:href="#ZONE_PLATE_SVGID_33_"  style="overflow:visible;"/>
					</clipPath>
					<g class="zonePlate-st54">
						<path class="zonePlate-st6" d="M35.2,40.7l3.6,0.6c0,0.2,0,0.4,0,0.6c0,0.2,0,0.5,0,0.7L35.1,42c0-0.2,0-0.5,0-0.7
							C35.1,41.1,35.2,40.9,35.2,40.7"/>
						<path class="zonePlate-st47" d="M35.1,42l3.6,0.6c0,0.6,0,1.2,0.1,1.8l-3.6-0.6C35.1,43.2,35.1,42.6,35.1,42"/>
						<path class="zonePlate-st48" d="M35.2,43.7l3.6,0.6c0.2,1.7,0.6,3.3,1.3,4.8l-3.6-0.6C35.8,47.1,35.4,45.5,35.2,43.7"/>
						<path class="zonePlate-st47" d="M36.5,48.5l3.6,0.6c0.2,0.5,0.5,1,0.8,1.5l-3.6-0.6C37,49.6,36.7,49.1,36.5,48.5"/>
						<path class="zonePlate-st6" d="M37.3,50.1l3.6,0.6c0.2,0.3,0.4,0.7,0.7,1l-3.6-0.6C37.7,50.8,37.5,50.4,37.3,50.1"/>
						<path class="zonePlate-st5" d="M37.9,51.1l3.6,0.6c0.2,0.3,0.4,0.5,0.6,0.8l-3.6-0.6C38.3,51.6,38.1,51.4,37.9,51.1"/>
						<path class="zonePlate-st4" d="M38.5,51.9l3.6,0.6c0.2,0.2,0.4,0.4,0.6,0.7l-3.6-0.6C38.9,52.3,38.7,52.1,38.5,51.9"/>
						<path class="zonePlate-st3" d="M39.2,52.5l3.6,0.6c0.2,0.2,0.4,0.4,0.6,0.6l-3.6-0.6C39.6,52.9,39.4,52.7,39.2,52.5"/>
						<path class="zonePlate-st10" d="M39.8,53.1l3.6,0.6c0.2,0.2,0.4,0.3,0.6,0.5l-3.6-0.6C40.2,53.4,40,53.3,39.8,53.1"/>
						<path class="zonePlate-st9" d="M40.4,53.6l3.6,0.6c0.2,0.2,0.4,0.3,0.6,0.4L41,54C40.8,53.9,40.6,53.8,40.4,53.6"/>
						<path class="zonePlate-st8" d="M41,54l3.6,0.6c0.2,0.1,0.4,0.3,0.6,0.4l-3.6-0.6C41.4,54.3,41.2,54.2,41,54"/>
						<path class="zonePlate-st16" d="M41.6,54.4l3.6,0.6c0.2,0.1,0.4,0.2,0.6,0.3l-3.6-0.6C42,54.7,41.8,54.5,41.6,54.4"/>
						<path class="zonePlate-st15" d="M42.2,54.8l3.6,0.6c0.2,0.1,0.4,0.2,0.7,0.3l-3.6-0.6C42.6,55,42.4,54.9,42.2,54.8"/>
						<path class="zonePlate-st14" d="M42.9,55.1l3.6,0.6c0.2,0.1,0.5,0.2,0.7,0.3l-3.6-0.6C43.3,55.2,43.1,55.1,42.9,55.1"/>
						<path class="zonePlate-st13" d="M43.5,55.3l3.6,0.6c0.2,0.1,0.5,0.2,0.7,0.2l-3.6-0.6C44,55.5,43.8,55.4,43.5,55.3"/>
						<path class="zonePlate-st12" d="M44.3,55.5l3.6,0.6c0.3,0.1,0.5,0.1,0.8,0.2L45,55.7C44.8,55.7,44.5,55.6,44.3,55.5"/>
						<path class="zonePlate-st18" d="M45,55.7l3.6,0.6c0,0,0.1,0,0.1,0l-3.6-0.6C45.1,55.7,45.1,55.7,45,55.7"/>
					</g>
				</g>
				<g class="zonePlate-st1">
					<defs>
						<path id="ZONE_PLATE_SVGID_35_" class="zonePlate-st1" d="M41.7,41.9c-0.3,5.6,3.1,10.3,7.7,11.1l-3.6-0.6c-4.6-0.8-7.9-5.4-7.7-11.1
							C39.3,41.5,40.5,41.7,41.7,41.9z"/>
					</defs>
					<clipPath id="ZONE_PLATE_SVGID_36_">
						<use xlink:href="#ZONE_PLATE_SVGID_35_"  style="overflow:visible;"/>
					</clipPath>
					<g class="zonePlate-st55">
						<path class="zonePlate-st41" d="M38.1,40.8l3.6,0.6c0,0.2,0,0.3,0,0.5c0,0.2,0,0.4,0,0.5L38,41.8c0-0.2,0-0.4,0-0.5
							C38.1,41.1,38.1,41,38.1,40.8"/>
						<path class="zonePlate-st50" d="M38,41.8l3.6,0.6c0,0.5,0,0.9,0.1,1.4l-3.6-0.6C38.1,42.7,38,42.3,38,41.8"/>
						<path class="zonePlate-st51" d="M38.1,43.2l3.6,0.6c0.1,1.3,0.5,2.6,1,3.7l-3.6-0.6C38.6,45.7,38.2,44.5,38.1,43.2"/>
						<path class="zonePlate-st50" d="M39.1,46.8l3.6,0.6c0.2,0.4,0.4,0.8,0.6,1.2L39.7,48C39.5,47.6,39.3,47.2,39.1,46.8"/>
						<path class="zonePlate-st41" d="M39.7,48l3.6,0.6c0.2,0.3,0.3,0.5,0.5,0.8l-3.6-0.6C40,48.5,39.8,48.3,39.7,48"/>
						<path class="zonePlate-st40" d="M40.2,48.8l3.6,0.6c0.2,0.2,0.3,0.4,0.5,0.6l-3.6-0.6C40.5,49.2,40.3,49,40.2,48.8"/>
						<path class="zonePlate-st39" d="M40.7,49.4l3.6,0.6c0.1,0.2,0.3,0.3,0.5,0.5l-3.6-0.6C41,49.7,40.8,49.6,40.7,49.4"/>
						<path class="zonePlate-st38" d="M41.1,49.9l3.6,0.6c0.1,0.2,0.3,0.3,0.5,0.4l-3.6-0.6C41.4,50.2,41.3,50,41.1,49.9"/>
						<path class="zonePlate-st37" d="M41.6,50.3l3.6,0.6c0.1,0.1,0.3,0.3,0.5,0.4l-3.6-0.6C41.9,50.6,41.7,50.5,41.6,50.3"/>
						<path class="zonePlate-st36" d="M42.1,50.7l3.6,0.6c0.1,0.1,0.3,0.2,0.5,0.3L42.5,51C42.4,50.9,42.2,50.8,42.1,50.7"/>
						<path class="zonePlate-st35" d="M42.5,51l3.6,0.6c0.2,0.1,0.3,0.2,0.5,0.3L43,51.3C42.8,51.2,42.7,51.1,42.5,51"/>
						<path class="zonePlate-st34" d="M43,51.3l3.6,0.6c0.2,0.1,0.3,0.2,0.5,0.3l-3.6-0.6C43.3,51.5,43.1,51.4,43,51.3"/>
						<path class="zonePlate-st33" d="M43.5,51.6l3.6,0.6c0.2,0.1,0.3,0.2,0.5,0.2L44,51.8C43.8,51.7,43.6,51.7,43.5,51.6"/>
						<path class="zonePlate-st32" d="M44,51.8l3.6,0.6c0.2,0.1,0.3,0.1,0.5,0.2L44.5,52C44.3,51.9,44.1,51.9,44,51.8"/>
						<path class="zonePlate-st31" d="M44.5,52l3.6,0.6c0.2,0.1,0.4,0.1,0.6,0.2L45,52.2C44.9,52.1,44.7,52.1,44.5,52"/>
						<path class="zonePlate-st30" d="M45,52.2l3.6,0.6c0.2,0.1,0.4,0.1,0.6,0.1l-3.6-0.6C45.4,52.3,45.2,52.2,45,52.2"/>
						<path class="zonePlate-st29" d="M45.6,52.3l3.6,0.6c0,0,0.1,0,0.1,0L45.6,52.3C45.7,52.3,45.7,52.3,45.6,52.3"/>
					</g>
				</g>
				<g class="zonePlate-st1">
					<defs>
						<path id="ZONE_PLATE_SVGID_37_" class="zonePlate-st1" d="M44.6,41.9c-0.2,3.9,2.1,7.1,5.3,7.7l-3.6-0.6c-3.2-0.5-5.5-3.8-5.3-7.7c0,0,0,0,0,0
							C42.2,41.5,43.4,41.7,44.6,41.9C44.6,41.9,44.6,41.9,44.6,41.9z"/>
					</defs>
					<clipPath id="ZONE_PLATE_SVGID_38_">
						<use xlink:href="#ZONE_PLATE_SVGID_37_"  style="overflow:visible;"/>
					</clipPath>
					<g class="zonePlate-st56">
						<path class="zonePlate-st6" d="M41,40.9l3.6,0.6c0,0.1,0,0.2,0,0.3c0,0.1,0,0.3,0,0.4L41,41.6c0-0.1,0-0.3,0-0.4C41,41.2,41,41,41,40.9"
							/>
						<path class="zonePlate-st47" d="M41,41.6l3.6,0.6c0,0.3,0,0.6,0,0.9L41,42.6C41,42.3,41,42,41,41.6"/>
						<path class="zonePlate-st48" d="M41,42.6l3.6,0.6c0.1,0.9,0.3,1.8,0.7,2.5l-3.6-0.6C41.3,44.3,41.1,43.5,41,42.6"/>
						<path class="zonePlate-st47" d="M41.7,45.1l3.6,0.6c0.1,0.3,0.3,0.6,0.4,0.8l-3.6-0.6C41.9,45.7,41.8,45.4,41.7,45.1"/>
						<path class="zonePlate-st6" d="M42.1,45.9l3.6,0.6c0.1,0.2,0.2,0.4,0.4,0.5l-3.6-0.6C42.3,46.3,42.2,46.1,42.1,45.9"/>
						<path class="zonePlate-st5" d="M42.5,46.5l3.6,0.6c0.1,0.1,0.2,0.3,0.3,0.4l-3.6-0.6C42.7,46.7,42.6,46.6,42.5,46.5"/>
						<path class="zonePlate-st4" d="M42.8,46.9l3.6,0.6c0.1,0.1,0.2,0.2,0.3,0.4l-3.6-0.6C43,47.1,42.9,47,42.8,46.9"/>
						<path class="zonePlate-st3" d="M43.1,47.2l3.6,0.6c0.1,0.1,0.2,0.2,0.3,0.3l-3.6-0.6C43.3,47.4,43.2,47.3,43.1,47.2"/>
						<path class="zonePlate-st10" d="M43.4,47.5l3.6,0.6c0.1,0.1,0.2,0.2,0.3,0.3l-3.6-0.6C43.6,47.7,43.5,47.6,43.4,47.5"/>
						<path class="zonePlate-st9" d="M43.7,47.8l3.6,0.6c0.1,0.1,0.2,0.2,0.3,0.2L44.1,48C44,48,43.8,47.9,43.7,47.8"/>
						<path class="zonePlate-st8" d="M44.1,48l3.6,0.6c0.1,0.1,0.2,0.1,0.3,0.2l-3.6-0.6C44.3,48.2,44.2,48.1,44.1,48"/>
						<path class="zonePlate-st16" d="M44.4,48.2l3.6,0.6c0.1,0.1,0.2,0.1,0.3,0.2l-3.6-0.6C44.6,48.4,44.5,48.3,44.4,48.2"/>
						<path class="zonePlate-st15" d="M44.7,48.4l3.6,0.6c0.1,0.1,0.2,0.1,0.3,0.2l-3.6-0.6C44.9,48.5,44.8,48.5,44.7,48.4"/>
						<path class="zonePlate-st14" d="M45.1,48.6l3.6,0.6c0.1,0,0.2,0.1,0.4,0.1l-3.6-0.6C45.3,48.7,45.2,48.6,45.1,48.6"/>
						<path class="zonePlate-st13" d="M45.4,48.7l3.6,0.6c0.1,0,0.3,0.1,0.4,0.1l-3.6-0.6C45.7,48.8,45.6,48.7,45.4,48.7"/>
						<path class="zonePlate-st12" d="M45.8,48.8l3.6,0.6c0.1,0,0.3,0.1,0.4,0.1l-3.6-0.6C46.1,48.9,45.9,48.9,45.8,48.8"/>
						<path class="zonePlate-st18" d="M46.2,48.9l3.6,0.6c0,0,0,0,0.1,0L46.2,48.9C46.3,48.9,46.2,48.9,46.2,48.9"/>
					</g>
				</g>
				<g class="zonePlate-st1">
					<defs>
						<path id="ZONE_PLATE_SVGID_39_" class="zonePlate-st1" d="M51.6,34.1c-0.9,0-1.8,0.2-2.6,0.6c-1.2-0.2-2.4-0.4-3.6-0.6c0.8-0.4,1.7-0.6,2.6-0.6
							c0.3,0,0.6,0,0.9,0.1l3.6,0.6C52.2,34.2,51.9,34.1,51.6,34.1z"/>
					</defs>
					<clipPath id="ZONE_PLATE_SVGID_40_">
						<use xlink:href="#ZONE_PLATE_SVGID_39_"  style="overflow:visible;"/>
					</clipPath>
					<g class="zonePlate-st57">
						<path class="zonePlate-st20" d="M48.8,33.6l3.6,0.6c-0.3,0-0.6-0.1-0.9-0.1c-1.3,0-2.6,0.5-3.7,1.3l-3.6-0.6c1.1-0.8,2.4-1.3,3.7-1.3
							C48.2,33.5,48.5,33.6,48.8,33.6"/>
					</g>
				</g>
				<g class="zonePlate-st1">
					<defs>
						<path id="ZONE_PLATE_SVGID_41_" class="zonePlate-st1" d="M53,30.8c-0.4-0.1-0.9-0.1-1.3-0.1c-1.2-0.2-2.4-0.4-3.6-0.6c0.4,0,0.9,0,1.3,0.1
							C50.5,30.4,51.9,30.6,53,30.8z"/>
					</defs>
					<clipPath id="ZONE_PLATE_SVGID_42_">
						<use xlink:href="#ZONE_PLATE_SVGID_41_"  style="overflow:visible;"/>
					</clipPath>
					<g class="zonePlate-st58">
						<path class="zonePlate-st26" d="M49.4,30.2l3.6,0.6c-0.4-0.1-0.9-0.1-1.3-0.1c-1.9,0-3.8,0.7-5.3,1.9L42.7,32c1.6-1.2,3.4-1.9,5.3-1.9
							C48.5,30.1,49,30.1,49.4,30.2"/>
					</g>
				</g>
				<g class="zonePlate-st1">
					<defs>
						<path id="ZONE_PLATE_SVGID_43_" class="zonePlate-st1" d="M53.6,27.4c-0.6-0.1-1.1-0.1-1.7-0.1c-1.2-0.2-2.4-0.4-3.6-0.6c0.6,0,1.2,0,1.7,0.1
							C51,27,52.5,27.2,53.6,27.4z"/>
					</defs>
					<clipPath id="ZONE_PLATE_SVGID_44_">
						<use xlink:href="#ZONE_PLATE_SVGID_43_"  style="overflow:visible;"/>
					</clipPath>
					<g class="zonePlate-st59">
						<path class="zonePlate-st20" d="M50,26.8l3.6,0.6c-0.6-0.1-1.1-0.1-1.7-0.1c-2.5,0-4.9,0.9-7,2.4l-3.6-0.6c2-1.5,4.4-2.4,7-2.4
							C48.8,26.7,49.4,26.7,50,26.8"/>
					</g>
				</g>
				<g class="zonePlate-st1">
					<defs>
						<path id="ZONE_PLATE_SVGID_45_" class="zonePlate-st1" d="M54.2,24c-0.7-0.1-1.4-0.2-2.1-0.2c-1.2-0.2-2.4-0.4-3.6-0.6c0.7,0,1.4,0.1,2.1,0.2
							C51.6,23.6,53.1,23.8,54.2,24z"/>
					</defs>
					<clipPath id="ZONE_PLATE_SVGID_46_">
						<use xlink:href="#ZONE_PLATE_SVGID_45_"  style="overflow:visible;"/>
					</clipPath>
					<g class="zonePlate-st60">
						<path class="zonePlate-st26" d="M50.5,23.4l3.6,0.6c-0.7-0.1-1.4-0.2-2.1-0.2c-3.1,0-6.1,1.1-8.6,3l-3.6-0.6c2.5-1.9,5.5-3,8.6-3
							C49.1,23.2,49.8,23.3,50.5,23.4"/>
					</g>
				</g>
				<g class="zonePlate-st1">
					<defs>
						<path id="ZONE_PLATE_SVGID_47_" class="zonePlate-st1" d="M54.7,20.6c-0.8-0.1-1.7-0.2-2.5-0.2c-1.2-0.2-2.4-0.4-3.6-0.6c0.9,0,1.7,0.1,2.5,0.2
							C52.2,20.2,53.6,20.4,54.7,20.6z"/>
					</defs>
					<clipPath id="ZONE_PLATE_SVGID_48_">
						<use xlink:href="#ZONE_PLATE_SVGID_47_"  style="overflow:visible;"/>
					</clipPath>
					<g class="zonePlate-st61">
						<path class="zonePlate-st20" d="M51.1,20l3.6,0.6c-0.8-0.1-1.7-0.2-2.5-0.2c-3.7,0-7.3,1.3-10.3,3.6l-3.6-0.6c3-2.3,6.5-3.6,10.3-3.6
							C49.4,19.8,50.3,19.9,51.1,20"/>
					</g>
				</g>
				<g class="zonePlate-st1">
					<defs>
						<path id="ZONE_PLATE_SVGID_49_" class="zonePlate-st1" d="M55.3,17.2c-1-0.2-1.9-0.2-2.9-0.2c-1.2-0.2-2.4-0.4-3.6-0.6c1,0,2,0.1,2.9,0.2
							C52.7,16.8,54.2,17,55.3,17.2z"/>
					</defs>
					<clipPath id="ZONE_PLATE_SVGID_50_">
						<use xlink:href="#ZONE_PLATE_SVGID_49_"  style="overflow:visible;"/>
					</clipPath>
					<g class="zonePlate-st62">
						<path class="zonePlate-st26" d="M51.6,16.6l3.6,0.6c-1-0.2-1.9-0.2-2.9-0.2c-4.3,0-8.4,1.5-11.9,4.2l-3.6-0.6c3.5-2.6,7.6-4.2,11.9-4.2
							C49.7,16.4,50.7,16.4,51.6,16.6"/>
					</g>
				</g>
				<g class="zonePlate-st1">
					<defs>
						<path id="ZONE_PLATE_SVGID_51_" class="zonePlate-st1" d="M55.8,13.8c-1.1-0.2-2.2-0.3-3.3-0.3c-1.2-0.2-2.4-0.4-3.6-0.6c1.1,0,2.3,0.1,3.3,0.3
							C53.3,13.4,54.8,13.6,55.8,13.8z"/>
					</defs>
					<clipPath id="ZONE_PLATE_SVGID_52_">
						<use xlink:href="#ZONE_PLATE_SVGID_51_"  style="overflow:visible;"/>
					</clipPath>
					<g class="zonePlate-st63">
						<path class="zonePlate-st20" d="M52.2,13.2l3.6,0.6c-1.1-0.2-2.2-0.3-3.3-0.3c-4.9,0-9.6,1.7-13.5,4.7l-3.6-0.6c4-3,8.6-4.7,13.5-4.7
							C50,12.9,51.1,13,52.2,13.2"/>
					</g>
				</g>
				<g class="zonePlate-st1">
					<defs>
						<path id="ZONE_PLATE_SVGID_53_" class="zonePlate-st1" d="M48.8,33.6l3.6,0.6c3.2,0.5,5.5,3.8,5.3,7.7l-3.6-0.6C54.3,37.4,52,34.1,48.8,33.6z"/>
					</defs>
					<clipPath id="ZONE_PLATE_SVGID_54_">
						<use xlink:href="#ZONE_PLATE_SVGID_53_"  style="overflow:visible;"/>
					</clipPath>
					<g class="zonePlate-st64">
						<path class="zonePlate-st29" d="M48.8,33.6l3.6,0.6c0,0,0,0,0.1,0L48.8,33.6C48.9,33.6,48.8,33.6,48.8,33.6"/>
						<path class="zonePlate-st30" d="M48.9,33.6l3.6,0.6c0.1,0,0.3,0.1,0.4,0.1l-3.6-0.6C49.2,33.7,49,33.6,48.9,33.6"/>
						<path class="zonePlate-st31" d="M49.3,33.7l3.6,0.6c0.1,0,0.3,0.1,0.4,0.1l-3.6-0.6C49.6,33.8,49.4,33.7,49.3,33.7"/>
						<path class="zonePlate-st32" d="M49.7,33.8l3.6,0.6c0.1,0,0.2,0.1,0.4,0.1L50.1,34C49.9,33.9,49.8,33.9,49.7,33.8"/>
						<path class="zonePlate-st33" d="M50.1,34l3.6,0.6c0.1,0,0.2,0.1,0.3,0.2l-3.6-0.6C50.3,34.1,50.2,34,50.1,34"/>
						<path class="zonePlate-st34" d="M50.4,34.1l3.6,0.6c0.1,0.1,0.2,0.1,0.3,0.2l-3.6-0.6C50.6,34.2,50.5,34.2,50.4,34.1"/>
						<path class="zonePlate-st35" d="M50.7,34.3l3.6,0.6c0.1,0.1,0.2,0.1,0.3,0.2l-3.6-0.6C50.9,34.4,50.8,34.4,50.7,34.3"/>
						<path class="zonePlate-st36" d="M51.1,34.5l3.6,0.6c0.1,0.1,0.2,0.1,0.3,0.2l-3.6-0.6C51.3,34.6,51.2,34.6,51.1,34.5"/>
						<path class="zonePlate-st37" d="M51.4,34.7l3.6,0.6c0.1,0.1,0.2,0.2,0.3,0.3L51.7,35C51.6,34.9,51.5,34.8,51.4,34.7"/>
						<path class="zonePlate-st38" d="M51.7,35l3.6,0.6c0.1,0.1,0.2,0.2,0.3,0.3L52,35.3C51.9,35.2,51.8,35.1,51.7,35"/>
						<path class="zonePlate-st39" d="M52,35.3l3.6,0.6c0.1,0.1,0.2,0.2,0.3,0.4l-3.6-0.6C52.2,35.5,52.1,35.4,52,35.3"/>
						<path class="zonePlate-st40" d="M52.3,35.6l3.6,0.6c0.1,0.1,0.2,0.3,0.3,0.4l-3.6-0.6C52.6,35.9,52.4,35.8,52.3,35.6"/>
						<path class="zonePlate-st41" d="M52.7,36.1l3.6,0.6c0.1,0.2,0.2,0.3,0.4,0.5L53,36.6C52.9,36.4,52.8,36.2,52.7,36.1"/>
						<path class="zonePlate-st50" d="M53,36.6l3.6,0.6c0.2,0.3,0.3,0.5,0.4,0.8l-3.6-0.6C53.3,37.1,53.2,36.9,53,36.6"/>
						<path class="zonePlate-st51" d="M53.4,37.4l3.6,0.6c0.3,0.8,0.6,1.6,0.7,2.5l-3.6-0.6C54,39,53.8,38.2,53.4,37.4"/>
						<path class="zonePlate-st50" d="M54.1,39.9l3.6,0.6c0,0.3,0,0.6,0,0.9l-3.6-0.6C54.1,40.6,54.1,40.3,54.1,39.9"/>
						<path class="zonePlate-st41" d="M54.1,40.9l3.6,0.6c0,0.1,0,0.3,0,0.4l-3.6-0.6C54.1,41.1,54.1,41,54.1,40.9"/>
					</g>
				</g>
				<g class="zonePlate-st1">
					<defs>
						<path id="ZONE_PLATE_SVGID_55_" class="zonePlate-st1" d="M49.9,49.5l-3.6-0.6c0.3,0,0.6,0.1,0.9,0.1c3.6,0,6.7-3.5,6.9-7.7l3.6,0.6
							c-0.2,4.3-3.3,7.7-6.9,7.7C50.5,49.6,50.2,49.6,49.9,49.5z"/>
					</defs>
					<clipPath id="ZONE_PLATE_SVGID_56_">
						<use xlink:href="#ZONE_PLATE_SVGID_55_"  style="overflow:visible;"/>
					</clipPath>
					<g class="zonePlate-st65">
						<path class="zonePlate-st41" d="M54.1,41.3l3.6,0.6c0,0.1,0,0.2,0,0.3l-3.6-0.6C54.1,41.5,54.1,41.4,54.1,41.3"/>
						<path class="zonePlate-st40" d="M54.1,41.6l3.6,0.6c0,0.2,0,0.4-0.1,0.6l-3.6-0.6C54.1,42,54.1,41.8,54.1,41.6"/>
						<path class="zonePlate-st39" d="M54.1,42.2l3.6,0.6c0,0.2-0.1,0.3-0.1,0.5L54,42.7C54,42.5,54,42.3,54.1,42.2"/>
						<path class="zonePlate-st38" d="M54,42.7l3.6,0.6c0,0.2-0.1,0.3-0.1,0.5l-3.6-0.6C53.9,43,53.9,42.9,54,42.7"/>
						<path class="zonePlate-st37" d="M53.8,43.2l3.6,0.6c0,0.1-0.1,0.3-0.1,0.4l-3.6-0.6C53.8,43.5,53.8,43.3,53.8,43.2"/>
						<path class="zonePlate-st36" d="M53.7,43.6l3.6,0.6c0,0.1-0.1,0.3-0.1,0.4L53.6,44C53.6,43.9,53.7,43.8,53.7,43.6"/>
						<path class="zonePlate-st35" d="M53.6,44l3.6,0.6c-0.1,0.1-0.1,0.3-0.2,0.4l-3.6-0.6C53.5,44.3,53.5,44.2,53.6,44"/>
						<path class="zonePlate-st34" d="M53.4,44.4l3.6,0.6c-0.1,0.1-0.1,0.3-0.2,0.4l-3.6-0.6C53.3,44.7,53.4,44.6,53.4,44.4"/>
						<path class="zonePlate-st33" d="M53.2,44.8l3.6,0.6c-0.1,0.1-0.1,0.3-0.2,0.4L53,45.2C53.1,45.1,53.2,45,53.2,44.8"/>
						<path class="zonePlate-st32" d="M53,45.2l3.6,0.6c-0.1,0.1-0.1,0.3-0.2,0.4l-3.6-0.6C52.9,45.5,53,45.4,53,45.2"/>
						<path class="zonePlate-st31" d="M52.8,45.6l3.6,0.6c-0.1,0.1-0.2,0.3-0.3,0.4L52.5,46C52.6,45.9,52.7,45.7,52.8,45.6"/>
						<path class="zonePlate-st30" d="M52.5,46l3.6,0.6c-0.1,0.1-0.2,0.3-0.3,0.4l-3.6-0.6C52.3,46.3,52.4,46.1,52.5,46"/>
						<path class="zonePlate-st29" d="M52.2,46.4l3.6,0.6c-0.1,0.1-0.2,0.3-0.3,0.4l-3.6-0.6C52,46.7,52.1,46.5,52.2,46.4"/>
						<path class="zonePlate-st28" d="M51.9,46.8l3.6,0.6c-0.1,0.1-0.3,0.3-0.4,0.4l-3.6-0.6C51.6,47.1,51.8,46.9,51.9,46.8"/>
						<path class="zonePlate-st27" d="M51.5,47.2l3.6,0.6c-0.2,0.2-0.4,0.3-0.6,0.5l-3.6-0.6C51.1,47.6,51.3,47.4,51.5,47.2"/>
						<path class="zonePlate-st26" d="M50.9,47.7l3.6,0.6c-1.1,0.8-2.4,1.3-3.7,1.3c-0.3,0-0.6,0-0.9-0.1l-3.6-0.6c0.3,0,0.6,0.1,0.9,0.1
							C48.5,49,49.8,48.5,50.9,47.7"/>
					</g>
				</g>
				<g class="zonePlate-st1">
					<defs>
						<path id="ZONE_PLATE_SVGID_57_" class="zonePlate-st1" d="M49.4,30.2l3.6,0.6c4.6,0.8,7.9,5.4,7.7,11.1C60.4,48,55.9,53,50.7,53
							c-0.4,0-0.9,0-1.3-0.1l-3.6-0.6c0.4,0.1,0.9,0.1,1.3,0.1c5.2,0,9.7-5,10-11.2C57.3,35.6,54,31,49.4,30.2z"/>
					</defs>
					<clipPath id="ZONE_PLATE_SVGID_58_">
						<use xlink:href="#ZONE_PLATE_SVGID_57_"  style="overflow:visible;"/>
					</clipPath>
					<g class="zonePlate-st66">
						<path class="zonePlate-st18" d="M49.4,30.2l3.6,0.6c0,0,0.1,0,0.1,0L49.4,30.2C49.5,30.2,49.4,30.2,49.4,30.2"/>
						<path class="zonePlate-st12" d="M49.5,30.2l3.6,0.6c0.2,0,0.4,0.1,0.6,0.1l-3.6-0.6C49.9,30.3,49.7,30.3,49.5,30.2"/>
						<path class="zonePlate-st13" d="M50.1,30.4l3.6,0.6c0.2,0,0.4,0.1,0.6,0.2l-3.6-0.6C50.5,30.5,50.3,30.4,50.1,30.4"/>
						<path class="zonePlate-st14" d="M50.6,30.5l3.6,0.6c0.2,0.1,0.4,0.1,0.5,0.2l-3.6-0.6C51,30.6,50.8,30.6,50.6,30.5"/>
						<path class="zonePlate-st15" d="M51.2,30.7l3.6,0.6c0.2,0.1,0.3,0.1,0.5,0.2l-3.6-0.6C51.5,30.9,51.3,30.8,51.2,30.7"/>
						<path class="zonePlate-st16" d="M51.7,30.9l3.6,0.6c0.2,0.1,0.3,0.2,0.5,0.3l-3.6-0.6C52,31.1,51.8,31,51.7,30.9"/>
						<path class="zonePlate-st8" d="M52.1,31.2l3.6,0.6c0.2,0.1,0.3,0.2,0.5,0.3l-3.6-0.6C52.5,31.4,52.3,31.3,52.1,31.2"/>
						<path class="zonePlate-st9" d="M52.6,31.5l3.6,0.6c0.2,0.1,0.3,0.2,0.5,0.3l-3.6-0.6C52.9,31.7,52.8,31.6,52.6,31.5"/>
						<path class="zonePlate-st10" d="M53.1,31.8l3.6,0.6c0.2,0.1,0.3,0.2,0.5,0.4l-3.6-0.6C53.4,32.1,53.2,31.9,53.1,31.8"/>
						<path class="zonePlate-st3" d="M53.5,32.2l3.6,0.6c0.2,0.1,0.3,0.3,0.5,0.4L54,32.6C53.8,32.5,53.7,32.3,53.5,32.2"/>
						<path class="zonePlate-st4" d="M54,32.6l3.6,0.6c0.2,0.2,0.3,0.3,0.5,0.5l-3.6-0.6C54.3,33,54.1,32.8,54,32.6"/>
						<path class="zonePlate-st5" d="M54.4,33.1l3.6,0.6c0.2,0.2,0.3,0.4,0.5,0.6l-3.6-0.6C54.8,33.5,54.6,33.3,54.4,33.1"/>
						<path class="zonePlate-st6" d="M54.9,33.8l3.6,0.6c0.2,0.2,0.4,0.5,0.5,0.8l-3.6-0.6C55.3,34.3,55.1,34,54.9,33.8"/>
						<path class="zonePlate-st47" d="M55.4,34.5l3.6,0.6c0.2,0.4,0.4,0.8,0.6,1.2L56,35.7C55.9,35.3,55.7,34.9,55.4,34.5"/>
						<path class="zonePlate-st48" d="M56,35.7l3.6,0.6c0.5,1.1,0.8,2.4,1,3.7L57,39.4C56.9,38,56.5,36.8,56,35.7"/>
						<path class="zonePlate-st47" d="M57,39.4l3.6,0.6c0,0.4,0.1,0.9,0.1,1.4l-3.6-0.6C57.1,40.3,57.1,39.8,57,39.4"/>
						<path class="zonePlate-st6" d="M57.1,40.7l3.6,0.6c0,0.2,0,0.4,0,0.5c0,0.2,0,0.3,0,0.5L57,41.7c0-0.2,0-0.3,0-0.5
							C57.1,41.1,57.1,40.9,57.1,40.7"/>
						<path class="zonePlate-st5" d="M57,41.7l3.6,0.6c0,0.3-0.1,0.6-0.1,0.8l-3.6-0.6C57,42.3,57,42,57,41.7"/>
						<path class="zonePlate-st4" d="M56.9,42.6l3.6,0.6c0,0.3-0.1,0.5-0.1,0.7l-3.6-0.6C56.9,43.1,56.9,42.8,56.9,42.6"/>
						<path class="zonePlate-st3" d="M56.8,43.3l3.6,0.6c0,0.2-0.1,0.5-0.2,0.7L56.6,44C56.7,43.8,56.8,43.6,56.8,43.3"/>
						<path class="zonePlate-st10" d="M56.6,44l3.6,0.6c-0.1,0.2-0.1,0.4-0.2,0.6l-3.6-0.6C56.5,44.4,56.6,44.2,56.6,44"/>
						<path class="zonePlate-st9" d="M56.5,44.7l3.6,0.6c-0.1,0.2-0.1,0.4-0.2,0.6l-3.6-0.6C56.3,45.1,56.4,44.9,56.5,44.7"/>
						<path class="zonePlate-st8" d="M56.2,45.3l3.6,0.6c-0.1,0.2-0.2,0.4-0.2,0.6L56,45.8C56.1,45.7,56.2,45.5,56.2,45.3"/>
						<path class="zonePlate-st16" d="M56,45.8l3.6,0.6c-0.1,0.2-0.2,0.4-0.3,0.6l-3.6-0.6C55.8,46.2,55.9,46,56,45.8"/>
						<path class="zonePlate-st15" d="M55.7,46.4l3.6,0.6c-0.1,0.2-0.2,0.4-0.3,0.6L55.5,47C55.6,46.8,55.7,46.6,55.7,46.4"/>
						<path class="zonePlate-st14" d="M55.5,47l3.6,0.6c-0.1,0.2-0.2,0.4-0.3,0.6l-3.6-0.6C55.2,47.4,55.3,47.2,55.5,47"/>
						<path class="zonePlate-st13" d="M55.1,47.5l3.6,0.6c-0.1,0.2-0.2,0.4-0.4,0.6l-3.6-0.6C54.9,47.9,55,47.7,55.1,47.5"/>
						<path class="zonePlate-st12" d="M54.8,48.1l3.6,0.6c-0.1,0.2-0.3,0.4-0.4,0.6l-3.6-0.6C54.5,48.5,54.6,48.3,54.8,48.1"/>
						<path class="zonePlate-st18" d="M54.3,48.7l3.6,0.6c-0.2,0.2-0.3,0.4-0.5,0.6l-3.6-0.6C54,49.1,54.2,48.9,54.3,48.7"/>
						<path class="zonePlate-st22" d="M53.8,49.2l3.6,0.6c-0.2,0.2-0.4,0.4-0.6,0.6l-3.6-0.6C53.4,49.7,53.6,49.5,53.8,49.2"/>
						<path class="zonePlate-st21" d="M53.2,49.9l3.6,0.6c-0.3,0.2-0.5,0.5-0.8,0.7l-3.6-0.6C52.7,50.3,52.9,50.1,53.2,49.9"/>
						<path class="zonePlate-st20" d="M52.4,50.6l3.6,0.6c-1.6,1.2-3.4,1.9-5.3,1.9c-0.4,0-0.9,0-1.3-0.1l-3.6-0.6c0.4,0.1,0.9,0.1,1.3,0.1
							C49,52.4,50.8,51.7,52.4,50.6"/>
					</g>
				</g>
				<g>
					<path class="zonePlate-st67" d="M48.2,26.7c6.9,0,12.1,6.6,11.7,14.6c-0.4,8.1-6.2,14.6-13.1,14.6c-6.8,0-12.1-6.5-11.7-14.6
						C35.5,33.2,41.4,26.7,48.2,26.7z M47,52.4c5.2,0,9.7-5,10-11.2c0.3-6.2-3.7-11.2-9-11.2c-5.2,0-9.7,5-10,11.2
						C37.8,47.4,41.8,52.4,47,52.4"/>
				</g>
				<g class="zonePlate-st1">
					<defs>
						<path id="ZONE_PLATE_SVGID_59_" class="zonePlate-st1" d="M50,26.8l3.6,0.6c6,1,10.4,7.1,10,14.5c-0.4,8.1-6.2,14.6-13.1,14.6c-0.6,0-1.2,0-1.7-0.1
							l-3.6-0.6c0.6,0.1,1.1,0.1,1.7,0.1c6.9,0,12.7-6.5,13.1-14.6C60.3,33.9,55.9,27.8,50,26.8z"/>
					</defs>
					<clipPath id="ZONE_PLATE_SVGID_60_">
						<use xlink:href="#ZONE_PLATE_SVGID_59_"  style="overflow:visible;"/>
					</clipPath>
					<g class="zonePlate-st68">
						<path class="zonePlate-st29" d="M50,26.8l3.6,0.6c0,0,0.1,0,0.1,0l-3.6-0.6C50,26.8,50,26.8,50,26.8"/>
						<path class="zonePlate-st30" d="M50.1,26.8l3.6,0.6c0.3,0,0.5,0.1,0.8,0.2L50.9,27C50.6,26.9,50.3,26.9,50.1,26.8"/>
						<path class="zonePlate-st31" d="M50.9,27l3.6,0.6c0.2,0.1,0.5,0.1,0.7,0.2l-3.6-0.6C51.3,27.1,51.1,27.1,50.9,27"/>
						<path class="zonePlate-st32" d="M51.6,27.2l3.6,0.6c0.2,0.1,0.5,0.2,0.7,0.3l-3.6-0.6C52,27.4,51.8,27.3,51.6,27.2"/>
						<path class="zonePlate-st33" d="M52.3,27.5l3.6,0.6c0.2,0.1,0.4,0.2,0.7,0.3l-3.6-0.6C52.7,27.7,52.5,27.6,52.3,27.5"/>
						<path class="zonePlate-st34" d="M52.9,27.8l3.6,0.6c0.2,0.1,0.4,0.2,0.6,0.3l-3.6-0.6C53.3,28,53.1,27.9,52.9,27.8"/>
						<path class="zonePlate-st35" d="M53.5,28.1l3.6,0.6c0.2,0.1,0.4,0.2,0.6,0.4l-3.6-0.6C54,28.4,53.8,28.2,53.5,28.1"/>
						<path class="zonePlate-st36" d="M54.2,28.5l3.6,0.6c0.2,0.1,0.4,0.3,0.6,0.4l-3.6-0.6C54.6,28.8,54.4,28.6,54.2,28.5"/>
						<path class="zonePlate-st37" d="M54.8,28.9l3.6,0.6c0.2,0.2,0.4,0.3,0.6,0.5l-3.6-0.6C55.2,29.2,55,29.1,54.8,28.9"/>
						<path class="zonePlate-st38" d="M55.4,29.4L59,30c0.2,0.2,0.4,0.4,0.6,0.6L56,30C55.8,29.8,55.6,29.6,55.4,29.4"/>
						<path class="zonePlate-st39" d="M56,30l3.6,0.6c0.2,0.2,0.4,0.4,0.6,0.7l-3.6-0.6C56.4,30.4,56.2,30.2,56,30"/>
						<path class="zonePlate-st40" d="M56.6,30.6l3.6,0.6c0.2,0.3,0.4,0.5,0.6,0.8l-3.6-0.6C57,31.2,56.8,30.9,56.6,30.6"/>
						<path class="zonePlate-st41" d="M57.2,31.4l3.6,0.6c0.2,0.3,0.5,0.7,0.7,1l-3.6-0.6C57.7,32.1,57.4,31.8,57.2,31.4"/>
						<path class="zonePlate-st50" d="M57.9,32.4l3.6,0.6c0.3,0.5,0.6,1,0.8,1.5L58.7,34C58.4,33.4,58.2,32.9,57.9,32.4"/>
						<path class="zonePlate-st51" d="M58.7,34l3.6,0.6c0.7,1.5,1.1,3.1,1.3,4.8l-3.6-0.6C59.7,37.1,59.3,35.4,58.7,34"/>
						<path class="zonePlate-st50" d="M59.9,38.8l3.6,0.6c0.1,0.6,0.1,1.2,0.1,1.8L60,40.6C60,40,60,39.4,59.9,38.8"/>
						<path class="zonePlate-st41" d="M60,40.6l3.6,0.6c0,0.2,0,0.5,0,0.7c0,0.2,0,0.4,0,0.6l-3.6-0.6c0-0.2,0-0.4,0-0.6
							C60,41,60,40.8,60,40.6"/>
						<path class="zonePlate-st40" d="M59.9,41.9l3.6,0.6c0,0.4-0.1,0.7-0.1,1.1L59.8,43C59.9,42.6,59.9,42.3,59.9,41.9"/>
						<path class="zonePlate-st39" d="M59.8,43l3.6,0.6c0,0.3-0.1,0.7-0.2,1L59.6,44C59.7,43.6,59.8,43.3,59.8,43"/>
						<path class="zonePlate-st38" d="M59.6,44l3.6,0.6c-0.1,0.3-0.1,0.6-0.2,0.9l-3.6-0.6C59.5,44.6,59.6,44.3,59.6,44"/>
						<path class="zonePlate-st37" d="M59.4,44.9l3.6,0.6c-0.1,0.3-0.2,0.6-0.2,0.8l-3.6-0.6C59.3,45.4,59.4,45.1,59.4,44.9"/>
						<path class="zonePlate-st36" d="M59.2,45.7l3.6,0.6c-0.1,0.3-0.2,0.5-0.3,0.8l-3.6-0.6C59,46.2,59.1,46,59.2,45.7"/>
						<path class="zonePlate-st35" d="M58.9,46.5l3.6,0.6c-0.1,0.3-0.2,0.5-0.3,0.8l-3.6-0.6C58.7,47,58.8,46.7,58.9,46.5"/>
						<path class="zonePlate-st34" d="M58.6,47.3l3.6,0.6c-0.1,0.3-0.2,0.5-0.3,0.7L58.3,48C58.4,47.8,58.5,47.5,58.6,47.3"/>
						<path class="zonePlate-st33" d="M58.3,48l3.6,0.6c-0.1,0.2-0.3,0.5-0.4,0.7l-3.6-0.6C58,48.5,58.1,48.3,58.3,48"/>
						<path class="zonePlate-st32" d="M57.9,48.7l3.6,0.6c-0.1,0.2-0.3,0.5-0.4,0.7l-3.6-0.6C57.6,49.2,57.7,49,57.9,48.7"/>
						<path class="zonePlate-st31" d="M57.5,49.5l3.6,0.6c-0.2,0.2-0.3,0.5-0.5,0.7L57,50.2C57.1,50,57.3,49.7,57.5,49.5"/>
						<path class="zonePlate-st30" d="M57,50.2l3.6,0.6c-0.2,0.3-0.4,0.5-0.6,0.7l-3.6-0.6C56.6,50.7,56.8,50.5,57,50.2"/>
						<path class="zonePlate-st29" d="M56.4,50.9l3.6,0.6c-0.2,0.3-0.4,0.5-0.7,0.8l-3.6-0.6C56,51.5,56.2,51.2,56.4,50.9"/>
						<path class="zonePlate-st28" d="M55.8,51.7l3.6,0.6c-0.3,0.3-0.5,0.6-0.8,0.8L55,52.5C55.2,52.3,55.5,52,55.8,51.7"/>
						<path class="zonePlate-st27" d="M55,52.5l3.6,0.6c-0.4,0.3-0.7,0.6-1.1,0.9l-3.6-0.6C54.2,53.1,54.6,52.8,55,52.5"/>
						<path class="zonePlate-st26" d="M53.9,53.4l3.6,0.6c-2,1.5-4.4,2.4-7,2.4c-0.6,0-1.2,0-1.7-0.1l-3.6-0.6c0.6,0.1,1.1,0.1,1.7,0.1
							C49.4,55.9,51.8,55,53.9,53.4"/>
					</g>
				</g>
				<g class="zonePlate-st1">
					<defs>
						<path id="ZONE_PLATE_SVGID_61_" class="zonePlate-st1" d="M50.5,23.4l3.6,0.6c7.4,1.2,12.8,8.8,12.4,17.9c-0.5,9.9-7.7,18-16.2,18
							c-0.7,0-1.4-0.1-2.1-0.2l-3.6-0.6c0.7,0.1,1.4,0.2,2.1,0.2c8.5,0,15.7-8.1,16.2-18C63.3,32.2,57.9,24.6,50.5,23.4z"/>
					</defs>
					<clipPath id="ZONE_PLATE_SVGID_62_">
						<use xlink:href="#ZONE_PLATE_SVGID_61_"  style="overflow:visible;"/>
					</clipPath>
					<g class="zonePlate-st69">
						<path class="zonePlate-st18" d="M50.5,23.4l3.6,0.6c0,0,0.1,0,0.1,0l-3.6-0.6C50.6,23.4,50.6,23.4,50.5,23.4"/>
						<path class="zonePlate-st12" d="M50.7,23.4l3.6,0.6c0.3,0.1,0.7,0.1,1,0.2l-3.6-0.6C51.3,23.6,51,23.5,50.7,23.4"/>
						<path class="zonePlate-st13" d="M51.6,23.6l3.6,0.6c0.3,0.1,0.6,0.2,0.9,0.3l-3.6-0.6C52.2,23.8,51.9,23.7,51.6,23.6"/>
						<path class="zonePlate-st14" d="M52.5,23.9l3.6,0.6c0.3,0.1,0.6,0.2,0.8,0.3l-3.6-0.6C53.1,24.1,52.8,24,52.5,23.9"/>
						<path class="zonePlate-st15" d="M53.4,24.2l3.6,0.6c0.3,0.1,0.5,0.2,0.8,0.4l-3.6-0.6C53.9,24.5,53.7,24.3,53.4,24.2"/>
						<path class="zonePlate-st16" d="M54.2,24.6l3.6,0.6c0.3,0.1,0.5,0.3,0.8,0.4L55,25C54.7,24.9,54.4,24.7,54.2,24.6"/>
						<path class="zonePlate-st8" d="M55,25l3.6,0.6c0.3,0.1,0.5,0.3,0.8,0.5l-3.6-0.6C55.5,25.3,55.2,25.2,55,25"/>
						<path class="zonePlate-st9" d="M55.7,25.5l3.6,0.6c0.3,0.2,0.5,0.3,0.7,0.5L56.5,26C56.2,25.8,56,25.7,55.7,25.5"/>
						<path class="zonePlate-st10" d="M56.5,26l3.6,0.6c0.3,0.2,0.5,0.4,0.7,0.6l-3.6-0.6C57,26.4,56.7,26.2,56.5,26"/>
						<path class="zonePlate-st3" d="M57.2,26.6l3.6,0.6c0.3,0.2,0.5,0.5,0.7,0.7l-3.6-0.6C57.7,27.1,57.5,26.9,57.2,26.6"/>
						<path class="zonePlate-st4" d="M57.9,27.3l3.6,0.6c0.3,0.3,0.5,0.5,0.8,0.8l-3.6-0.6C58.4,27.9,58.2,27.6,57.9,27.3"/>
						<path class="zonePlate-st5" d="M58.7,28.1l3.6,0.6c0.3,0.3,0.5,0.6,0.8,1l-3.6-0.6C59.2,28.8,59,28.5,58.7,28.1"/>
						<path class="zonePlate-st6" d="M59.5,29.1l3.6,0.6c0.3,0.4,0.6,0.8,0.8,1.2l-3.6-0.6C60,29.9,59.8,29.5,59.5,29.1"/>
						<path class="zonePlate-st47" d="M60.3,30.4l3.6,0.6c0.4,0.6,0.7,1.2,1,1.9l-3.6-0.6C61,31.6,60.7,31,60.3,30.4"/>
						<path class="zonePlate-st48" d="M61.3,32.3l3.6,0.6c0.8,1.8,1.3,3.8,1.6,5.9l-3.6-0.6C62.6,36.1,62.1,34.1,61.3,32.3"/>
						<path class="zonePlate-st47" d="M62.8,38.2l3.6,0.6c0.1,0.7,0.1,1.4,0.1,2.2l-3.6-0.6C62.9,39.6,62.9,38.9,62.8,38.2"/>
						<path class="zonePlate-st6" d="M62.9,40.4l3.6,0.6c0,0.3,0,0.6,0,0.9c0,0.3,0,0.5,0,0.8L62.9,42c0-0.3,0-0.5,0-0.8
							C62.9,41,62.9,40.7,62.9,40.4"/>
						<path class="zonePlate-st5" d="M62.9,42l3.6,0.6c0,0.5-0.1,0.9-0.2,1.4l-3.6-0.6C62.8,42.9,62.8,42.5,62.9,42"/>
						<path class="zonePlate-st4" d="M62.7,43.4l3.6,0.6c-0.1,0.4-0.1,0.8-0.2,1.2l-3.6-0.6C62.6,44.2,62.6,43.8,62.7,43.4"/>
						<path class="zonePlate-st3" d="M62.5,44.6l3.6,0.6c-0.1,0.4-0.2,0.7-0.3,1.1l-3.6-0.6C62.3,45.3,62.4,45,62.5,44.6"/>
						<path class="zonePlate-st10" d="M62.2,45.7l3.6,0.6c-0.1,0.3-0.2,0.7-0.3,1l-3.6-0.6C62,46.4,62.1,46.1,62.2,45.7"/>
						<path class="zonePlate-st9" d="M61.9,46.7l3.6,0.6c-0.1,0.3-0.2,0.7-0.3,1l-3.6-0.6C61.7,47.4,61.8,47.1,61.9,46.7"/>
						<path class="zonePlate-st8" d="M61.6,47.7l3.6,0.6c-0.1,0.3-0.2,0.6-0.4,0.9l-3.6-0.6C61.3,48.4,61.5,48,61.6,47.7"/>
						<path class="zonePlate-st16" d="M61.2,48.7l3.6,0.6c-0.1,0.3-0.3,0.6-0.4,0.9l-3.6-0.6C60.9,49.3,61.1,49,61.2,48.7"/>
						<path class="zonePlate-st15" d="M60.8,49.6l3.6,0.6c-0.2,0.3-0.3,0.6-0.5,0.9l-3.6-0.6C60.5,50.2,60.6,49.9,60.8,49.6"/>
						<path class="zonePlate-st14" d="M60.3,50.5l3.6,0.6c-0.2,0.3-0.3,0.6-0.5,0.9l-3.6-0.6C60,51.1,60.1,50.8,60.3,50.5"/>
						<path class="zonePlate-st13" d="M59.8,51.4l3.6,0.6c-0.2,0.3-0.4,0.6-0.6,0.9l-3.6-0.6C59.4,52,59.6,51.7,59.8,51.4"/>
						<path class="zonePlate-st12" d="M59.2,52.3l3.6,0.6c-0.2,0.3-0.5,0.6-0.7,0.9l-3.6-0.6C58.7,52.9,59,52.6,59.2,52.3"/>
						<path class="zonePlate-st18" d="M58.5,53.2l3.6,0.6c-0.3,0.3-0.5,0.6-0.8,0.9l-3.6-0.6C58,53.8,58.2,53.5,58.5,53.2"/>
						<path class="zonePlate-st22" d="M57.7,54.2l3.6,0.6c-0.3,0.3-0.7,0.7-1,1l-3.6-0.6C57,54.8,57.4,54.5,57.7,54.2"/>
						<path class="zonePlate-st21" d="M56.7,55.2l3.6,0.6c-0.4,0.4-0.9,0.8-1.3,1.1l-3.6-0.6C55.8,55.9,56.3,55.6,56.7,55.2"/>
						<path class="zonePlate-st20" d="M55.3,56.3l3.6,0.6c-2.5,1.9-5.5,3-8.6,3c-0.7,0-1.4-0.1-2.1-0.2l-3.6-0.6c0.7,0.1,1.4,0.2,2.1,0.2
							C49.9,59.3,52.8,58.2,55.3,56.3"/>
					</g>
				</g>
				<g class="zonePlate-st1">
					<defs>
						<path id="ZONE_PLATE_SVGID_63_" class="zonePlate-st1" d="M51.1,20l3.6,0.6C63.5,22.1,70,31,69.5,41.9c-0.5,11.8-9.2,21.5-19.3,21.5
							c-0.9,0-1.7-0.1-2.5-0.2L44,62.5c0.8,0.1,1.7,0.2,2.5,0.2c10.1,0,18.7-9.6,19.3-21.5C66.3,30.4,59.9,21.5,51.1,20z"/>
					</defs>
					<clipPath id="ZONE_PLATE_SVGID_64_">
						<use xlink:href="#ZONE_PLATE_SVGID_63_"  style="overflow:visible;"/>
					</clipPath>
					<g class="zonePlate-st70">
						<path class="zonePlate-st29" d="M51.1,20l3.6,0.6c0.1,0,0.1,0,0.2,0L51.3,20C51.2,20,51.1,20,51.1,20"/>
						<path class="zonePlate-st30" d="M51.3,20l3.6,0.6c0.4,0.1,0.8,0.2,1.2,0.3l-3.6-0.6C52,20.2,51.6,20.1,51.3,20"/>
						<path class="zonePlate-st31" d="M52.4,20.3l3.6,0.6c0.4,0.1,0.7,0.2,1.1,0.3l-3.6-0.6C53.1,20.5,52.8,20.4,52.4,20.3"/>
						<path class="zonePlate-st32" d="M53.5,20.6l3.6,0.6c0.3,0.1,0.7,0.2,1,0.4L54.5,21C54.2,20.8,53.8,20.7,53.5,20.6"/>
						<path class="zonePlate-st33" d="M54.5,21l3.6,0.6c0.3,0.1,0.6,0.3,1,0.4l-3.6-0.6C55.1,21.3,54.8,21.1,54.5,21"/>
						<path class="zonePlate-st34" d="M55.4,21.4l3.6,0.6c0.3,0.2,0.6,0.3,0.9,0.5l-3.6-0.6C56.1,21.7,55.8,21.6,55.4,21.4"/>
						<path class="zonePlate-st35" d="M56.4,21.9l3.6,0.6c0.3,0.2,0.6,0.4,0.9,0.6l-3.6-0.6C57,22.3,56.7,22.1,56.4,21.9"/>
						<path class="zonePlate-st36" d="M57.3,22.5l3.6,0.6c0.3,0.2,0.6,0.4,0.9,0.6l-3.6-0.6C57.9,22.9,57.6,22.7,57.3,22.5"/>
						<path class="zonePlate-st37" d="M58.2,23.1l3.6,0.6c0.3,0.2,0.6,0.5,0.9,0.7L59,23.8C58.7,23.6,58.5,23.3,58.2,23.1"/>
						<path class="zonePlate-st38" d="M59,23.8l3.6,0.6c0.3,0.3,0.6,0.5,0.9,0.8l-3.6-0.6C59.6,24.4,59.3,24.1,59,23.8"/>
						<path class="zonePlate-st39" d="M59.9,24.7l3.6,0.6c0.3,0.3,0.6,0.6,0.9,1l-3.6-0.6C60.5,25.3,60.2,25,59.9,24.7"/>
						<path class="zonePlate-st40" d="M60.8,25.7l3.6,0.6c0.3,0.4,0.6,0.8,0.9,1.2l-3.6-0.6C61.4,26.4,61.1,26,60.8,25.7"/>
						<path class="zonePlate-st41" d="M61.7,26.8l3.6,0.6c0.3,0.5,0.7,1,1,1.5l-3.6-0.6C62.4,27.8,62.1,27.3,61.7,26.8"/>
						<path class="zonePlate-st50" d="M62.7,28.3l3.6,0.6c0.4,0.7,0.8,1.5,1.2,2.2l-3.6-0.6C63.5,29.8,63.1,29,62.7,28.3"/>
						<path class="zonePlate-st51" d="M63.9,30.5l3.6,0.6c1,2.1,1.6,4.5,1.9,7.1l-3.6-0.6C65.5,35.1,64.8,32.7,63.9,30.5"/>
						<path class="zonePlate-st50" d="M65.7,37.6l3.6,0.6c0.1,0.9,0.1,1.7,0.1,2.6l-3.6-0.6C65.9,39.3,65.8,38.5,65.7,37.6"/>
						<path class="zonePlate-st41" d="M65.9,40.2l3.6,0.6c0,0.3,0,0.7,0,1c0,0.3,0,0.6-0.1,0.9l-3.6-0.6c0-0.3,0-0.6,0.1-0.9
							C65.8,40.9,65.9,40.6,65.9,40.2"/>
						<path class="zonePlate-st40" d="M65.8,42.2l3.6,0.6c0,0.5-0.1,1.1-0.2,1.6l-3.6-0.6C65.7,43.3,65.7,42.7,65.8,42.2"/>
						<path class="zonePlate-st39" d="M65.6,43.8l3.6,0.6c-0.1,0.5-0.2,1-0.3,1.4l-3.6-0.6C65.4,44.8,65.5,44.3,65.6,43.8"/>
						<path class="zonePlate-st38" d="M65.3,45.2l3.6,0.6c-0.1,0.4-0.2,0.9-0.3,1.3L65,46.6C65.1,46.1,65.2,45.7,65.3,45.2"/>
						<path class="zonePlate-st37" d="M65,46.6l3.6,0.6c-0.1,0.4-0.2,0.8-0.4,1.2l-3.6-0.6C64.8,47.4,64.9,47,65,46.6"/>
						<path class="zonePlate-st36" d="M64.7,47.8l3.6,0.6c-0.1,0.4-0.3,0.8-0.4,1.2l-3.6-0.6C64.4,48.6,64.5,48.2,64.7,47.8"/>
						<path class="zonePlate-st35" d="M64.3,48.9l3.6,0.6c-0.1,0.4-0.3,0.8-0.5,1.1l-3.6-0.6C64,49.7,64.1,49.3,64.3,48.9"/>
						<path class="zonePlate-st34" d="M63.8,50.1l3.6,0.6c-0.2,0.4-0.3,0.7-0.5,1.1l-3.6-0.6C63.5,50.8,63.7,50.4,63.8,50.1"/>
						<path class="zonePlate-st33" d="M63.3,51.2l3.6,0.6c-0.2,0.4-0.4,0.7-0.6,1.1l-3.6-0.6C62.9,51.9,63.1,51.5,63.3,51.2"/>
						<path class="zonePlate-st32" d="M62.7,52.3l3.6,0.6c-0.2,0.4-0.4,0.7-0.6,1.1l-3.6-0.6C62.3,53,62.5,52.6,62.7,52.3"/>
						<path class="zonePlate-st31" d="M62.1,53.3l3.6,0.6c-0.2,0.4-0.5,0.7-0.7,1.1l-3.6-0.6C61.6,54.1,61.9,53.7,62.1,53.3"/>
						<path class="zonePlate-st30" d="M61.4,54.4L65,55c-0.3,0.4-0.5,0.7-0.8,1.1l-3.6-0.6C60.9,55.1,61.1,54.8,61.4,54.4"/>
						<path class="zonePlate-st29" d="M60.6,55.5l3.6,0.6c-0.3,0.4-0.6,0.8-1,1.1l-3.6-0.6C59.9,56.2,60.3,55.9,60.6,55.5"/>
						<path class="zonePlate-st28" d="M59.6,56.6l3.6,0.6c-0.4,0.4-0.8,0.8-1.2,1.2l-3.6-0.6C58.8,57.4,59.2,57,59.6,56.6"/>
						<path class="zonePlate-st27" d="M58.4,57.8l3.6,0.6c-0.5,0.5-1.1,0.9-1.6,1.3l-3.6-0.6C57.4,58.7,57.9,58.3,58.4,57.8"/>
						<path class="zonePlate-st26" d="M56.8,59.1l3.6,0.6c-3,2.3-6.5,3.6-10.3,3.6c-0.9,0-1.7-0.1-2.5-0.2L44,62.5c0.8,0.1,1.7,0.2,2.5,0.2
							C50.3,62.7,53.8,61.4,56.8,59.1"/>
					</g>
				</g>
				<g>
					<path class="zonePlate-st71" d="M48.7,16.4c11.7,0,20.7,11.2,20,24.9C68.1,55,58.1,66.2,46.4,66.2S25.7,55,26.4,41.3
						C27,27.5,37,16.4,48.7,16.4z M46.6,62.7c10.1,0,18.7-9.6,19.3-21.5c0.5-11.8-7.2-21.5-17.3-21.5s-18.7,9.6-19.3,21.5
						C28.7,53.1,36.5,62.7,46.6,62.7"/>
				</g>
				<g>
					<path class="zonePlate-st71" d="M48.4,23.2c8.5,0,15,8.1,14.5,18c-0.5,9.9-7.7,18-16.2,18c-8.5,0-15-8.1-14.5-18
						C32.7,31.3,39.9,23.2,48.4,23.2z M46.9,55.9c6.9,0,12.7-6.5,13.1-14.6c0.4-8-4.9-14.6-11.7-14.6c-6.8,0-12.7,6.6-13.1,14.6
						C34.8,49.3,40,55.9,46.9,55.9"/>
				</g>
				<g>
					<path class="zonePlate-st71" d="M48.1,30.1c5.2,0,9.3,5,9,11.2c-0.3,6.2-4.8,11.2-10,11.2c-5.2,0-9.3-5-9-11.2
						C38.3,35.1,42.8,30.1,48.1,30.1z M47.2,49c3.6,0,6.7-3.5,6.9-7.7c0.2-4.3-2.6-7.7-6.2-7.7c-3.6,0-6.7,3.5-6.9,7.7
						C40.8,45.5,43.6,49,47.2,49"/>
				</g>
				<g class="zonePlate-st1">
					<defs>
						<path id="ZONE_PLATE_SVGID_65_" class="zonePlate-st1" d="M51.6,16.6l3.6,0.6C65.5,18.9,73,29.3,72.4,41.9C71.8,55.6,61.7,66.8,50,66.8
							c-1,0-2-0.1-2.9-0.2l-3.6-0.6c1,0.2,1.9,0.2,2.9,0.2c11.7,0,21.7-11.2,22.3-24.9C69.3,28.7,61.9,18.3,51.6,16.6z"/>
					</defs>
					<clipPath id="ZONE_PLATE_SVGID_66_">
						<use xlink:href="#ZONE_PLATE_SVGID_65_"  style="overflow:visible;"/>
					</clipPath>
					<g class="zonePlate-st72">
						<path class="zonePlate-st18" d="M51.6,16.6l3.6,0.6c0.1,0,0.1,0,0.2,0l-3.6-0.6C51.8,16.6,51.7,16.6,51.6,16.6"/>
						<path class="zonePlate-st12" d="M51.8,16.6l3.6,0.6c0.5,0.1,0.9,0.2,1.3,0.3l-3.6-0.6C52.7,16.8,52.3,16.7,51.8,16.6"/>
						<path class="zonePlate-st13" d="M53.2,16.9l3.6,0.6c0.4,0.1,0.8,0.2,1.2,0.4l-3.6-0.6C54,17.2,53.6,17,53.2,16.9"/>
						<path class="zonePlate-st14" d="M54.4,17.3l3.6,0.6c0.4,0.1,0.8,0.3,1.2,0.4l-3.6-0.6C55.2,17.6,54.8,17.4,54.4,17.3"/>
						<path class="zonePlate-st15" d="M55.6,17.7l3.6,0.6c0.4,0.2,0.7,0.3,1.1,0.5l-3.6-0.6C56.3,18.1,56,17.9,55.6,17.7"/>
						<path class="zonePlate-st16" d="M56.7,18.2l3.6,0.6c0.4,0.2,0.7,0.4,1.1,0.6l-3.6-0.6C57.4,18.6,57.1,18.4,56.7,18.2"/>
						<path class="zonePlate-st8" d="M57.8,18.8l3.6,0.6c0.4,0.2,0.7,0.4,1,0.7l-3.6-0.6C58.5,19.2,58.1,19,57.8,18.8"/>
						<path class="zonePlate-st9" d="M58.8,19.5l3.6,0.6c0.3,0.2,0.7,0.5,1,0.7l-3.6-0.6C59.5,20,59.2,19.7,58.8,19.5"/>
						<path class="zonePlate-st10" d="M59.8,20.2l3.6,0.6c0.3,0.3,0.7,0.5,1,0.8l-3.6-0.6C60.5,20.8,60.2,20.5,59.8,20.2"/>
						<path class="zonePlate-st3" d="M60.9,21.1l3.6,0.6c0.4,0.3,0.7,0.6,1,1L61.9,22C61.6,21.7,61.2,21.4,60.9,21.1"/>
						<path class="zonePlate-st4" d="M61.9,22l3.6,0.6c0.4,0.4,0.7,0.7,1,1.1l-3.6-0.6C62.6,22.8,62.2,22.4,61.9,22"/>
						<path class="zonePlate-st5" d="M62.9,23.2l3.6,0.6c0.4,0.4,0.7,0.9,1.1,1.4L64,24.5C63.7,24,63.3,23.6,62.9,23.2"/>
						<path class="zonePlate-st6" d="M64,24.5l3.6,0.6c0.4,0.6,0.8,1.1,1.1,1.7l-3.6-0.6C64.8,25.6,64.4,25.1,64,24.5"/>
						<path class="zonePlate-st47" d="M65.1,26.2l3.6,0.6c0.5,0.8,1,1.7,1.4,2.6l-3.6-0.6C66.1,27.9,65.6,27.1,65.1,26.2"/>
						<path class="zonePlate-st48" d="M66.5,28.8l3.6,0.6c1.1,2.5,1.9,5.3,2.1,8.2L68.6,37C68.3,34.1,67.6,31.3,66.5,28.8"/>
						<path class="zonePlate-st47" d="M68.6,37l3.6,0.6c0.1,1,0.1,2,0.1,3L68.8,40C68.8,39,68.7,38,68.6,37"/>
						<path class="zonePlate-st6" d="M68.8,40l3.6,0.6c0,0.4,0,0.8,0,1.2c0,0.4,0,0.7-0.1,1l-3.6-0.6c0-0.3,0.1-0.7,0.1-1
							C68.8,40.9,68.8,40.5,68.8,40"/>
						<path class="zonePlate-st5" d="M68.7,42.3l3.6,0.6c-0.1,0.6-0.1,1.3-0.2,1.9l-3.6-0.6C68.6,43.6,68.6,42.9,68.7,42.3"/>
						<path class="zonePlate-st4" d="M68.5,44.2l3.6,0.6c-0.1,0.6-0.2,1.1-0.3,1.7l-3.6-0.6C68.3,45.3,68.4,44.8,68.5,44.2"/>
						<path class="zonePlate-st3" d="M68.2,45.9l3.6,0.6c-0.1,0.5-0.2,1-0.4,1.5l-3.6-0.6C68,46.9,68.1,46.4,68.2,45.9"/>
						<path class="zonePlate-st10" d="M67.8,47.4l3.6,0.6c-0.1,0.5-0.3,1-0.4,1.4l-3.6-0.6C67.6,48.4,67.7,47.9,67.8,47.4"/>
						<path class="zonePlate-st9" d="M67.4,48.8l3.6,0.6c-0.1,0.5-0.3,0.9-0.5,1.4l-3.6-0.6C67.1,49.7,67.3,49.3,67.4,48.8"/>
						<path class="zonePlate-st8" d="M66.9,50.2l3.6,0.6c-0.2,0.4-0.3,0.9-0.5,1.3l-3.6-0.6C66.6,51.1,66.8,50.6,66.9,50.2"/>
						<path class="zonePlate-st16" d="M66.4,51.5l3.6,0.6c-0.2,0.4-0.4,0.9-0.6,1.3l-3.6-0.6C66,52.3,66.2,51.9,66.4,51.5"/>
						<path class="zonePlate-st15" d="M65.8,52.8l3.6,0.6c-0.2,0.4-0.4,0.8-0.7,1.3L65.2,54C65.4,53.6,65.6,53.2,65.8,52.8"/>
						<path class="zonePlate-st14" d="M65.2,54l3.6,0.6c-0.2,0.4-0.5,0.8-0.7,1.2l-3.6-0.6C64.7,54.9,64.9,54.4,65.2,54"/>
						<path class="zonePlate-st13" d="M64.4,55.3l3.6,0.6c-0.3,0.4-0.5,0.8-0.8,1.2l-3.6-0.6C63.9,56.1,64.2,55.7,64.4,55.3"/>
						<path class="zonePlate-st12" d="M63.6,56.5l3.6,0.6c-0.3,0.4-0.6,0.9-0.9,1.3l-3.6-0.6C63,57.4,63.3,56.9,63.6,56.5"/>
						<path class="zonePlate-st18" d="M62.7,57.8l3.6,0.6c-0.4,0.4-0.7,0.9-1.1,1.3l-3.6-0.6C61.9,58.7,62.3,58.2,62.7,57.8"/>
						<path class="zonePlate-st22" d="M61.5,59.1l3.6,0.6c-0.4,0.5-0.9,0.9-1.4,1.4l-3.6-0.6C60.6,60,61.1,59.6,61.5,59.1"/>
						<path class="zonePlate-st21" d="M60.2,60.5l3.6,0.6c-0.6,0.6-1.2,1.1-1.9,1.6L58.3,62C58.9,61.5,59.6,61,60.2,60.5"/>
						<path class="zonePlate-st20" d="M58.3,62l3.6,0.6c-3.5,2.6-7.6,4.2-11.9,4.2c-1,0-2-0.1-2.9-0.2l-3.6-0.6c1,0.2,1.9,0.2,2.9,0.2
							C50.7,66.2,54.8,64.6,58.3,62"/>
					</g>
				</g>
				<g>
					<path class="zonePlate-st67" d="M48.9,12.9c13.3,0,23.5,12.7,22.8,28.3C71,56.9,59.5,69.6,46.2,69.6c-13.3,0-23.5-12.7-22.8-28.3
						C24.2,25.6,35.6,12.9,48.9,12.9z M46.4,66.2c11.7,0,21.7-11.2,22.3-24.9c0.6-13.7-8.4-24.9-20-24.9S27,27.5,26.4,41.3
						C25.7,55,34.7,66.2,46.4,66.2"/>
				</g>
				<g class="zonePlate-st1">
					<defs>
						<path id="ZONE_PLATE_SVGID_67_" class="zonePlate-st1" d="M52.2,13.2l3.6,0.6C67.5,15.7,76,27.6,75.3,41.9c-0.7,15.6-12.1,28.3-25.4,28.3
							c-1.1,0-2.2-0.1-3.3-0.3l-3.6-0.6c1.1,0.2,2.2,0.3,3.3,0.3c13.3,0,24.7-12.7,25.4-28.3C72.3,27,63.8,15.1,52.2,13.2z"/>
					</defs>
					<clipPath id="ZONE_PLATE_SVGID_68_">
						<use xlink:href="#ZONE_PLATE_SVGID_67_"  style="overflow:visible;"/>
					</clipPath>
					<g class="zonePlate-st73">
						<path class="zonePlate-st29" d="M52.2,13.2l3.6,0.6c0.1,0,0.2,0,0.2,0l-3.6-0.6C52.4,13.2,52.3,13.2,52.2,13.2"/>
						<path class="zonePlate-st30" d="M52.4,13.2l3.6,0.6c0.5,0.1,1,0.2,1.5,0.3L54,13.6C53.5,13.4,53,13.3,52.4,13.2"/>
						<path class="zonePlate-st31" d="M54,13.6l3.6,0.6c0.5,0.1,0.9,0.3,1.4,0.4L55.4,14C54.9,13.8,54.4,13.7,54,13.6"/>
						<path class="zonePlate-st32" d="M55.4,14l3.6,0.6c0.4,0.2,0.9,0.3,1.3,0.5l-3.6-0.6C56.3,14.3,55.8,14.1,55.4,14"/>
						<path class="zonePlate-st33" d="M56.7,14.5l3.6,0.6c0.4,0.2,0.8,0.4,1.3,0.6L58,15.1C57.6,14.9,57.1,14.7,56.7,14.5"/>
						<path class="zonePlate-st34" d="M58,15.1l3.6,0.6c0.4,0.2,0.8,0.4,1.2,0.7l-3.6-0.6C58.8,15.5,58.4,15.3,58,15.1"/>
						<path class="zonePlate-st35" d="M59.2,15.7l3.6,0.6c0.4,0.2,0.8,0.5,1.2,0.7l-3.6-0.6C60,16.2,59.6,16,59.2,15.7"/>
						<path class="zonePlate-st36" d="M60.4,16.5l3.6,0.6c0.4,0.3,0.8,0.5,1.2,0.8l-3.6-0.6C61.2,17,60.8,16.7,60.4,16.5"/>
						<path class="zonePlate-st37" d="M61.5,17.3l3.6,0.6c0.4,0.3,0.8,0.6,1.2,1l-3.6-0.6C62.3,17.9,61.9,17.6,61.5,17.3"/>
						<path class="zonePlate-st38" d="M62.7,18.3l3.6,0.6c0.4,0.4,0.8,0.7,1.2,1.1l-3.6-0.6C63.5,19,63.1,18.6,62.7,18.3"/>
						<path class="zonePlate-st39" d="M63.9,19.4l3.6,0.6c0.4,0.4,0.8,0.8,1.2,1.3L65,20.7C64.7,20.2,64.3,19.8,63.9,19.4"/>
						<path class="zonePlate-st40" d="M65,20.7l3.6,0.6c0.4,0.5,0.8,1,1.2,1.5l-3.6-0.6C65.9,21.7,65.5,21.1,65,20.7"/>
						<path class="zonePlate-st41" d="M66.3,22.2l3.6,0.6c0.5,0.6,0.9,1.3,1.3,2l-3.6-0.6C67.2,23.5,66.7,22.8,66.3,22.2"/>
						<path class="zonePlate-st50" d="M67.6,24.2l3.6,0.6c0.6,0.9,1.1,1.9,1.5,3l-3.6-0.6C68.6,26.1,68.1,25.1,67.6,24.2"/>
						<path class="zonePlate-st51" d="M69.1,27.1l3.6,0.6c1.3,2.8,2.1,6,2.4,9.3l-3.6-0.6C71.2,33.1,70.4,30,69.1,27.1"/>
						<path class="zonePlate-st50" d="M71.6,36.4l3.6,0.6c0.1,1.1,0.2,2.3,0.2,3.4l-3.6-0.6C71.7,38.7,71.7,37.6,71.6,36.4"/>
						<path class="zonePlate-st41" d="M71.7,39.9l3.6,0.6c0,0.5,0,0.9,0,1.4c0,0.4,0,0.8-0.1,1.2l-3.6-0.6c0-0.4,0.1-0.8,0.1-1.2
							C71.7,40.8,71.7,40.3,71.7,39.9"/>
						<path class="zonePlate-st40" d="M71.6,42.5l3.6,0.6c-0.1,0.7-0.1,1.4-0.2,2.1l-3.6-0.6C71.5,43.9,71.5,43.2,71.6,42.5"/>
						<path class="zonePlate-st39" d="M71.4,44.6l3.6,0.6c-0.1,0.6-0.2,1.3-0.3,1.9L71,46.5C71.2,45.9,71.3,45.2,71.4,44.6"/>
						<path class="zonePlate-st38" d="M71,46.5l3.6,0.6c-0.1,0.6-0.3,1.2-0.4,1.7l-3.6-0.6C70.8,47.7,70.9,47.1,71,46.5"/>
						<path class="zonePlate-st37" d="M70.6,48.2l3.6,0.6c-0.1,0.5-0.3,1.1-0.5,1.6l-3.6-0.6C70.3,49.3,70.5,48.8,70.6,48.2"/>
						<path class="zonePlate-st36" d="M70.1,49.9l3.6,0.6c-0.2,0.5-0.3,1-0.5,1.5l-3.6-0.6C69.8,50.9,70,50.4,70.1,49.9"/>
						<path class="zonePlate-st35" d="M69.6,51.4l3.6,0.6c-0.2,0.5-0.4,1-0.6,1.5L69,52.9C69.2,52.4,69.4,51.9,69.6,51.4"/>
						<path class="zonePlate-st34" d="M69,52.9l3.6,0.6c-0.2,0.5-0.4,1-0.7,1.4l-3.6-0.6C68.6,53.9,68.8,53.4,69,52.9"/>
						<path class="zonePlate-st33" d="M68.3,54.3l3.6,0.6c-0.2,0.5-0.5,1-0.7,1.4l-3.6-0.6C67.9,55.3,68.1,54.8,68.3,54.3"/>
						<path class="zonePlate-st32" d="M67.6,55.8l3.6,0.6c-0.3,0.5-0.5,1-0.8,1.4l-3.6-0.6C67.1,56.7,67.3,56.3,67.6,55.8"/>
						<path class="zonePlate-st31" d="M66.8,57.2l3.6,0.6c-0.3,0.5-0.6,1-0.9,1.4l-3.6-0.6C66.1,58.2,66.5,57.7,66.8,57.2"/>
						<path class="zonePlate-st30" d="M65.8,58.6l3.6,0.6c-0.3,0.5-0.7,1-1.1,1.4L64.7,60C65.1,59.6,65.5,59.1,65.8,58.6"/>
						<path class="zonePlate-st29" d="M64.7,60l3.6,0.6c-0.4,0.5-0.8,1-1.3,1.5l-3.6-0.6C63.9,61.1,64.3,60.6,64.7,60"/>
						<path class="zonePlate-st28" d="M63.5,61.5l3.6,0.6c-0.5,0.5-1,1.1-1.6,1.6l-3.6-0.6C62.4,62.6,63,62.1,63.5,61.5"/>
						<path class="zonePlate-st27" d="M61.9,63.1l3.6,0.6c-0.7,0.6-1.4,1.2-2.1,1.8l-3.6-0.6C60.5,64.3,61.2,63.7,61.9,63.1"/>
						<path class="zonePlate-st26" d="M59.8,64.9l3.6,0.6c-4,3-8.6,4.7-13.5,4.7c-1.1,0-2.2-0.1-3.3-0.3l-3.6-0.6c1.1,0.2,2.2,0.3,3.3,0.3
							C51.2,69.6,55.8,67.9,59.8,64.9"/>
					</g>
				</g>
				<g>
					<path class="zonePlate-st71" d="M49,9.5c14.9,0,26.4,14.3,25.6,31.8C73.8,58.8,61,73,46.1,73S19.7,58.8,20.5,41.3
						C21.3,23.8,34.1,9.5,49,9.5z M46.2,69.6c13.3,0,24.7-12.7,25.4-28.3c0.7-15.6-9.5-28.3-22.8-28.3c-13.3,0-24.7,12.7-25.4,28.3
						C22.7,56.9,32.9,69.6,46.2,69.6"/>
				</g>
				<g>
					<path class="zonePlate-st67" d="M48.6,19.8c-10.1,0-18.7,9.6-19.3,21.5c-0.5,11.8,7.2,21.5,17.3,21.5s18.7-9.6,19.3-21.5
						C66.4,29.4,58.6,19.8,48.6,19.8z M62.9,41.3c-0.5,9.9-7.7,18-16.2,18c-8.5,0-15-8.1-14.5-18c0.5-9.9,7.7-18,16.2-18
						S63.4,31.3,62.9,41.3"/>
				</g>
				<g>
					
						<ellipse transform="matrix(0.1629 -0.9866 0.9866 0.1629 -0.8997 81.4658)" class="zonePlate-st67" cx="47.6" cy="41.3" rx="7.8" ry="6.6"/>
				</g>
				<g class="zonePlate-st1">
					<defs>
						<path id="ZONE_PLATE_SVGID_69_" class="zonePlate-st1" d="M52.8,9.8l3.6,0.6c13,2.2,22.6,15.4,21.8,31.5c-0.8,17.5-13.6,31.8-28.5,31.8
							c-1.3,0-2.5-0.1-3.7-0.3l-3.6-0.6c1.2,0.2,2.5,0.3,3.7,0.3C61,73,73.8,58.8,74.6,41.3C75.3,25.2,65.8,12,52.8,9.8z"/>
					</defs>
					<clipPath id="ZONE_PLATE_SVGID_70_">
						<use xlink:href="#ZONE_PLATE_SVGID_69_"  style="overflow:visible;"/>
					</clipPath>
					<g class="zonePlate-st74">
						<path class="zonePlate-st18" d="M52.8,9.8l3.6,0.6c0.1,0,0.2,0,0.3,0L53,9.8C52.9,9.8,52.9,9.8,52.8,9.8"/>
						<path class="zonePlate-st12" d="M53,9.8l3.6,0.6c0.6,0.1,1.1,0.2,1.7,0.4l-3.6-0.6C54.2,10.1,53.6,9.9,53,9.8"/>
						<path class="zonePlate-st13" d="M54.7,10.2l3.6,0.6c0.5,0.1,1.1,0.3,1.6,0.5l-3.6-0.6C55.8,10.5,55.3,10.4,54.7,10.2"/>
						<path class="zonePlate-st14" d="M56.3,10.7l3.6,0.6c0.5,0.2,1,0.4,1.5,0.6l-3.6-0.6C57.3,11,56.8,10.9,56.3,10.7"/>
						<path class="zonePlate-st15" d="M57.8,11.2l3.6,0.6c0.5,0.2,1,0.4,1.4,0.6l-3.6-0.6C58.8,11.7,58.3,11.4,57.8,11.2"/>
						<path class="zonePlate-st16" d="M59.2,11.9l3.6,0.6c0.5,0.2,0.9,0.5,1.4,0.7l-3.6-0.6C60.1,12.4,59.7,12.1,59.2,11.9"/>
						<path class="zonePlate-st8" d="M60.6,12.6l3.6,0.6c0.5,0.3,0.9,0.5,1.3,0.8l-3.6-0.6C61.5,13.2,61,12.9,60.6,12.6"/>
						<path class="zonePlate-st9" d="M61.9,13.5l3.6,0.6c0.4,0.3,0.9,0.6,1.3,0.9l-3.6-0.6C62.8,14.1,62.4,13.8,61.9,13.5"/>
						<path class="zonePlate-st10" d="M63.2,14.4l3.6,0.6c0.4,0.3,0.9,0.7,1.3,1.1l-3.6-0.6C64.1,15.1,63.7,14.8,63.2,14.4"/>
						<path class="zonePlate-st3" d="M64.5,15.5l3.6,0.6c0.4,0.4,0.9,0.8,1.3,1.2l-3.6-0.6C65.4,16.3,65,15.9,64.5,15.5"/>
						<path class="zonePlate-st4" d="M65.8,16.7l3.6,0.6c0.5,0.5,0.9,0.9,1.3,1.4l-3.6-0.6C66.7,17.7,66.3,17.2,65.8,16.7"/>
						<path class="zonePlate-st5" d="M67.2,18.2l3.6,0.6c0.5,0.6,0.9,1.1,1.4,1.7l-3.6-0.6C68.1,19.3,67.6,18.7,67.2,18.2"/>
						<path class="zonePlate-st6" d="M68.5,19.9l3.6,0.6c0.5,0.7,1,1.4,1.5,2.2L70,22.1C69.5,21.3,69,20.6,68.5,19.9"/>
						<path class="zonePlate-st47" d="M70,22.1l3.6,0.6c0.6,1.1,1.2,2.2,1.7,3.3l-3.6-0.6C71.2,24.2,70.6,23.1,70,22.1"/>
						<path class="zonePlate-st48" d="M71.7,25.4l3.6,0.6c1.4,3.2,2.4,6.7,2.7,10.4l-3.6-0.6C74.1,32.1,73.1,28.6,71.7,25.4"/>
						<path class="zonePlate-st47" d="M74.5,35.9l3.6,0.6c0.1,1.3,0.2,2.6,0.2,3.9l-3.6-0.6C74.6,38.4,74.6,37.1,74.5,35.9"/>
						<path class="zonePlate-st6" d="M74.6,39.7l3.6,0.6c0,0.5,0,1,0,1.5c0,0.4,0,0.9-0.1,1.3l-3.6-0.6c0-0.4,0.1-0.9,0.1-1.3
							C74.6,40.7,74.6,40.2,74.6,39.7"/>
						<path class="zonePlate-st5" d="M74.5,42.6l3.6,0.6c-0.1,0.8-0.2,1.6-0.3,2.4L74.2,45C74.4,44.2,74.4,43.4,74.5,42.6"/>
						<path class="zonePlate-st4" d="M74.2,45l3.6,0.6c-0.1,0.7-0.2,1.4-0.4,2.1l-3.6-0.6C74,46.4,74.1,45.7,74.2,45"/>
						<path class="zonePlate-st3" d="M73.9,47.1l3.6,0.6c-0.1,0.7-0.3,1.3-0.5,2l-3.6-0.6C73.6,48.4,73.7,47.8,73.9,47.1"/>
						<path class="zonePlate-st10" d="M73.4,49.1l3.6,0.6c-0.2,0.6-0.3,1.2-0.5,1.8l-3.6-0.6C73.1,50.3,73.2,49.7,73.4,49.1"/>
						<path class="zonePlate-st9" d="M72.9,50.9l3.6,0.6c-0.2,0.6-0.4,1.2-0.6,1.7l-3.6-0.6C72.5,52.1,72.7,51.5,72.9,50.9"/>
						<path class="zonePlate-st8" d="M72.3,52.6l3.6,0.6c-0.2,0.6-0.4,1.1-0.7,1.7l-3.6-0.6C71.8,53.8,72.1,53.2,72.3,52.6"/>
						<path class="zonePlate-st16" d="M71.6,54.3l3.6,0.6c-0.2,0.5-0.5,1.1-0.7,1.6l-3.6-0.6C71.1,55.4,71.4,54.9,71.6,54.3"/>
						<path class="zonePlate-st15" d="M70.9,55.9l3.6,0.6c-0.3,0.5-0.5,1.1-0.8,1.6L70,57.5C70.3,57,70.6,56.5,70.9,55.9"/>
						<path class="zonePlate-st14" d="M70,57.5l3.6,0.6c-0.3,0.5-0.6,1.1-0.9,1.6l-3.6-0.6C69.4,58.6,69.7,58.1,70,57.5"/>
						<path class="zonePlate-st13" d="M69.1,59.1l3.6,0.6c-0.3,0.5-0.7,1.1-1.1,1.6L68,60.7C68.4,60.2,68.7,59.7,69.1,59.1"/>
						<path class="zonePlate-st12" d="M68,60.7l3.6,0.6c-0.4,0.6-0.8,1.1-1.2,1.6l-3.6-0.6C67.2,61.8,67.6,61.3,68,60.7"/>
						<path class="zonePlate-st18" d="M66.8,62.3l3.6,0.6C70,63.5,69.5,64,69,64.6L65.4,64C65.9,63.4,66.4,62.9,66.8,62.3"/>
						<path class="zonePlate-st22" d="M65.4,64l3.6,0.6c-0.6,0.6-1.1,1.2-1.8,1.8l-3.6-0.6C64.2,65.2,64.8,64.6,65.4,64"/>
						<path class="zonePlate-st21" d="M63.6,65.7l3.6,0.6c-0.8,0.7-1.6,1.4-2.4,2l-3.6-0.6C62.1,67.1,62.9,66.5,63.6,65.7"/>
						<path class="zonePlate-st20" d="M61.3,67.7l3.6,0.6c-4.4,3.3-9.7,5.3-15.2,5.3c-1.3,0-2.5-0.1-3.7-0.3l-3.6-0.6c1.2,0.2,2.5,0.3,3.7,0.3
							C51.6,73,56.8,71.1,61.3,67.7"/>
					</g>
				</g>
			</g>
		</g>
	</g>
	<g>
		<path class="zonePlate-st75" d="M81.1,42.9c-1.2,0-2.3-1-2.3-2.1c0-1.2,0.8-2.1,2-2.1h0.2c1.2,0,2.1,1,2.1,2.1
			C83.3,41.9,82.3,42.9,81.1,42.9z M44.8,42.9c-1.2,0-2.3-1-2.3-2.1c0-1.2,0.8-2.1,2-2.1h0.2c1.2,0,2.1,1,2.1,2.1
			C46.9,41.9,46,42.9,44.8,42.9z M32.7,42.9c-1.2,0-2.3-1-2.3-2.1c0-1.2,0.8-2.1,2-2.1h0.2c1.2,0,2.1,1,2.1,2.1
			C34.8,41.9,33.8,42.9,32.7,42.9z M20.5,42.9c-1.2,0-2.3-1-2.3-2.1c0-1.2,0.8-2.1,2-2.1h0.2c1.2,0,2.1,1,2.1,2.1
			C22.7,41.9,21.7,42.9,20.5,42.9z"/>
	</g>
	<g>
		<path class="zonePlate-st75" d="M101.1,42.8c-0.3,0-0.6-0.1-0.9-0.2c-1.1-0.5-1.7-1.8-1.2-2.9c0.5-1.1,1.7-1.6,2.7-1.1l0.2,0.1
			c1.1,0.5,1.6,1.8,1.1,2.8C102.7,42.3,101.9,42.8,101.1,42.8z M91.7,36.2c-0.3,0-0.6-0.1-0.9-0.2c-1.1-0.5-1.7-1.8-1.2-2.9
			c0.5-1.1,1.6-1.6,2.7-1.1l0.2,0.1c1.1,0.5,1.6,1.7,1.1,2.8C93.3,35.7,92.5,36.2,91.7,36.2z M80.6,31.2c-0.3,0-0.6-0.1-0.9-0.2
			c-1.1-0.5-1.7-1.8-1.2-2.9c0.5-1.1,1.6-1.6,2.7-1.1l0.2,0.1c1.1,0.5,1.6,1.7,1.1,2.8C82.2,30.7,81.4,31.2,80.6,31.2z M44.8,28
			C44.7,28,44.7,28,44.8,28c-1.2,0-2.3-1-2.3-2.2c0-1.2,0.8-2.1,2.1-2.1l0.2,0c1.2,0,2.1,1,2.1,2.2C46.9,27.1,45.9,28,44.8,28z
			 M32.7,27.7C32.6,27.7,32.6,27.7,32.7,27.7c-1.2,0-2.3-1-2.3-2.2c0-1.2,1-2,2.1-2.1l0.2,0c1.2,0,2.1,1,2.1,2.2
			C34.8,26.8,33.8,27.7,32.7,27.7z M20.5,27.3C20.5,27.3,20.5,27.3,20.5,27.3c-1.2,0-2.3-1-2.3-2.2c0-1.2,0.9-2.1,2.1-2.1l0.2,0
			c1.2,0,2.1,1,2.1,2.2C22.6,26.4,21.7,27.3,20.5,27.3z"/>
	</g>
	<g>
		<path class="zonePlate-st75" d="M20.5,57.8c-1.2,0-2.2-0.9-2.3-2.1c0-1.2,0.8-2.2,2-2.2l0.2,0c1.2,0,2.2,0.9,2.2,2.1
			C22.7,56.8,21.8,57.8,20.5,57.8C20.6,57.8,20.6,57.8,20.5,57.8z M9,42.9c-1.2,0-2.3-1-2.3-2.1c0-1.2,0.8-2.1,2-2.1H9
			c1.2,0,2.1,1,2.1,2.1C11.1,41.9,10.2,42.9,9,42.9z M9,27.3C9,27.3,9,27.3,9,27.3c-1.2,0-2.3-1-2.3-2.2c0-1.2,0.9-2.1,2.1-2.1
			l0.2,0c1.2,0,2.1,1,2.1,2.2C11.1,26.4,10.2,27.3,9,27.3z M9,57.8c-1.2,0-2.2-0.9-2.3-2.1c0-1.2,0.8-2.2,2-2.2l0.2,0
			c1.2,0,2.2,0.9,2.2,2.1C11.2,56.8,10.2,57.8,9,57.8C9,57.8,9,57.8,9,57.8z M32.7,57.6c-1.2,0-2.2-0.9-2.3-2.1c0-1.2,0.8-2.2,2-2.2
			l0.2,0c0,0,0,0,0,0c1.2,0,2.1,0.9,2.1,2.1C34.8,56.6,33.9,57.6,32.7,57.6C32.7,57.6,32.7,57.6,32.7,57.6z M44.8,57.4
			c-1.2,0-2.2-0.9-2.3-2.1c0-1.2,0.8-2.2,2-2.2l0.2,0c1.1,0,2.2,0.9,2.2,2.1C46.9,56.4,46,57.3,44.8,57.4
			C44.8,57.4,44.8,57.4,44.8,57.4z M80.6,54.5c-0.8,0-1.6-0.4-2-1.2c-0.5-1.1-0.1-2.3,1-2.8l0.2-0.1c1.1-0.5,2.3,0,2.8,1.1
			c0.5,1.1,0,2.3-1.1,2.8C81.2,54.4,80.9,54.5,80.6,54.5z M91.6,49.5c-0.8,0-1.6-0.4-2-1.2c-0.5-1.1-0.1-2.3,1-2.8l0.2-0.1
			c1.1-0.5,2.3,0,2.8,1.1c0.5,1.1,0,2.3-1.1,2.8C92.3,49.5,91.9,49.5,91.6,49.5z"/>
	</g>
	<g>
		<path class="zonePlate-st75" d="M112.7,43.1c-0.3,0-0.6-0.1-0.9-0.2c-1.1-0.5-1.7-1.8-1.2-2.9c0.5-1.1,1.7-1.6,2.7-1.1l0.2,0.1
			c1.1,0.5,1.6,1.8,1.1,2.8C114.3,42.6,113.5,43.1,112.7,43.1z"/>
	</g>
</g>
</svg>
