solid OpenSCAD_Model
  facet normal 0.942809 0 -0.333333
    outer loop
      vertex 11.547 -20 3.55271e-015
      vertex 11.547 20 3.55271e-015
      vertex 23.094 0 32.6598
    endloop
  endfacet
  facet normal 0.471405 0.816496 0.333334
    outer loop
      vertex -11.547 20 32.6598
      vertex 23.094 0 32.6598
      vertex 11.547 20 3.55271e-015
    endloop
  endfacet
  facet normal -0.471405 0.816496 -0.333334
    outer loop
      vertex -23.094 0 3.55271e-015
      vertex -11.547 20 32.6598
      vertex 11.547 20 3.55271e-015
    endloop
  endfacet
  facet normal -0 0 -1
    outer loop
      vertex -23.094 0 3.55271e-015
      vertex 11.547 20 3.55271e-015
      vertex 11.547 -20 3.55271e-015
    endloop
  endfacet
  facet normal 0.471405 -0.816496 0.333334
    outer loop
      vertex -11.547 -20 32.6598
      vertex 11.547 -20 3.55271e-015
      vertex 23.094 0 32.6598
    endloop
  endfacet
  facet normal -0.471405 -0.816496 -0.333334
    outer loop
      vertex -23.094 0 3.55271e-015
      vertex 11.547 -20 3.55271e-015
      vertex -11.547 -20 32.6598
    endloop
  endfacet
  facet normal 0 0 1
    outer loop
      vertex -11.547 -20 32.6598
      vertex 23.094 0 32.6598
      vertex -11.547 20 32.6598
    endloop
  endfacet
  facet normal -0.942809 0 0.333333
    outer loop
      vertex -23.094 0 3.55271e-015
      vertex -11.547 -20 32.6598
      vertex -11.547 20 32.6598
    endloop
  endfacet
endsolid OpenSCAD_Model
