<svg version="1.1" id="Layer_1" xmlns="http://www.w3.org/2000/svg" xmlns:xlink="http://www.w3.org/1999/xlink" x="0" y="0" width="324" height="62" viewBox="0 0 324 62" xml:space="preserve"><path fill="#A9ABAD" d="M63.54 23.287v28.56h21.203V45.22H70.76v-4.994h12.56V33.6H70.76v-3.687h13.502v-6.626H63.54zm39.507 0v14.781c-2.602-4.465-8.609-14.78-8.609-14.78h-6.604v28.558h6.839V37.424l8.455 14.422h6.756V23.287h-6.837zm10.979 0v28.56h21.203V45.22h-13.982v-4.994h12.56V33.6h-12.56v-3.687h13.5v-6.626h-20.721zm45.746 21.783c-1.253-2.129-2.235-3.587-3-4.451-.313-.352-.67-.693-1.05-1.024 1.359-.5 2.47-1.237 3.309-2.218 1.27-1.485 1.915-3.372 1.915-5.61 0-1.751-.42-3.337-1.248-4.715-.851-1.416-2.008-2.418-3.445-2.979-1.35-.528-3.389-.786-6.227-.786H138.3v28.56h7.224V40.823c1.303.003 1.889.144 2.118.23.366.136.732.407 1.09.807.3.336.986 1.256 2.556 3.743l3.974 6.242h8.533l-4.024-6.775zm-6.54-11.553a1.66 1.66 0 01-.874.687c-.222.08-1.065.26-4.175.26h-2.658v-4.551h2.864c2.601 0 3.326.05 3.526.08.531.093.943.309 1.227.654.287.35.429.833.429 1.47 0 .579-.114 1.051-.34 1.4zm17.393-9.227a12.458 12.458 0 00-5.254 5.37c-1.17 2.28-1.762 4.91-1.762 7.817 0 2.675.529 5.191 1.569 7.476 1.07 2.348 2.695 4.181 4.83 5.448 2.108 1.252 4.605 1.887 7.414 1.887 2.196 0 4.39-.442 6.524-1.31 2.143-.875 3.815-1.915 4.973-3.095l.31-.312V35.54H176.17v6.626h5.8v1.69c-.605.435-1.286.83-2.082 1.155-.933.38-1.869.574-2.788.574-1.83 0-3.265-.645-4.383-1.97-1.15-1.359-1.733-3.498-1.733-6.355 0-2.62.568-4.594 1.69-5.86 1.103-1.247 2.566-1.852 4.473-1.852 1.228 0 2.21.293 3 .901.791.607 1.318 1.424 1.61 2.492l.266.968 7.079-1.405-.222-1.062c-.555-2.663-1.822-4.787-3.77-6.313-1.938-1.515-4.617-2.285-7.965-2.285-2.566 0-4.761.486-6.521 1.446zm37.521-1.003s-3.858 6.974-5.17 9.342l-5.288-9.342h-8.465l10.017 16.667v11.892h7.22V39.991l10.056-16.704h-8.37zM63.536 10.08h1.662v4.181c0 .664.022 1.096.063 1.291.07.316.241.57.507.762.27.191.637.286 1.102.286.473 0 .828-.09 1.069-.27.24-.182.384-.403.432-.668.05-.262.073-.7.073-1.31V10.08h1.663v4.052c0 .927-.045 1.58-.136 1.964a2.123 2.123 0 01-.498.969c-.24.261-.563.471-.969.629-.405.154-.933.232-1.585.232-.786 0-1.382-.084-1.79-.255-.404-.17-.727-.39-.961-.662a2.075 2.075 0 01-.467-.857c-.11-.44-.165-1.093-.165-1.956V10.08zm9.12 7.701v-1.478h1.575v1.478h-1.575zm3.602-2.506l1.613-.145c.096.51.295.883.593 1.122.297.239.7.359 1.206.359.537 0 .939-.107 1.211-.32.273-.211.41-.46.41-.743a.68.68 0 00-.172-.466c-.113-.128-.313-.24-.597-.334a22.306 22.306 0 00-1.327-.335c-.89-.207-1.516-.46-1.874-.761-.505-.423-.756-.94-.756-1.55 0-.391.119-.759.355-1.099.237-.341.58-.6 1.026-.78.446-.18.984-.267 1.615-.267 1.032 0 1.808.212 2.329.638.52.425.795.995.822 1.704l-1.663.058c-.07-.397-.223-.68-.454-.854-.234-.173-.582-.26-1.045-.26-.482 0-.858.092-1.13.278a.55.55 0 00-.262.478c0 .182.082.338.246.468.21.164.719.336 1.524.515.806.179 1.402.362 1.788.553.386.19.69.452.908.784.216.331.325.74.325 1.227 0 .441-.128.856-.392 1.24-.26.386-.633.673-1.11.86-.48.187-1.079.28-1.793.28-1.04 0-1.84-.225-2.397-.676-.558-.452-.893-1.11-1-1.974zm8.906 2.506v-1.478h1.574v1.478h-1.574zm8.048-7.701h3.035c.684 0 1.205.05 1.565.146.483.134.895.37 1.24.71.343.34.606.756.786 1.25.179.491.27 1.097.27 1.819 0 .633-.086 1.18-.254 1.639-.205.56-.5 1.014-.88 1.36-.288.263-.678.467-1.167.614-.368.11-.858.163-1.472.163h-3.123V10.08zm1.66 1.306v5.09h1.242c.464 0 .8-.025 1.007-.073.271-.063.494-.17.672-.321.177-.15.323-.397.436-.742.111-.344.169-.813.169-1.406 0-.594-.058-1.05-.17-1.368-.112-.318-.27-.567-.472-.745a1.639 1.639 0 00-.77-.36c-.232-.051-.688-.075-1.365-.075h-.75zm7.477 6.395V10.08h6.098v1.307h-4.436v1.699h4.128v1.307h-4.128v2.085h4.588v1.304h-6.25zm8.494 0V10.08h2.663c1.01 0 1.669.04 1.976.117.47.115.864.366 1.184.753.317.385.475.886.475 1.498 0 .473-.09.869-.276 1.192a2.145 2.145 0 01-.698.758 2.48 2.48 0 01-.859.365c-.398.074-.97.11-1.724.11h-1.081v2.91h-1.66zm1.66-6.395v2.18h.908c.655 0 1.093-.04 1.314-.12.22-.082.393-.206.52-.378a.985.985 0 00.187-.597c0-.28-.088-.51-.263-.692-.175-.18-.4-.294-.667-.34-.199-.035-.599-.053-1.197-.053h-.802zm13.39 6.395h-1.809l-.714-1.747h-3.289l-.682 1.747h-1.764l3.199-7.702h1.776l3.283 7.702zm-3.06-3.052l-1.13-2.853-1.114 2.853h2.245zm4.777 3.052V10.08h3.497c.879 0 1.516.07 1.918.208.396.139.718.385.955.739.24.354.361.756.361 1.212 0 .579-.182 1.054-.544 1.431-.36.377-.902.614-1.62.712a3.9 3.9 0 01.887.646c.234.236.547.652.943 1.25l1.005 1.504h-1.987L131.83 16.1c-.432-.596-.724-.974-.881-1.128a1.274 1.274 0 00-.502-.32c-.177-.058-.456-.088-.84-.088h-.338v3.217h-1.66zm1.66-4.445h1.231c.796 0 1.297-.031 1.494-.095a.895.895 0 00.468-.324.958.958 0 00.17-.577c0-.257-.075-.468-.225-.627-.146-.158-.356-.258-.626-.302-.136-.016-.539-.025-1.215-.025h-1.297v1.95zm9.32 4.445v-6.395h-2.438V10.08h6.529v1.307h-2.43v6.395h-1.66zm5.973 0V10.08h2.486l1.486 5.254 1.472-5.254h2.49v7.702h-1.54l-.003-6.062-1.625 6.062h-1.606l-1.618-6.062-.005 6.062h-1.537zm10.424 0V10.08h6.098v1.307h-4.435v1.699h4.127v1.307h-4.127v2.085h4.588v1.304h-6.251zm8.493 0V10.08h1.61l3.393 5.17v-5.17h1.535v7.702h-1.658l-3.344-5.057v5.057h-1.536zm10.982 0v-6.395h-2.44V10.08h6.53v1.307h-2.43v6.395h-1.66zm9.66-3.793c0-.785.127-1.444.378-1.976.186-.394.442-.747.766-1.057a3.18 3.18 0 011.064-.693c.515-.204 1.105-.306 1.776-.306 1.216 0 2.186.352 2.914 1.055.73.705 1.092 1.684 1.092 2.94 0 1.244-.36 2.218-1.084 2.92-.722.703-1.69 1.054-2.899 1.054-1.225 0-2.197-.35-2.92-1.049-.724-.699-1.087-1.66-1.087-2.888zm1.711-.052c0 .874.216 1.536.646 1.988.433.451.983.676 1.647.676.666 0 1.21-.223 1.637-.671.428-.449.641-1.12.641-2.016 0-.884-.209-1.544-.625-1.978-.415-.437-.966-.654-1.653-.654-.688 0-1.243.22-1.663.661-.42.44-.63 1.106-.63 1.994zm8.404 3.845V10.08h5.649v1.307H195.9v1.815h3.438v1.306H195.9v3.274h-1.663z"/><g fill="#A9ABAD"><path d="M240.652 17.893c0-2.553.687-4.552 2.06-5.998 1.375-1.444 3.146-2.168 5.316-2.168 1.423 0 2.706.341 3.845 1.02 1.145.679 2.013 1.625 2.615 2.838.595 1.214.898 2.591.898 4.13 0 1.56-.317 2.957-.946 4.19-.632 1.23-1.527 2.162-2.679 2.796a7.684 7.684 0 01-3.742.95c-1.452 0-2.746-.35-3.889-1.05a6.753 6.753 0 01-2.594-2.865 8.713 8.713 0 01-.884-3.843zm2.093.026c0 1.854.503 3.315 1.501 4.383.999 1.068 2.254 1.6 3.762 1.6 1.537 0 2.8-.538 3.792-1.617.993-1.075 1.493-2.605 1.493-4.585 0-1.253-.214-2.345-.642-3.28-.425-.934-1.044-1.659-1.86-2.173-.818-.513-1.734-.771-2.753-.771-1.442 0-2.684.494-3.728 1.485-1.042.99-1.565 2.643-1.565 4.958zm15.472 7.482V15.72h-1.672v-1.478h1.672V13.06c0-.749.067-1.304.2-1.667.183-.488.5-.886.962-1.189.461-.303 1.104-.455 1.932-.455a9.33 9.33 0 011.763.188l-.284 1.644a6.413 6.413 0 00-1.115-.104c-.574 0-.978.123-1.22.367-.236.244-.357.702-.357 1.371v1.028h2.17v1.478h-2.17V25.4h-1.881z"/><path d="M263.803 25.401V15.72h-1.67v-1.478h1.67V13.06c0-.749.068-1.304.202-1.667.182-.488.502-.886.96-1.189.462-.303 1.104-.455 1.93-.455.532 0 1.12.063 1.766.188l-.284 1.644a6.373 6.373 0 00-1.114-.104c-.575 0-.981.123-1.217.367-.24.244-.36.702-.36 1.371v1.028h2.173v1.478h-2.173V25.4h-1.883zm5.533-13.251V9.996h1.882v2.152h-1.882zm0 13.251V14.242h1.882v11.16h-1.882zm12.056-4.092l1.86.25c-.203 1.279-.72 2.282-1.554 3.007-.837.722-1.864 1.084-3.078 1.084-1.526 0-2.751-.498-3.677-1.497-.924-.997-1.388-2.429-1.388-4.29 0-1.205.2-2.259.6-3.162.399-.902 1.001-1.58 1.818-2.032a5.399 5.399 0 012.659-.678c1.21 0 2.202.306 2.972.917.768.609 1.26 1.476 1.478 2.598l-1.845.289c-.173-.746-.483-1.307-.928-1.683-.443-.378-.98-.565-1.607-.565-.953 0-1.724.342-2.315 1.024-.597.683-.892 1.762-.892 3.24 0 1.498.285 2.587.857 3.265.576.68 1.32 1.018 2.245 1.018.736 0 1.356-.226 1.85-.682.496-.455.812-1.157.945-2.103zm11.118.48l1.954.25c-.305 1.143-.878 2.032-1.71 2.664-.835.631-1.903.947-3.2.947-1.635 0-2.927-.502-3.887-1.507-.955-1.005-1.435-2.414-1.435-4.228 0-1.875.484-3.332 1.451-4.368.968-1.037 2.223-1.556 3.765-1.556 1.495 0 2.713.51 3.66 1.525.946 1.017 1.42 2.446 1.42 4.29 0 .111-.003.281-.011.505h-8.346c.072 1.223.42 2.159 1.044 2.808.628.65 1.407.975 2.344.975.695 0 1.285-.184 1.777-.55.492-.365.885-.95 1.174-1.755zm-6.24-3.034h6.258c-.083-.94-.32-1.644-.716-2.114-.606-.727-1.392-1.094-2.356-1.094-.871 0-1.605.293-2.198.873-.598.583-.924 1.36-.988 2.335zm15.827 1.067c0-2.067.575-3.596 1.72-4.591.96-.826 2.129-1.24 3.509-1.24 1.533 0 2.789.504 3.76 1.509.973 1.004 1.46 2.392 1.46 4.163 0 1.435-.219 2.565-.65 3.387a4.558 4.558 0 01-1.878 1.917 5.468 5.468 0 01-2.692.683c-1.562 0-2.824-.5-3.787-1.502-.96-1.001-1.442-2.443-1.442-4.326zm1.942-.005c0 1.429.31 2.5.933 3.21.623.712 1.407 1.067 2.354 1.067.937 0 1.718-.357 2.341-1.071.626-.716.938-1.805.938-3.27 0-1.382-.313-2.428-.941-3.138-.628-.71-1.407-1.068-2.338-1.068-.947 0-1.731.355-2.354 1.063-.623.707-.933 1.777-.933 3.207zm11.179 5.584V15.72h-1.671v-1.478h1.671V13.06c0-.749.068-1.304.2-1.667a2.39 2.39 0 01.964-1.189c.458-.303 1.1-.455 1.926-.455.533 0 1.12.063 1.767.188l-.286 1.644a6.315 6.315 0 00-1.116-.104c-.572 0-.978.123-1.216.367-.236.244-.355.702-.355 1.371v1.028h2.17v1.478h-2.17V25.4h-1.884zM240.592 46.72l1.924-.174c.09.771.301 1.403.633 1.898.333.493.848.893 1.547 1.198.696.304 1.486.457 2.359.457.774 0 1.46-.115 2.055-.347.592-.23 1.033-.547 1.327-.952a2.19 2.19 0 00.434-1.315c0-.48-.14-.9-.424-1.26-.283-.358-.746-.66-1.39-.906-.412-.158-1.324-.409-2.735-.747-1.417-.34-2.404-.66-2.97-.963-.738-.385-1.279-.863-1.644-1.435a3.55 3.55 0 01-.535-1.92c0-.779.219-1.507.658-2.184.445-.678 1.087-1.191 1.933-1.54.845-.352 1.788-.528 2.82-.528 1.144 0 2.147.185 3.02.554.87.367 1.542.908 2.012 1.623a4.72 4.72 0 01.752 2.433l-1.958.152c-.104-.967-.46-1.7-1.064-2.193-.607-.497-1.497-.745-2.678-.745-1.232 0-2.13.227-2.692.678-.564.45-.845.992-.845 1.627 0 .554.201 1.006.597 1.364.391.356 1.417.72 3.067 1.095 1.655.374 2.788.7 3.407.98.897.412 1.562.935 1.987 1.567.428.632.64 1.361.64 2.186a4.15 4.15 0 01-.703 2.31c-.467.724-1.138 1.286-2.017 1.688-.878.401-1.864.603-2.963.603-1.388 0-2.553-.202-3.496-.61-.937-.404-1.677-1.016-2.208-1.83-.538-.816-.819-1.736-.85-2.764zm22.072.863l1.865.25c-.204 1.28-.726 2.282-1.56 3.007-.837.721-1.86 1.084-3.078 1.084-1.526 0-2.747-.5-3.672-1.497-.929-.998-1.39-2.428-1.39-4.29 0-1.204.198-2.259.595-3.162.401-.903 1.008-1.58 1.82-2.032a5.419 5.419 0 012.66-.678c1.211 0 2.201.305 2.97.915.77.61 1.263 1.478 1.48 2.6l-1.842.29c-.176-.747-.485-1.307-.927-1.684-.445-.377-.984-.565-1.614-.565-.948 0-1.718.342-2.315 1.025-.59.682-.89 1.763-.89 3.238 0 1.497.29 2.587.862 3.266.572.678 1.318 1.019 2.241 1.019.742 0 1.355-.227 1.851-.684.499-.455.81-1.156.944-2.102zm3.476-9.161v-2.15h1.883v2.15h-1.884zm0 13.253v-11.16h1.883v11.16h-1.884zm12.42-3.611l1.957.248c-.308 1.145-.878 2.032-1.713 2.665-.834.631-1.902.947-3.196.947-1.636 0-2.93-.503-3.888-1.505-.958-1.007-1.437-2.417-1.437-4.23 0-1.877.484-3.333 1.454-4.369.967-1.036 2.22-1.555 3.762-1.555 1.495 0 2.715.51 3.662 1.525.943 1.016 1.42 2.446 1.42 4.29 0 .112-.005.28-.011.506h-8.346c.07 1.222.419 2.158 1.044 2.808.625.65 1.405.975 2.342.975.697 0 1.287-.184 1.78-.551.492-.365.884-.95 1.17-1.754zm-6.237-3.035h6.258c-.084-.94-.322-1.643-.716-2.114-.608-.728-1.392-1.094-2.356-1.094-.871 0-1.607.29-2.2.873-.596.582-.926 1.36-.986 2.335zm10.557 6.646v-11.16h1.693v1.586c.82-1.223 2.005-1.836 3.555-1.836.674 0 1.294.122 1.857.364.564.242.988.558 1.268.95.28.392.477.858.592 1.397.07.35.101.964.101 1.839v6.86h-1.88v-6.791c0-.77-.074-1.348-.222-1.73a1.818 1.818 0 00-.784-.914c-.378-.228-.818-.342-1.322-.342-.81 0-1.507.255-2.093.768-.588.511-.88 1.482-.88 2.912v6.097h-1.885zm19.244-4.092l1.864.25c-.203 1.28-.725 2.282-1.56 3.007-.835.721-1.858 1.084-3.077 1.084-1.524 0-2.747-.5-3.672-1.497-.928-.998-1.387-2.428-1.387-4.29 0-1.204.198-2.259.594-3.162.4-.903 1.007-1.58 1.819-2.032a5.417 5.417 0 012.66-.678c1.211 0 2.202.305 2.97.915.77.61 1.262 1.478 1.478 2.6l-1.84.29c-.177-.747-.487-1.307-.928-1.684-.446-.377-.981-.565-1.607-.565-.953 0-1.725.342-2.32 1.025-.592.682-.887 1.763-.887 3.238 0 1.497.285 2.587.857 3.266.572.678 1.32 1.019 2.241 1.019.74 0 1.356-.227 1.854-.684.496-.455.808-1.156.94-2.102zm11.122.481l1.954.248c-.31 1.145-.882 2.032-1.715 2.665-.834.631-1.898.947-3.196.947-1.634 0-2.93-.503-3.89-1.505-.954-1.007-1.433-2.417-1.433-4.23 0-1.877.486-3.333 1.453-4.369.968-1.036 2.223-1.555 3.766-1.555 1.49 0 2.713.51 3.655 1.525.95 1.016 1.42 2.446 1.42 4.29 0 .112-.003.28-.01.506h-8.342c.072 1.222.418 2.158 1.045 2.808.624.65 1.403.975 2.339.975.694 0 1.289-.184 1.781-.551.492-.365.879-.95 1.173-1.754zm-6.244-3.035h6.262c-.082-.94-.324-1.643-.716-2.114-.607-.728-1.391-1.094-2.355-1.094-.876 0-1.608.29-2.205.873-.592.582-.922 1.36-.986 2.335z"/></g><path fill="#A9ABAD" d="M228.421 4.749h1.426v52.837h-1.426z"/><path fill="none" stroke="#A9ABAD" stroke-width="1.217" d="M57.082 31.17c0 14.348-11.712 25.981-26.157 25.981S4.769 45.518 4.769 31.171c0-14.35 11.71-25.983 26.156-25.983 14.445 0 26.157 11.632 26.157 25.982z"/><defs><path id="SVGID_1_" d="M4 4h53.999v54H4z"/></defs><clipPath id="SVGID_2_"><use xlink:href="#SVGID_1_" overflow="visible"/></clipPath><defs><path id="SVGID_3_" d="M4 4h53.999v54H4z"/></defs><clipPath id="SVGID_4_"><use xlink:href="#SVGID_3_" overflow="visible"/></clipPath><path fill="none" stroke="#A9ABAD" stroke-width="1.082" d="M31.109 11.43c10.828.062 19.558 8.963 19.494 19.878-.063 10.916-8.895 19.715-19.725 19.652-10.828-.062-19.558-8.963-19.494-19.879.063-10.915 8.894-19.715 19.725-19.652h0z"/><path fill="none" stroke="#A9ABAD" stroke-width="1.036" d="M30.998 4.849h0"/><path fill="#A9ABAD" stroke="#A9ABAD" stroke-width=".135" d="M10.229 26.755c-.088.403-.189.38-.53.308l-2.117-.458c-.288-.062-.424-.092-.349-.442.134-.621.513-.983 1.636-.742 1.254.271 1.482.765 1.36 1.334l.176.044c.063-.292.097-.562.054-.825-.096-.598-.556-1.16-1.3-1.322-.81-.174-1.444.138-1.803.677a2.16 2.16 0 00-.291.75l-.342 1.588.15.032c.071-.328.196-.42.517-.351l2.198.473c.32.069.395.203.325.533l.15.033.342-1.588-.176-.044h0z"/><path fill="#A9ABAD" stroke="#A9ABAD" stroke-width=".135" d="M10.597 25.164c.119-.314.062-.46-.244-.575l-2.109-.786c-.304-.114-.442-.041-.558.274l-.146-.054.984-2.637.92.03.008.157c-.49.15-.984.486-1.171.983-.145.39-.014.44.31.56l.853.316.033-.086c.164-.437.161-.658-.226-.971l.065-.17 1.263.471-.064.171c-.485-.047-.669.14-.829.566l-.036.097.922.345c.255.094.435.133.55-.179.203-.542.079-1.143-.192-1.63l.106-.096.69.63-.985 2.638-.144-.054h0z"/><path fill="#A9ABAD" stroke="#A9ABAD" stroke-width=".135" d="M10.597 25.164c.119-.314.062-.46-.244-.575l-2.109-.786c-.304-.114-.442-.041-.558.274l-.146-.054.984-2.637.92.03.008.157c-.49.15-.984.486-1.171.983-.145.39-.014.44.31.56l.853.316.033-.086c.164-.437.161-.658-.226-.971l.065-.17 1.263.471-.064.171c-.485-.047-.669.14-.829.566l-.036.097.922.345c.255.094.435.133.55-.179.203-.542.079-1.143-.192-1.63l.106-.096.69.63-.985 2.638-.144-.054h0zm1.885-6.747l-.875-1.336 1.483.514-.608.822.122.206.707-.957.542.191a.87.87 0 01.251.116c.114.082.122.174-.05.42l.125.093.973-1.32-.124-.091c-.257.333-.48.225-.811.11l-2.767-.961-.227.678 1.413 2.174c.221.344.355.557.195.977l.125.092.736-.998-.125-.091c-.132.156-.336.274-.526.132-.105-.077-.188-.202-.261-.307l-.176-.258-.122-.206h0z"/><path fill="#A9ABAD" stroke="#A9ABAD" stroke-width=".135" d="M12.482 18.417l-.875-1.336 1.483.514-.608.822.122.206.707-.957.542.191a.87.87 0 01.251.116c.114.082.122.174-.05.42l.125.093.973-1.32-.124-.091c-.257.333-.48.225-.811.11l-2.767-.961-.227.678 1.413 2.174c.221.344.355.557.195.977l.125.092.736-.998-.125-.091c-.132.156-.336.274-.526.132-.105-.077-.188-.202-.261-.307l-.176-.258-.122-.206h0zM7.605 32.458c-.842.053-1.067.345-1.027.847.055.675.487.85 1.166.796l1.633-.136c.326-.025.42-.15.392-.486l.153-.012.093 1.144-.153.013c-.028-.334-.139-.442-.465-.417l-1.67.137c-.81.066-1.266-.252-1.342-1.159-.076-.927.307-1.42 1.028-1.481l1.768-.144c.325-.026.418-.15.391-.485l.154-.014.136 1.666-.154.012c-.026-.334-.139-.443-.464-.416l-1.639.135h0zm.919 5.825l1.504-.41c.383-.105.59-.2.509-.656l.148-.04.324 1.183-.148.04c-.189-.41-.373-.403-.768-.292l-2.508.684-.112-.41 2.068-2.51-1.73.471c-.49.134-.57.215-.54.716l-.15.04-.347-1.274.15-.042c.184.414.342.458.757.346l2.071-.565a.941.941 0 00.17-.6l.148-.04.313 1.142-1.859 2.217h0z"/><path fill="#A9ABAD" stroke="#A9ABAD" stroke-width=".135" d="M8.524 38.283l1.504-.41c.383-.105.59-.2.509-.656l.148-.04.324 1.183-.148.04c-.189-.41-.373-.403-.768-.292l-2.508.684-.112-.41 2.068-2.51-1.73.471c-.49.134-.57.215-.54.716l-.15.04-.347-1.274.15-.042c.184.414.342.458.757.346l2.071-.565a.941.941 0 00.17-.6l.148-.04.313 1.142-1.859 2.217h0zm2.301 1.014c.3-.13.349-.278.215-.586l.141-.062.661 1.534-.14.062c-.133-.31-.273-.376-.574-.244l-2.066.889c-.3.13-.348.277-.215.587l-.142.06-.66-1.534.14-.06c.133.306.273.374.573.244l2.067-.89h0z"/><path fill="#A9ABAD" stroke="#A9ABAD" stroke-width=".135" d="M10.825 39.297c.3-.13.349-.278.215-.586l.141-.062.661 1.534-.14.062c-.133-.31-.273-.376-.574-.244l-2.066.889c-.3.13-.348.277-.215.587l-.142.06-.66-1.534.14-.06c.133.306.273.374.573.244l2.067-.89h0zm2.52 3.57l-.679.688-.128-.126c.19-.37.36-.95.143-1.34L10.39 43.42c-.282.165-.312.317-.143.607l-.133.076-.84-1.443.132-.078c.17.291.317.342.599.177l2.292-1.334c-.284-.373-.782-.506-1.231-.53l-.048-.172.921-.273 1.407 2.416h0zm1.297 6.311c-.306-.273-.239-.348-.006-.61l1.44-1.618c.194-.219.288-.326.556-.086.475.42.603.93-.16 1.787-.853.96-1.394.915-1.83.527l-.123.134c.223.198.441.361.69.45.568.214 1.285.088 1.79-.48.549-.619.59-1.324.298-1.903a2.167 2.167 0 00-.508-.62l-1.215-1.08-.102.115c.251.223.27.377.052.621l-1.494 1.682c-.218.245-.373.245-.623.02l-.102.116 1.214 1.079.123-.134h0z"/><path fill="#A9ABAD" stroke="#A9ABAD" stroke-width=".135" d="M14.642 49.178c-.306-.273-.239-.348-.006-.61l1.44-1.618c.194-.219.288-.326.556-.086.475.42.603.93-.16 1.787-.853.96-1.394.915-1.83.527l-.123.134c.223.198.441.361.69.45.568.214 1.285.088 1.79-.48.549-.619.59-1.324.298-1.903a2.167 2.167 0 00-.508-.62l-1.215-1.08-.102.115c.251.223.27.377.052.621l-1.494 1.682c-.218.245-.373.245-.623.02l-.102.116 1.214 1.079.123-.134h0zm9.088 1.79l-.141.958-.178-.027c-.064-.41-.269-.98-.676-1.167l-1.062 2.43c-.13.301-.063.441.245.576l-.062.14-1.532-.669.061-.142c.309.136.457.088.587-.211l1.061-2.429c-.45-.135-.93.051-1.307.299l-.14-.111.583-.765 2.562 1.118h0zm5.23 1.153l.104.962-.177.019c-.167-.381-.51-.879-.95-.957l-.412 2.618c-.05.326.048.443.38.495l-.023.152-1.65-.257.023-.153c.331.052.463-.033.513-.355l.41-2.62c-.468-.016-.883.287-1.186.622l-.165-.073.371-.887 2.762.434h0zm.376 3.304c.337-.001.454-.103.454-.43v-2.25c0-.327-.117-.43-.454-.43v-.153h2.813l.295.87-.144.062c-.314-.406-.798-.75-1.33-.75-.417 0-.417.14-.417.485v.91h.095c.466-.001.67-.08.83-.552h.182v1.349h-.18c-.127-.47-.366-.577-.824-.577h-.103v.984c0 .27.029.453.361.453.579 0 1.096-.327 1.46-.752l.126.065-.35.87h-2.814v-.154h0z"/><path fill="#A9ABAD" stroke="#A9ABAD" stroke-width=".135" d="M29.336 55.425c.337-.001.454-.103.454-.43v-2.25c0-.327-.117-.43-.454-.43v-.153h2.813l.295.87-.144.062c-.314-.406-.798-.75-1.33-.75-.417 0-.417.14-.417.485v.91h.095c.466-.001.67-.08.83-.552h.182v1.349h-.18c-.127-.47-.366-.577-.824-.577h-.103v.984c0 .27.029.453.361.453.579 0 1.096-.327 1.46-.752l.126.065-.35.87h-2.814v-.154h0zm11.366-3.929l.2-.099c.355-.174.438-.391.356-.787l.163-.08.596 1.216-.162.079c-.225-.352-.5-.405-.819-.248l-.238.116.462.942c.144.295.298.334.6.185l.068.138-1.506.74-.067-.141c.302-.146.362-.29.217-.584l-.99-2.02c-.143-.292-.294-.333-.595-.187l-.068-.136 2.49-1.223.64.706-.115.124c-.44-.262-1.028-.379-1.506-.146-.31.152-.302.233-.164.512l.438.893h0zm2.976-1.169l-.417-1.544 1.25.95-.833.594.052.231.969-.69.456.352a.877.877 0 01.204.187c.08.115.058.204-.18.384l.09.127 1.333-.952-.09-.125c-.346.237-.524.066-.803-.148l-2.33-1.773-.43.574.67 2.505c.105.394.163.64-.12.99l.09.127 1.01-.723-.088-.124c-.176.107-.404.154-.542-.037-.076-.108-.116-.25-.152-.376l-.087-.298-.052-.231h0zm6.576-4.412c.187-.28.167-.433-.104-.618l-1.868-1.253c-.27-.18-.421-.141-.609.138l-.127-.087 1.567-2.336.89.242-.03.152c-.512.035-1.07.246-1.366.688-.231.346-.116.424.17.614l.758.509.052-.078c.259-.389.307-.602.005-.996l.101-.151 1.12.75-.102.151c-.461-.158-.682-.02-.937.361l-.057.084.817.55c.225.151.39.23.577-.046.322-.482.339-1.094.19-1.63l.124-.07.526.774L50.382 46l-.128-.085h0z"/><path fill="#A9ABAD" stroke="#A9ABAD" stroke-width=".135" d="M50.254 45.915c.187-.28.167-.433-.104-.618l-1.868-1.253c-.27-.18-.421-.141-.609.138l-.127-.087 1.567-2.336.89.242-.03.152c-.512.035-1.07.246-1.366.688-.231.346-.116.424.17.614l.758.509.052-.078c.259-.389.307-.602.005-.996l.101-.151 1.12.75-.102.151c-.461-.158-.682-.02-.937.361l-.057.084.817.55c.225.151.39.23.577-.046.322-.482.339-1.094.19-1.63l.124-.07.526.774L50.382 46l-.128-.085h0zm1.178-7.919c-.312-.099-.445-.02-.546.301l-.147-.046.505-1.593.147.046c-.101.322-.04.463.273.563l2.145.679c.31.1.444.018.545-.3l.147.046-.506 1.593-.146-.046c.102-.321.038-.463-.272-.561l-2.145-.682h0z"/><path fill="#A9ABAD" stroke="#A9ABAD" stroke-width=".135" d="M51.432 37.996c-.312-.099-.445-.02-.546.301l-.147-.046.505-1.593.147.046c-.101.322-.04.463.273.563l2.145.679c.31.1.444.018.545-.3l.147.046-.506 1.593-.146-.046c.102-.321.038-.463-.272-.561l-2.145-.682h0zM10.921 20.217l-.89-.503c-.28-.158-.402-.227-.215-.556.214-.382.54-.515.984-.264.48.272.53.6.258 1.083l-.137.24.159.09.197-.35c.33-.58.661-1.352-.085-1.775-.403-.228-.98-.097-1.494.813l-.826 1.463.133.077c.166-.294.312-.345.598-.184l1.959 1.107c.283.16.315.311.15.605l.135.076.822-1.455-.135-.076c-.165.294-.312.344-.597.183l-.857-.485-.159-.089h0zm1.516-1.827l-.876-1.336 1.483.514-.607.822.122.206.706-.958.543.191c.084.027.18.063.25.116.113.083.121.175-.05.42l.125.093.972-1.32-.123-.09c-.257.333-.481.225-.812.108l-2.765-.96-.229.678 1.413 2.175c.223.343.355.555.195.978l.125.09.736-.998-.123-.091c-.133.156-.336.273-.528.132-.104-.077-.187-.202-.26-.307l-.175-.257-.122-.206h0zm2.619-3.757l-.064.06-.687-.732c-.182-.193-.252-.289-.028-.5.365-.34.678-.404 1-.06.338.361.34.705-.221 1.232l.085.22c.143-.134.31-.221.927.027l.6.237c.138.05.274.114.415.149l.841-.79-.106-.112c-.313.254-.626.152-.968.04l-.53-.196c-.162-.059-.328-.126-.501-.098.27-.369.433-.855.082-1.23-.339-.36-.904-.343-1.407.13l-1.465 1.373.106.112c.246-.23.401-.234.624.003l1.54 1.642c.221.237.208.393-.037.623l.105.113 1.218-1.144-.105-.113c-.244.23-.4.236-.624-.003l-.715-.762-.085-.22h0z"/><path fill="#A9ABAD" stroke="#A9ABAD" stroke-width=".135" d="M15.056 14.633l-.064.06-.687-.732c-.182-.193-.252-.289-.028-.5.365-.34.678-.404 1-.06.338.361.34.705-.221 1.232l.085.22c.143-.134.31-.221.927.027l.6.237c.138.05.274.114.415.149l.841-.79-.106-.112c-.313.254-.626.152-.968.04l-.53-.196c-.162-.059-.328-.126-.501-.098.27-.369.433-.855.082-1.23-.339-.36-.904-.343-1.407.13l-1.465 1.373.106.112c.246-.23.401-.234.624.003l1.54 1.642c.221.237.208.393-.037.623l.105.113 1.218-1.144-.105-.113c-.244.23-.4.236-.624-.003l-.715-.762-.085-.22h0zm18.896-7.821l.19.948-.177.036c-.2-.365-.585-.829-1.031-.87l-.177 2.646c-.022.327.088.437.423.459l-.01.154-1.668-.112.012-.153c.333.021.456-.073.478-.4l.178-2.644c-.469.024-.856.364-1.129.725l-.17-.06.292-.914 2.789.185h0z"/><path fill="#A9ABAD" stroke="#A9ABAD" stroke-width=".135" d="M33.952 6.812l.19.948-.177.036c-.2-.365-.585-.829-1.031-.87l-.177 2.646c-.022.327.088.437.423.459l-.01.154-1.668-.112.012-.153c.333.021.456-.073.478-.4l.178-2.644c-.469.024-.856.364-1.129.725l-.17-.06.292-.914 2.789.185h0zm-16.033 3.375l.743.62-.115.137c-.384-.16-.977-.277-1.348-.027l1.525 2.168c.188.268.342.285.617.09l.089.126-1.368.963-.088-.127c.276-.193.312-.344.123-.611l-1.525-2.169c-.35.314-.437.821-.423 1.274l-.168.06-.351-.895 2.289-1.609h0zm5.013.695c.142.295.293.336.595.19l.068.138-1.505.73-.066-.139c.302-.147.362-.29.22-.584l-1.07-2.2-.008.004.38 3.183-.152.074-2.236-2.177-.01.003.832 1.71c.327.67.405.736.797.593l.067.139-1.062.516-.068-.138c.336-.252.375-.328.047-1.005l-.786-1.617c-.152-.315-.312-.324-.594-.187l-.067-.14 1.23-.597 1.607 1.6-.247-2.261 1.197-.581.068.138c-.292.168-.375.266-.22.584l.983 2.024h0zm1.126.007c.325-.084.411-.214.33-.529l-.561-2.18c-.082-.315-.22-.386-.546-.302l-.038-.149 2.727-.703.5.773-.123.095c-.404-.315-.96-.53-1.477-.396-.402.103-.368.239-.281.574l.227.88.091-.022c.452-.117.632-.245.668-.741l.175-.046.337 1.306-.177.047c-.24-.426-.497-.47-.939-.356l-.101.025.247.955c.067.261.14.43.461.348.561-.144.98-.59 1.227-1.092l.138.032-.122.93-2.725.7-.038-.15h0zm5.971-1.904l-.131-1.554c-.034-.396-.09-.616-.554-.62l-.013-.152 1.222-.103.014.153c-.437.112-.463.293-.428.702l.219 2.59-.423.037-2.094-2.49.151 1.786c.043.508.108.6.603.662l.013.153-1.315.11-.015-.152c.441-.107.515-.254.477-.682l-.18-2.14a.926.926 0 00-.557-.276l-.013-.155 1.182-.098 1.842 2.229h0zm6.236 1.841c1.038.277 1.88-.41 2.123-1.323.268-.994-.176-1.867-1.189-2.14-1.007-.269-1.836.374-2.093 1.335-.267.991.177 1.864 1.16 2.128l.024-.182h0c-.488-.132-.693-.644-.389-1.776.292-1.092.758-1.46 1.277-1.322.482.13.728.616.416 1.78-.164.613-.483 1.538-1.304 1.318m3.416-.687l.206.089c.364.156.581.078.83-.243l.168.071-.533 1.244-.167-.07c.12-.401-.02-.644-.346-.783l-.245-.105-.413.965c-.13.3-.059.442.25.576l-.06.14-1.54-.658.061-.143c.31.132.456.083.586-.217l.885-2.068c.13-.3.062-.441-.247-.573l.061-.142 2.547 1.093-.114.945-.17-.007c-.09-.505-.383-1.026-.872-1.235-.317-.137-.372-.08-.496.207l-.39.914h0zm2.004 2.85c.275.192.43.176.618-.093l1.288-1.842c.189-.27.152-.42-.123-.613l.088-.125 2.305 1.613-.259.884-.153-.033c-.024-.512-.224-1.073-.659-1.378-.34-.238-.421-.125-.62.158l-.521.748.076.052c.384.267.597.322.997.025l.15.105-.774 1.105-.15-.104c.168-.46.034-.683-.341-.946l-.083-.058-.566.806c-.154.223-.236.388.036.578.474.332 1.086.362 1.627.223l.067.125-.785.51-2.307-1.613.088-.127h0zm5.313 3.209l1.092-1.114c.278-.284.407-.47.108-.823l.107-.11.877.858-.109.11c-.368-.257-.521-.159-.81.134l-1.818 1.86-.304-.298.517-3.21-1.254 1.28c-.356.364-.386.474-.105.89l-.108.11-.944-.925.108-.11c.369.264.526.224.826-.085l1.502-1.534a.93.93 0 00-.154-.602l.107-.11.847.829-.485 2.85h0zm-.101 1.168c.2.27.353.302.616.108l1.804-1.344c.264-.194.276-.35.075-.62l.124-.09 1.68 2.257-.526.759-.134-.082c.138-.493.125-1.088-.192-1.514-.247-.334-.36-.25-.637-.045l-.73.543.055.076c.277.374.466.492.938.338l.109.145-1.084.805-.108-.146c.304-.382.248-.639-.026-1.004l-.06-.082-.79.587c-.217.161-.348.293-.15.56.345.464.917.684 1.476.723l.022.14-.906.236-1.68-2.256.124-.094h0zm3.978 2.862l.888-.468c.236-.124.345-.165.488.106.233.442.21.76-.207.98-.437.23-.769.142-1.128-.54l-.041-.078-.194.102c.09.174.131.358-.271.887l-.388.515c-.086.119-.184.233-.254.361l.536 1.02.137-.072c-.162-.369.02-.643.22-.944l.329-.46c.1-.14.21-.283.228-.456.284.357.71.645 1.163.406.438-.231.572-.781.25-1.391l-.935-1.777-.138.07c.158.299.122.45-.167.602l-1.991 1.05c-.29.151-.435.094-.592-.202l-.138.071.782 1.48.136-.073c-.157-.297-.122-.447.168-.6l.925-.487.194-.102h0zm2.665 4.698l-.103-.128c.392-.584.585-.955.449-1.353-.145-.424-.698-.727-1.82-.343-1.108.38-1.407.862-1.239 1.351.165.487.55.44.961.298.363-.123.361-.227.266-.574l.172-.06.514 1.497-.173.06c-.164-.349-.28-.355-.615-.24l-.653.224c-.11-.306-.126-.326-.307-.575-.148-.206-.275-.384-.357-.627-.324-.946.107-1.76 1.053-2.083.897-.306 2.027.01 2.358.978.045.132.051.253.056.366 0 .113 0 .212.026.291.04.115.16.251.255.327l-.843.59h0zm1.263 1.594l-.151.03c-.064-.232-.122-.287-.228-.266a.344.344 0 00-.187.111l-.904.798.963.365a.61.61 0 00.306.057c.215-.043.184-.256.172-.419l.151-.028.234 1.233-.152.028c-.098-.322-.245-.415-.54-.541l-.118-.052-1.213-.482-1.023.194c-.296.061-.4.18-.337.528l-.15.029-.313-1.65.151-.03c.089.293.126.443.508.37l.876-.166 1.26-1.146c.19-.168.249-.265.243-.52l.151-.029.3 1.586h0zM11.013 45.243c.213.26.365.284.618.077l1.743-1.423c.252-.206.259-.362.047-.62l.119-.098 1.78 2.18-.489.778-.14-.074c.117-.498.078-1.093-.259-1.504-.262-.322-.371-.234-.638-.016l-.706.576.06.075c.295.358.486.468.952.294l.114.14-1.043.854-.116-.142c.285-.396.219-.649-.071-1.004l-.064-.077-.764.623c-.21.172-.333.308-.123.565.366.448.947.642 1.506.657l.028.137-.892.278-1.781-2.18.12-.096h0zm3.597 3.903c-.305-.274-.237-.35-.005-.613l1.44-1.618c.195-.22.288-.324.557-.084.474.42.602.93-.16 1.787-.853.959-1.394.914-1.831.528l-.125.132c.225.2.442.362.692.452.568.211 1.284.085 1.79-.483.549-.617.59-1.323.299-1.901a2.144 2.144 0 00-.51-.621l-1.214-1.08-.102.114c.251.225.27.378.053.623L14 48.062c-.217.246-.373.245-.623.022l-.102.114 1.212 1.08.125-.132h0zm5.747 1.248l-.183-.042c0-.437-.146-1.09-.548-1.338-.273-.167-.586-.157-.762.127-.201.326.087.624.292.862l.188.22c.392.46.73.978.368 1.568-.335.544-1.02.642-1.542.322a1.927 1.927 0 01-.447-.395c-.061-.07-.097-.12-.176-.168-.068-.042-.109-.057-.43-.09l.304-1.079.186.046c.003.52.118 1.2.6 1.496.286.174.705.153.892-.154.2-.327-.055-.62-.26-.856-.425-.497-.967-1.104-.551-1.78.31-.504.916-.592 1.406-.29.162.1.27.203.388.347.044.055.084.107.144.143.099.06.282.064.397.041l-.266 1.02h0zm3.343.541l-.142.956-.177-.026c-.065-.41-.27-.979-.677-1.167l-1.06 2.43c-.132.301-.066.44.243.576l-.063.142-1.53-.67.06-.14c.308.134.456.086.588-.213l1.06-2.43c-.45-.136-.93.053-1.308.3l-.139-.113.583-.763 2.562 1.118h0zm-.056 2.071l.955-1.282.027 1.57-.982-.288-.15.185 1.142.336.007.575a.95.95 0 01-.023.275c-.038.133-.124.171-.411.099l-.044.147 1.572.46.043-.147c-.4-.128-.376-.375-.38-.725l-.047-2.928-.718.02-1.555 2.073c-.247.326-.402.525-.853.519l-.042.147 1.191.35.043-.148c-.194-.071-.374-.22-.306-.448.037-.126.125-.247.2-.351l.18-.254.151-.185h0zm5.662 2.386c.336 0 .452-.103.452-.43v-2.25c0-.326-.118-.43-.453-.43v-.152h2.814l.295.873-.145.06c-.314-.409-.799-.752-1.331-.752-.417 0-.415.139-.415.485v.91h.093c.468 0 .673-.08.832-.55h.182v1.349h-.182c-.127-.471-.364-.58-.822-.58h-.103v.986c0 .271.028.453.359.453.58 0 1.097-.328 1.462-.752l.125.065-.35.868-2.813.002v-.155h0zm5.806-2.752l-.17.084c-.278-.336-.806-.748-1.275-.683-.318.045-.552.254-.505.585.053.38.465.426.772.476l.286.051c.596.104 1.188.29 1.283.974.09.631-.375 1.145-.98 1.23a1.906 1.906 0 01-.598-.018c-.09-.015-.15-.03-.242-.017-.078.01-.12.025-.39.205l-.452-1.025.172-.086c.335.4.854.85 1.414.771.333-.045.641-.33.592-.687-.054-.378-.44-.441-.748-.493-.644-.11-1.447-.234-1.558-1.019-.082-.586.33-1.041.898-1.122a1.5 1.5 0 01.52.021c.069.014.132.03.201.019.116-.016.26-.13.332-.22l.448.954h0zm3.548 1.725c1.018-.34 1.339-1.38 1.04-2.274-.328-.976-1.18-1.459-2.175-1.125-.987.333-1.323 1.325-1.006 2.269.327.972 1.177 1.454 2.142 1.13l-.08-.164h0c-.479.16-.934-.154-1.306-1.265-.36-1.072-.173-1.635.333-1.806.475-.159.95.11 1.332 1.25.202.603.445 1.551-.359 1.82m10.48-7.554c.234.23.39.22.624-.02l.11.109-1.173 1.189-.11-.11c.236-.238.246-.392.011-.621l-1.741-1.718-.005.007 1.42 2.875-.119.119-2.836-1.306-.006.006 1.353 1.334c.532.524.628.56.951.295l.11.108-.831.84-.11-.108c.233-.348.245-.434-.29-.962l-1.28-1.262c-.25-.246-.405-.202-.623.02l-.11-.106.96-.975 2.05.972-.988-2.05.933-.947.11.109c-.22.255-.265.376-.012.625l1.602 1.577h0zm1.162-.762c.188-.28.167-.434-.105-.617l-1.868-1.254c-.27-.182-.421-.142-.608.136l-.127-.085 1.567-2.337.89.241-.03.157c-.512.03-1.07.243-1.365.685-.232.345-.117.423.17.615l.756.507.053-.079c.26-.386.308-.6.005-.995l.1-.153 1.122.752-.102.152c-.461-.158-.683-.02-.938.36l-.058.084.818.551c.226.149.392.23.576-.047.323-.48.34-1.093.19-1.63l.125-.07.527.774-1.57 2.337-.128-.084h0zm1.231-4.873l.948.44c.297.137.439.075.581-.231l.14.065-.702 1.516-.14-.065c.14-.305.095-.453-.2-.591l-2.042-.944c-.296-.136-.439-.075-.58.23l-.14-.064.844-1.822c.289-.627.806-.856 1.256-.648.466.216.497.728.384 1.17.15-.09.329-.09.502-.096l.564-.018c.361-.024.69-.045.885-.397l.139.064-.484 1.047c-.143.02-.293.013-.44.016l-.647.006c-.645.001-.78.137-.862.309l-.206-.078.037-.081c.324-.7.194-1.017-.255-1.225-.429-.198-.695-.024-.904.43-.13.28-.028.342.211.453l.911.423.2.091h0zm-.052-3.047c-.313-.097-.446-.018-.547.303l-.148-.046.506-1.593.147.048c-.103.32-.039.462.272.56l2.146.681c.31.097.445.017.545-.3l.148.046-.506 1.592-.147-.047c.102-.32.04-.462-.272-.562l-2.144-.682h0z"/><path fill="#A9ABAD" stroke="#A9ABAD" stroke-width=".135" d="M52.764 34.038l.022.218c-.481.11-1.036.39-1.144.911-.144.695.704 1.035 1.24 1.146 1.104.23 1.676-.224 1.783-.734.094-.453-.161-.806-.449-1.117l.112-.099c.488.427.765.932.627 1.596-.19.91-1.083 1.39-1.961 1.207-.95-.197-1.741-1.027-1.544-1.971.035-.164.099-.29.16-.397.06-.106.116-.194.136-.286.024-.12-.007-.24-.035-.356l-.013-.053 1.066-.065h0zm1.079-.585l-1.457-.66 1.53-.36-.073 1.02.213.109.083-1.188.562-.128a.894.894 0 01.275-.037c.138.01.196.084.183.383l.153.012.116-1.635-.153-.011c-.039.418-.285.448-.627.527l-2.85.667.169.694 2.356 1.082c.372.173.599.281.688.723l.155.01.09-1.237-.156-.013c-.028.205-.137.412-.375.395-.13-.01-.265-.07-.384-.12l-.285-.124-.213-.109h0zM41.168 52.481l-.065-.132m-.627.459l.066.132h0m1.043.138l.312-.151h0l-.027-.058m1.777-2.575l.024-.016-.024.016h0zm-.09 1.788l1.012-.72-.051-.072c-.32.238-.652.48-1.002.734l.041.058h0zm3.014-2.149l-.036-.05c-.222.19-.451.378-.683.564l.72-.514h0zm-.327-1.423l.109.108h0m.174-.169l-.107-.106"/><path fill="#A9ABAD" stroke="#A9ABAD" stroke-width=".135" d="M54.216 34.462l.009.012a.414.414 0 01.008-.027l-.017.015h0zM10.29 26.73c0-.008.002-.015.003-.02l-.009.018.006.001h0zm2.176-6.165a.405.405 0 01-.021.034l.023-.033-.002-.001h0zm9.558-8.764h0zM9.75 31.697l-.021-.253m3.647 16.64l-.028.03.044-.016c-.005-.006-.011-.01-.016-.014h0z"/><path fill="#A9ABAD" d="M8.699 29.848a.66.66 0 01-.665.657.66.66 0 01-.665-.657c0-.363.298-.657.665-.657.367 0 .665.294.665.657zm45.571.011a.663.663 0 01-.665.658.662.662 0 01-.666-.658.66.66 0 01.666-.656.66.66 0 01.664.656zM29.253 14.973c-.088-.16-.224-.247-.32-.206a.126.126 0 00-.068.08c-.025.072-.006.182.05.285.087.16.225.248.321.206a.133.133 0 00.069-.08c.024-.074.004-.181-.052-.285zm-.084.248c-.045.021-.118-.037-.163-.13-.012-.023-.013-.043-.019-.065l.001.001c.044.069.1.09.138.106l.012.004c.022.01.042-.001.06-.014l.002.008c.002.043-.005.076-.03.09z"/><path fill="#A9ABAD" stroke="#A9ABAD" stroke-width=".135" d="M28.373 21.776s.112-.403.247-.538c0 0-.315.18-.247.538h0zm2.29.294s.223-.697.404-.899l-.404.899h0z"/><path fill="#A9ABAD" d="M31.009 14.75c-.114-.059-.252-.145-.385-.188l-.02-.004c-.026-.01-.05-.023-.076-.03a.571.571 0 00-.198-.025.921.921 0 00-.374.03c-.167.043-.278.041-.354.072-.044-.006-.061-.02-.083-.017-.028.002-.086.04-.009.153.004.005.01.005.015.01 0 .004.002.01.013.024.023.03.06.041.103.045.008.004.015.008.024.011.014.008.027.02.043.024l.023.014c.032.025.064.06.095.11a.587.587 0 00.146.154.444.444 0 00.21.115c.242.062.361-.027.627-.209.09-.056.255-.11.462-.13.062-.005.13-.004.198-.003l.045.01c.044.01.077.016.082.01.014-.021-.292-.125-.543-.161-.012-.003-.03-.012-.044-.016zm-.689.347c-.306.009-.36-.345-.36-.345s.07-.063.353-.071c.282-.008.37.071.37.071s-.055.338-.363.345zm5.048 6.466c-.145-.287-.317-.47-.5-.663-.368-.39-.749-.794-.956-2.118.028-.65-.1-1.482-.211-2.215-.09-.582-.168-1.085-.136-1.323.03-.228-1.174-1.082-2.478-1.304a3.008 3.008 0 00-.896-.037c-.64.057-.806.382-.878.586a3.44 3.44 0 00-.674.067 2.435 2.435 0 00-.218.027c-.682.152-1.143.469-1.295.893-.127.359-.03.768.274 1.156l.098.126-.014-.16a.624.624 0 01.019-.242c.001-.004.107-.105.335-.14.472-.073 1.186.043 1.576.252.131.118.248.249.336.402.519.896.148 2.369-.26 2.741l-.21.189c-.434.389-.722.646-1.197 1.385l-.142.224c-.279.438-.352.552-.648.675l-.026.01a3.953 3.953 0 01-.19.072c-.06.022-.127.044-.205.07l-.028.01.022.09c.03-.006.053-.005.082-.01v.002c.173-.034.322-.044.47-.055.066-.005.132-.01.196-.018.242-.023.475-.077.735-.24.044.187.111.321.217.372a.27.27 0 00.188.016.335.335 0 00.158-.036l.015-.008.005-.017a.487.487 0 01.147-.168c-.053.19.009.319.076.386l.035.035.033-.035c.003-.003.01-.006.013-.01l.001.002.034.035.033-.035c.032-.032.106-.078.194-.129.202-.12.476-.299.675-.566.038.269.131.515.41.642l.017.008.017-.006.04-.015.008.006.017.007.017-.006c.554-.187 1.217-.48 1.462-.848.272.353.866.536 1.153.512l.02-.002.009-.01c.016 0 .038.004.053.004l.022-.002.012-.017c.083-.112.064-.228.009-.343.447.288 1.038.321 1.512.334.131.003.254.007.36.016l.05.004v-.014l.031.001.05.004v-.049c.002-.011.011-.3-.074-.52zM29.6 15.582c-.531-.19-.637-.355-.707-.426-.055-.052-.205-.486-.323-.542 0 0 .102-.08.795-.095 0 0 .126.583.243.81.118.23.271.352-.008.253zm3.296 5.396c.041.322.255.662.396.94-.223-.09-1.156.111-1.222-1.396-.049.91-1.025 1.776-1.499 1.848-.63-.525-.05-1.196-.383-.876-.26.354-.895.766-.999.812-.07-.077-.004-.243.227-.547.02-.288-.403-.2-.582.23-.012.014-.097.202-.176.251-.066-.04-.212.029-.282-.395-.366.253-.978.358-1.284.372.755-.257.825-.46 1.325-1.239.501-.777.766-.964 1.287-1.44.348-.317.831-1.568.501-2.528-.052-.148-.224-.549-.34-.673-.014-.006-.023-.012-.035-.018.3-.047.67-.073.697-.107 0-.001.004-.003.003-.004 0-.003.009-.005.005-.006-.004-.003-.015-.005-.02-.007l-.017-.008c.017.005.03.006.047.01.026-.136-.53-.329-.685-.53-.217-.284-.333-.62-.42-.986.1-.202.277-.838 1.537-.599 1.167.223 2.053 1.219 2.33 1.43.013.502.224 2.705.244 3.144.049.306.164.858.259 1.214.065.54.752 1.194 1.118 1.616.12.145.187.266.187.266-1.068.256-1.89-.366-2.22-.774zM30.12 14.74s.031.213.157.23c.173.02.205-.158.173-.236 0 0-.164-.049-.33.006zm10.06 10.435H21.283V35.87s-.182 4.3 2.234 7.596c2.107 2.874 7.31 5.71 7.31 5.71s4.985-2.889 7.087-5.774c2.49-3.415 2.235-7.532 2.235-7.532l.033-10.694zm-3.235 17.398c-2.442 3.159-6.194 5.362-6.194 5.362s-3.099-1.814-5.259-4.223c-2.12-2.363-2.57-4.134-2.819-6.091-.12-.945-.134-1.785-.134-1.785l.014-9.653H38.8l-8.21 7.714.964.19-3.054 3.929 1.05.147-3.489 5.2 6.165-6.048-1.228-.19 4.193-4.295-.718-.213 4.478-4.21v7.384s.228 3.89-2.007 6.782z"/><path fill="#A9ABAD" stroke="#A9ABAD" stroke-width=".041" d="M25.506 28.647a.48.48 0 01-.122-.423c.047-.185.056-.291-.008-.464.08.028.234.313.247.467.014.154.097.214.186.277l.163-.805.169.827s.03-.279.21-.365c.183-.085.242-.174.313-.345.039.075 0 .396-.14.51-.14.116-.07.327-.07.327l.706-.477-.472.722s.22-.192.407-.148c.187.048.293.05.465-.02-.026.08-.144.251-.42.259-.276.008-.333.184-.333.184l.818.175-.82.175c.04-.028.333.074.386.217.053.142.166.246.335.322-.076.037-.371-.024-.506-.156-.135-.131-.338-.078-.338-.078l.473.698-.718-.474c.046.007.164.278.113.432a.638.638 0 00.015.464c-.08-.026-.23-.206-.253-.464-.02-.214-.118-.239-.173-.278l-.168.802-.17-.825s-.042.25-.215.362c-.173.111-.244.167-.32.336-.038-.075-.001-.323.152-.507.154-.183.095-.335.095-.335l-.735.505.47-.715s-.241.127-.394.083a.68.68 0 00-.464.018c.025-.08.247-.25.461-.256.216-.006.205-.06.291-.14l-.812-.167.828-.18c-.037.03-.303-.056-.395-.21a.65.65 0 00-.349-.305c.073-.04.389-.004.51.13.125.133.312.055.312.055l-.458-.706.728.496h0z"/><path d="M33.625 39.1h2.835m-.62 0l-.15-2.573h-1.164l-.17 2.555m.3-2.555L34.49 39.1m1.07-2.554l.168 2.554m-.618-2.554v2.536m-.47-2.198h.939m-.958.15h.958m-1.052 1.596h1.144m-1.163.152h1.202m-1.277-2.367h1.315m-1.258 0h1.313m-1.333 0h1.315" fill="none" stroke="#A9ABAD" stroke-width=".113" stroke-linecap="round" stroke-linejoin="round"/><path d="M35.062 34.107h.15l-.078.701-.072-.701zm.008 2.279h.17l-.081-.691-.09.691zm1.205-1.226l-.005.151-.7-.071.705-.08zm-2.263.004l-.004.16.724-.07-.72-.09zm1.846-.8l.118.116-.54.477.422-.593zm-1.564 1.643l.117.113.446-.546-.563.433zm1.732-.037l-.108.124-.455-.559.563.436zm-1.646-1.577l-.109.106.57.48-.46-.586zm.248-.157l.139-.059.218.678-.357-.62zm.894 2.089l.155-.065-.347-.62.192.685zm.633-1.588l.055.14-.674.205.62-.345zm-2.069.865l.058.149.623-.327-.681.178zm1.377-1.437l.153.059-.314.647.161-.706zm-.804 2.119l.154.06.178-.679-.332.62zm1.583-.705l-.051.157-.64-.348.691.19zm-2.13-.831l-.059.139.692.237-.633-.376zm.574-.098l.038-.038.186.291-.224-.254zm.882-.01l-.038-.036-.147.278.185-.242zm-1.077.24l.021-.05.268.225-.289-.175zm.811-.353l-.05-.02-.038.32.088-.3zm-.898.615v-.053l.33.112-.33-.059zm.625-.623h-.053l.09.293-.037-.293zm-.607.848l-.001.051.294-.063-.293.012zm.908.605l-.052.01-.043-.295.094.285zm-.813-.333l.038.04.226-.16-.264.12zm.203.216l.036.04.174-.262-.21.222zm.262.115l.057.015.035-.306-.092.29zm.898-.575l.02-.05-.318-.031.298.081zm-.096-.538l-.02-.049-.257.184.277-.135zm.08.199l.02.048-.308.055.288-.103zm-.054.554l-.018.05-.292-.187.31.137zm-.208.237l-.039.036-.153-.268.192.232zm-.447-.484a.12.12 0 00.12-.122.119.119 0 00-.12-.118.119.119 0 00-.119.118.12.12 0 00.12.122h0zm-.078-.281c.088-.044.14-.007.14-.007l.024-.162c-.076-.046-.15-.028-.208 0l.044.169h0zm.003.34c.074.043.141 0 .141 0l.029.158c-.076.046-.15.029-.208 0l.039-.158h0zm-.09-.124c-.055-.062-.013-.119-.013-.119l-.157-.037c-.049.074-.031.15-.004.206l.173-.05h0zm.325.007c.045-.087-.008-.13-.008-.13l.18-.029c.044.075.025.15-.005.207l-.167-.048h0zm-.292-.205l-.028.03-.148-.061a.12.12 0 01.098-.106l.078.137h0zm.237-.01l.037.034.138-.055a.138.138 0 00-.107-.116l-.069.137h0zm.01.301l.027-.028.159.055a.168.168 0 01-.116.131l-.07-.158h0zm-.235.003l-.029-.027-.146.061a.14.14 0 00.109.115l.066-.15h0zm1.298-.132v.312l1.04.219v-.678l-1.04.147zm.006.352l1.034.233-.004.061-1.035-.253.005-.04zm-.009-.394l1.037-.173.003-.057-1.04.192v.037z" fill="#A9ABAD" stroke="#A9ABAD" stroke-width=".041"/><g stroke="#A9ABAD"><path fill="none" stroke-width=".113" stroke-linecap="round" stroke-linejoin="round" d="M25.49 35.328h1.02l.227 2.82-.74-1.367-.714 1.345.208-2.798h0zm.763.241l.087-.24m-.573.229l-.086-.23m-.34 2.148h1.34m-1.268-1.099h1.17m-1.11-.693h1.075m-.895-2.316h.652l.145 1.805-.453-.874-.477.86.133-1.791h0zm.555 1.357l.157-.499-.368-.371-.405.401.145.469h0m.411-.708l.182-.333-.333-.316-.368.401.191.248m.316-.492l.06-.157m-.362.157l-.06-.157m-.216 1.375h.858m-.791-.702h.749m-.726-.444h.687"/><path fill="none" stroke-width=".067" stroke-linecap="round" stroke-linejoin="round" d="M25.637 33.453l.038-.089h.605l.02.112.064-.201h-.775l.048.178z"/><path fill="none" stroke-width=".053" stroke-linecap="round" stroke-linejoin="round" d="M25.83 33.261v-.196h.304v.196l-.303-.177h.303l-.303.177z"/><path fill="none" stroke-width=".113" stroke-linecap="round" stroke-linejoin="round" d="M25.906 36.87v-1.559m0-.13V33.4m.17 3.47v-1.55m0-.14v-1.802m.34 4.76v.453h.888l.019-.472h-2.038l-.038.491m1.112-1.18l.256-.74-.618-.604-.6.604c.28.613.222.48.341.778.096.24-.147.326-.087.325.116 0 .113-.166.326-.187m.76.533l.057.453m-1.737 0h1.359"/><g fill="#A9ABAD"><path stroke-width=".067" d="M25.995 36.79v.766l.078.048v.96h-.15v-.96l.072-.048v-.766z"/><path stroke-width=".041" d="M24.925 38.498L25 38.44h.51l-.49-.057-.095.115z"/><path stroke-width=".041" d="M25.335 38.574c-.05-.029.019-.138-.03-.21a.194.194 0 00.131-.146c.01-.047-.018-.105-.005-.16.006-.03.032-.05.059-.064-.009.1-.02.211.049.28.038.036.075.078.108.116.03.037-.01.075-.027.121-.01.025-.06.065-.007.1-.096-.023-.207.006-.278-.037h0zm.402.018l-.01-.068s.084-.006.141-.021c.056-.014.102-.038.13-.038.025 0 .158.025.181.066.135.015.27-.01.301.013.012.01.02.027-.016.037-.074.022-.216.011-.216.011h-.511 0z"/></g><path fill="none" stroke-width=".113" stroke-linecap="round" stroke-linejoin="round" d="M25.382 36.87h1.246m-.532 0l.45-.984-.549-.558-.544.558.435.984"/><path fill="none" stroke-width=".065" stroke-linecap="round" stroke-linejoin="round" d="M25.471 35.415l.02-.11h1.018l.02.132.056-.245h-1.15l.036.223z"/></g><path fill="none" stroke="#A9ABAD" stroke-width=".089" d="M32.589 40.486l.006.062.31.05.006-.031-.322-.08zm-.011.337l.007.063.32-.022.006-.041h-.333 0zm.01.134l.007.062.31-.053.006-.06-.322.051h0z"/><path fill="none" stroke="#A9ABAD" stroke-width=".067" stroke-linecap="round" stroke-linejoin="round" d="M29.905 42.534l3.812.337v-.638l-3.812-.338v.639z"/><path fill="none" stroke="#A9ABAD" stroke-width=".089" stroke-linecap="round" stroke-linejoin="round" d="M29.905 42.44l1.29.103m0-.432l-1.271-.103m.713-.254l-.016-.963c-.01-.422.033-.895.222-1.15.133-.149.432-.225.564-.243.103-.283.638-.225.638-.225.095.074.113-.038.207.19 0 0 .28.072.375.316.188.113.433.45.45.676.227.28.227.47.057.788 0 0-.064.101-.08.129.012.064-.011.164-.011.164l.004.07"/><path fill="none" stroke="#A9ABAD" stroke-width=".067" stroke-linecap="round" stroke-linejoin="round" d="M33.185 40.671l-.003.148s.953.025 1.004.025c.045-.076-.01-.146-.01-.146l-.99-.027h0zm.606 1.167l-.01-.291-.712-.056v.261l.722.086h0zm-.01-.3l.132-.628.019.468-.141.46-.01-.3h0z"/><path fill="none" stroke="#A9ABAD" stroke-width=".059" stroke-linejoin="round" d="M34.076 40.56h-.102c-.063.03-.041.326.003.382h.117c-.043-.07-.068-.3-.018-.382h0z"/><path fill="none" stroke="#A9ABAD" stroke-width=".067" stroke-linecap="round" stroke-linejoin="round" d="M33.069 41.482l.254-.592.59.01"/><path fill="none" stroke="#A9ABAD" stroke-width=".062" stroke-linecap="round" stroke-linejoin="round" d="M33.726 42.826l.24-1.229v-.186l-.252.844"/><path fill="none" stroke="#A9ABAD" stroke-width=".067" stroke-linecap="round" stroke-linejoin="round" d="M31.385 39.42s.02-.02 0 0c-.182.182-.24.717-.254 1.195-.013.464.015.873.015.873m.915-2.275c-.113.151-.534.956-.077 2.647"/><path fill="none" stroke="#A9ABAD" stroke-width=".067" d="M33.041 40.448c-.019.076-.052.605-.006.678.152-.16.244-.45.006-.678h0z"/><path fill="none" stroke="#A9ABAD" stroke-width=".067" stroke-linecap="round" stroke-linejoin="round" d="M29.903 41.897l.469-.402.27.009-.008-.111m-.253-.556l.122-.187-.554-.02c-.066.029-.074.302-.038.34l.47.028v-.15h.216-.216v.638"/><path fill="none" stroke="#A9ABAD" stroke-width=".059" stroke-linejoin="round" d="M30.212 40.527h.16c-.095.085-.123.556-.085.583h-.17c-.058-.029-.049-.521.095-.583h0z"/><path fill="none" stroke="#A9ABAD" stroke-width=".089" stroke-linecap="round" stroke-linejoin="round" d="M29.91 40.724h.198m.489-.074h-.094m.188-.635c.184-.068.497-.052.497-.052"/><path fill="none" stroke="#A9ABAD" stroke-width=".067" d="M32.408 42.03l.357-.265.225-.158h.047l.01.167.178.02-.244.273-.573-.037z"/><linearGradient id="SVGID_5_" gradientUnits="userSpaceOnUse" x1="34.066" y1="40.676" x2="34.084" y2="40.676"><stop offset="0" stop-color="#fff"/><stop offset=".168" stop-color="#242425"/><stop offset=".264" stop-color="#939598"/><stop offset=".396" stop-color="#9ea0a3"/><stop offset=".542" stop-color="#7e8082"/><stop offset=".626" stop-color="#7b7d80"/><stop offset=".718" stop-color="#eaebec"/><stop offset=".791" stop-color="#fff"/><stop offset="1" stop-color="#000"/></linearGradient><path fill="url(#SVGID_5_)" stroke="#000" stroke-width=".024" d="M34.072 40.605s-.019.046.012.142"/><g fill="#A9ABAD" stroke="#A9ABAD" stroke-width=".041"><path d="M31.841 30.43a.162.162 0 00-.027-.086c.014-.157.096-.968-.128-1.772 0-.001-.125-.397-.153-.39-.027.008.042.227.079.4.134.641.054 1.52.035 1.725a.145.145 0 00-.066.123.15.15 0 00.043.108l.007.006c-.069.354-.22.88-.395 1.016-.003.001-.2.01-.2.034-.001.024.135.033.135.033.04.001.193.01.371-.387.144-.318.208-.576.23-.685.009-.005.018-.008.027-.017a.159.159 0 00.042-.108h0z"/><path d="M31.115 30.004a.354.354 0 00.354-.353.353.353 0 00-.706 0c0 .194.159.353.352.353h0zm.445-.862a5.665 5.665 0 00-1.029-.769.155.155 0 00-.039-.074.164.164 0 00-.115-.046.164.164 0 00-.114.044 1.809 1.809 0 00-.361-.04.04.04 0 00-.036.037c-.002.021.012.041.031.044.176.025.245.062.323.088a.15.15 0 00.04.085.166.166 0 00.172.037c.509.186 1.026.605 1.033.61.02.017.138.103.156.084.017-.02-.043-.081-.062-.1h0z"/><path d="M31.197 28.687c-.019-.02-.139.05-.16.07-.543.483-.938.979-1.023 1.114a.151.151 0 00-.112.15.16.16 0 00.022.08c-.061.12-.176.377-.193.604-.002.02-.002.274.019.278.058.009-.009-.125.032-.295.002-.003.09-.281.253-.511l.01.001a.13.13 0 00.096-.04.17.17 0 00.045-.116c0-.011-.003-.02-.005-.03.212-.428.748-1.05.754-1.057.02-.019.282-.227.262-.248h0z"/><path d="M32.909 29.362c-.005-.028-.213-.17-.4-.242-.087-.033-.571-.202-1.416-.202-.924 0-1.444.227-1.583.31-.225.134-.297.28-.297.28s.217-.118.315-.174c.335-.192.847-.235 1.565-.235.779 0 1.43.135 1.525.17.095.037.29.093.29.093h0z"/></g><path fill="#A9ABAD" stroke="#A9ABAD" stroke-width=".041" d="M31.773 40.078l.025-.13-.616-.005-.016.13.607.005zm-1.364.572s0-.089-.028-.117c0 0-.07.006-.1.308-.026.267.006.27.006.27.066-.02.085-.113.085-.113l-.04-.009s-.015-.126.005-.22c.02-.092.036-.14.072-.12h0z"/><path fill="none" stroke="#A9ABAD" stroke-width=".041" d="M30.337 40.648h-.182l.033-.093.174-.004-.025.097z"/><path fill="#A9ABAD" d="M30.54 41.288v-.385h-.084v.517h.14v-.132h-.056zm.733-1.06a.038.038 0 00.039-.04c0-.022-.017-.037-.04-.037a.038.038 0 00-.039.038c0 .022.019.04.04.04zm.393-.008a.04.04 0 00.04-.04.04.04 0 00-.04-.04.039.039 0 00-.039.04c0 .022.017.04.039.04zm.039-.366a.039.039 0 00.039-.04.04.04 0 00-.04-.04.04.04 0 00-.04.04c0 .023.019.04.04.04zm-.376.008c.021-.01.04-.018.04-.038a.04.04 0 00-.04-.04.04.04 0 00-.04.04c0 .02.02.048.04.038z"/><path fill="#A9ABAD" stroke="#A9ABAD" stroke-width=".041" d="M30.636 41.905l.551.046.122-.149s-.18-.252-.173-.418l.032.512-.028-.075-.504-.042v.126h0zm1.164.099l.184-.147s-.087-.287-.114-.506l-.027.343-.023.153-.02.157h0z"/><path fill="#A9ABAD" d="M32.709 41.507a.04.04 0 00.04-.04.039.039 0 00-.04-.04.039.039 0 00-.04.04c0 .021.017.04.04.04zm-.029-.179c.023 0 .04-.018.04-.04s-.017-.04-.04-.04c-.021 0-.04.018-.04.04s.019.04.04.04zm-.029-.178a.04.04 0 00.042-.04.04.04 0 00-.042-.04.04.04 0 00-.039.04c0 .022.019.04.04.04zm.029-.704a.04.04 0 000-.081c-.021 0-.04.02-.04.04 0 .022.019.04.04.04zm.029-.179a.04.04 0 00.04-.04.039.039 0 00-.04-.04.039.039 0 00-.04.04c0 .021.017.04.04.04zm.028-.17a.04.04 0 000-.079.04.04 0 00-.04.04.04.04 0 00.04.039zm.525 1.977c.074 0 .133-.01.133-.026 0-.014-.059-.026-.133-.026-.073 0-.133.012-.133.026 0 .016.06.026.133.026zm.029-.141c.036 0 .067-.01.067-.025 0-.016-.03-.027-.067-.027-.037 0-.066.011-.066.027 0 .015.029.025.066.025zm-.357.095c.037 0 .066-.011.066-.027 0-.014-.03-.026-.066-.026-.036 0-.066.012-.066.026 0 .016.03.027.066.027zM32.625 42c.036 0 .066-.013.066-.027 0-.016-.03-.027-.066-.027-.038 0-.067.01-.067.027 0 .014.03.027.067.027z"/><path fill="#A9ABAD" stroke="#A9ABAD" stroke-width=".041" d="M34.127 40.848c-.003.053-.014.088-.025.09-.02 0-.042-.083-.047-.186-.007-.105.005-.19.026-.19.016-.002.03.051.038.136h-.033s-.02.046.01.143l.03.007h0z"/><g fill="none" stroke="#A9ABAD" stroke-width=".067"><path d="M31.125 31.61c.353 0 .637-.87.637-1.94 0-1.07-.284-1.938-.637-1.938-.352 0-.637.869-.637 1.939s.285 1.939.637 1.939h0z"/><path d="M33.064 29.651c0-.364-.895-.636-1.939-.636-1.07 0-1.937.285-1.937.636 0 .353.867.638 1.937.638s1.939-.285 1.939-.638h0zm-.467 1.262c.23-.268-.244-1.049-1.057-1.745-.814-.695-1.658-1.043-1.887-.777-.229.27.245 1.049 1.058 1.746.813.696 1.658 1.044 1.886.776h0zm-.19-2.715c-.262-.235-1.052.222-1.765 1.02-.715.799-1.08 1.635-.816 1.871.261.235 1.052-.224 1.765-1.022.714-.798 1.078-1.635.816-1.87h0z"/></g><path fill="#A9ABAD" d="M32.615 40.023c-.001-.005-.133-.409-.49-.426h-.015l-.006.013-.034.077-.001.002v.003l-.02.102-.005.025.026.002c.299.02.38.103.452.175a.461.461 0 00.057.051l.058.046-.022-.07zm-.044.014c0-.001-.021-.05-.052-.106-.07-.066-.172-.13-.42-.152l-.005.023-.02-.027c.01 0 .015.002.026.004l.013-.077v.002-.004.002l.024-.054c-.005-.001-.009-.005-.014-.005l.023-.015-.009.02c.205.017.322.172.382.283l.036.031c.018.018.034.035.053.05l-.037.025zm-.001.478c-.006-.01-.166-.278-.587-.282h-.023l-.001.022-.003.09v.002l.006.083.002.02.019.002c.18.017.446.06.56.097l.057.018-.03-.052zm-.04.023c-.001 0-.016-.022-.043-.052a4.293 4.293 0 00-.48-.077l.002.018-.02-.021.018.003-.005-.065v.002-.002l.002-.062c-.007 0-.013-.004-.022-.004l.023-.022v.026a.675.675 0 01.482.204c.024.006.052.012.07.019l-.027.033z"/><path fill="#A9ABAD" d="M32.27 39.652c-.008-.003-.016-.004-.022-.007l.021.007zm.222 1.722l.008.043a.492.492 0 01-.008-.043zm.058-.416c-.004.001-.347.129-.505.132l-.027.001.004.025.027.183.004.022.02-.002c.12-.008.402-.112.506-.33l.025-.051-.053.02zm-.459.312l.004.024-.025-.02c.006 0 .015-.004.021-.004l-.02-.138-.025.003.023-.025.003.022c.124-.01.319-.069.423-.106.014-.018.032-.034.042-.055l.03.03-.072.025a.66.66 0 01-.404.244z"/><g fill="none" stroke="#A9ABAD" stroke-width=".149"><path d="M25.804 24.496c-.135.167-.245.316-.756.309-.394-.005-.571-.117-.751-.243-.185.187-.415.232-.666.232-.48 0-1.032-.342-1.032-1.127 0-.465.24-.82.666-.807.235.008.42.055.577.166.084-.067.264-.176.451-.176.667 0 .907.595 1.042.86.082.162.216.524.469.786h0z"/><path d="M28.484 24.53c-.135.164-.16.278-.667.275-.342-.002-.555-.032-.72-.167-.106.103-.523.164-.774.144-.582-.05-.873-.78-1.02-1.072-.077-.15-.185-.41-.391-.606.094-.1.448-.254.78-.254.408 0 .628.106.763.21.082-.065.299-.21.486-.21.663 0 .902.595 1.037.86.085.167.232.556.506.82h0z"/><path d="M31.144 24.53c-.136.164-.16.278-.668.275-.341-.002-.555-.032-.72-.167-.107.103-.523.164-.775.144-.582-.05-.87-.78-1.018-1.072-.078-.15-.186-.41-.391-.606.092-.1.448-.254.78-.254.407 0 .626.106.762.21.083-.065.3-.21.486-.21.663 0 .901.595 1.037.86.085.167.232.556.507.82h0z"/><path d="M33.802 24.53c-.135.164-.158.278-.666.275-.342-.002-.555-.032-.72-.167-.106.103-.524.164-.775.144-.582-.05-.872-.78-1.02-1.072-.076-.15-.186-.41-.391-.606.094-.1.449-.254.781-.254.407 0 .625.106.762.21.083-.065.3-.21.486-.21.664 0 .903.595 1.037.86.085.167.234.556.506.82h0z"/><path d="M36.46 24.53c-.135.164-.157.278-.666.275-.34-.002-.554-.032-.721-.167-.105.103-.522.164-.773.144-.582-.05-.87-.78-1.019-1.072-.077-.15-.185-.41-.392-.606.095-.1.45-.254.781-.254.408 0 .626.106.762.21.083-.065.3-.21.487-.21.663 0 .901.595 1.037.86.083.167.232.556.504.82h0z"/><path d="M38.93 24.393c-.053.217-.156.415-.476.412-.343-.003-.556-.032-.721-.167-.107.103-.521.164-.775.144-.581-.05-.87-.78-1.018-1.072-.078-.15-.186-.41-.391-.606.092-.1.448-.254.78-.254.408 0 .626.106.764.21.083-.065.299-.21.484-.21.664 0 .875.434 1.145.807.11.15.263.52.209.736h0z"/></g><path d="M34.424 23.047c.279.176.37.471.73.648-.242-.344-.619-.697-.27-.823-.16-.08-.4.14-.46.175h0zm.616 1.583c-.202-.195-.325-.573-.713-.67.308.285.544.62.231.816.2-.01.35-.059.481-.146h0zm2.044-1.583c.28.176.369.471.728.648-.242-.344-.616-.697-.27-.823-.16-.08-.311.118-.458.175h0zm.613 1.583c-.2-.195-.322-.573-.711-.67.309.285.55.634.238.83a.89.89 0 00.473-.16h0zm-13.876-1.603c.28.177.35.465.71.642-.241-.345-.59-.683-.243-.811-.195-.031-.373.11-.467.17h0zm.459 1.536c-.2-.197-.35-.628-.739-.726.309.286.58.736.265.933a.67.67 0 00.475-.207h0zm2.167-1.51c.278.177.37.465.729.642-.241-.344-.59-.697-.241-.823-.163-.08-.342.125-.488.181h0zm.615 1.577c-.202-.195-.325-.573-.713-.67.308.285.544.613.23.81a.918.918 0 00.483-.14h0zm2.045-1.583c.278.176.37.471.728.648-.242-.344-.616-.697-.27-.823-.16-.045-.312.118-.458.175h0zm.614 1.583c-.2-.195-.326-.573-.713-.67.308.285.558.613.245.81.2-.01.337-.053.468-.14h0zm2.046-1.583c.277.176.367.471.728.648-.243-.344-.619-.697-.27-.823-.16-.08-.314.118-.458.175h0zm.613 1.583c-.202-.195-.325-.573-.713-.67.308.285.545.613.231.81a.911.911 0 00.482-.14h0z" fill="#A9ABAD" stroke="#A9ABAD" stroke-width=".045"/><path fill="#A9ABAD" d="M24.923 24.514c.286.026.575-.025.608-.062-.041.171-.286.242-.668.215-.407-.028-.657-.411-.717-.48-.132-.15-.1-.932-.872-1.247.947 0 .892 1.502 1.65 1.574zm2.912.039c.176 0 .413-.077.445-.115-.04.17-.232.27-.504.27-.41 0-.971-.533-1.031-.601-.069-.079-.182-.4-.764-.4-.534 0-.523-.629-.692-.629.064-.038.227-.138.423-.138.947 0 1.362 1.613 2.123 1.613zm2.659 0c.176 0 .413-.077.447-.115-.043.17-.234.27-.507.27-.408 0-.968-.533-1.03-.601-.068-.079-.181-.4-.765-.4-.531 0-.522-.629-.69-.629a.834.834 0 01.422-.138c.947 0 1.363 1.613 2.123 1.613zm2.658 0c.178 0 .415-.077.446-.115-.04.17-.23.27-.504.27-.41 0-.97-.533-1.03-.601-.069-.079-.183-.4-.765-.4-.533 0-.523-.629-.691-.629a.828.828 0 01.422-.138c.946 0 1.362 1.613 2.122 1.613zm2.658 0c.18 0 .416-.077.447-.115-.041.17-.232.27-.505.27-.41 0-.968-.533-1.028-.601-.07-.079-.184-.4-.766-.4-.531 0-.524-.629-.691-.629.063-.038.228-.138.422-.138.948 0 1.362 1.613 2.122 1.613zm2.662 0c.176 0 .212.156-.06.156-.41 0-.969-.534-1.03-.602-.067-.079-.181-.4-.764-.4-.533 0-.524-.629-.693-.629.064-.038.227-.138.424-.138.947 0 1.362 1.613 2.123 1.613z"/><path fill="none" stroke="#A9ABAD" stroke-width=".067" d="M32.777 39.91c.08.086.173.23.21.38-.03.06-.079.989-.006 1.103l-.3.262c-.216-.546-.128-1.676-.022-1.844 0 0 .054.027.118.098h0z"/><path fill="#A9ABAD" d="M32.581 41.669a2.545 2.545 0 01-.114-.553l-.003-.028-.022.02a.683.683 0 01-.358.171l-.023-.155a1.67 1.67 0 00.387-.092l.01-.004v-.01a3.822 3.822 0 01-.004-.52v-.011l-.01-.003a5.17 5.17 0 00-.445-.068l-.005-.072.003-.072a.679.679 0 01.438.155l.022.019.002-.028c.015-.184.036-.345.06-.467v-.007l-.005-.006c-.074-.069-.178-.131-.425-.152l.016-.086.028-.064c.151.01.277.094.372.252l.019.031.007-.036c.016-.073.03-.136.042-.18V39.7c-.006-.097-.188-.242-.294-.276-.05-.015-.074-.002-.085.012-.232.295-.262.81-.247 1.189.018.478.117.923.206 1.152l.003.01h.01l.264.015h.006l.004-.002.145-.122-.004-.01zm-.329-2.197a.04.04 0 01.04.04.04.04 0 01-.04.04.04.04 0 01-.04-.04.04.04 0 01.04-.04zm-.133.4a.04.04 0 010 .08.04.04 0 01-.04-.04.04.04 0 01.04-.04zm-.028.23a.04.04 0 01.039.04.04.04 0 01-.04.038.038.038 0 01-.039-.038.04.04 0 01.04-.04zm-.038.392a.04.04 0 01.04.04.04.04 0 01-.04.04.04.04 0 01-.04-.04.04.04 0 01.04-.04zm.01.224a.04.04 0 01.04.04.04.04 0 01-.04.039c-.022 0-.04-.018-.04-.038a.04.04 0 01.04-.04zm.012.245a.04.04 0 01.039.04.04.04 0 01-.04.04.04.04 0 01-.04-.04.04.04 0 01.04-.04zm.047.426a.04.04 0 01.04-.041.04.04 0 01.041.04.04.04 0 01-.041.041.04.04 0 01-.04-.04zm.039.151c0-.022.019-.039.041-.039a.04.04 0 01.04.04.04.04 0 01-.04.04.042.042 0 01-.041-.04zm.08.21a.039.039 0 01-.039-.04.04.04 0 01.04-.038.04.04 0 01.04.038.04.04 0 01-.04.04z"/></svg>