<svg version="1.1" id="Layer_1" xmlns="http://www.w3.org/2000/svg" x="0" y="0" width="190" height="62" viewBox="0 0 190 62" xml:space="preserve"><path d="M111.582 9.63H114v10.837h-2.418l-5.163-6.79v6.79H104V9.63h2.264l5.318 6.977V9.63zm12.805 10.837l-1.007-2.341h-4.543l-1.007 2.341h-2.574l4.683-10.837h2.34l4.683 10.837h-2.575zm-3.27-7.612l-1.365 3.147h2.713l-1.348-3.147zm10.899-1.132v8.745h-2.42v-8.745h-3.069V9.63h8.559v2.093h-3.07zm4.836-2.093h2.419v10.837h-2.419V9.63zm14.202 9.341c-1.096 1.07-2.444 1.605-4.046 1.605-1.603 0-2.951-.535-4.047-1.605-1.096-1.07-1.643-2.4-1.643-3.992s.547-2.923 1.643-3.993c1.096-1.07 2.444-1.604 4.047-1.604 1.602 0 2.95.535 4.046 1.604s1.644 2.401 1.644 3.993c0 1.591-.548 2.923-1.644 3.992zm-.822-3.985c0-.966-.31-1.79-.93-2.473s-1.382-1.023-2.287-1.023-1.667.341-2.287 1.023c-.62.683-.93 1.507-.93 2.473 0 .967.31 1.789.93 2.466.62.677 1.382 1.015 2.287 1.015s1.667-.338 2.287-1.015c.62-.677.93-1.499.93-2.466zm12.094-5.356h2.418v10.837h-2.418l-5.163-6.79v6.79h-2.419V9.63h2.264l5.318 6.977V9.63zm12.806 10.837l-1.008-2.341h-4.542l-1.008 2.341H166l4.683-10.837h2.341l4.682 10.837h-2.574zm-3.271-7.612l-1.365 3.147h2.713l-1.348-3.147zm7.1 7.612V9.63h2.419v8.682H186v2.155h-7.039zm-69.333 13.874c1.188 0 2.16-.47 2.914-1.41l1.55 1.596c-1.23 1.385-2.679 2.078-4.348 2.078s-3.044-.527-4.124-1.582c-1.08-1.054-1.62-2.385-1.62-3.992 0-1.607.55-2.948 1.65-4.023 1.101-1.075 2.448-1.613 4.04-1.613 1.777 0 3.265.678 4.465 2.031l-1.504 1.706c-.765-.951-1.715-1.427-2.853-1.427-.91 0-1.688.298-2.333.892-.647.594-.97 1.395-.97 2.403s.305 1.817.915 2.426c.61.61 1.35.915 2.218.915zm14.015 2.139l-1.007-2.34h-4.543l-1.007 2.34h-2.574l4.683-10.837h2.34l4.683 10.838h-2.575zm-3.27-7.612l-1.365 3.148h2.713l-1.349-3.148zm14.681-3.225h2.419v10.838h-2.419l-5.163-6.791v6.79h-2.418V25.644h2.263l5.318 6.977v-6.977zm10.063 8.698c1.188 0 2.16-.47 2.914-1.41l1.55 1.596c-1.23 1.385-2.679 2.078-4.348 2.078s-3.044-.527-4.124-1.582c-1.08-1.054-1.62-2.385-1.62-3.992 0-1.607.55-2.948 1.65-4.023s2.448-1.613 4.04-1.613c1.777 0 3.265.678 4.465 2.031l-1.504 1.706c-.764-.951-1.715-1.427-2.853-1.427-.91 0-1.688.298-2.333.892-.647.594-.97 1.395-.97 2.403s.305 1.817.915 2.426c.61.61 1.35.915 2.218.915zm14.186-8.698v2.155h-5.396v2.233h4.854v2.062h-4.854v2.248h5.567v2.14h-7.985V25.643h7.814zm11.117 3.597c0 1.737-.688 2.859-2.063 3.365l2.745 3.876h-2.977l-2.403-3.457h-1.674v3.457h-2.419V25.644h4.109c1.684 0 2.885.284 3.604.853.718.568 1.077 1.483 1.077 2.744zm-2.915 1.287c.3-.269.45-.695.45-1.279 0-.583-.156-.984-.466-1.202-.31-.217-.853-.325-1.628-.325h-1.814v3.21h1.768c.827 0 1.39-.135 1.69-.404zM104 41.657h2.419v10.837H104V41.657zm12.667 0h2.419v10.837h-2.42l-5.162-6.79v6.79h-2.419V41.657h2.264l5.318 6.977v-6.977zm7.62 2.163c-.232.191-.35.444-.35.76s.143.565.427.751c.284.186.94.406 1.97.66 1.028.253 1.826.632 2.395 1.139.569.506.853 1.245.853 2.217s-.364 1.76-1.093 2.364c-.729.605-1.688.907-2.876.907-1.716 0-3.262-.635-4.636-1.907l1.442-1.767c1.168 1.023 2.248 1.535 3.24 1.535.445 0 .794-.096 1.047-.287s.38-.45.38-.775-.135-.584-.403-.775c-.27-.192-.801-.385-1.597-.582-1.261-.3-2.184-.69-2.768-1.17-.584-.481-.875-1.236-.875-2.264 0-1.028.37-1.822 1.108-2.38.74-.558 1.662-.837 2.768-.837.723 0 1.447.124 2.17.372.723.248 1.354.6 1.891 1.054l-1.224 1.768c-.941-.713-1.913-1.07-2.915-1.07-.403 0-.721.096-.954.287zm11.853-.07v8.745h-2.419V43.75h-3.07v-2.093h8.56v2.093h-3.07zm4.837-2.093h2.419v10.837h-2.42V41.657zm9.675 2.093v8.745h-2.42V43.75h-3.069v-2.093h8.559v2.093h-3.07zm7.705 5.946c.403.501.945.752 1.628.752.681 0 1.221-.25 1.62-.752.398-.501.597-1.186.597-2.054v-5.985h2.418v6.062c0 1.572-.434 2.778-1.302 3.62-.869.843-1.98 1.264-3.333 1.264-1.355 0-2.468-.424-3.342-1.271-.873-.848-1.31-2.052-1.31-3.613v-6.062h2.419v5.985c0 .868.201 1.553.605 2.054zm13.364-5.946v8.745h-2.418V43.75h-3.07v-2.093h8.559v2.093h-3.07zm12.651-2.093v2.155h-5.395v2.233h4.853v2.062h-4.853v2.248h5.566v2.14h-7.985V41.656h7.814z" fill="#BB0E3D"/><path fill="#606060" d="M79 31L64 4H9.769C6.583 4 4 6.59 4 9.786v42.428C4 55.41 6.583 58 9.769 58H64l15-27z"/><path fill="#BB0E3D" d="M77.501 6.815A5.857 5.857 0 0072.486 4H68l15.201 27L68 58h4.486a5.857 5.857 0 005.015-2.815L91 31 77.501 6.815z"/><path d="M36 19h4v24h-4zm-23 0v24h4V25.4L28 43h4V19h-4v17.6L17 19zm35 0h-4v24h4V33h11v10h4V19h-4v10H48z" fill="#FFF"/></svg>